<?xml version="1.0" encoding="UTF-8"?>
<svg width="63px" height="51px" viewBox="0 0 63 51" version="1.1" xmlns="http://www.w3.org/2000/svg" xmlns:xlink="http://www.w3.org/1999/xlink">
    <!-- Generator: Sketch 49.1 (51147) - http://www.bohemiancoding.com/sketch -->
    <title>Credit Cards</title>
    <desc>Created with Sketch.</desc>
    <defs></defs>
    <g id="Symbols" stroke="none" stroke-width="1" fill="none" fill-rule="evenodd">
        <g id="certification" fill="#4B6584">
            <path d="M62.4275921,48.2784778 C62.4275921,49.4608447 61.4739604,50.4226724 60.3022414,50.4226724 L14.1810445,50.4226724 C13.0093254,50.4226724 12.0556938,49.4608447 12.0556938,48.2784778 L12.0556938,20.2365232 C12.0556938,19.0541563 13.0093254,18.0923286 14.1810445,18.0923286 L60.3022414,18.0923286 C61.4739604,18.0923286 62.4275921,19.0541563 62.4275921,20.2365232 L62.4275921,48.2784778 Z M9.67733886,43.0836844 C9.1249652,43.2153151 8.5548469,43.12352 8.07116219,42.8244643 C7.58747749,42.524254 7.2491844,42.052 7.11753057,41.4948789 L5.63213198,35.2089364 L11.4832859,33.6570799 L11.4832859,42.6501114 L9.67733886,43.0836844 Z M0.888587431,12.4247039 C1.18623956,11.9374394 1.65389684,11.5956615 2.2068429,11.4628761 L47.2530577,0.636252258 C48.3910047,0.361444336 49.5415446,1.07386655 49.8134384,2.2244804 L53.4259049,17.515001 L14.1810445,17.515001 C12.6933563,17.515001 11.4832859,18.7354715 11.4832859,20.2365232 L11.4832859,33.0601231 L5.49990575,34.647774 L0.631576268,14.0452624 C0.499922443,13.4881413 0.591507713,12.9125457 0.888587431,12.4247039 L0.888587431,12.4247039 Z M60.3022414,17.515001 L54.0149127,17.515001 L50.3703913,2.0905404 C50.0258018,0.631633638 48.569596,-0.273615989 47.1202591,0.0745125342 L2.07404426,10.9017137 C1.37284454,11.0702934 0.778685107,11.5038664 0.401468278,12.1227616 C0.0231066336,12.7416567 -0.0925197692,13.4719761 0.0746233477,14.1797797 L6.56057765,41.6288189 C6.72772077,42.3360452 7.15759913,42.9347339 7.77122044,43.3157701 C8.20224361,43.5830727 8.68650072,43.7198994 9.17991636,43.7198994 C9.38941767,43.7198994 9.60063619,43.6956516 9.8101375,43.6454241 L11.4832859,43.2436041 L11.4832859,48.2784778 C11.4832859,49.7795295 12.6933563,51 14.1810445,51 L60.3022414,51 C61.7899296,51 63,49.7795295 63,48.2784778 L63,20.2365232 C63,18.7354715 61.7899296,17.515001 60.3022414,17.515001 L60.3022414,17.515001 Z M14.9180197,43.4946839 L30.3730339,43.4946839 L30.3730339,42.9173563 L14.9180197,42.9173563 L14.9180197,43.4946839 Z M14.9180197,39.4533909 L42.3936006,39.4533909 L42.3936006,38.8760633 L14.9180197,38.8760633 L14.9180197,39.4533909 Z" id="Credit-Cards"></path>
        </g>
    </g>
</svg>