<?xml version="1.0" encoding="UTF-8"?>
<svg width="63px" height="51px" viewBox="0 0 63 51" version="1.1" xmlns="http://www.w3.org/2000/svg" xmlns:xlink="http://www.w3.org/1999/xlink">
    <!-- Generator: Sketch 49.1 (51147) - http://www.bohemiancoding.com/sketch -->
    <title>Money #3 Copy</title>
    <desc>Created with Sketch.</desc>
    <defs></defs>
    <g id="Symbols" stroke="none" stroke-width="1" fill="none" fill-rule="evenodd">
        <g id="Money" fill="#4B6584">
            <path d="M43.7010114,50.4175775 L43.7010114,48.9432299 C43.7223847,48.9432299 43.7437581,48.944972 43.7657091,48.944972 C46.2259561,48.944972 48.5643172,48.4194562 50.6825905,47.4787539 L51.295486,48.817803 C48.9912068,49.844446 46.4448886,50.4193196 43.7657091,50.4193196 C43.7437581,50.4193196 43.7223847,50.4175775 43.7010114,50.4175775 L43.7010114,50.4175775 Z M30.3588359,44.6885845 L31.3957327,43.6462632 C33.1287078,45.4533406 35.2481364,46.8829758 37.6205793,47.7987088 L37.1122399,49.1818896 C34.5399272,48.1912488 32.2408469,46.6448968 30.3588359,44.6885845 L30.3588359,44.6885845 Z M19.2348686,38.0897322 C17.0946443,38.0897322 15.0404911,37.7210001 13.1238206,37.0508949 L13.6310047,35.6682948 C15.277331,36.2402651 17.0345678,36.5666075 18.8617012,36.6060937 L18.8617012,37.9370133 L19.4393596,37.9370133 L19.4393596,36.6113199 C21.3277249,36.589254 23.1750763,36.2605889 24.9398227,35.6357767 C25.0414905,36.1218063 25.1645318,36.5997062 25.3014368,37.0723801 C23.3535728,37.744808 21.315594,38.0897322 19.2348686,38.0897322 L19.2348686,38.0897322 Z M5.82799534,32.3584165 L6.86489212,31.3160951 C8.59786725,33.1243339 10.7167182,34.5533884 13.0891611,35.4697021 L12.5819771,36.8528829 C10.0096643,35.8622421 7.71000633,34.3153095 5.82799534,32.3584165 L5.82799534,32.3584165 Z M0.489276643,18.6351961 C0.55801799,16.7595983 0.947359734,14.9443913 1.54581381,13.2081569 L2.94779069,13.7185749 C2.40305884,15.3096393 2.13906896,16.972708 2.07552654,18.6909414 C2.06859464,18.9034704 2.10960838,19.1200642 2.10960838,19.3354967 L2.10960838,19.3552398 L0.37663326,19.3552398 L0.37663326,19.3354967 C0.37663326,19.1009018 0.481767084,18.8663069 0.489276643,18.6351961 L0.489276643,18.6351961 Z M2.84554515,10.3628228 C3.64791264,8.8855718 4.65419352,7.53490914 5.80951027,6.33173931 L6.8458294,7.37406066 C5.78986989,8.47735346 4.8696601,9.71478344 4.1354563,11.0677688 C3.76344431,11.7529717 3.44630986,12.4567564 3.17365511,13.1744774 L1.79651755,12.6634786 C2.09458927,11.8801407 2.44002897,11.1107392 2.84554515,10.3628228 L2.84554515,10.3628228 Z M18.8617012,0.589971308 L18.8617012,2.0643189 C16.6059453,2.11193469 14.4206637,2.58809264 12.3624669,3.49105069 C12.3382052,3.50208362 12.3145212,3.51543927 12.2902596,3.5264722 L11.6767864,2.18800383 C11.7108682,2.17290613 11.7426394,2.15374368 11.7767213,2.13864599 C14.0215017,1.15497336 16.4037649,0.638167782 18.8617012,0.589971308 L18.8617012,0.589971308 Z M35.9164871,10.9162112 L34.5664995,11.5410234 C33.6849928,9.80014346 32.5198559,8.24217789 31.1409853,6.91300041 L32.2079203,5.83990299 C33.6994343,7.29160404 34.9639284,8.9953204 35.9164871,10.9162112 L35.9164871,10.9162112 Z M36.0759208,13.9369108 C35.923419,14.003689 35.7784268,14.085565 35.6276579,14.156408 C35.4029488,13.4352029 35.13376,12.7360637 34.8212468,12.0624744 L36.1544824,11.4452111 C36.4681509,12.1286719 36.7500481,12.833618 36.9845774,13.5652753 C36.6795738,13.6808307 36.3763032,13.8045156 36.0759208,13.9369108 L36.0759208,13.9369108 Z M50.0298365,14.0007856 L49.5214971,15.3845471 C47.720936,14.7394111 45.7840475,14.3846154 43.7657091,14.3846154 C43.7437581,14.3846154 43.7223847,14.3863574 43.7010114,14.3863574 L43.7010114,12.9120098 C43.7223847,12.9120098 43.7437581,12.9102678 43.7657091,12.9102678 C45.9625439,12.9102678 48.0704193,13.297001 50.0298365,14.0007856 L50.0298365,14.0007856 Z M60.4328862,23.2527668 L59.0996507,23.8694494 C58.2233429,22.134957 57.0651379,20.5682812 55.6839567,19.2303935 L56.7208535,18.1880721 C58.2239206,19.6484834 59.4826382,21.3585872 60.4328862,23.2527668 L60.4328862,23.2527668 Z M60.9527787,31.5495286 C60.9360266,28.9945348 60.3641448,26.5713554 59.3532427,24.3914811 L60.6847452,23.7747985 C61.7822961,26.1416519 62.4027012,28.7744569 62.4194533,31.5495286 L60.9527787,31.5495286 Z M59.9551627,37.4701462 C60.5513061,35.7931411 60.8944352,33.998258 60.9441138,32.130209 L62.4107885,32.130209 C62.3611098,34.1776882 61.9862096,36.1450335 61.331145,37.9805643 L59.9551627,37.4701462 Z M56.0744537,43.7095573 C57.6474175,42.0859749 58.9044021,40.1534704 59.7489387,38.0125017 L61.1249209,38.5229198 C60.2058664,40.8653846 58.8321948,42.9784807 57.1113505,44.7518787 L56.0744537,43.7095573 Z M55.6643163,44.1183563 L56.7012131,45.160097 C55.2726639,46.5444391 53.6292258,47.7052193 51.8223105,48.5785626 L51.2082596,47.2395136 C52.8580519,46.4399167 54.3576531,45.3801749 55.6643163,44.1183563 L55.6643163,44.1183563 Z M50.0616077,15.5901079 L50.5699471,14.2075079 C52.6974629,15.0483331 54.638395,16.2660199 56.3026288,17.7874027 L55.263999,18.831466 C53.7493788,17.4587375 51.9892537,16.3560254 50.0616077,15.5901079 L50.0616077,15.5901079 Z M28.1383171,38.8510042 C28.8707879,40.4548436 29.837788,41.9280298 30.999459,43.2229471 L29.9602516,44.2675912 C28.6772724,42.8495696 27.6120703,41.2306326 26.8068145,39.4682675 L28.1383171,38.8510042 Z M25.1200521,32.130209 L26.5867267,32.130209 C26.6444925,34.3176322 27.1054639,36.4069203 27.9026325,38.320843 L26.5693969,38.938687 C25.6855796,36.8360432 25.1789732,34.5377101 25.1200521,32.130209 L25.1200521,32.130209 Z M31.7862297,19.2936877 L30.7499106,18.251947 C32.1957895,16.8356674 33.8629116,15.6568862 35.688312,14.7719292 L36.3017852,16.1103976 C34.6340855,16.9210275 33.1096451,17.9999317 31.7862297,19.2936877 L31.7862297,19.2936877 Z M27.703918,25.5040648 L26.3279357,24.9936467 C26.6254298,24.2091474 26.9708695,23.4403265 27.3769634,22.6918295 C28.1799085,21.2145785 29.1856117,19.8650772 30.3403508,18.6613267 L31.3766699,19.7030674 C30.3207104,20.8075215 29.4005006,22.0449515 28.6662968,23.3979369 C28.2942848,24.0825591 27.9771504,24.7863438 27.703918,25.5040648 L27.703918,25.5040648 Z M26.586149,31.0205288 C26.5797948,31.1953136 26.5774842,31.3724211 26.5763288,31.5495286 L25.1102319,31.5495286 C25.1113872,31.3538393 25.1142755,31.15815 25.1212074,30.9647834 C25.1899487,29.0897664 25.5290342,27.27514 26.1269106,25.5377442 L27.5028929,26.0475816 C26.958161,27.6392267 26.6485361,29.3028761 26.586149,31.0205288 L26.586149,31.0205288 Z M36.8933074,15.8206381 C36.8684681,15.8310903 36.8459394,15.8450266 36.8211001,15.8554789 L36.2070493,14.5175912 C36.2411311,14.5024935 36.27348,14.4833311 36.3069842,14.468814 C38.4691595,13.5205629 40.7595749,13.0060801 43.123353,12.9271075 L43.123353,14.4014551 C40.9634883,14.479847 38.870632,14.9536822 36.8933074,15.8206381 L36.8933074,15.8206381 Z M24.98488,3.07238011 C23.2311092,2.44001913 21.3635397,2.08696543 19.4393596,2.06373822 L19.4393596,0.588229266 C21.5541669,0.612037164 23.593301,0.988318076 25.5007289,1.66597213 L24.98488,3.07238011 Z M25.5232576,3.2802637 L26.0414172,1.86979096 C28.1677777,2.70074464 30.1115981,3.91262468 31.7856521,5.44387895 L30.722183,6.5129116 C29.1988979,5.13844104 27.4364622,4.04443913 25.5232576,3.2802637 L25.5232576,3.2802637 Z M7.25538919,6.96468097 L6.21907006,5.92235961 C7.66494897,4.50608007 9.33207104,3.32671813 11.1568938,2.44292253 L11.7715224,3.7813909 C10.103245,4.59260145 8.57822686,5.67034431 7.25538919,6.96468097 L7.25538919,6.96468097 Z M2.0385564,26.6096803 C1.17149118,24.5465227 0.667195423,22.2946441 0.592677492,19.9359202 L2.05935211,19.9359202 C2.13213706,22.0745662 2.59079781,24.1168192 3.37236959,25.9912556 L2.0385564,26.6096803 Z M3.60747655,26.5219975 C4.33994737,28.1246755 5.30694749,29.5984424 6.46861848,30.8939404 L5.42998872,31.9385845 C4.14700947,30.5194016 3.08180743,28.9010452 2.275974,27.1386801 L3.60747655,26.5219975 Z M19.2348686,36.0347042 C10.2748095,36.0347042 2.95298961,28.8667851 2.63701048,19.9359202 L2.68726676,19.9359202 L2.68726676,19.3552398 L2.68726676,19.3354967 C2.68726676,19.1264517 2.65838384,18.9174067 2.6658934,18.7118459 C2.76120703,16.1040101 3.42089289,13.6262468 4.65823713,11.3459147 C6.42009518,8.10165323 9.23560209,5.50078563 12.6021951,4.02353464 C14.700828,3.10257549 16.9305893,2.63570843 19.2389122,2.63570843 C26.4902577,2.63570843 32.9773613,7.46871157 35.1071877,14.412488 C31.6435481,16.1748531 28.7390818,18.9754748 26.8715123,22.4136836 C25.4383418,25.0557795 24.6544594,27.9255021 24.5441267,30.9438789 C24.5354618,31.1825386 24.5308405,31.423521 24.5308405,31.665084 C24.5308405,32.8229608 24.638285,33.9558683 24.8335335,35.0585804 C23.0404819,35.7037164 21.1596263,36.0347042 19.2348686,36.0347042 L19.2348686,36.0347042 Z M27.1528319,31.665084 C27.1528319,31.4560391 27.1562979,31.2469941 27.1638074,31.0414333 C27.2585434,28.4353395 27.9344037,25.9569955 29.1729032,23.6755021 C30.9347613,20.4306599 33.7589331,17.8297923 37.1243708,16.3525413 C39.2235813,15.4321629 41.4579639,14.9652958 43.7657091,14.9652958 C52.9262156,14.9652958 60.3780086,22.4572346 60.3780086,31.665084 C60.3780086,40.8729335 52.9262156,48.3642916 43.7657091,48.3642916 C34.6052026,48.3642916 27.1528319,40.8729335 27.1528319,31.665084 L27.1528319,31.665084 Z M43.123353,48.9287129 L43.123353,50.4030605 C41.2141921,50.3374436 39.3778161,49.9832286 37.6546612,49.381063 L38.1624229,47.9973015 C39.7272994,48.5413991 41.3926885,48.8642574 43.123353,48.9287129 L43.123353,48.9287129 Z M37.5293093,13.3748121 C34.9523753,5.36722913 27.6334437,0 19.2348686,0 C16.5649316,0 13.9775997,0.540032791 11.5456579,1.60674272 C7.6493522,3.31684656 4.3798058,6.32709387 2.33893876,10.0846769 C0.905768331,12.7267728 0.123041234,15.5959147 0.0121308259,18.6142916 C0.00404360862,18.8529512 0,19.0945143 0,19.3354967 C0,29.9967892 8.62848314,38.6704126 19.2348686,38.6704126 C21.3727822,38.6704126 23.4685268,38.3167782 25.4706907,37.6275106 C27.9771504,45.3790135 35.2290736,51 43.7657091,51 C54.3720945,51 63,42.3263766 63,31.665084 C63,21.0037915 54.3720945,12.3295874 43.7657091,12.3295874 C41.6197082,12.3295874 39.5297402,12.6849638 37.5293093,13.3748121 Z M44.2786697,41.4209796 L44.2786697,39.1348408 C46.0116449,39.0297377 46.7701103,38.6011955 47.5516821,37.8497951 C48.3332539,37.0983946 48.7815168,36.0961402 48.7815168,34.8436125 C48.7815168,33.5823746 48.4372324,32.6062509 47.6903201,31.9152412 C46.9439855,31.2248121 45.8071538,30.6191625 44.2526751,30.0988728 C42.8027526,29.6157467 41.8299759,29.1117161 41.3199035,28.5862003 C40.8086759,28.0618459 40.5568168,27.3690941 40.5568168,26.5079451 C40.5568168,25.6171813 40.8468013,24.8802979 41.4215714,24.2943913 C41.9957638,23.7090654 42.8391451,23.4164025 43.9511374,23.4164025 C45.0325139,23.4164025 45.8741622,23.873398 46.4749269,24.5905383 C47.0756916,25.307098 47.3766516,26.3232887 47.3766516,27.4846495 L48.6388351,27.4846495 L48.6723393,27.3301886 C48.6873585,25.8506148 48.1934605,24.6277019 47.4725429,23.759004 C46.7516252,22.8920481 46.0116449,22.3479505 44.2786697,22.227169 L44.2786697,19.9358041 L43.123353,19.9358041 L43.123353,22.227169 C41.9680362,22.3334335 40.9542458,22.7706859 40.2027122,23.5412488 C39.452334,24.311231 39.1484857,25.3076786 39.1484857,26.5300109 C39.1484857,27.8075079 39.5597785,28.7964066 40.3107344,29.4984492 C41.0622679,30.2004919 42.2366474,30.8003347 43.7986356,31.2991392 C45.165953,31.7915562 46.1283319,32.302555 46.6690201,32.8327162 C47.210286,33.3622968 47.4846737,34.0451769 47.4846737,34.8778727 C47.4846737,35.7790887 47.1623403,36.5241017 46.5124747,37.1111696 C45.8631867,37.6982375 44.9828353,37.9914811 43.8714206,37.9914811 C42.7981313,37.9914811 41.8825428,37.8230838 41.1240774,37.2307897 C40.3650342,36.637915 39.986668,35.6141754 39.986668,34.4528146 L38.7250621,34.4528146 L38.6909803,34.3924238 C38.660942,35.9869723 38.9676786,37.1134923 39.8647821,37.9014756 C40.7624632,38.691201 41.9680362,39.0634171 43.123353,39.1464544 L43.123353,41.4209796 L44.2786697,41.4209796 Z M19.7361027,17.7690531 C18.2867579,17.2865077 17.3064716,16.7824771 16.7958216,16.2569613 C16.2845939,15.7320262 16.0298466,15.0392745 16.0298466,14.1781254 C16.0298466,13.2879423 16.3175205,12.5504782 16.8922906,11.9651523 C17.466483,11.3792458 18.3092865,11.0865829 19.4212789,11.0865829 C20.5020777,11.0865829 21.343726,11.3211778 21.9444907,12.0377374 C22.5452554,12.7548777 22.8462154,13.5480872 22.8462154,14.709448 L24.1078213,14.709448 L24.1419032,14.778549 C24.155767,13.2983946 23.7976188,12.1863916 23.0761235,11.318855 C22.3552058,10.4507378 21.1721615,10.0187116 20.0168447,9.89793005 L20.0168447,7.74128296 L18.861528,7.74128296 L18.861528,9.89793005 C17.7062112,10.0036139 16.5578264,10.4414469 15.8062928,11.2120098 C15.0559146,11.9819921 14.6850579,12.9784397 14.6850579,14.200772 C14.6850579,15.4776882 15.0628465,16.466587 15.8138024,17.1692103 C16.5647583,17.8706722 17.7229633,18.4710958 19.2849515,18.9693196 C20.6522689,19.4623173 21.6054052,19.9727353 22.1466711,20.5034773 C22.687937,21.0330578 22.9582811,21.7153573 22.9582811,22.5486337 C22.9582811,23.449269 22.6342148,24.194282 21.9837715,24.7813499 C21.3350611,25.3684178 20.4529768,25.6616614 19.3409844,25.6616614 C18.2682728,25.6616614 17.3521066,25.2702828 16.5936412,24.6779888 C15.8345981,24.0851141 15.4556542,23.4196543 15.4556542,21.6776131 L14.1940483,21.6776131 L14.1599664,21.8402036 C14.1299282,23.4341713 14.5712592,24.672182 15.4689403,25.460746 C16.3660438,26.2504714 17.7062112,26.7341782 18.861528,26.8172155 L18.861528,29.2264585 L20.0168447,29.2264585 L20.0168447,26.8056019 C21.1721615,26.699918 22.3736909,26.2713759 23.1558403,25.5205561 C23.9362568,24.7685749 24.3186666,23.7669012 24.3186666,22.5137929 C24.3186666,21.252555 23.9397227,20.2770119 23.1928104,19.5854215 C22.4458982,18.8949925 21.2905814,18.2893428 19.7361027,17.7690531" id="Money-#3-Copy"></path>
        </g>
    </g>
</svg>