<?xml version="1.0" encoding="UTF-8"?>
<svg width="19px" height="24px" viewBox="0 0 19 24" version="1.1" xmlns="http://www.w3.org/2000/svg" xmlns:xlink="http://www.w3.org/1999/xlink">
    <!-- Generator: Sketch 49.1 (51147) - http://www.bohemiancoding.com/sketch -->
    <title>share</title>
    <desc>Created with Sketch.</desc>
    <defs></defs>
    <g id="share" stroke="none" stroke-width="1" fill="none" fill-rule="evenodd">
        <g id="noun_951827_cc" transform="translate(9.500000, 12.000000) rotate(-180.000000) translate(-9.500000, -12.000000) " fill-rule="nonzero">
            <g id="Group">
                <rect id="Rectangle-path" fill="#4B6584" transform="translate(9.227178, 16.203017) rotate(-127.070432) translate(-9.227178, -16.203017) " x="8.72717753" y="11.7898452" width="1" height="8.82641174"></rect>
                <rect id="Rectangle-path" fill="#4B6584" transform="translate(9.658116, 7.481295) rotate(-143.203438) translate(-9.658116, -7.481295) " x="5.04504502" y="6.98129363" width="9.22599423" height="1"></rect>
                <g fill="#FFFFFF" id="Shape" stroke="#4B6584" stroke-width="0.7">
                    <path d="M15.4048088,15.4162453 C13.4489265,15.4162453 11.8582353,13.8837196 11.8582353,11.9993563 C11.8582353,10.114993 13.4489265,8.58246723 15.4048088,8.58246723 C17.3609706,8.58246723 18.9513824,10.1147238 18.9513824,11.9993563 C18.9513824,13.8834504 17.3609706,15.4162453 15.4048088,15.4162453 Z"></path>
                    <path d="M3.68152941,23.9580641 C1.72564706,23.9580641 0.134955882,22.4260768 0.134955882,20.5411751 C0.134955882,18.6562734 1.72564706,17.124286 3.68152941,17.124286 C5.63741176,17.124286 7.22838235,18.6562734 7.22838235,20.5411751 C7.22838235,22.4260768 5.63741176,23.9580641 3.68152941,23.9580641 Z"></path>
                    <path d="M3.68152941,6.96837547 C1.72564706,6.96837547 0.134955882,5.43584972 0.134955882,3.55148642 C0.134955882,1.66712313 1.72536765,0.134328184 3.68152941,0.134328184 C5.63769118,0.134328184 7.22838235,1.66685393 7.22838235,3.55121723 C7.22838235,5.43558052 5.63741176,6.96837547 3.68152941,6.96837547 Z"></path>
                </g>
            </g>
        </g>
    </g>
</svg>