<svg width="277" height="293" xmlns="http://www.w3.org/2000/svg" xmlns:xlink="http://www.w3.org/1999/xlink"><defs><path id="a" d="M0 .832h195.905v133.072H0z"/><path id="c" d="M.922.656H140.52V241H.921z"/></defs><g fill="none" fill-rule="evenodd"><path d="M130.016 35.42c5.481 5.985 14.329 8.285 21.779 10.684 2.158.695 6.635 1.648 7.496 3.754.57 1.395-.183 4.092.221 5.702.617 2.452 2.005 4.763 3.687 6.628 2.298 2.545 4.854 4.237 7.517 5.212a25.432 25.432 0 0 0 4.546 2.018c10.637 3.502 22.518.73 29.3-8.259 1.33.343 2.664.674 3.99 1.036 8.101 2.218 15.547 5.824 23.476 8.396 8.395 2.724 12.183-8.896 5.686-13.421-12.634-8.8-30.942-11.076-45.717-14.09-11.423-2.333-22.745-4.909-33.423-9.25-.173-1.225-.94-2.323-2.492-2.68a77.979 77.979 0 0 1-6.717-1.859c-1.45-.758-2.908-1.513-4.356-2.272-1.22-.636-2.396-.878-3.487-.832a60.66 60.66 0 0 1-4.343-2.275c-.978-.567-1.905-.51-2.632-.107.1-1.33.62-2.862 1.65-4.683 1.19-2.1-1.556-4.159-3.31-2.542-5.463 5.034-8.523 12.667-2.871 18.84" fill="#FFCD7C"/><path d="M258.337 67.783c2.55-4.3-2.772-10.346-7.223-7.203-4.364 3.084-6.59 8.46-11.08 11.316-5.935 3.774-13.855 1.552-20.054-.395-5.312-1.669-10.709-4.55-16.398-4.46-6.02.095-11.204 2.695-16.63 4.919-12.778 5.237-25.182-1.322-31.517-12.972-2.386-4.386-2.635-9.83-6.722-13.139-4.192-3.391-9.162-1.964-13.89-3.785-.875-.34-1.45.753-1.112 1.443.972 1.986 1.978 2.963 3.891 4.09 3.428 2.015 5.412 3.66 6.547 7.603 1.818 6.313 4.452 11.752 8.706 16.832 8.01 9.562 21.189 14.307 33.368 10.74 6.535-1.914 12.762-7.055 19.867-5.55 7.276 1.542 13.767 5.55 21.255 6.724 7.44 1.168 13.979-.359 19.498-3.859-2.681 3.948-3.478 10.876-5.254 15.141-2.924 7.026-6.277 13.766-9.58 20.617-7.29 15.123-12.614 31.254-19.147 46.717-12.212 28.905-21.534 59.788-37.43 87.003-9.096-1.217-18.432-1.691-27.276-3.818-6.59-1.586-14.616-4.473-21.307-2.083-1.323.473-1.01 2.182.319 2.344 7.445.908 14.128 6.049 21.22 8.309 7.635 2.435 15.62 3.886 23.459 5.723 1.698 3.098 6.79 4.335 9.756.88 1.364-.817 2.318-2.24 2.74-3.788 8.845-12.997 14.814-27.396 20.48-42.06a2341.124 2341.124 0 0 1 19.715-49.3c6.738-16.333 12.572-33.077 18.815-49.603 2.61-6.906 5.55-13.96 6.714-21.28.717-4.511 2.533-12.11-1.137-15.714a.981.981 0 0 0-.424-.228c3.835-2.817 7.135-6.615 9.831-11.164" fill="#E1E0E7"/><g transform="translate(53)"><mask id="b" fill="#fff"><use xlink:href="#a"/></mask><path d="M75.807 9.605a2.073 2.073 0 0 1 1.243 2.654c-.238.665-.48 1.35-.717 2.043 3.76 1.553 7.61 3.068 11.595 4.38 36.05 11.847 70.527 23.183 104.537 36.195.276-.647.541-1.29.783-1.922a2.073 2.073 0 0 1 2.657-1.2c-34.732-13.36-69.892-24.92-106.69-37.013-5.815-1.912-11.43-4.295-16.862-6.6C66.29 5.57 60.022 2.91 53.5.922a2.068 2.068 0 0 0-2.501 1.15C38.419 30.805 3.416 120.137.089 131.234a2.07 2.07 0 1 0 3.965 1.193C7.201 121.929 41.276 34.97 54.051 5.439c5.659 1.84 11.03 4.12 16.686 6.52.582.248 1.177.496 1.764.744.218-.628.436-1.248.654-1.853a2.068 2.068 0 0 1 2.652-1.245" fill="#4C5D7F" mask="url(#b)"/></g><g transform="translate(136 52)"><mask id="d" fill="#fff"><use xlink:href="#c"/></mask><path d="M114.468 3.331c-.254.664-.518 1.3-.783 1.933 7.377 2.856 14.737 5.79 22.085 8.835-28.086 71.268-36.29 95.525-42.893 115.055-7.293 21.567-13.067 38.643-41.481 107.333-19.847-4.85-34.529-10.13-47.423-17.038a2.07 2.07 0 0 0-2.805.852 2.08 2.08 0 0 0 .85 2.813c13.589 7.281 29.05 12.781 50.133 17.83a2.073 2.073 0 0 0 2.397-1.226c29.057-70.19 34.882-87.42 42.258-109.23 6.646-19.66 14.92-44.125 43.569-116.76a2.08 2.08 0 0 0-1.13-2.683A1021.438 1021.438 0 0 0 113.287.655a2.077 2.077 0 0 1 1.18 2.676" fill="#4C5D7F" mask="url(#d)"/></g><path d="M115.02 26.721c.356.125.71.249 1.067.372 2.655.923 5.4 1.875 7.913 3.036a17.12 17.12 0 0 1-.725-4.845c-1.928-.774-3.889-1.462-5.806-2.127-.978-.34-1.956-.68-2.929-1.03a2.101 2.101 0 0 0-2.659 1.18c-5.002 12.36-9.857 25.008-14.554 37.24-9.858 25.673-20.05 52.221-32.123 77.472a2.08 2.08 0 0 0 .992 2.778 2.097 2.097 0 0 0 2.793-.988c12.145-25.4 22.368-52.025 32.255-77.775 4.453-11.602 9.051-23.579 13.776-35.313m132.099 49.092c-4.827 12.429-10.036 26.161-15.534 40.655-15.543 40.968-33.16 87.406-50.52 126.607-1.592 3.596-2.891 7.193-3.91 10.219a2025.15 2025.15 0 0 1-6.577-2.167c-11.034-3.648-22.444-7.418-34.004-10.162a2.083 2.083 0 1 0-.968 4.054c11.385 2.702 22.707 6.443 33.66 10.063 2.851.942 5.705 1.886 8.571 2.815a2.089 2.089 0 0 0 2.632-1.335c1.068-3.263 2.536-7.555 4.418-11.803 17.405-39.308 35.044-85.798 50.605-126.816 5.817-15.334 11.31-29.82 16.366-42.795a2.072 2.072 0 0 0-.086-1.699 2.094 2.094 0 0 0-1.329-1.07A792.687 792.687 0 0 1 241.572 70c-1.465 1.27-3.014 2.283-4.64 3.038 3.233.906 6.587 1.821 10.187 2.775" fill="#4C5D7F"/><path d="M143.062 45.196c3.729 1.44 7.584 2.925 8.339 4.418.158.312.38 1.262.576 2.1 1.44 6.173 4.816 20.63 29.127 20.63 9.925 0 14.26-2.932 17.424-5.076 1.871-1.263 3.106-2.1 5.005-2.1 3.378 0 7.21 1.95 11.266 4.019 4.644 2.365 9.445 4.813 14.476 4.813 2.608 0 5.074-.56 7.385-1.621 1.622-.746 3.165-1.744 4.626-2.999 3.417-2.936 6.374-7.247 8.788-12.869.267-.625.533-1.255.787-1.912a2.045 2.045 0 0 0-1.184-2.646c-1.095-.403-2.296.123-2.704 1.177a51.36 51.36 0 0 1-.787 1.907c-3.107 7.173-8.414 14.852-16.911 14.852-4.019 0-8.364-2.217-12.566-4.356-4.32-2.2-8.786-4.477-13.176-4.477-3.188 0-5.214 1.37-7.36 2.822-3.016 2.042-6.435 4.355-15.07 4.355-20.998 0-23.646-11.348-25.068-17.442-.296-1.267-.53-2.266-.91-3.017-1.471-2.906-5.477-4.451-10.547-6.408-8.163-3.148-17.413-6.715-17.413-16.253 0-3.301 1.052-6.954 2.223-10.328a141 141 0 0 1 .724-2.028 2.05 2.05 0 0 0-1.251-2.633 2.087 2.087 0 0 0-2.667 1.236c-.22.6-.44 1.215-.658 1.837-1.321 3.77-2.536 7.934-2.536 11.916 0 .055.01.104.01.16.014 1.748.279 3.327.719 4.777 2.637 8.678 12.11 12.36 19.333 15.146m-12.501 39.026a2.127 2.127 0 0 0 1.33-2.686 2.1 2.1 0 0 0-2.662-1.345c-4.302 1.449-8.39 3.269-12.341 5.028-1.407.626-2.813 1.252-4.23 1.864-.224-.571-.444-1.14-.663-1.711-1.466-3.786-2.98-7.7-5.071-11.318a2.093 2.093 0 0 0-2.878-.763 2.136 2.136 0 0 0-.76 2.906c1.926 3.328 3.316 6.92 4.787 10.721.484 1.252.971 2.51 1.479 3.762A2.11 2.11 0 0 0 111.5 92c.27 0 .544-.054.8-.159 2.117-.88 4.2-1.807 6.287-2.735 3.863-1.72 7.858-3.498 11.974-4.884m-35.009 32.245c1.053 1.729 2.14 3.515 3.037 5.35.26.534.728.933 1.287 1.098a2.047 2.047 0 0 0 1.659-.225c4.624-2.883 9.547-5.417 14.31-7.87 1.033-.533 1.45-1.826.934-2.89-.515-1.061-1.769-1.49-2.802-.962-4.201 2.164-8.527 4.392-12.716 6.888-.702-1.267-1.444-2.486-2.17-3.677-1.588-2.606-3.088-5.068-4.036-7.761-.396-1.115-1.595-1.695-2.679-1.288-1.085.407-1.643 1.642-1.25 2.758 1.103 3.124 2.792 5.898 4.426 8.579m-9.875 24.637c.85 1.825 1.729 3.71 2.452 5.646.21.565.589.986 1.04 1.16.154.06.311.09.468.09.305 0 .607-.112.873-.327 3.734-3.043 7.71-5.718 11.557-8.308.834-.562 1.17-1.927.755-3.05-.417-1.12-1.43-1.573-2.264-1.016-3.393 2.285-6.887 4.637-10.27 7.27-.567-1.337-1.167-2.623-1.753-3.88-1.282-2.75-2.494-5.35-3.26-8.193-.32-1.177-1.288-1.788-2.163-1.358-.877.428-1.328 1.732-1.01 2.91.89 3.298 2.255 6.226 3.575 9.056m-12 31c.85 1.825 1.729 3.71 2.452 5.646.21.565.589.986 1.04 1.16.154.06.311.09.468.09.305 0 .607-.112.873-.327 3.734-3.043 7.71-5.718 11.557-8.308.834-.562 1.17-1.927.755-3.05-.417-1.12-1.43-1.573-2.264-1.016-3.393 2.285-6.887 4.637-10.27 7.27-.567-1.337-1.167-2.623-1.753-3.88-1.282-2.75-2.494-5.35-3.26-8.193-.32-1.177-1.288-1.788-2.163-1.358-.877.428-1.328 1.732-1.01 2.91.89 3.298 2.255 6.226 3.575 9.056m95.918-68.879c11.728 5.438 23.855 11.06 36.923 13.73.14.03.278.045.416.045a2.073 2.073 0 0 0 .411-4.102c-12.597-2.576-24.502-8.095-36.014-13.433-8.866-4.11-18.034-8.36-27.647-11.37a2.067 2.067 0 0 0-2.59 1.359 2.072 2.072 0 0 0 1.358 2.595c9.354 2.927 18.397 7.12 27.143 11.176m-36.543 19.382a2.062 2.062 0 0 0 1.549 2.47c11.75 2.679 23.405 6.54 34.675 10.272 7.875 2.608 16.019 5.306 24.118 7.574.184.05.37.077.553.077.899 0 1.725-.598 1.977-1.51a2.061 2.061 0 0 0-1.426-2.539c-8.006-2.244-16.105-4.925-23.933-7.519-11.363-3.763-23.112-7.654-35.055-10.38a2.053 2.053 0 0 0-2.458 1.555m-5.911 28.38c18.64 9.504 37.85 17.878 57.1 24.89.23.084.463.123.695.123a2.07 2.07 0 0 0 1.944-1.398c.382-1.094-.178-2.3-1.25-2.69-19.094-6.954-38.153-15.262-56.642-24.691a2.05 2.05 0 0 0-2.77.941c-.51 1.042-.096 2.306.923 2.825m48.418 39.921c-7.453-1.235-14.689-3.148-21.684-4.999-11.21-2.965-24.118-13.32-37.396-13.904-1.778-.075-3.35.784-3.47 1.93-.127 1.147 1.228 2.138 3.021 2.219 12.216.537 24.131 10.628 35.35 13.598 7.204 1.904 14.653 3.876 22.546 5.181.274.045.547.067.819.067 1.448 0 2.768-.621 3.15-1.558.451-1.112-.593-2.246-2.336-2.534zm-2.315 20.181c-8.031-1.214-16.032-4.004-23.77-6.703-3.185-1.112-6.479-2.26-9.73-3.282-1.092-.35-2.274.212-2.636 1.245-.365 1.03.226 2.146 1.318 2.489 3.186 1.002 6.449 2.14 9.602 3.241 7.926 2.764 16.122 5.623 24.556 6.897.112.017.224.024.333.024 1.005 0 1.892-.689 2.056-1.656.183-1.075-.593-2.083-1.729-2.255" fill="#4C5D7F"/><path d="M67.455 138l-12.99 34.686-23.451 41.005a.2.2 0 0 0 .13.295L84.44 225.54l43.127 14.958L144 245" stroke="#4C5D7F" stroke-width="3"/><path d="M58.237 123L53.6 135.572a100 100 0 0 1-6.34 13.843L3 229.343l83.618 21.61L142 274" stroke="#4C5D7F" stroke-width="3"/></g></svg>