<?xml version="1.0" encoding="UTF-8"?>
<svg width="277px" height="293px" viewBox="0 0 277 293" version="1.1" xmlns="http://www.w3.org/2000/svg" xmlns:xlink="http://www.w3.org/1999/xlink">
    <!-- Generator: Sketch 49.1 (51147) - http://www.bohemiancoding.com/sketch -->
    <title>Group 17</title>
    <desc>Created with Sketch.</desc>
    <defs>
        <polygon id="path-1" points="0.000120483343 0.831628866 195.905037 0.831628866 195.905037 133.903697 0.000120483343 133.903697"></polygon>
        <polygon id="path-3" points="0.921715272 0.655547701 140.521019 0.655547701 140.521019 241 0.921715272 241"></polygon>
    </defs>
    <g id="1920" stroke="none" stroke-width="1" fill="none" fill-rule="evenodd">
        <g id="Guarantee" transform="translate(-1132.000000, -252.000000)">
            <g id="Group-17" transform="translate(1135.000000, 252.000000)">
                <path d="M127.015528,35.4198756 C132.497044,41.405051 141.344671,43.7049228 148.79494,46.1039508 C150.953235,46.799421 155.430314,47.7524218 156.290865,49.8581128 C156.860876,51.2531848 156.10824,53.9496812 156.512229,55.5595914 C157.12928,58.012329 158.516953,60.3232182 160.199316,62.1879047 C162.497347,64.7329125 165.052713,66.4254529 167.715994,67.4004884 C169.136872,68.2020006 170.654596,68.8892078 172.262249,69.4180406 C182.89877,72.9201808 194.780462,70.1479401 201.561106,61.1591596 C202.892054,61.5020746 204.22577,61.8325951 205.551185,62.1947905 C213.653093,64.4134094 221.099211,68.0188372 229.028178,70.5913884 C237.423393,73.3154282 241.211478,61.6948782 234.714456,57.1695017 C222.080128,48.3693934 203.771975,46.0943106 188.997338,43.0796882 C177.573592,40.7467643 166.252227,38.1714588 155.5742,33.8292457 C155.40126,32.6049426 154.634788,31.5073391 153.082476,31.1506524 C150.79828,30.6273283 148.562508,30.0062252 146.365474,29.2914746 C144.915543,28.5326546 143.45731,27.7779662 142.008762,27.0191462 C140.789878,26.3828942 139.612501,26.1405125 138.522285,26.1873363 C137.054368,25.4904889 135.604436,24.7358004 134.179408,23.9122535 C133.201257,23.3448599 132.274297,23.4013239 131.546564,23.8048343 C131.647562,22.4744893 132.166383,20.9430776 133.197107,19.1224605 C134.386936,17.0222782 131.640644,14.9634109 129.886337,16.580207 C124.42419,21.6137588 121.363839,29.2474052 127.015528,35.4198756" id="Fill-1" fill="#FFCD7C"></path>
                <path d="M255.337463,67.7826223 C257.886775,63.4825217 252.564965,57.4366716 248.11372,60.5798502 C243.749808,63.6635931 241.524879,69.0390644 237.033432,71.8961225 C231.0989,75.6695956 223.17926,73.4483607 216.979955,71.5008063 C211.667849,69.8324613 206.271182,66.9505231 200.582016,67.0403677 C194.561537,67.1357412 189.378352,69.7357056 183.951188,71.9597049 C171.174131,77.1969537 158.769976,70.6382982 152.434818,58.9875275 C150.049084,54.601729 149.799559,49.1571465 145.712897,45.8494832 C141.52088,42.4575042 136.551178,43.8853421 131.822683,42.0635702 C130.94796,41.7249252 130.372666,42.8168826 130.710911,43.5066126 C131.682672,45.4928693 132.689088,46.470102 134.602112,47.596615 C138.030306,49.6118984 140.014028,51.2567456 141.149366,55.2002323 C142.966738,61.5128518 145.600611,66.9519053 149.855009,72.0315805 C157.864755,81.59381 171.043824,86.3389868 183.223407,82.7714653 C189.758185,80.8584665 195.985215,75.7165912 203.089741,77.2218337 C210.366161,78.7643963 216.856579,82.7728475 224.345096,83.9463561 C231.785094,85.1143359 238.32403,83.5869777 243.842687,80.0871852 C241.161681,84.0348185 240.364588,90.9625279 238.588803,95.2280729 C235.665204,102.25392 232.311868,108.993647 229.008437,115.845334 C221.718154,130.968253 216.394958,147.098813 209.861567,162.561759 C197.6501,191.466839 188.327576,222.349882 172.431459,249.564501 C163.33628,248.348144 153.999893,247.874041 145.155625,245.746797 C138.565398,244.161385 130.540403,241.273918 123.848979,243.663785 C122.526498,244.136505 122.838404,245.846317 124.167816,246.008037 C131.613359,246.916159 138.296465,252.056652 145.388515,254.316589 C153.022588,256.752069 161.008768,258.203405 168.846619,260.040381 C170.544774,263.137946 175.637853,264.375037 178.603039,260.919476 C179.967108,260.102581 180.920848,258.680272 181.342267,257.132181 C190.187922,244.135123 196.15711,229.73649 201.822709,215.07247 C208.210544,198.535535 214.778592,182.157557 221.537941,165.772667 C228.276498,149.43892 234.109833,132.694651 240.353498,116.168775 C242.963805,109.263181 245.902653,102.209689 247.067102,94.8894279 C247.783793,90.3778469 249.599779,82.7783764 245.930378,79.174917 C245.815319,79.0615746 245.664218,78.9924634 245.506186,78.9468499 C249.34055,76.1298763 252.641209,72.3315233 255.337463,67.7826223" id="Fill-3" fill="#E1E0E7"></path>
                <g id="Group-7" transform="translate(50.000000, 0.000000)">
                    <mask id="mask-2" fill="white">
                        <use xlink:href="#path-1"></use>
                    </mask>
                    <g id="Clip-6"></g>
                    <path d="M75.8067268,9.6053134 C76.8819662,9.99488041 77.4396,11.1829216 77.0503606,12.259066 C76.8115718,12.9235402 76.5700225,13.6087361 76.3326141,14.3022206 C80.0925014,15.8549629 83.9434873,17.3704062 87.9283606,18.6813959 C123.977177,30.5286536 158.455234,41.8647773 192.465375,54.8765918 C192.741431,54.2300763 193.006445,53.5863237 193.247994,52.9550041 C193.653797,51.8912928 194.846361,51.3622 195.905037,51.7559113 C161.173008,38.3945918 126.013093,26.8346742 89.2147831,14.7415196 C83.3996563,12.8296021 77.7846704,10.4466124 72.353262,8.14236495 C66.2896845,5.57011753 60.0218254,2.90945773 53.4999944,0.921560825 C52.4882479,0.614880412 51.4199099,1.11081856 50.9989239,2.07230309 C38.4190366,30.8049423 3.41647324,120.137355 0.0886140845,131.234489 C-0.241273239,132.331355 0.379853521,133.486241 1.4744169,133.815025 C2.57174085,134.14519 3.72565634,133.524922 4.05416338,132.426674 C7.20120563,121.929087 41.2762197,34.9713753 54.0507268,5.43888041 C59.7098817,7.27896289 65.0805577,9.55834433 70.7369521,11.9592928 C71.319431,12.2065711 71.9143324,12.4552309 72.5009521,12.7025093 C72.7190366,12.075334 72.9371211,11.455066 73.1552056,10.8499938 C73.5444451,9.77384948 74.7314873,9.21298351 75.8067268,9.6053134" id="Fill-5" fill="#4C5D7F" mask="url(#mask-2)"></path>
                </g>
                <g id="Group-10" transform="translate(133.000000, 52.000000)">
                    <mask id="mask-4" fill="white">
                        <use xlink:href="#path-3"></use>
                    </mask>
                    <g id="Clip-9"></g>
                    <path d="M114.468362,3.33147874 C114.214009,3.99492126 113.949979,4.63066264 113.684568,5.26363391 C121.062185,8.11962241 128.421832,11.0531741 135.770421,14.0989155 C107.683774,85.3670477 99.4808912,109.623559 92.8773912,129.154255 C85.5840971,150.720984 79.8100088,167.797358 51.3957441,236.486513 C31.5493029,231.637427 16.8673324,226.357588 3.97274412,219.448921 C2.96777353,218.908749 1.70706765,219.288255 1.16795,220.300732 C0.626067647,221.313209 1.00897941,222.572226 2.01809706,223.113783 C15.6066265,230.39503 31.0682441,235.895094 52.1505088,240.943628 C52.3108618,240.981025 52.4725971,241.000416 52.6343324,241.000416 C53.45545,241.000416 54.2212735,240.507335 54.5475088,239.717852 C83.6045676,169.527295 89.4298029,152.298565 96.8060382,130.488065 C103.452391,110.827174 111.725774,86.362904 140.375038,13.7277201 C140.791126,12.6723063 140.28795,11.4811569 139.244274,11.0448638 C130.607332,7.44371437 121.960715,3.99630632 113.287832,0.655547701 C114.346715,1.07245 114.877538,2.26498448 114.468362,3.33147874" id="Fill-8" fill="#4C5D7F" mask="url(#mask-4)"></path>
                </g>
                <path d="M112.019678,26.720968 C112.375985,26.8460545 112.730894,26.9697512 113.0872,27.0934478 C115.742033,28.0163083 118.486292,28.9683555 121,30.1288804 C120.555665,28.658419 120.290181,27.0573117 120.274811,25.283863 C118.346564,24.5097165 116.38618,23.8217407 114.469111,23.1573924 C113.491014,22.8168791 112.512918,22.4763659 111.540411,22.1261237 C110.484067,21.7411352 109.304762,22.2664985 108.881386,23.3074962 C103.879122,35.6674329 99.0235718,48.3150685 94.327312,60.547139 C84.4694979,86.2204494 74.2777337,112.767976 62.2038326,138.018772 C61.7064008,139.058379 62.150736,140.302295 63.1959018,140.797082 C63.4865361,140.934677 63.7925406,141 64.0943532,141 C64.8782276,141 65.6299645,140.560807 65.9890656,139.808898 C78.1342279,114.409388 88.3567323,87.7840307 98.2438893,62.0342785 C102.697022,50.4318102 107.295473,38.4554721 112.019678,26.720968" id="Fill-11" fill="#4C5D7F"></path>
                <path d="M244.118987,75.8129871 C239.29203,88.2416144 234.083484,101.974206 228.585264,116.467791 C213.041793,157.436435 195.424651,203.873675 178.065152,243.074538 C176.473342,246.671202 175.173991,250.267866 174.154564,253.293786 C171.95834,252.574453 169.766294,251.852343 167.578426,251.127455 C156.544386,247.47941 145.134327,243.709162 133.573861,240.965143 C132.4472,240.699906 131.326109,241.388688 131.057326,242.509348 C130.789935,243.628618 131.48348,244.752055 132.605963,245.018681 C143.990954,247.721039 155.313275,251.462125 166.265148,255.082397 C169.117315,256.023918 171.970874,256.968216 174.836967,257.897238 C175.051437,257.968061 175.268691,258 175.483161,258 C176.363322,258 177.182206,257.441753 177.469093,256.562723 C178.537263,253.29934 180.005126,249.006951 181.886609,244.758999 C199.292066,205.451208 216.93149,158.961198 232.491674,117.942562 C238.308812,102.60883 243.802854,88.1235772 248.858207,75.1478125 C249.07407,74.5951204 249.042038,73.9771608 248.771863,73.4494648 C248.501687,72.9203803 248.018434,72.5315517 247.443265,72.3787976 C244.316745,71.5594803 241.390768,70.7734911 238.572025,70 C237.106947,71.2706362 235.55831,72.2829791 233.931684,73.0384175 C237.165439,73.9438326 240.518963,74.8589684 244.118987,75.8129871" id="Fill-13" fill="#4C5D7F"></path>
                <path d="M140.061999,45.1964198 C143.790654,46.6354339 147.645634,48.1210446 148.400805,49.6135078 C148.559058,49.9259794 148.781167,50.8757287 148.976901,51.7144684 C150.417833,57.8871536 153.792502,72.3444485 178.103725,72.3444485 C188.029222,72.3444485 192.364513,69.4116008 195.528179,67.268155 C197.399447,66.0045636 198.633541,65.1671944 200.532573,65.1671944 C203.911407,65.1671944 207.742788,67.1187716 211.799054,69.1868405 C216.442521,71.5523055 221.244241,74 226.275011,74 C228.883404,74 231.348814,73.4408402 233.660136,72.3787108 C235.281532,71.6331644 236.82519,70.635448 238.285557,69.3800795 C241.70326,66.4444908 244.660087,62.1329304 247.074134,56.511182 C247.340665,55.8862388 247.607196,55.2558135 247.861233,54.599349 C248.272135,53.5454425 247.739073,52.3640805 246.677114,51.9529336 C245.581839,51.5500096 244.381062,52.0762776 243.972937,53.1301841 C243.731393,53.7564979 243.463474,54.3951461 243.185838,55.0365352 C240.079088,62.2096778 234.77207,69.8885312 226.275011,69.8885312 C222.256225,69.8885312 217.911217,67.6724494 213.709192,65.5331152 C209.389171,63.3321088 204.923391,61.0557256 200.532573,61.0557256 C197.345308,61.0557256 195.318563,62.4262152 193.173823,63.8775637 C190.157305,65.9195932 186.738214,68.2329797 178.103725,68.2329797 C157.104703,68.2329797 154.457441,56.8853257 153.034555,50.7907584 C152.738872,49.524426 152.505658,48.525339 152.125296,47.7743107 C150.653824,44.8675023 146.647532,43.3229605 141.577893,41.3659013 C133.415386,38.2178866 124.164544,34.6505022 124.164544,25.1132649 C124.164544,21.8117555 125.216786,18.1594006 126.388411,14.7852552 C126.627178,14.0972694 126.87011,13.4175066 127.111654,12.7569306 C127.501733,11.6893192 126.942296,10.5106981 125.860902,10.12422 C124.778121,9.73500098 123.585673,10.2914198 123.194206,11.3604017 C122.973485,11.9593056 122.754152,12.5746555 122.536208,13.1968577 C121.214659,16.9670747 120,21.1306221 120,25.1132649 C120,25.1680845 120.009717,25.2174222 120.009717,25.2722417 C120.023599,27.0209865 120.288742,28.5997905 120.728795,30.0497685 C123.36634,38.7277088 132.839291,42.4102144 140.061999,45.1964198" id="Fill-15" fill="#4C5D7F"></path>
                <path d="M127.56103,84.2216295 C128.663966,83.8505565 129.258934,82.6481099 128.891289,81.5363072 C128.525047,80.4216718 127.332304,79.8197403 126.229369,80.1908134 C121.927077,81.6396977 117.83948,83.4596551 113.887995,85.2187112 C112.480559,85.8447199 111.074526,86.4707286 109.657268,87.0825742 C109.434155,86.5118016 109.213848,85.9424453 108.994945,85.3716726 C107.528574,81.585878 106.014493,77.6711992 103.923686,74.0539453 C103.337137,73.0398679 102.046169,72.6985374 101.045669,73.2905546 C100.040959,73.8811556 99.7013783,75.1827438 100.286524,76.1968212 C102.21175,79.525148 103.602347,83.1169083 105.072928,86.9182824 C105.557041,88.1702998 106.04396,89.4279824 106.551928,90.6799998 C106.763815,91.2026179 107.172154,91.6175965 107.687138,91.8342918 C107.946735,91.9447639 108.223171,92 108.499606,92 C108.770429,92 109.044058,91.9461802 109.299445,91.8413734 C111.416913,90.9618453 113.500704,90.0341627 115.587302,89.1064802 C119.450383,87.3856644 123.445368,85.6081963 127.56103,84.2216295" id="Fill-17" fill="#4C5D7F"></path>
                <path d="M92.5521124,116.466631 C93.6051028,118.195757 94.6929143,119.982281 95.5885132,121.816159 C95.8489751,122.351398 96.3169708,122.750317 96.8755014,122.915337 C97.0663211,122.971301 97.2613193,123 97.4549247,123 C97.8323855,123 98.2070606,122.893813 98.5357719,122.690049 C103.158622,119.807216 108.082327,117.273078 112.844462,114.819298 C113.877953,114.286928 114.294413,112.99403 113.779061,111.930725 C113.263708,110.868855 112.010148,110.439803 110.976658,110.967868 C106.775839,113.131786 102.449665,115.360278 98.2613816,117.855671 C97.559388,116.588603 96.8170019,115.370322 96.09133,114.179306 C94.5034874,111.57342 93.003394,109.11103 92.054867,106.417612 C91.6592992,105.302649 90.4600602,104.722925 89.3764272,105.130454 C88.2914015,105.536547 87.7328709,106.772047 88.125653,107.888445 C89.2287857,111.012351 90.918306,113.786127 92.5521124,116.466631" id="Fill-19" fill="#4C5D7F"></path>
                <path d="M82.6767062,141.103666 C83.5271984,142.928854 84.4058154,144.81463 85.1291837,146.75039 C85.3395568,147.315365 85.7175533,147.736446 86.1686742,147.910634 C86.3227978,147.969706 86.4802964,148 86.6366699,148 C86.9415421,148 87.2441644,147.887914 87.5096619,147.672829 C91.2435027,144.629839 95.2203413,141.954916 99.0666811,139.364814 C99.9014234,138.802869 100.237795,137.438143 99.8215492,136.315765 C99.405303,135.194903 98.3928122,134.742014 97.5580699,135.299416 C94.165101,137.583552 90.670883,139.935848 87.288039,142.569875 C86.7210442,141.232414 86.1214247,139.946451 85.535305,138.689268 C84.2528168,135.93861 83.0412029,133.339421 82.2750849,130.496368 C81.9555878,129.319463 80.9869717,128.707532 80.1117297,129.137701 C79.2353627,129.566355 78.7842419,130.870494 79.101489,132.048914 C79.9924808,135.346371 81.3570933,138.274246 82.6767062,141.103666" id="Fill-19-Copy" fill="#4C5D7F"></path>
                <path d="M70.6767062,172.103666 C71.5271984,173.928854 72.4058154,175.81463 73.1291837,177.75039 C73.3395568,178.315365 73.7175533,178.736446 74.1686742,178.910634 C74.3227978,178.969706 74.4802964,179 74.6366699,179 C74.9415421,179 75.2441644,178.887914 75.5096619,178.672829 C79.2435027,175.629839 83.2203413,172.954916 87.0666811,170.364814 C87.9014234,169.802869 88.2377953,168.438143 87.8215492,167.315765 C87.405303,166.194903 86.3928122,165.742014 85.5580699,166.299416 C82.165101,168.583552 78.670883,170.935848 75.288039,173.569875 C74.7210442,172.232414 74.1214247,170.946451 73.535305,169.689268 C72.2528168,166.93861 71.0412029,164.339421 70.2750849,161.496368 C69.9555878,160.319463 68.9869717,159.707532 68.1117297,160.137701 C67.2353627,160.566355 66.7842419,161.870494 67.101489,163.048914 C67.9924808,166.346371 69.3570933,169.274246 70.6767062,172.103666" id="Fill-19-Copy-2" fill="#4C5D7F"></path>
                <path d="M166.594758,103.22492 C178.323161,108.662597 190.449907,114.285304 203.518068,116.955814 C203.657282,116.984811 203.796496,117 203.934331,117 C204.895043,117 205.756513,116.322016 205.957753,115.340252 C206.186559,114.220405 205.462924,113.125413 204.34508,112.897578 C191.748315,110.322345 179.843484,104.803199 168.331482,99.4649414 C159.46454,95.3556152 150.297116,91.1054451 140.684485,88.0952531 C139.595586,87.7528093 138.435014,88.3631326 138.09456,89.453982 C137.754107,90.5462122 138.361961,91.7074835 139.452238,92.0485465 C148.805739,94.9758891 157.84911,99.1694455 166.594758,103.22492" id="Fill-23" fill="#4C5D7F"></path>
                <path d="M130.051732,122.606822 C129.799735,123.719077 130.492727,124.823083 131.600693,125.076056 C143.350059,127.755642 155.006297,131.616226 166.276321,135.348949 C174.151232,137.957043 182.294574,140.654503 190.394091,142.923008 C190.577611,142.973878 190.76387,143 190.947389,143 C191.845814,143 192.671652,142.401939 192.923649,141.490413 C193.229059,140.394656 192.590849,139.256278 191.497948,138.951061 C183.491561,136.707303 175.393413,134.026342 167.565067,131.431996 C156.201914,127.669026 144.452547,123.778195 132.510074,121.051864 C131.400738,120.798891 130.303729,121.495941 130.051732,122.606822" id="Fill-25" fill="#4C5D7F"></path>
                <path d="M124.141226,150.98697 C142.780434,160.490686 161.990637,168.864846 181.24074,175.87652 C181.470514,175.960711 181.704416,176 181.935566,176 C182.783115,176 183.577005,175.462583 183.879701,174.602436 C184.262199,173.507958 183.702211,172.302629 182.630391,171.912546 C163.535763,164.958401 144.476908,156.650191 125.987673,147.220843 C124.968137,146.704474 123.728459,147.124024 123.218003,148.162375 C122.708923,149.203532 123.12169,150.467794 124.141226,150.98697" id="Fill-27" fill="#4C5D7F"></path>
                <path d="M172.55889,190.907816 C165.105995,189.672675 157.870195,187.759661 150.875371,185.909029 C139.664548,182.943859 126.757047,172.589534 113.479474,172.004541 C111.70146,171.929684 110.129687,172.789153 110.008113,173.935575 C109.882198,175.081996 111.236875,176.073159 113.030086,176.153561 C125.246061,176.691423 137.161435,186.782361 148.380941,189.75169 C155.584177,191.656386 163.032731,193.627621 170.926331,194.93346 C171.199871,194.97782 171.473412,195 171.744781,195 C173.19281,195 174.512752,194.378964 174.89484,193.441865 C175.346399,192.330099 174.302169,191.196154 172.55889,190.907816 Z" id="Fill-29" fill="#4C5D7F"></path>
                <path d="M170.244036,211.088874 C162.212629,209.87485 154.211807,207.084563 146.473741,204.386148 C143.288705,203.274496 139.99523,202.126094 136.744853,201.103689 C135.652126,200.754575 134.470423,201.316308 134.107571,202.349212 C133.743329,203.379492 134.33418,204.495082 135.425517,204.837634 C138.611943,205.840352 141.874833,206.978254 145.027893,208.079406 C152.953642,210.843444 161.150487,213.701979 169.583672,214.976376 C169.696282,214.993438 169.807501,215 169.91733,215 C170.922472,215 171.809444,214.310959 171.973492,213.343677 C172.155613,212.268774 171.37986,211.260806 170.244036,211.088874" id="Fill-31" fill="#4C5D7F"></path>
                <path d="" id="Path-13" stroke="#979797"></path>
                <path d="M64.4550012,138 L51.4649163,172.686231 L28.0136958,213.690985 C27.9588587,213.786869 27.9921333,213.909052 28.0880167,213.963889 C28.1057599,213.974037 28.1249538,213.981404 28.1449296,213.985735 L81.4389808,225.540712 L124.566478,240.499494 L141,245" id="Path-14" stroke="#4C5D7F" stroke-width="3"></path>
                <path d="M55.2368514,123 L50.6003584,135.572375 C48.8417267,140.341103 46.7220867,144.968814 44.2598656,149.415276 L0,229.343037 C55.745146,243.74913 83.617719,250.952176 83.617719,250.952176 C83.617719,250.952176 102.078479,258.634784 139,274" id="Path-15" stroke="#4C5D7F" stroke-width="3"></path>
            </g>
        </g>
    </g>
</svg>