<svg width="62" height="51" xmlns="http://www.w3.org/2000/svg"><path d="M.633 10.704V3.136C.633 1.706 1.64.63 2.975.63H58.99c1.356 0 2.377 1.077 2.377 2.506v7.568H.633zm60.734 7.555H.633v-6.926h60.734v6.926zm0 20.941c0 1.748-.632 2.206-1.265 2.32v-9.33c0-1.689-1.652-3.227-3.466-3.227h-2.228v-.14c0-4.998-4.152-9.063-9.173-9.063-5.022 0-9.174 4.065-9.174 9.063v.14h-2.48c-1.741 0-3.214 1.478-3.214 3.227v9.366H2.975c-1.38 0-2.342-.969-2.342-2.356V18.89h60.734V39.2zm-7.591-10.237H36.694v-.14c0-4.65 3.869-8.434 8.54-8.434 4.673 0 8.542 3.784 8.542 8.434v.14zm5.693 18.672c0 1.355-1.43 2.735-2.833 2.735H33.582C32.23 50.37 31 49.067 31 47.635V32.19c0-1.383 1.206-2.597 2.582-2.597h23.054c1.456 0 2.833 1.262 2.833 2.597v15.446zM58.99 0H2.976C1.28 0 0 1.348 0 3.136V39.2c0 1.73 1.251 2.985 2.975 2.985h27.392v5.45c0 1.793 1.502 3.365 3.215 3.365h23.054c1.749 0 3.466-1.667 3.466-3.365v-5.488C61.358 41.97 62 41.02 62 39.2V3.136C62 1.377 60.678 0 58.99 0zM46.933 39.2l-.116.095v3.195c0 .182-.44.325-1 .325h-.942c-.478 0-.589-.094-.589-.5v-3.063l-.184-.084c-.586-.27-1.435-1.189-1.435-2.145 0-1.42 1.173-2.575 2.616-2.575 1.453 0 2.68 1.18 2.68 2.575 0 .988-.532 1.772-1.03 2.177m-1.65-5.382c-1.791 0-3.249 1.438-3.249 3.205 0 1.183.908 2.203 1.62 2.62v2.671c0 1.13.92 1.13 1.22 1.13h.942c1.024 0 1.634-.356 1.634-.954v-2.9a3.521 3.521 0 0 0 1.146-2.566c0-1.737-1.518-3.205-3.313-3.205M28.469 35.26H18.347v.63h10.122v-.63zm-14.55 0h-9.49v.63h9.49v-.63z" fill="#4B6584" fill-rule="evenodd"/></svg>