<svg width="24" height="24" xmlns="http://www.w3.org/2000/svg"><path d="M22 23.56c0 .243-.213.44-.475.44s-.475-.197-.475-.44V.44c0-.243.212-.44.475-.44.262 0 .475.197.475.44v23.12zm-6.017.018c0 .233-.212.422-.475.422-.262 0-.475-.189-.475-.422V7.142c0-.233.213-.422.475-.422.263 0 .475.189.475.422v16.436zm-6.016-.018c0 .243-.213.44-.475.44-.263 0-.475-.197-.475-.44V.44c0-.243.212-.44.475-.44.262 0 .475.197.475.44v23.12zm-6.017.018c0 .233-.212.422-.475.422-.262 0-.475-.189-.475-.422V7.142c0-.233.213-.422.475-.422.263 0 .475.189.475.422v16.436z" fill="#4B6584"/></svg>