<svg width="63" height="51" xmlns="http://www.w3.org/2000/svg"><path d="M62.428 48.278a2.137 2.137 0 0 1-2.126 2.145H14.181a2.137 2.137 0 0 1-2.125-2.145V20.237c0-1.183.953-2.145 2.125-2.145h46.121c1.172 0 2.126.962 2.126 2.145v28.041zm-52.75-5.194a2.105 2.105 0 0 1-1.607-.26 2.13 2.13 0 0 1-.953-1.33L5.632 35.21l5.851-1.552v8.993l-1.806.434zm-8.79-30.66a2.114 2.114 0 0 1 1.319-.961L47.253.636a2.127 2.127 0 0 1 2.56 1.588l3.613 15.291H14.18c-1.488 0-2.698 1.22-2.698 2.722V33.06L5.5 34.648.632 14.045a2.148 2.148 0 0 1 .257-1.62zm59.414 5.091h-6.287L50.37 2.091A2.7 2.7 0 0 0 47.12.075L2.074 10.902a2.68 2.68 0 0 0-1.673 1.22 2.72 2.72 0 0 0-.326 2.058L6.56 41.629a2.703 2.703 0 0 0 2.619 2.09c.21 0 .42-.023.63-.074l1.673-.401v5.034c0 1.502 1.21 2.722 2.698 2.722h46.121C61.79 51 63 49.78 63 48.278V20.237c0-1.502-1.21-2.722-2.698-2.722zm-45.384 25.98h15.455v-.578H14.918v.578zm0-4.042h27.476v-.577H14.918v.577z" fill="#4B6584" fill-rule="evenodd"/></svg>