<svg width="175" height="240" xmlns="http://www.w3.org/2000/svg" xmlns:xlink="http://www.w3.org/1999/xlink"><defs><path id="a" d="M0 .994h81.097v42.579H0z"/><path id="c" d="M.555.069h161.824v145.687H.555z"/></defs><g fill="none" fill-rule="evenodd"><g transform="translate(0 -.994)"><mask id="b" fill="#fff"><use xlink:href="#a"/></mask><path d="M1.452 33.336c4.97 1.194 10.479 1.19 15.563 1.282.701.012 1.46.034 2.25.053-2.136 2.633-3.924 5.608-3.439 8.269.067.369.479.632.834.633 4.378.02 8.912-6.011 11.953-8.763.535-.485 1.073-.956 1.61-1.436a8.91 8.91 0 0 0 1.59-.884c.555-.393.959-.961 1.225-1.596 3.299-2.861 6.665-5.611 10.273-8.15 10.53-7.406 22.233-12.567 35.027-14.361 4.835-.678 2.778-8.02-2.024-7.345-13.597 1.906-26.392 7.6-37.503 15.59-4.044 2.908-8.014 6.124-11.648 9.612-3.837.747-7.585 1.869-11.582 2.205-4.675.392-9.517.105-14.128.973-1.994.376-1.88 3.466 0 3.918" fill="#E1E0E7" mask="url(#b)"/></g><path d="M76.884 170.281c3.734-.663 2.744-6.205-.514-6.563.348.124.124.4-.078-.004a3.33 3.33 0 0 0-1.19.103c.595-.164.962-.17 1.18-.125-.252-.602-1.413-1.359-1.831-1.79-1.671-1.723-3.203-3.583-4.72-5.44-4.418-5.412-8.302-11.19-12.271-16.935-3.684-5.332-7.441-10.594-11.472-15.67-2.375-2.988-4.945-6.757-8.33-8.71-.746-.433-1.35.656-.665 1.14 4.03 2.836 6.765 8.405 9.332 12.468 3.987 6.308 7.94 12.637 11.939 18.938 3.453 5.441 6.604 11.108 10.254 16.42 1.938 2.818 4.39 6.874 8.366 6.168m-15.451 40.2c4.664.831 9.586.098 14.297-.118 4.392-.2 9.433-.129 13.313-2.376 3.018-1.748 1.573-6.188-1.717-6.34-4.617-.214-9.591 1.16-14.206 1.666-4.202.46-8.593.633-12.236 2.97.026.02.05.04.076.057-1.531 1.008-1.773 3.741.473 4.141m39.577-2.825c7.787-1.394 15.163-.489 22.982-.328 3.79.078 3.8-5.922 0-5.89-7.933.064-16.886-.169-23.999 3.805-1.379.77-.39 2.665 1.017 2.413" fill="#E1E0E7"/><path d="M136.139 212.772c-1.725-8.483-5.845-16.686-4.079-25.52.158-.789-1.015-1.424-1.392-.587-3.998 8.874-1.086 17.107-.241 26.302.208 2.263.196 4.83.261 7.444-.877-.898-2.186-1.422-3.735-1.132-10.684 1.997-21.414 2.588-32.312 3.002-10.353.394-23.211.906-32.187 6.61-1.568.997-.584 3.876 1.331 3.156 11.322-4.256 23.248-2.462 35.032-2.405 5.273.026 10.571-.054 15.837-.308 4.827-.235 11.115-.204 15.312-2.909a4.426 4.426 0 0 0 1.034-.924c.114 1.008.271 1.997.486 2.953-.736-.3-1.608-.356-2.587-.038-11.472 3.723-23.415 4.708-35.415 4.877-5.67.08-11.336-.03-17.006.091-5.33.117-11.684-.492-16.701 1.548-.771.314-.763 1.251 0 1.568 4.99 2.07 11.382 1.85 16.701 2.356a262.94 262.94 0 0 0 18.802 1.091c12.041.281 24.151-.373 35.806-3.599 1.493-.413 2.353-1.402 2.702-2.555 2.889 3.208 8.246-.472 6.291-4.743-2.357-5.152-2.817-10.758-3.94-16.278" fill="#E1E0E7"/><g transform="translate(12 24.006)"><mask id="d" fill="#fff"><use xlink:href="#c"/></mask><path d="M119.901 100.2c-6.12 6.877-12.444 13.569-18.812 20.217-4.667 4.874-9.682 9.62-14.258 14.672 1.84-4.515 3.686-9.018 5.856-13.421 3.366-6.83 6.933-13.554 10.245-20.411 3.024-6.258 5.735-12.596 8.221-19.085 2.02-5.266 4.39-10.55 6.322-15.916 6.796-5.372 17.314-7.903 26.198-8.255 2.064 1.132 4.281 2.162 6.517 2.86-8.75 14.07-19.279 26.97-30.289 39.34M80.6 133.47c-.032-.07-.066-.14-.097-.211-.892-21.046-5.369-44.033 2.225-64.014a.614.614 0 0 0-.11-.63c8.49-5.616 18.11-7.07 27.374-.58.584.41 1.241.614 1.915.686-1.624 3.257-3.045 6.63-4.52 9.864-3.155 6.917-6.39 13.79-9.922 20.525-5.763 10.99-12.733 22.397-16.865 34.36m-6.08-70.735a25.182 25.182 0 0 0-3.559-2.074c2.085.71 4.207.89 6.365-.198 1.18-.597 1.78-1.654 1.9-2.784 5.445-5.3 14.37-7.875 21.625-6.294 4.03.877 10.427 3.567 15.498 3.169a37.148 37.148 0 0 0-4.147 2.618c-12.875-6.898-26.608-3.33-37.682 5.563M58.364 58.97c-3.236.567-6.302 1.74-9.286 3.143.542-.616.89-1.36.92-2.176 2.476-.564 4.88-1.544 7.444-2.054 1.277-.254 1.903-1.156 2.046-2.175.907.154 1.76.354 2.494.623 2.228.818 4.518 2.32 6.86 3.45-3.224-1.134-6.699-1.475-10.478-.811m63.605-7.185a38.636 38.636 0 0 1 2.51-.582 44.1 44.1 0 0 0-2.812.939c.101-.12.214-.235.302-.357m30.306 9.624c.866 3.4 6.286 4.98 8.243 1.223 2.904-5.58 1.777-12.865.83-18.81-.919-5.77-2.37-11.477-4.22-17.018-3.06-9.167-7.66-22.618-18.293-25.065-.698-.16-1.206.857-.509 1.207 4.46 2.239 6.785 8.353 8.488 12.736a102.08 102.08 0 0 1 1.595 4.45c-3.782-9.096-9.854-16.792-19.493-20.02-.889-.298-1.678.992-.939 1.612 6.952 5.844 10.206 15.49 12.522 24.014 1.124 4.138 1.927 8.37 2.495 12.622l-1.414-.097c-3.512-.232-7.318-.77-10.806-.02-3.43.737-6.577 2.657-9.513 4.494-.589.369-1.15.77-1.716 1.166.73-6.49-1.815-14.131-4.347-19.16-3.719-7.39-9.33-14.334-16.103-19.112-.835-.59-1.674.66-1.047 1.355 5.075 5.616 7.9 12.937 9.443 20.254.768 3.644 1.286 7.218 1.222 10.948-.027 1.503-.257 2.932-.526 4.349l-.165-.038c-3.666-.833-7.572-1.964-11.363-1.9-7.645.128-16.167 4-21.23 10.129-.947-2.97-2.573-5.457-3.086-8.71-.63-4.002-.538-8.28-.318-12.312.425-7.824 1.424-16.362 3.937-23.821.243-.72-.834-1.145-1.207-.51-4.915 8.384-9.276 16.82-11.834 26.262-1.2 4.43-2.24 10.896-1.27 16.409a15.03 15.03 0 0 0-4.436.068c-3.819.629-8.135 2.266-11.293 4.96-.637-16.346 2.911-31.911 12.062-45.647.472-.71-.65-1.601-1.197-.923-9.172 11.368-16.678 23.499-19.905 37.454-2.73-1.867-5.869-3.18-9.692-3.621-10.85-1.251-20.407 3.552-26.188 12.68-1.739 2.746 2 5.097 4.227 3.262 6.123-5.047 13.3-8.968 21.5-7.327 3.56.712 6.287 2.704 8.638 5.183-.008 2.477 1.66 3.98 3.678 4.483.832 1.117 1.645 2.24 2.466 3.32 1.131 1.49 2.737 1.985 4.25 1.828-1.256.654-2.502 1.324-3.745 1.982-3.818-7.715-10.939-14.407-20.024-13.258-.558.07-.917.4-1.076.796-6.594-.491-12.483 2.722-15.406 8.808-.315.655.542 1.142.965.564 3.721-5.088 9.776-6.812 15.76-4.962 5.81 1.797 8.048 5.748 10.723 10.73.724 1.35 1.966 1.606 3.04 1.212.18.789.334 1.578.442 2.357.263 1.9 2.935 3.313 4.663 2.647 10.062-3.878 20.872-11.681 30.21-2.46 1.895 1.874 4.737 1.693 6.662 0a44.868 44.868 0 0 1 2.733-2.221c-7.129 15.06-6.705 32.079-5.953 48.75-1.155-2.97-2.358-5.916-3.722-8.784-5.308-11.164-11.14-22.083-16.339-33.294-.39-.844-1.739-.245-1.485.626 3.571 12.26 8.946 23.61 13.756 35.402 3.194 7.833 5.451 15.975 8.385 23.885.001.387.004.777.002 1.163-.006 1.1.555 1.84 1.31 2.228a94.057 94.057 0 0 0 1.77 4.13c1.133 2.47 4.065 1.943 5.461.25.29-.091.584-.248.87-.505 6.906-6.228 13-13.58 19.33-20.392 6.662-7.171 13.273-14.392 19.641-21.825 10.728-12.525 20.518-25.784 28.541-40.186" fill="#E1E0E7" mask="url(#d)"/></g><path d="M38.583 23.605c9.792-7.008 22.305-12.496 37.263-17.854.98-.35 1.966-.702 2.965-1.05 1.02-.358 2.035-.714 3.076-1.07C86.82 1.938 91.98 1.15 98.125 1.15c52.981 0 65.943 38.497 71.635 76.155a1.501 1.501 0 0 1-2.249 1.515 25.41 25.41 0 0 0-1.526-.829c.232-.415.468-.824.698-1.24a1.501 1.501 0 0 0-.59-2.037c.08.036.162.067.241.103-5.74-35.433-18.867-70.667-68.209-70.667-5.805 0-10.655.736-15.266 2.316C35.546 22.69 17.62 36.53 14.875 79.934a1.493 1.493 0 0 0-1.155.162 1.501 1.501 0 0 0-.514 2.06c.298.495.771 1.205 1.382 2.083-.158.122-.318.238-.475.362a1.5 1.5 0 0 1-2.428-1.24c.651-15.127 2.913-26.805 7.212-36.32a58.054 58.054 0 0 1 1.454-2.984 54.567 54.567 0 0 1 8.664-12.174c1.732-1.843 3.62-3.577 5.626-5.235l3.942-3.043z" fill="#4C5D7F"/><path d="M53.708 89.404a1.493 1.493 0 0 0 1.337.821 1.5 1.5 0 0 0 .902-.3c.167-.126.334-.233.5-.355a322.28 322.28 0 0 0-.72-1.743 1.496 1.496 0 0 1 .438-1.729c-.202.138-.403.258-.605.4-3.276-5.87-9.054-12.739-21.207-12.739-6.284 0-12.958 2.238-19.11 6.332.213.124.4.294.536.52.268.447.696 1.09 1.25 1.888 5.625-3.717 11.67-5.74 17.324-5.74 11.462 0 16.365 6.758 19.355 12.645m76.862-10.086c-3.92-3.827-9.43-5.766-16.405-5.766-9.33 0-18.824 4.693-25.709 12.632-4.066-4.095-9.103-6.169-14.995-6.169-5.477 0-11.2 2.003-17.038 5.913.04-.02.074-.045.115-.06a1.498 1.498 0 0 1 1.96.808l.484 1.171c4.997-3.156 9.95-4.832 14.48-4.832 5.547 0 10.033 2.04 13.711 6.203l-.023-.887a1.499 1.499 0 0 1 1.46-1.538c.798-.038 1.517.631 1.54 1.46.003.186.01.384.014.573 6.362-7.693 15.278-12.274 24.001-12.274 6.218 0 10.883 1.617 14.25 4.89.131-.313.264-.633.395-.942a1.5 1.5 0 1 1 2.764 1.167c-.126.296-.253.601-.379.9.042-.026.09-.035.13-.066 6.143-4.79 14.05-7.538 21.695-7.538 4.064 0 7.483.794 10.206 1.815.276-.49.555-.977.828-1.473a1.5 1.5 0 0 1 1.755-.712c-3.936-1.722-8.29-2.63-12.789-2.63-7.855 0-15.959 2.667-22.45 7.355" fill="#4C5D7F"/><path d="M90.149 88.253c-.022-.828-.74-1.498-1.54-1.46a1.5 1.5 0 0 0-1.46 1.538c.009.289.017.592.024.888.474 17.87 1.445 48.617 3.018 72.515-15.073-34.18-22.723-53.026-27.907-65.796a1479.118 1479.118 0 0 0-3.785-9.261 1.5 1.5 0 0 0-1.961-.81c-.041.017-.076.04-.115.062a1.494 1.494 0 0 0-.695 1.898l.72 1.743c.929 2.258 1.929 4.719 3.056 7.496 5.492 13.53 13.757 33.886 30.655 72.014 1.173-.041 2.36-.08 3.554-.115-1.893-24.65-3.03-60.434-3.55-80.14l-.014-.572m41.425-6.586a1.5 1.5 0 1 0-2.764-1.167l-.396.94c-11.838 28.136-25.952 66.412-33.584 87.49l.327-.01c.981-.03 1.94-.055 2.896-.08 7.712-21.276 21.534-58.69 33.143-86.273l.378-.9m34.519-6.951a1.5 1.5 0 0 0-2.039.59c-.273.496-.552.98-.828 1.473-8.563 15.23-18.62 27.833-29.256 41.139-12.087 15.128-24.578 30.773-34.99 50.898a877.54 877.54 0 0 1 3.432-.082c10.123-19.166 22.202-34.3 33.902-48.943 10.773-13.48 20.96-26.241 29.671-41.8.233-.414.468-.822.698-1.24a1.5 1.5 0 0 0-.59-2.035M52.328 128.843c-14.975-19.357-30.401-39.298-35.299-46.344a36.702 36.702 0 0 1-1.25-1.888 1.494 1.494 0 0 0-.536-.52 1.474 1.474 0 0 0-1.522.006 1.5 1.5 0 0 0-.515 2.058c.299.497.771 1.207 1.382 2.084 4.981 7.16 19.784 26.296 35.367 46.44 11.257 14.552 22.855 29.546 29.789 38.82 1.198-.055 2.403-.11 3.621-.16-6.751-9.1-19.085-25.045-31.037-40.496" fill="#4C5D7F"/><path d="M58.647 194.506c.508-.005.992-.013 1.481-.021a752.153 752.153 0 0 1-.235-17.916c0-.963.003-1.927.007-2.89 10.632-.777 21.665-1.338 33.788-1.712a3.897 3.897 0 0 1-.027-.353c0-.404.003-.808.007-1.212.01-.821.645-1.483 1.488-1.482l-.326.01-1.118.035a869.196 869.196 0 0 0-13.968.534 751.61 751.61 0 0 0-21.448 1.29 1.501 1.501 0 0 0-1.388 1.486c-.01 1.43-.015 2.862-.015 4.294 0 6.443.103 12.937.268 19.433a1.5 1.5 0 0 1 1.486-1.496" fill="#4C5D7F"/><path d="M98.054 168.84c-.957.025-1.915.05-2.858.079a1.5 1.5 0 0 1 1.473 1.516c-.004.37-.007.739-.007 1.109l.005.05.027.283c9.873-.275 20.485-.432 32.216-.478-.126 4.818-.378 9.695-.624 14.427l-.18 3.538c.474-.002.944-.003 1.425-.003a1.5 1.5 0 1 1 .003 3c-.53 0-1.05.002-1.57.004a420.25 420.25 0 0 0-.245 6.303c.476-.008.952-.02 1.429-.025.838 0 1.508.659 1.517 1.482a1.501 1.501 0 0 1-1.482 1.518c-.517.006-1.034.018-1.55.027a222.48 222.48 0 0 0-.058 4.758c0 8.332.522 15.374 1.635 21.99-9.441.198-18.801.528-28.27.943.025.496.05.994.072 1.489a1.5 1.5 0 0 1-1.43 1.568h-.07a1.5 1.5 0 0 1-1.497-1.43l-.071-1.496c-1.21.055-2.422.11-3.637.168.032.496.076.993.1 1.488a1.5 1.5 0 0 1-1.418 1.576 1.5 1.5 0 0 1-1.577-1.419c-.026-.498-.07-1-.101-1.498-9.693.474-19.563 1.023-29.844 1.614l-.1-2.355c-.322-7.7-.647-15.516-.912-23.361-.503.017-1.006.037-1.51.052-.84 0-1.495-.624-1.538-1.42.272 8.349.62 16.669.964 24.856l.163 3.876a1.498 1.498 0 0 0 1.585 1.434c25.054-1.443 47.682-2.674 70.903-3.121a1.497 1.497 0 0 0 1.446-1.773c-1.291-6.94-1.893-14.304-1.893-23.181 0-6.802.36-13.738.708-20.447.272-5.258.554-10.697.662-16.057a1.497 1.497 0 0 0-1.5-1.53c-10.094.032-19.352.143-28.033.34a882.25 882.25 0 0 0-3.432.082c-.31.007-.617.016-.926.024" fill="#4C5D7F"/><path d="M58.858 202.758c.499-.015.998-.035 1.496-.052-.055-1.74-.103-3.48-.15-5.221-.506.007-1.007.016-1.531.02a1.502 1.502 0 0 1-1.51-1.465c.07 2.743.152 5.487.24 8.228a1.5 1.5 0 0 1 1.455-1.51m31.592-17.066c0-3.592.175-6.91.534-10.145a1.5 1.5 0 0 0-2.982-.33c-.371 3.345-.552 6.772-.552 10.475 0 2.084.063 4.171.167 6.256.45-.065.897-.13 1.358-.195a1.5 1.5 0 1 1 .419 2.97l-1.596.23c.139 2.017.314 4.03.51 6.036l1.525-.117a1.5 1.5 0 1 1 .233 2.991l-1.45.111c.288 2.663.6 5.311.913 7.928.7 5.87 1.408 11.918 1.782 17.904.03.5.075 1 .1 1.498a1.5 1.5 0 0 0 1.498 1.421c.027 0 .053 0 .08-.002a1.5 1.5 0 0 0 1.419-1.576c-.025-.495-.07-.99-.101-1.487-.378-6.08-1.092-12.19-1.8-18.113-1.011-8.472-2.057-17.234-2.057-25.855m7.374 17.568a1.498 1.498 0 0 1-1.607-1.372c.642 8.652 1.274 18.25 1.726 27.604.024.499.05.999.072 1.496a1.5 1.5 0 0 0 1.497 1.43h.071a1.502 1.502 0 0 0 1.43-1.569l-.072-1.488c-.429-8.856-1.016-17.925-1.623-26.212l-1.494.112m-2.667-34.341a1.475 1.475 0 0 0-1.488 1.48c-.004.406-.007.81-.007 1.214 0 .002.002.093.018.268l.009.085c.253 2.639.975 10.339 1.792 20.44a1.499 1.499 0 0 1 1.335-1.628c.505-.053 1.016-.104 1.53-.155a1443.97 1443.97 0 0 0-1.652-18.747c-.01-.094-.02-.198-.027-.282l-.005-.051c0-.37.003-.74.007-1.11.009-.826-.65-1.5-1.512-1.514" fill="#4C5D7F"/><path d="M58.66 197.506c.538-.005 1.039-.014 1.544-.021 11.587-.175 18.247-1.155 25.267-2.191l2.326-.341 1.597-.23a1.5 1.5 0 0 0-.42-2.97l-1.358.195c-.873.127-1.737.253-2.584.378-6.922 1.023-13.492 1.988-24.903 2.159-.49.008-.973.016-1.481.02a1.5 1.5 0 0 0-1.487 1.497c.02.852.683 1.504 1.498 1.504m38.156-6.726a1.497 1.497 0 0 0-1.334 1.628 1.504 1.504 0 0 0 1.648 1.354c.482-.05.97-.099 1.458-.147 8.237-.806 17.658-1.206 29.376-1.25.521-.002 1.04-.005 1.57-.005a1.5 1.5 0 0 0 0-3c-.484 0-.953.002-1.427.004-11.862.042-21.405.444-29.76 1.26-.515.051-1.026.101-1.53.155M58.9 205.757c.548-.015 1.051-.035 1.555-.052 9.082-.302 18.197-.957 28.161-1.73.485-.037.96-.073 1.45-.112a1.5 1.5 0 0 0-.234-2.991l-1.524.117c-9.897.768-18.954 1.418-27.954 1.717-.499.017-.998.037-1.496.052a1.498 1.498 0 0 0-1.454 1.51c.045.865.701 1.489 1.496 1.489m38.696-5.487a1.5 1.5 0 0 0-1.381 1.593 1.505 1.505 0 0 0 1.61 1.397l1.493-.11c10.396-.782 19.359-1.33 28.315-1.48.516-.009 1.033-.022 1.55-.028a1.5 1.5 0 0 0-.017-3c-.495.005-.971.018-1.447.025-9.071.15-18.123.701-28.623 1.491l-1.5.111" fill="#4C5D7F"/></g></svg>