<svg width="28" height="24" xmlns="http://www.w3.org/2000/svg" xmlns:xlink="http://www.w3.org/1999/xlink"><defs><path d="M1374.303 1799.461a7.365 7.365 0 0 1 13.446-5.773 7.365 7.365 0 1 1 12.74 7.4c-1.673 2.987-5.936 7.291-12.792 12.912-8.284-6.92-12.75-11.765-13.394-14.539z" id="a"/></defs><g transform="translate(-1374 -1790)" fill="none" fill-rule="evenodd"><use fill="#4B6584" xlink:href="#a"/><path stroke="#4B6584" stroke-width=".7" d="M1387.7 1813.545c6.691-5.504 10.857-9.722 12.486-12.634a7.015 7.015 0 0 0-12.135-7.047l-.303.524-.303-.525a7.015 7.015 0 1 0-12.807 5.499l.005.02c.616 2.643 4.98 7.398 13.056 14.163z"/></g></svg>