<svg width="52" height="50" xmlns="http://www.w3.org/2000/svg"><path d="M8.043 3.949H0v.567h8.044l10.461 35.369.552-.158L8.568 3.8l-.525.15zM25.05 39.024l.141.55L48.86 33.65l-.141-.55-23.668 5.924zm-3.1 10.408c-2.262 0-4.103-1.818-4.103-4.053s1.841-4.053 4.104-4.053c2.262 0 4.102 1.818 4.102 4.053s-1.84 4.053-4.102 4.053m0-8.674c-2.58 0-4.678 2.073-4.678 4.62 0 2.55 2.098 4.622 4.678 4.622 2.578 0 4.677-2.073 4.677-4.621 0-2.548-2.099-4.621-4.677-4.621m27.885-13.222L25.357 34.1a2.15 2.15 0 0 1-2.64-1.494l-6.262-22.79a2.09 2.09 0 0 1 .21-1.614 2.13 2.13 0 0 1 1.303-.995L42.448.643a2.15 2.15 0 0 1 2.64 1.494l6.262 22.79a2.127 2.127 0 0 1-1.513 2.609m2.068-2.757l-6.263-22.79A2.724 2.724 0 0 0 43.013 0c-.24 0-.481.032-.715.095L17.818 6.66a2.7 2.7 0 0 0-1.65 1.26 2.646 2.646 0 0 0-.267 2.045l6.262 22.79a2.724 2.724 0 0 0 2.628 1.988c.241 0 .482-.032.716-.095l24.48-6.564c1.451-.39 2.311-1.872 1.918-3.305m-26.617-6.607l.494.288 5.368-8.987 4.3 16.95.559-.137-4.276-16.851 8.347 5.098.301-.482-9.254-5.654-5.84 9.775z" fill="#4B6584" fill-rule="evenodd"/></svg>