<svg xmlns="http://www.w3.org/2000/svg" width="63" height="51"><path fill="#4B6584" fill-rule="evenodd" d="M43.701 50.418v-1.475l.065.002c2.46 0 4.798-.526 6.917-1.466l.612 1.339a18.453 18.453 0 0 1-7.53 1.601l-.064-.001zm-13.342-5.73l1.037-1.042A17.229 17.229 0 0 0 37.62 47.8l-.509 1.383a18.71 18.71 0 0 1-6.753-4.493zM19.235 38.09a18.45 18.45 0 0 1-6.111-1.04l.507-1.382c1.646.572 3.404.899 5.23.938v1.331h.578v-1.326a17.028 17.028 0 0 0 5.5-.975c.102.486.226.964.362 1.436a18.537 18.537 0 0 1-6.066 1.018zM5.828 32.358l1.037-1.042a17.222 17.222 0 0 0 6.224 4.154l-.507 1.383a18.707 18.707 0 0 1-6.754-4.495zM.489 18.635c.069-1.875.458-3.69 1.057-5.427l1.402.51c-.545 1.592-.809 3.255-.872 4.973-.007.212.034.43.034.644v.02H.377v-.02c0-.234.105-.469.112-.7zm2.357-8.272A18.764 18.764 0 0 1 5.81 6.332l1.036 1.042a17.261 17.261 0 0 0-2.71 3.694 17.01 17.01 0 0 0-.962 2.106l-1.377-.51c.298-.784.643-1.553 1.049-2.301zM18.862.59v1.474a16.977 16.977 0 0 0-6.5 1.427c-.024.011-.047.024-.072.035l-.613-1.338c.034-.015.066-.034.1-.05A18.453 18.453 0 0 1 18.862.59zm17.054 10.326l-1.35.625a17.262 17.262 0 0 0-3.425-4.628l1.067-1.073a18.636 18.636 0 0 1 3.708 5.076zm.16 3.02c-.153.068-.298.15-.448.22a16.962 16.962 0 0 0-.807-2.094l1.333-.617c.314.684.596 1.389.83 2.12-.304.116-.608.24-.908.372zm13.954.065l-.509 1.384c-1.8-.646-3.737-1-5.755-1l-.065.001v-1.474l.065-.002c2.197 0 4.304.387 6.264 1.09zm10.403 9.252l-1.333.616a17.36 17.36 0 0 0-3.416-4.639l1.037-1.042a18.846 18.846 0 0 1 3.712 5.065zm.52 8.297a17.239 17.239 0 0 0-1.6-7.159l1.332-.616c1.097 2.367 1.718 5 1.734 7.775h-1.466zm-.998 5.92c.596-1.677.94-3.472.99-5.34h1.466a18.73 18.73 0 0 1-1.08 5.85l-1.376-.51zm-3.88 6.24a17.33 17.33 0 0 0 3.674-5.697l1.376.51a18.818 18.818 0 0 1-4.014 6.229l-1.037-1.042zm-.41.408L56.7 45.16a18.73 18.73 0 0 1-4.879 3.419l-.614-1.34c1.65-.8 3.15-1.859 4.456-3.12zM50.061 15.59l.508-1.382a18.663 18.663 0 0 1 5.733 3.58l-1.039 1.043a17.213 17.213 0 0 0-5.202-3.24zM28.138 38.851A17.324 17.324 0 0 0 31 43.223l-1.039 1.045a18.794 18.794 0 0 1-3.153-4.8l1.331-.617zm-3.018-6.72h1.467a17.259 17.259 0 0 0 1.316 6.19l-1.334.618a18.72 18.72 0 0 1-1.449-6.809zm6.666-12.837l-1.036-1.042a18.755 18.755 0 0 1 4.938-3.48l.614 1.338a17.262 17.262 0 0 0-4.516 3.184zm-4.082 6.21l-1.376-.51c.297-.785.643-1.554 1.049-2.302a18.811 18.811 0 0 1 2.963-4.03l1.037 1.041a17.297 17.297 0 0 0-2.71 3.695c-.373.685-.69 1.388-.963 2.106zm-1.118 5.517c-.006.174-.009.351-.01.529H25.11a18.722 18.722 0 0 1 1.017-6.012l1.376.51a17.236 17.236 0 0 0-.917 4.973zm10.307-15.2c-.025.01-.047.024-.072.034l-.614-1.337c.034-.016.066-.035.1-.05a18.411 18.411 0 0 1 6.816-1.54V14.4a16.98 16.98 0 0 0-6.23 1.42zM24.985 3.072a16.932 16.932 0 0 0-5.546-1.008V.588c2.115.024 4.154.4 6.062 1.078l-.516 1.406zm.538.208l.518-1.41a18.46 18.46 0 0 1 5.745 3.574l-1.064 1.069a17.387 17.387 0 0 0-5.199-3.233zM7.255 6.965L6.22 5.922a18.733 18.733 0 0 1 4.938-3.48l.615 1.34a17.246 17.246 0 0 0-4.517 3.183zM2.04 26.61a18.72 18.72 0 0 1-1.446-6.674H2.06a17.23 17.23 0 0 0 1.313 6.055l-1.333.619zm1.568-.088a17.355 17.355 0 0 0 2.862 4.372l-1.04 1.045a18.835 18.835 0 0 1-3.154-4.8l1.331-.617zm15.628 9.513c-8.96 0-16.282-7.168-16.598-16.1h.05v-.6c0-.209-.029-.418-.021-.623.095-2.608.755-5.086 1.992-7.366a16.748 16.748 0 0 1 7.944-7.322 16.404 16.404 0 0 1 6.637-1.388c7.251 0 13.738 4.833 15.868 11.776a19.425 19.425 0 0 0-8.235 8.002 19.208 19.208 0 0 0-2.341 9.251c0 1.158.107 2.29.303 3.394a16.48 16.48 0 0 1-5.6.976zm7.918-4.37a16.567 16.567 0 0 1 2.02-7.99 16.768 16.768 0 0 1 7.951-7.322 16.45 16.45 0 0 1 6.642-1.388c9.16 0 16.612 7.492 16.612 16.7 0 9.208-7.452 16.7-16.612 16.7-9.16 0-16.613-7.492-16.613-16.7zm15.97 17.264v1.474a18.474 18.474 0 0 1-5.468-1.022l.507-1.384a17.01 17.01 0 0 0 4.961.932zM37.53 13.375C34.952 5.367 27.633 0 19.235 0c-2.67 0-5.257.54-7.69 1.607a19.415 19.415 0 0 0-9.206 8.478A19.212 19.212 0 0 0 0 19.335C0 29.997 8.628 38.67 19.235 38.67c2.138 0 4.234-.353 6.236-1.042C27.977 45.379 35.229 51 43.766 51 54.372 51 63 42.326 63 31.665c0-10.661-8.628-19.335-19.234-19.335-2.146 0-4.236.355-6.237 1.045zm6.75 28.046v-2.286c1.733-.105 2.491-.534 3.273-1.285.781-.752 1.23-1.754 1.23-3.006 0-1.262-.345-2.238-1.092-2.929-.746-.69-1.883-1.296-3.437-1.816-1.45-.483-2.423-.987-2.933-1.513-.511-.524-.763-1.217-.763-2.078 0-.89.29-1.628.865-2.214.574-.585 1.417-.878 2.53-.878 1.08 0 1.922.457 2.523 1.175.6.716.902 1.732.902 2.894h1.262l.033-.155c.015-1.48-.479-2.702-1.2-3.571-.72-.867-1.46-1.411-3.193-1.532v-2.291h-1.156v2.291c-1.155.106-2.169.544-2.92 1.314-.75.77-1.055 1.767-1.055 2.989 0 1.278.412 2.266 1.163 2.968.751.702 1.926 1.302 3.488 1.801 1.367.493 2.33 1.004 2.87 1.534.541.53.816 1.212.816 2.045 0 .901-.323 1.646-.973 2.233-.649.587-1.53.88-2.64.88-1.074 0-1.99-.168-2.748-.76-.759-.593-1.137-1.617-1.137-2.778h-1.262l-.034-.06c-.03 1.594.277 2.72 1.174 3.508.897.79 2.103 1.162 3.258 1.245v2.275h1.156zM19.736 17.769c-1.45-.482-2.43-.987-2.94-1.512-.511-.525-.766-1.218-.766-2.079 0-.89.288-1.628.862-2.213.574-.586 1.417-.878 2.53-.878 1.08 0 1.922.234 2.522.95.601.718.902 1.511.902 2.672h1.262l.034.07c.014-1.48-.344-2.593-1.066-3.46-.72-.868-1.904-1.3-3.06-1.421V7.74h-1.154v2.157c-1.156.106-2.304.543-3.056 1.314-.75.77-1.12 1.766-1.12 2.989 0 1.277.377 2.266 1.128 2.968.75.702 1.909 1.302 3.471 1.8 1.367.493 2.32 1.004 2.862 1.534.54.53.811 1.212.811 2.046 0 .9-.324 1.645-.974 2.232-.649.587-1.531.88-2.643.88-1.073 0-1.989-.39-2.747-.983-.76-.593-1.138-1.258-1.138-3h-1.262l-.034.162c-.03 1.594.411 2.832 1.309 3.62.897.79 2.237 1.274 3.393 1.357v2.41h1.155v-2.421c1.155-.106 2.357-.535 3.139-1.285.78-.752 1.163-1.754 1.163-3.007 0-1.261-.38-2.237-1.126-2.929-.747-.69-1.902-1.296-3.457-1.816"/></svg>