<svg width="51" height="40" xmlns="http://www.w3.org/2000/svg"><g fill="none" fill-rule="evenodd"><path d="M-7-7h64v53H-7z"/><path d="M8.66 39.784v-2.59a1.522 1.522 0 0 0-.448-1.187 1.58 1.58 0 0 0-1.204-.453 1.635 1.635 0 0 0-1.476.734 1.55 1.55 0 0 0-1.388-.734 1.396 1.396 0 0 0-1.23.613v-.51H2v4.127h.923v-2.27a.956.956 0 0 1 .25-.786.993.993 0 0 1 .778-.31c.606 0 .913.388.913 1.087v2.296h.923v-2.287a.96.96 0 0 1 .253-.785.997.997 0 0 1 .775-.312c.624 0 .923.389.923 1.088v2.296l.922-.017zm13.65-4.126h-1.502v-1.252h-.923v1.252h-.835v.82h.853v1.899c0 .958.378 1.528 1.458 1.528.404.001.8-.11 1.143-.32l-.264-.768a1.71 1.71 0 0 1-.808.233c-.44 0-.607-.276-.607-.69v-1.882h1.494l-.009-.82zm7.794-.104a1.244 1.244 0 0 0-1.107.604v-.5h-.905v4.126h.914v-2.313c0-.683.298-1.062.878-1.062.196-.003.39.032.572.103l.28-.863a1.986 1.986 0 0 0-.65-.112l.018.017zm-11.783.432a3.185 3.185 0 0 0-1.713-.432c-1.063 0-1.758.5-1.758 1.32 0 .674.51 1.089 1.45 1.218l.44.06c.5.07.738.2.738.432 0 .32-.334.5-.958.5a2.264 2.264 0 0 1-1.397-.43l-.44.699a3.07 3.07 0 0 0 1.82.535c1.212 0 1.915-.561 1.915-1.347 0-.786-.554-1.105-1.468-1.235l-.439-.06c-.395-.052-.712-.13-.712-.406s.3-.483.8-.483c.463.005.917.127 1.318.354l.404-.725zm24.475-.432a1.244 1.244 0 0 0-1.107.604v-.5h-.905v4.126h.914v-2.313c0-.683.299-1.062.879-1.062.195-.003.39.032.57.103l.282-.863a1.986 1.986 0 0 0-.65-.112l.017.017zm-11.774 2.158a2.066 2.066 0 0 0 .635 1.566 2.15 2.15 0 0 0 1.606.593 2.222 2.222 0 0 0 1.511-.493l-.44-.725a1.866 1.866 0 0 1-1.097.371c-.7-.055-1.24-.63-1.24-1.32 0-.69.54-1.266 1.24-1.321.397.004.782.134 1.098.371l.44-.725a2.222 2.222 0 0 0-1.512-.492 2.143 2.143 0 0 0-1.606.592 2.07 2.07 0 0 0-.635 1.566v.017zm8.558 0v-2.054h-.913v.5a1.606 1.606 0 0 0-1.318-.604c-1.214 0-2.197.966-2.197 2.158s.983 2.159 2.197 2.159a1.606 1.606 0 0 0 1.318-.605v.5h.913v-2.054zm-3.4 0a1.261 1.261 0 0 1 1.315-1.173c.69.025 1.233.588 1.222 1.267a1.259 1.259 0 0 1-1.263 1.227 1.272 1.272 0 0 1-.931-.386 1.226 1.226 0 0 1-.343-.935zm-11.027-2.158c-1.213.017-2.183.996-2.166 2.188.017 1.192 1.014 2.145 2.227 2.129a2.582 2.582 0 0 0 1.744-.562l-.439-.664a2.02 2.02 0 0 1-1.221.431 1.16 1.16 0 0 1-1.257-1.01h3.12v-.345c0-1.295-.818-2.158-1.995-2.158l-.013-.009zm0 .803c.276-.006.543.096.743.284.199.188.314.446.32.717h-2.197a1.074 1.074 0 0 1 1.116-1.001h.018zm22.893 1.364V34h-.878v2.158a1.606 1.606 0 0 0-1.318-.604c-1.213 0-2.197.966-2.197 2.158s.984 2.159 2.197 2.159a1.606 1.606 0 0 0 1.318-.605v.5h.878v-2.045zm1.525 1.463a.446.446 0 0 1 .303.117.395.395 0 0 1 0 .578.44.44 0 0 1-.136.086.44.44 0 0 1-.562-.216.4.4 0 0 1 .228-.535.446.446 0 0 1 .18-.03h-.013zm0 .73a.317.317 0 0 0 .228-.095.315.315 0 0 0 0-.432.325.325 0 0 0-.228-.095.335.335 0 0 0-.233.095.315.315 0 0 0 0 .432.33.33 0 0 0 .246.095h-.013zm.026-.514a.178.178 0 0 1 .114.035.107.107 0 0 1 .04.09.103.103 0 0 1-.03.078.155.155 0 0 1-.093.039l.127.142h-.1l-.12-.142h-.039v.142h-.083v-.38l.184-.004zm-.096.073v.104h.096a.094.094 0 0 0 .053 0 .042.042 0 0 0 0-.039.042.042 0 0 0 0-.039.094.094 0 0 0-.053 0l-.096-.026zm-4.833-1.752a1.261 1.261 0 0 1 1.315-1.173c.69.025 1.233.588 1.222 1.266a1.259 1.259 0 0 1-1.263 1.228 1.272 1.272 0 0 1-.931-.387 1.226 1.226 0 0 1-.343-.934zm-30.854 0v-2.063H12.9v.5a1.606 1.606 0 0 0-1.318-.604c-1.213 0-2.197.966-2.197 2.158s.984 2.159 2.197 2.159a1.606 1.606 0 0 0 1.318-.605v.5h.914v-2.045zm-3.4 0a1.261 1.261 0 0 1 1.314-1.173c.69.025 1.233.588 1.222 1.266a1.259 1.259 0 0 1-1.263 1.228 1.272 1.272 0 0 1-.937-.384 1.226 1.226 0 0 1-.346-.937h.01z" fill="#231F20" fill-rule="nonzero"/><g fill-rule="nonzero"><path fill="#FF5F00" d="M18.591 3.441h13.731v24.815H18.591z"/><path d="M19.463 15.851a15.787 15.787 0 0 1 5.993-12.41C19.022-1.644 9.783-.903 4.231 5.143c-5.551 6.045-5.551 15.366 0 21.412 5.552 6.046 14.791 6.786 21.225 1.701a15.787 15.787 0 0 1-5.993-12.405z" fill="#EB001B"/><path d="M50.847 15.851c0 6.042-3.43 11.554-8.834 14.194a15.62 15.62 0 0 1-16.557-1.789 15.813 15.813 0 0 0 5.996-12.407c0-4.842-2.21-9.416-5.996-12.408a15.62 15.62 0 0 1 16.557-1.788c5.404 2.64 8.834 8.152 8.834 14.194v.004zm-1.499 9.775v-.508h.205v-.105h-.519v.105h.222v.508h.092zm1.007 0v-.613h-.157l-.183.438-.183-.438h-.14v.613h.114v-.46l.17.399h.117l.17-.399v.465l.092-.005z" fill="#F79E1B"/></g></g></svg>