<svg width="19" height="24" xmlns="http://www.w3.org/2000/svg"><g fill="none"><path fill="#4B6584" d="M12.992 4.738l.603.798-7.042 5.32-.603-.798zm-7.044 8.617l7.387 5.526-.599.8-7.387-5.525z"/><path d="M3.595 8.584c1.956 0 3.547 1.532 3.547 3.417 0 1.884-1.59 3.417-3.547 3.417C1.64 15.418.05 13.885.05 12s1.59-3.417 3.546-3.417zM15.318.042c1.956 0 3.547 1.532 3.547 3.417 0 1.885-1.59 3.417-3.547 3.417-1.955 0-3.546-1.532-3.546-3.417 0-1.885 1.59-3.417 3.546-3.417zm0 16.99c1.956 0 3.547 1.532 3.547 3.417 0 1.884-1.59 3.417-3.547 3.417-1.956 0-3.546-1.533-3.546-3.417 0-1.885 1.59-3.417 3.546-3.417z" fill="#FFF" stroke="#4B6584" stroke-width=".7"/></g></svg>