<svg width="24" height="24" xmlns="http://www.w3.org/2000/svg"><path d="M16.941 5.365h-4.517V.31l4.517 5.03v.024zm0 16.296c0 .78-.723 1.492-1.518 1.492H1.701c-.769 0-1.419-.683-1.419-1.492V1.701A1.42 1.42 0 0 1 1.701.282h10.44v5.365h4.8v16.014zM1.701 0C.763 0 0 .763 0 1.7v19.961c0 .962.779 1.774 1.7 1.774h13.723c.942 0 1.8-.845 1.8-1.774V5.233L12.524 0H1.701zm20.887 17.918c0 .864-.828 2.976-1.55 2.976h-.624c-.714 0-1.496-2.089-1.496-2.976V7.058h3.67v10.86zm-3.67-11.851c0-.796.726-1.55 1.496-1.55h.623c.783 0 1.551.768 1.551 1.55v.71h-3.67v-.71zm3.953.71v-.71c0-.942-.891-1.832-1.834-1.832h-.623c-.931 0-1.779.873-1.779 1.832v11.852c0 .918.789 3.257 1.779 3.257h.198v1.13h.282v-1.13h.143c1 0 1.834-2.365 1.834-3.258V7.058h.847v5.083H24V6.776h-1.13zM2.824 14.4h11.011v-.282H2.824v.282zm0-2.824h11.011v-.282H2.824v.282zm0-2.258h11.011v-.283H2.824v.283zm0 7.623h6.211v-.282H2.824v.282zM9.035 4.8H2.824v.282h6.211V4.8z" stroke="#fa8231" stroke-width=".2" fill="#fa8231" fill-rule="evenodd"/></svg>