<svg width="96" height="22" xmlns="http://www.w3.org/2000/svg"><g fill="none"><path d="M36.3 5h-5.38a.748.748 0 0 0-.738.633L28.006 19.48a.449.449 0 0 0 .443.52h2.569a.748.748 0 0 0 .738-.634l.587-3.735a.748.748 0 0 1 .738-.634h1.703c3.544 0 5.59-1.721 6.124-5.132.24-1.493.01-2.665-.686-3.486C39.457 5.477 38.1 5 36.3 5zm.62 5.057c-.293 1.938-1.768 1.938-3.195 1.938h-.811l.57-3.619a.449.449 0 0 1 .442-.38h.372c.972 0 1.888 0 2.362.556.282.332.369.825.26 1.505z" fill="#253B80"/><path d="M51.54 9.255h-2.651a.465.465 0 0 0-.456.398l-.118.759-.185-.275C47.556 9.285 46.276 9 44.999 9c-2.93 0-5.432 2.27-5.92 5.454-.253 1.588.107 3.107.988 4.166.808.974 1.964 1.38 3.34 1.38 2.36 0 3.669-1.553 3.669-1.553l-.118.754a.469.469 0 0 0 .455.546H49.8c.38 0 .7-.281.76-.665L51.994 9.8a.467.467 0 0 0-.454-.545zm-3.696 5.279c-.256 1.549-1.458 2.59-2.991 2.59-.77 0-1.385-.253-1.78-.732-.392-.475-.541-1.152-.416-1.906.239-1.536 1.46-2.61 2.97-2.61.754 0 1.366.256 1.769.739.404.488.564 1.168.448 1.919zM65.531 9h-2.703c-.257 0-.5.119-.646.317l-3.728 5.082-1.58-4.884C56.775 9.21 56.47 9 56.125 9H53.47c-.322 0-.547.292-.444.573l2.977 8.086-2.799 3.657c-.22.288.002.684.382.684h2.7a.799.799 0 0 0 .641-.31l8.99-12.01c.215-.287-.006-.68-.385-.68z" fill="#253B80"/><path d="M72.3 5h-5.38a.748.748 0 0 0-.738.633L64.006 19.48a.449.449 0 0 0 .442.52h2.761a.524.524 0 0 0 .516-.444l.618-3.925a.748.748 0 0 1 .738-.634h1.702c3.545 0 5.59-1.721 6.124-5.132.242-1.493.01-2.665-.686-3.486C75.457 5.477 74.1 5 72.3 5zm.621 5.057c-.293 1.938-1.768 1.938-3.195 1.938h-.811l.57-3.619a.447.447 0 0 1 .442-.38h.372c.971 0 1.888 0 2.362.556.282.332.368.825.26 1.505zm16.616-.802h-2.65a.462.462 0 0 0-.455.398l-.117.759-.186-.275C85.555 9.285 84.275 9 82.998 9c-2.93 0-5.432 2.27-5.919 5.454-.253 1.588.106 3.107.987 4.166.81.974 1.964 1.38 3.34 1.38 2.36 0 3.67-1.553 3.67-1.553l-.119.754a.469.469 0 0 0 .457.546H87.8c.378 0 .7-.281.76-.665L89.994 9.8a.47.47 0 0 0-.457-.545zm-3.696 5.279c-.254 1.549-1.458 2.59-2.991 2.59-.768 0-1.385-.253-1.78-.732-.392-.475-.54-1.152-.417-1.906.24-1.536 1.462-2.61 2.972-2.61.752 0 1.365.256 1.768.739.405.488.566 1.168.448 1.919zm6.535-9.154l-2.37 14.1c-.046.274.18.52.475.52h2.383c.396 0 .732-.268.793-.634L95.994 5.52c.046-.273-.18-.52-.475-.52h-2.668a.474.474 0 0 0-.475.38z" fill="#179BD7"/><path d="M4.755 22l.4-2.598-.892-.021H0L2.962.21a.255.255 0 0 1 .083-.15c.044-.039.1-.06.158-.06h7.188c2.386 0 4.033.507 4.893 1.507.403.47.66.96.784 1.5.13.566.132 1.242.005 2.067l-.01.06v.53l.404.232c.34.184.61.394.816.635.345.401.568.911.662 1.516.097.622.065 1.361-.094 2.2-.184.963-.481 1.802-.883 2.488A5.083 5.083 0 0 1 15.57 14.3a5.62 5.62 0 0 1-1.884.867c-.694.185-1.486.278-2.354.278h-.56c-.4 0-.788.147-1.093.41a1.738 1.738 0 0 0-.57 1.039l-.042.234-.708 4.579-.032.168c-.009.053-.023.08-.045.098A.117.117 0 0 1 8.21 22H4.755z" fill="#253B80"/><path d="M19.044 5a10.8 10.8 0 0 1-.074.39c-.957 4.515-4.232 6.075-8.413 6.075h-2.13c-.51 0-.942.34-1.021.804l-1.09 6.352-.31 1.8c-.051.305.204.579.538.579h3.777c.447 0 .827-.299.897-.704l.037-.176.711-4.145.046-.228c.07-.406.45-.705.897-.705h.565c3.659 0 6.523-1.365 7.36-5.314.35-1.65.169-3.027-.756-3.996A3.59 3.59 0 0 0 19.044 5z" fill="#179BD7"/><path d="M16.054 5.357a6.612 6.612 0 0 0-.88-.215A10.18 10.18 0 0 0 13.4 5H8.024a.79.79 0 0 0-.37.093.939.939 0 0 0-.477.705l-1.144 7.97L6 14c.075-.525.483-.91.966-.91h2.012c3.953 0 7.047-1.767 7.952-6.875.027-.151.05-.299.07-.443a4.595 4.595 0 0 0-.946-.415z" fill="#222D65"/><path d="M7.464 5.74a.876.876 0 0 1 .506-.654A.94.94 0 0 1 8.364 5h5.708c.676 0 1.308.043 1.884.132a7.832 7.832 0 0 1 1.15.263c.283.09.546.197.79.32.285-1.75-.003-2.94-.988-4.02C15.82.509 13.86 0 11.352 0H4.07c-.513 0-.95.358-1.029.845L.008 19.305c-.06.366.233.695.617.695h4.496l1.129-6.877L7.464 5.74z" fill="#253B80"/></g></svg>