<?xml version="1.0" encoding="utf-8"?>
<!-- Generator: Adobe Illustrator 19.0.0, SVG Export Plug-In . SVG Version: 6.00 Build 0)  -->
<svg version="1.1" id="Слой_1" xmlns="http://www.w3.org/2000/svg" xmlns:xlink="http://www.w3.org/1999/xlink" x="0px" y="0px"
	 viewBox="-411 481 176 70" style="enable-background:new -411 481 176 70;" xml:space="preserve">
<style type="text/css">
	.st0{fill:#D8D8D8;fill-opacity:0;}
	.st1{fill:#299D30;}
</style>
<g transform="translate(0 -15)">
	<rect x="0" y="13" class="st0" width="115" height="26"/>
	<path class="st1" d="M-355,530.8c0-5.8,3.4-9.6,9.4-9.6c2.7,0,4.3,0.5,5.5,1.1l-0.8,2.1c-1.5-0.5-2.5-0.8-4.6-0.8
		c-3.7,0-6.6,2-6.6,7c0,5,3,7.2,7.1,7.2c1.8,0,3.1-0.3,4.3-0.7l0.7,2.2c-1.4,0.5-2.8,0.9-5.4,0.9C-351.8,540.3-355,536.5-355,530.8
		 M-338.3,532c0-2.9,0.5-7.5,2.2-9.1c1.4-1.4,5.3-2.3,9.7-3.1l0.4,2.5c-4,0.7-7.5,1.3-8.4,2.1c-0.8,0.7-1.1,2.4-1.3,3.7
		c1.2-0.7,2.8-1.3,4.9-1.3c3.4,0,5.6,1.7,5.6,6c0,5.1-3,7.4-6.9,7.4C-335.9,540.2-338.3,537.7-338.3,532 M-327.8,532.9
		c0-2.3-1-4-3.6-4c-1.6,0-3,0.6-4.2,1.2c0,0.5-0.1,1.2-0.1,1.6c0,4.3,1.3,6.2,3.9,6.2C-328.6,538-327.8,535.4-327.8,532.9
		 M-322.8,533.1c0-5.6,2.9-7.8,6.5-7.8c4,0,5.7,2.5,5.7,7.2v1h-9.4c0,3.8,2.2,4.5,4.7,4.5c1.4,0,2.5-0.2,3.9-0.6l0.5,2.1
		c-1.3,0.5-3,0.8-4.8,0.8C-320.1,540.3-322.8,538.6-322.8,533.1z M-313.5,531.6c0-2.5-0.9-4.2-3-4.2c-1.9,0-3.3,1.4-3.5,4.2H-313.5z
		 M-307.9,525.7h2.7v1.1c1.2-0.9,2.4-1.5,4.1-1.5c3.4,0,5.7,2.4,5.7,7.1c0,5.8-3.5,7.8-7.3,7.8c-0.9,0-1.9-0.1-2.5-0.2v5.7h-2.7
		V525.7z M-298.2,532.6c0-2.6-0.9-4.9-3.7-4.9c-1.5,0-2.6,0.7-3.3,1.1v9c0.3,0.1,1.5,0.3,2.4,0.3
		C-299.5,538-298.2,535.8-298.2,532.6z M-293.1,532c0-2.9,0.5-7.5,2.2-9.1c1.4-1.4,5.3-2.3,9.7-3.1l0.4,2.5c-4,0.7-7.5,1.3-8.4,2.1
		c-0.8,0.7-1.1,2.4-1.3,3.7c1.2-0.7,2.8-1.3,4.9-1.3c3.4,0,5.6,1.7,5.6,6c0,5.1-3,7.4-6.9,7.4C-290.7,540.2-293.1,537.7-293.1,532
		 M-282.6,532.9c0-2.3-1-4-3.6-4c-1.6,0-3,0.6-4.2,1.2c0,0.5-0.1,1.2-0.1,1.6c0,4.3,1.3,6.2,3.9,6.2
		C-283.4,538-282.6,535.4-282.6,532.9 M-278.1,536.1c0-3.6,3.2-4.3,5.7-4.4l3.1-0.1v-1.5c0-2-1-2.5-3.1-2.5c-1.5,0-2.8,0.3-4,0.7
		l-0.6-2.1c1.3-0.5,2.9-1,5-1c3.4,0,5.3,1.2,5.3,4.1v7.5c0,0.9,0.8,1.1,1.5,1.1l-0.2,2.1c-0.2,0-0.4,0.1-0.5,0.1
		c-1.5,0-2.9-0.4-3.2-1.7c-0.9,0.7-2.4,1.8-4.6,1.8C-276.3,540.2-278.1,538.7-278.1,536.1 M-269.3,536.7v-3.3l-3,0.1
		c-2,0.1-3.1,0.9-3.1,2.4c0,1.4,1,2.1,2.4,2.1C-271.7,538-270.3,537.4-269.3,536.7"/>
	<polygon class="st1" points="-262.8,525.7 -260.1,525.7 -260.1,531.7 -253.3,531.7 -253.3,525.7 -250.6,525.7 -250.6,539.9
		-253.3,539.9 -253.3,533.9 -260.1,533.9 -260.1,539.9 -262.8,539.9 	"/>
	<path class="st1" d="M-247.2,525.7h2.7v14.3h-2.7V525.7z M-240.3,537.5l-4.1-4.9l5.7-7h3.1l-5.8,6.7l2.8,3.1
		c1.3,1.4,2.4,2.3,3.6,2.6l-0.5,2C-236.9,540.1-238.5,539.8-240.3,537.5z M-369.8,530c0,11.4-9.2,20.6-20.6,20.6
		c-11.4,0-20.6-9.2-20.6-20.6c0-0.5,0-0.9,0-1.4l12.5,7.2l26.4-15.2C-370.6,523.5-369.8,526.6-369.8,530z M-398.5,530.7l-11.6-6.7
		c-0.2,0.7-0.4,1.5-0.6,2.3l12.2,7l25.3-14.5c-0.4-0.6-0.9-1.2-1.3-1.8L-398.5,530.7z M-376.1,515.2c-0.6-0.6-1.2-1.1-1.8-1.6
		l-20.6,11.8l-9.8-5.6c-0.4,0.6-0.7,1.3-1,2l10.8,6.2L-376.1,515.2z M-398.5,522.9l18.5-10.6c-0.8-0.5-1.6-0.9-2.4-1.2l-16.1,9.2
		l-7.2-4.1c-0.5,0.6-1,1.2-1.4,1.8L-398.5,522.9z"/>
</g>
</svg>
