<svg xmlns="http://www.w3.org/2000/svg" viewBox="-411 481 176 70"><path fill="#d8d8d8" fill-opacity="0" d="M0-2h115v26H0z"/><path d="M-355 515.8c0-5.8 3.4-9.6 9.4-9.6 2.7 0 4.3.5 5.5 1.1l-.8 2.1c-1.5-.5-2.5-.8-4.6-.8-3.7 0-6.6 2-6.6 7s3 7.2 7.1 7.2c1.8 0 3.1-.3 4.3-.7l.7 2.2c-1.4.5-2.8.9-5.4.9-6.4.1-9.6-3.7-9.6-9.4m16.7 1.2c0-2.9.5-7.5 2.2-9.1 1.4-1.4 5.3-2.3 9.7-3.1l.4 2.5c-4 .7-7.5 1.3-8.4 2.1-.8.7-1.1 2.4-1.3 3.7 1.2-.7 2.8-1.3 4.9-1.3 3.4 0 5.6 1.7 5.6 6 0 5.1-3 7.4-6.9 7.4-3.8 0-6.2-2.5-6.2-8.2m10.5.9c0-2.3-1-4-3.6-4-1.6 0-3 .6-4.2 1.2 0 .5-.1 1.2-.1 1.6 0 4.3 1.3 6.2 3.9 6.2 3.2.1 4-2.5 4-5m5 .2c0-5.6 2.9-7.8 6.5-7.8 4 0 5.7 2.5 5.7 7.2v1h-9.4c0 3.8 2.2 4.5 4.7 4.5 1.4 0 2.5-.2 3.9-.6l.5 2.1c-1.3.5-3 .8-4.8.8-4.4 0-7.1-1.7-7.1-7.2zm9.3-1.5c0-2.5-.9-4.2-3-4.2-1.9 0-3.3 1.4-3.5 4.2h6.5zm5.6-5.9h2.7v1.1c1.2-.9 2.4-1.5 4.1-1.5 3.4 0 5.7 2.4 5.7 7.1 0 5.8-3.5 7.8-7.3 7.8-.9 0-1.9-.1-2.5-.2v5.7h-2.7v-20zm9.7 6.9c0-2.6-.9-4.9-3.7-4.9-1.5 0-2.6.7-3.3 1.1v9c.3.1 1.5.3 2.4.3 3.3-.1 4.6-2.3 4.6-5.5zm5.1-.6c0-2.9.5-7.5 2.2-9.1 1.4-1.4 5.3-2.3 9.7-3.1l.4 2.5c-4 .7-7.5 1.3-8.4 2.1-.8.7-1.1 2.4-1.3 3.7 1.2-.7 2.8-1.3 4.9-1.3 3.4 0 5.6 1.7 5.6 6 0 5.1-3 7.4-6.9 7.4-3.8 0-6.2-2.5-6.2-8.2m10.5.9c0-2.3-1-4-3.6-4-1.6 0-3 .6-4.2 1.2 0 .5-.1 1.2-.1 1.6 0 4.3 1.3 6.2 3.9 6.2 3.2.1 4-2.5 4-5m4.5 3.2c0-3.6 3.2-4.3 5.7-4.4l3.1-.1v-1.5c0-2-1-2.5-3.1-2.5-1.5 0-2.8.3-4 .7l-.6-2.1c1.3-.5 2.9-1 5-1 3.4 0 5.3 1.2 5.3 4.1v7.5c0 .9.8 1.1 1.5 1.1l-.2 2.1c-.2 0-.4.1-.5.1-1.5 0-2.9-.4-3.2-1.7-.9.7-2.4 1.8-4.6 1.8-2.6 0-4.4-1.5-4.4-4.1m8.8.6v-3.3l-3 .1c-2 .1-3.1.9-3.1 2.4 0 1.4 1 2.1 2.4 2.1 1.3 0 2.7-.6 3.7-1.3m6.5-11h2.7v6h6.8v-6h2.7v14.2h-2.7v-6h-6.8v6h-2.7zm15.6 0h2.7V525h-2.7v-14.3zm6.9 11.8l-4.1-4.9 5.7-7h3.1l-5.8 6.7 2.8 3.1c1.3 1.4 2.4 2.3 3.6 2.6l-.5 2c-1.4.1-3-.2-4.8-2.5zm-129.5-7.5c0 11.4-9.2 20.6-20.6 20.6-11.4 0-20.6-9.2-20.6-20.6v-1.4l12.5 7.2 26.4-15.2c1.5 2.9 2.3 6 2.3 9.4zm-28.7.7l-11.6-6.7c-.2.7-.4 1.5-.6 2.3l12.2 7 25.3-14.5c-.4-.6-.9-1.2-1.3-1.8l-24 13.7zm22.4-15.5c-.6-.6-1.2-1.1-1.8-1.6l-20.6 11.8-9.8-5.6c-.4.6-.7 1.3-1 2l10.8 6.2 22.4-12.8zm-22.4 7.7l18.5-10.6c-.8-.5-1.6-.9-2.4-1.2l-16.1 9.2-7.2-4.1c-.5.6-1 1.2-1.4 1.8l8.6 4.9z" fill="#299d30"/></svg>