<?xml version="1.0" encoding="UTF-8"?>
<svg width="150px" height="265px" viewBox="0 0 150 265" version="1.1" xmlns="http://www.w3.org/2000/svg" xmlns:xlink="http://www.w3.org/1999/xlink">
    <!-- Generator: sketchtool 49.1 (51147) - http://www.bohemiancoding.com/sketch -->
    <title>409F92C1-0CAD-4982-BF4B-50EA239729DA</title>
    <desc>Created with sketchtool.</desc>
    <defs>
        <polygon id="path-1" points="0.0791255056 0.142859375 74.1559399 0.142859375 74.1559399 79.1133031 0.0791255056 79.1133031"></polygon>
        <polygon id="path-3" points="0 0.0258649066 4.26814697 0.0258649066 4.26814697 7.99817143 0 7.99817143"></polygon>
    </defs>
    <g id="1920" stroke="none" stroke-width="1" fill="none" fill-rule="evenodd">
        <g id="Contact" transform="translate(-951.000000, -318.000000)">
            <g id="Group" transform="translate(951.000000, 318.000000)">
                <path d="M22,234 C22,235.456604 22.3510638,236.946415 23,238 C22.5762411,236.609811 22.2606383,235.289057 22,234" id="Fill-1" fill="#E1E0E7"></path>
                <path d="M120.510085,180.611998 L119.143872,180 C119.107041,181.803272 119.063304,183.608968 119.009208,185.414664 C119.003453,185.609776 119.003453,185.804888 119,186 C119.085172,185.804888 119.1761,185.609776 119.261272,185.415876 C119.78727,184.216118 120.330532,182.973945 120.911777,181.780246 C121.013063,181.570592 121.028026,181.324581 120.952061,181.104019 C120.876096,180.883458 120.714959,180.7041 120.510085,180.611998" id="Fill-3" fill="#E1E0E7"></path>
                <path d="M65.6786111,53.0347597 C66.3158404,55.5552676 66.7899992,58.1060366 67.1199033,60.675719 C65.6761023,59.0100907 64.2323013,57.3419407 62.7809739,55.6712689 C59.515801,51.9100509 56.3898652,47.8689165 51.1992062,46.9497318 C45.8793451,46.0065903 41.7724776,49.2861505 36.9117227,50.5760352 C30.6673774,52.2315764 30.0477096,47.1174294 27.5740557,42.9590328 C27.290564,42.4849403 26.7561945,42.411809 26.2870533,42.6198549 C22.8951871,44.1215682 22.5853532,48.5787944 23.3379862,51.8369196 C24.5108393,56.9081965 28.3128905,60.4512815 33.3179001,61.558338 C39.4355521,62.910006 45.2973089,59.0970917 51.2644344,60.1751479 C54.8256429,60.8207207 57.4924726,64.7899846 59.9222229,67.3180578 C63.078264,70.6039224 66.0411293,74.0234408 69.0215561,77.4694377 C72.0621935,80.9860442 77.0032292,77.8552684 77.3607299,73.9969622 C77.8562133,68.6646823 77.949038,63.4761431 77.7056867,58.2346468 C85.1115956,57.8740339 92.1963811,53.6790716 96.0787131,46.7807733 C102.545085,35.2928559 99.983624,17.5610392 95.7751511,5.70998707 C92.7407856,-2.84133065 80.4151656,-1.51488031 79.9447699,7.86357756 C79.6148658,14.4365677 87.764627,48.3707485 72.9051424,45.7708049 C68.5524148,45.0104917 64.5007404,48.3720094 65.6786111,53.0347597" id="Fill-5" fill="#E1E0E7"></path>
                <path d="M61.9969489,124.505404 C62.1104948,122.016125 59.029615,120.015274 56.9807416,121.518531 C53.4217072,124.132208 52.0566327,129.786446 47.5993238,131.137806 C45.8393617,131.673374 44.321631,131.271371 42.5843781,131.030431 C42.0860376,130.961029 40.9215609,130.710923 40.5582139,131.300179 C37.694333,135.940897 46.6467995,138.287445 49.3693788,137.971865 C55.5210455,137.26083 61.7004678,131.022574 61.9969489,124.505404" id="Fill-7" fill="#E1E0E7"></path>
                <path d="M112.344498,136.181882 C113.993441,133.620594 114.675634,130.638888 113.144739,127.814839 C112.416569,126.471007 110.537743,125.650194 109.066493,126.145685 C105.564819,127.320599 104.206646,130.511262 102.515454,133.521746 C101.373496,135.556262 100.681362,138.024959 97.9550762,137.942377 C97.4083279,137.926111 97.0815215,138.38907 97.0231188,138.880807 C96.8056621,140.738899 98.1526512,142.000149 99.7841979,142.610754 C101.84693,143.380267 103.813982,142.919811 105.708962,142.005154 C105.742512,141.588491 105.781033,141.173079 105.833223,140.762673 C106.251982,137.471911 109.609514,135.192151 112.344498,136.181882" id="Fill-9" fill="#E1E0E7"></path>
                <path d="M66.0101458,187.446031 C68.4831372,186.841826 71.0492539,186.324118 72.8871833,184.441543 C78.2431758,178.954089 72.0438828,171.263514 69.3730003,166.041911 C64.8616016,157.224334 64.9560202,145.760975 59.1563896,137.658269 C58.5252076,136.776765 57.3805437,136.784397 56.7480684,137.658269 C51.383022,145.076634 54.4833152,157.420224 58.9597919,164.557475 C61.3254307,168.328986 65.6777405,172.356171 66.8275781,176.67083 C68.2503242,182.00437 62.602022,180.486862 59.1848445,182.268949 C51.8926238,186.070988 52.6854814,194.442089 53.5352489,201.299498 C54.1871253,206.564349 55.0420664,211.745248 56.3742742,216.887986 C57.725883,222.105773 58.4579506,228.296648 62.5877946,232.077064 C64.3675207,233.706509 67.6799324,233.155729 68.2619649,230.604076 C69.3587728,225.79206 67.3449403,221.443056 66.2183841,216.745521 C64.8952302,211.228812 63.6470938,205.658678 62.4856155,200.106352 C61.4327834,195.07555 59.396963,189.062757 66.0101458,187.446031" id="Fill-11" fill="#E1E0E7"></path>
                <path d="M101.712159,231.589296 C102.803387,229.046831 103.915327,226.848727 104.742487,224.110992 C105.633074,221.170071 106.223347,218.127557 106.901644,215.127264 C107.328815,213.245814 106.324315,211.823511 104.668702,211.117637 C104.404633,211.005489 104.103024,210.994934 103.818243,211.001531 C101.952928,211.055626 100.809921,212.462096 100.622224,214.260425 C100.013829,220.073658 99.7834151,225.401356 100.241653,231.182923 C100.297315,231.887478 101.366538,232.392804 101.712159,231.589296" id="Fill-13" fill="#E1E0E7"></path>
                <path d="M121.956156,206.781359 C121.957382,205.885968 121.958607,204.993074 121.967185,204.105176 C122.067666,192.828491 122.010073,181.726638 120.723426,170.513643 C119.542161,160.222263 119.107152,147.545671 113.996098,138.38196 C113.363803,137.249296 112.536673,136.561206 111.639696,136.232771 C108.942638,135.244968 105.631665,137.520286 105.218713,140.804636 C105.167247,141.214243 105.12926,141.628846 105.096175,142.044697 C104.536177,149.116664 106.561728,156.905444 107.55796,163.831302 C108.697562,171.756201 109.416859,179.729804 110.538081,187.655952 C111.649499,195.514665 112.408008,203.399602 112.854046,211.326999 C113.012119,214.140551 114.772988,220.465735 113.673824,223.01454 C113.731417,224.435677 113.504722,224.177175 112.991288,222.241531 L111.469368,221.030193 C110.403289,220.002429 109.19139,219.315588 107.896165,218.643732 C106.611968,217.976872 105.439281,219.295607 106.010307,220.565639 C107.907193,224.782844 112.559955,233.016198 118.079059,228.860184 C120.212443,227.254224 120.678087,224.655466 121.108194,222.15911 C121.811562,218.066785 121.925522,213.838341 121.947579,209.641116 C120.921937,208.910567 121.066532,207.433234 121.956156,206.781359" id="Fill-15" fill="#E1E0E7"></path>
                <path d="M123.639305,207.00144 C123.247978,207.006483 122.923555,207.138855 122.653413,207.334263 C121.73695,207.992344 121.587993,209.483742 122.644577,210.221246 C122.681185,210.24646 122.702645,210.28176 122.74304,210.305713 C127.72678,213.279684 133.740595,216.365857 135.87396,222.143607 C137.821759,227.414558 136.016605,231.982044 131.855913,235.435078 C131.704432,235.558626 131.537802,235.669567 131.385058,235.793115 C131.083358,235.692259 130.771558,235.630485 130.457234,235.655699 C126.405105,235.988522 124.387876,238.580504 121.018675,240.684598 C117.640638,242.794996 113.948277,244.270005 110.168814,245.490354 C101.675752,248.233619 92.7269836,249.341767 83.8577428,250.02128 C73.8347179,250.78778 63.6097178,250.836947 53.7760448,248.497104 C49.8880201,247.571756 45.9583379,246.445959 42.2255817,245.004988 C38.0308069,243.383739 34.1743408,240.74385 29.8356587,239.562582 C28.5240815,239.205807 27.6101432,240.607696 28.1655753,241.732233 C30.7016278,246.873333 36.16506,250.574723 41.9213564,253.136449 C39.0141742,252.750677 36.0880569,252.315739 33.1366927,251.84424 C32.3035445,251.710607 31.7683099,252.754459 32.5433902,253.24865 C57.402764,269.07033 92.4189713,267.531025 118.880262,256.829014 C130.497629,252.132938 147.136608,245.057937 149.692858,231.186547 C152.419525,216.394853 136.43949,206.865285 123.639305,207.00144" id="Fill-17" fill="#E1E0E7"></path>
                <g id="Group-21" transform="translate(22.000000, 0.000000)">
                    <mask id="mask-2" fill="white">
                        <use xlink:href="#path-1"></use>
                    </mask>
                    <g id="Clip-20"></g>
                    <path d="M42.9307867,4.64139687 C46.8257867,4.29714687 50.8537867,3.938975 54.7690533,3.938975 C70.1083867,3.938975 70.1083867,3.938975 70.1083867,29.8197406 C70.1083867,31.8206937 70.1856533,33.65585 70.2603867,35.4289906 C70.7163867,46.3108344 70.9253867,51.2758812 49.8923867,53.3717562 C49.3882533,53.4223812 48.9233867,53.6717094 48.6041867,54.0665844 C48.2849867,54.4601937 48.1367867,54.9664437 48.19252,55.4688969 L48.2697867,56.1675219 C48.80432,60.9882875 49.35152,65.9216937 49.8429867,70.8399125 C48.85372,69.5806156 47.8644533,68.3327094 46.88912,67.1037875 C43.76932,63.170225 40.5418533,59.1025062 37.6031867,54.9765687 C37.2472533,54.4753812 36.6696533,54.179225 36.05532,54.179225 C32.4592533,54.2792094 28.4958533,54.3298344 24.21832,54.3298344 C13.9380533,54.3298344 7.67945333,53.2451937 5.61858667,51.1062875 C4.73698667,50.1912406 4.73192,49.1103969 4.79652,47.4233187 C4.80918667,47.0537562 4.82312,46.6892562 4.82312,46.33235 C4.82312,41.6988969 4.60018667,37.0008969 4.38485333,32.4585687 C4.17078667,27.9225687 3.94912,23.2308969 3.94912,18.6113656 C3.94912,17.4444594 3.92758667,16.3636156 3.90985333,15.3587094 C3.83005333,11.1176 3.84525333,8.84833437 5.03718667,7.6346 C6.98152,5.6551625 13.2578533,5.24889687 22.08272,5.24889687 C23.9003867,5.24889687 25.72312,5.2805375 27.55852,5.30964687 L30.8619867,5.35267812 C34.8937867,5.35267812 38.9800533,4.99070937 42.9307867,4.64139687 Z M27.6205867,1.5140375 C25.76492,1.4836625 23.9206533,1.45202187 22.08272,1.45202187 C9.74538667,1.45202187 4.94472,2.30885 2.32525333,4.97552187 C-0.0396133333,7.38274062 0.0224533333,10.7581625 0.109853333,15.4295844 C0.128853333,16.4117094 0.14912,17.4710375 0.14912,18.6113656 C0.14912,23.3220219 0.37332,28.0579906 0.58992,32.6382875 C0.80272,37.1363187 1.02312,41.7887562 1.02312,46.33235 C1.02312,46.6424281 1.01045333,46.9588344 0.999053333,47.2777719 C0.929386667,49.1091312 0.834386667,51.6138031 2.88132,53.7400531 C5.80478667,56.7724906 12.38512,58.1267094 24.21832,58.1267094 C28.12852,58.1267094 31.7828533,58.0849437 35.09772,58.0014125 C37.92872,61.9210531 40.9661867,65.7495687 43.9111867,69.4616469 C46.2101867,72.3599281 48.58772,75.3556625 50.82972,78.3513969 C51.1957867,78.8411937 51.7657867,79.1133031 52.3509867,79.1133031 C52.57772,79.1133031 52.8069867,79.0728031 53.0286533,78.9880062 C53.8215867,78.6855219 54.31812,77.8945062 54.2433867,77.0490687 C53.6581867,70.3615062 52.91212,63.5562406 52.1799867,56.94335 C73.8209867,54.4260219 74.5771867,47.6815062 74.0565867,35.2707875 C73.9843867,33.5356156 73.9083867,31.7396937 73.9083867,29.8197406 C73.9083867,2.65689687 73.3763867,0.1421 54.7690533,0.1421 C50.68532,0.1421 46.5724533,0.5066 42.59512,0.859709375 C38.72672,1.20142812 34.72532,1.55580312 30.8619867,1.55580312 L27.6205867,1.5140375 Z" id="Fill-19" fill="#4C5D7F" mask="url(#mask-2)"></path>
                </g>
                <path d="M41.0649441,22 C39.9955031,22 39.1298881,22.8831453 39.1298881,23.9713065 C39.1298881,26.9348374 38.8125389,29.2268098 38.1004383,31.4044464 C37.7611585,32.4360968 38.3094244,33.5531705 39.3233937,33.8974921 C39.5272196,33.9658307 39.7323355,34 39.9361614,34 C40.7463048,34 41.5009767,33.4769467 41.7705945,32.6503121 C42.620729,30.0534443 43,27.3777242 43,23.9713065 C43,22.8831453 42.134385,22 41.0649441,22" id="Fill-22" fill="#4C5D7F"></path>
                <path d="M57.6066352,32.9555605 C57.7556589,32.9851868 57.9060498,33 58.0537063,33 C58.9929656,33 59.8406232,32.4136461 60.0539048,31.5495455 C60.6814448,28.9955112 61,26.4056784 61,23.851644 C61,22.8295365 60.0826157,22 58.9492155,22 C57.8158153,22 56.898431,22.8295365 56.898431,23.851644 C56.898431,26.1365728 56.6126884,28.4548311 56.0494062,30.7471664 C55.8033121,31.7458198 56.5005788,32.7333633 57.6066352,32.9555605" id="Fill-24" fill="#4C5D7F"></path>
                <path d="M71.2272423,30.8395266 C71.4999713,30.9481547 71.7850971,31 72.0647132,31 C72.8567293,31 73.611555,30.5901756 73.9545324,29.9001401 C74.9655581,27.8608935 76,25.4229324 76,22.8109193 C76,22.4233143 75.9779613,22.0357094 75.9297516,21.6481044 C75.803029,20.63095 74.7782291,19.8940068 73.6473679,20.0125102 C72.5137519,20.1236072 71.6955648,21.0407743 71.8222874,22.0566943 C71.853968,22.3085141 71.8677422,22.5590995 71.8677422,22.8109193 C71.8677422,24.730428 71.0137423,26.7116572 70.1790262,28.3966278 C69.7148359,29.3298423 70.1845359,30.4247646 71.2272423,30.8395266" id="Fill-26" fill="#4C5D7F"></path>
                <path d="M38.8636677,126.18776 C38.8636677,121.210473 43.6713583,116.844454 49.1526149,116.844454 C50.2692148,116.844454 51.3536176,117.034114 52.372338,117.410871 C53.5649234,117.85042 54.6351594,118.493725 56.0660043,119.634247 C57.1375282,120.487715 59.1363323,123.942598 59.1363323,127.507689 C59.1363323,134.084269 53.9100777,138.155546 49.0676142,138.155546 C43.0596109,138.155546 38.8636677,133.234644 38.8636677,126.18776 M47.8621499,139.175608 C48.4610184,140.054706 48.2291983,141.250331 47.3457063,141.84494 C47.8943471,141.947459 48.4803367,142 49.0676142,142 C50.2254266,142 51.3974058,141.824437 52.5474909,141.504065 C52.5397636,141.454087 52.5307484,141.40411 52.5243089,141.354132 C52.3800653,140.303314 53.1206016,139.334512 54.1779587,139.189704 C54.9249345,139.087185 55.6216825,139.430623 56.0222161,140.00601 C59.9708845,137.645515 63,133.296156 63,127.507689 C63,123.010959 60.6534658,118.363014 58.4795088,116.633009 C56.7266915,115.236191 55.302286,114.390411 53.7156065,113.806054 C52.2641553,113.270393 50.7289913,113 49.1526149,113 C41.4806587,113 35,119.039638 35,126.18776 C35,133.364074 38.3819971,138.170924 42.7801389,140.458374 C43.5502967,139.831728 44.3410607,139.226867 45.1794766,138.660451 C46.0655444,138.067123 47.2645692,138.297791 47.8621499,139.175608" id="Fill-28" fill="#4C5D7F"></path>
                <path d="M38.4517462,189.553257 C38.7026,189.553257 38.9002424,189.59369 39.0864823,189.655603 C39.3043957,189.290443 39.6388675,188.990986 40.0708935,188.835572 C41.0591054,188.480519 42.1474055,188.992249 42.5021483,189.97654 C42.5832323,190.202712 42.6668503,190.451628 42.7504682,190.687908 C42.9164371,190.696753 43.0862069,190.705597 43.2521758,190.713178 C45.9089457,190.847113 48.6556682,190.987365 51.4023907,190.987365 C51.6646469,190.987365 51.9053652,190.994946 52.1473504,191 C52.0548639,190.412458 51.9547758,189.818599 51.868624,189.234847 C51.7406632,188.366802 52.2297014,187.555615 53,187.22457 C52.8416327,187.222043 52.6870662,187.218252 52.546436,187.214461 C52.1878925,187.20688 51.806544,187.196772 51.4023907,187.196772 C48.7532224,187.196772 46.0546436,187.059047 43.4447505,186.92764 C40.7930484,186.792442 38.0513936,186.654717 35.3110058,186.653454 C34.2949212,180.83363 33.8008152,175.658208 33.8008152,170.877006 C33.8008152,156.576363 38.2148287,146.636166 47.2911755,140.490351 C48.1945026,139.878802 48.4225515,138.699928 47.8346921,137.831882 C47.2455657,136.967627 46.0660461,136.738928 45.1956594,137.325206 C44.3708825,137.882423 43.5917153,138.480074 42.8340862,139.096677 C34.3227939,146.018299 30,156.685027 30,170.877006 C30,176.316507 30.6068635,182.215933 31.8560648,188.911383 C32.0258345,189.823653 32.8417429,190.474371 33.764074,190.460472 C34.7991627,190.438992 35.8367853,190.447837 36.8744078,190.46679 C37.200011,189.93358 37.7790019,189.569683 38.4517462,189.553257" id="Fill-30" fill="#4C5D7F"></path>
                <path d="M54.8589885,179.717297 L54.8768554,182.160103 C54.8768554,186.44241 54.3161078,187.284979 54.1456844,187.441916 C54.1181968,187.46507 54.0659703,187.484366 54,187.502375 C54.7284222,187.718484 55.3015393,188.301207 55.4197361,189.056303 C55.520066,189.696913 55.6382628,190.352959 55.7468389,191 C56.1976361,190.817336 56.6278175,190.566495 57.0236394,190.20374 C58.4639912,188.890362 59,186.709974 59,182.160103 L58.9890049,180.739956 C57.6448598,179.981001 56.2759758,179.063823 54.9153381,178 C54.8864761,178.569859 54.8589885,179.141005 54.8589885,179.717297" id="Fill-32" fill="#4C5D7F"></path>
                <path d="M53.1480406,138.017779 C52.0990796,138.159054 51.3644237,139.112661 51.5075219,140.146996 C51.5151879,140.197451 51.5241315,140.246645 51.5305198,140.295839 C52.1246329,144.554272 52.9691679,148.909831 53.7894272,153.124116 L53.9044168,153.718228 C53.1084331,153.931402 52.3124493,154.143314 51.5151879,154.355227 C48.8039879,155.075477 46.092788,155.796989 43.381588,156.574002 C42.4143974,156.851506 41.8305057,157.820249 42.0438753,158.792776 C43.7533878,166.583085 48.9010903,173.497993 54.2736613,177.926713 C55.5398249,178.969878 56.8123768,179.869244 58.0619308,180.613461 C60.605757,182.128384 63.0320382,183 64.9779183,183 C67.2329927,183 69,181.096571 69,178.667145 C69,175.419081 65.6154719,171.102625 62.0329061,166.530107 C60.0027002,163.940485 57.902223,161.261305 56.8149322,159.202726 C56.3255874,158.27687 55.1680251,157.916114 54.2289431,158.399225 C53.2911388,158.883596 52.927005,160.02641 53.4163497,160.953527 C54.6620707,163.309793 56.770214,165.999064 59.0010128,168.846008 C61.7479873,172.351395 65.1670123,176.713261 65.1670123,178.667145 C65.1670123,178.978707 65.0264694,179.188097 64.9779183,179.215847 C60.9788344,179.215847 49.6868527,171.50879 46.2282202,159.706019 C48.3235868,159.121998 50.4176757,158.565727 52.5117647,158.009457 C53.8839742,157.644917 55.2561838,157.280377 56.6283934,156.908268 C57.591751,156.647162 58.1896971,155.699862 58.0031583,154.729858 L57.5534211,152.410172 C56.7344394,148.195888 55.8873491,143.839067 55.3060127,139.636135 C55.2638498,139.33088 55.1437495,139.05716 54.9776534,138.821281 C54.581578,138.253658 53.8903626,137.916868 53.1480406,138.017779" id="Fill-34" fill="#4C5D7F"></path>
                <path d="M54.2394657,188.093381 C53.9733074,188.00834 53.6856029,187.975339 53.3915613,188.019763 C53.2229944,188.045149 53.0671017,188.097189 52.9188134,188.161922 C52.1469543,188.493203 51.6589973,189.308077 51.7870068,190.181338 C51.8731914,190.766474 51.9733176,191.363033 52.0658394,191.953246 C52.806013,196.699065 53.7236255,201.578158 54.6247616,206.320168 C56.4587193,215.978081 58.1912833,225.097821 58.1912833,231.953175 L58.1950856,232.284455 C58.2001552,232.686815 58.2153643,233.909127 58.0049725,234.165521 C58.0049725,234.165521 57.9428689,234.192175 57.7831739,234.192175 C54.6906675,233.794892 49.3586289,214.712614 46.7971718,205.542103 C45.3256964,200.275881 43.9328011,195.300324 42.6641131,191.641005 C42.5817307,191.402381 42.498081,191.152334 42.4156986,190.925133 C42.0608208,189.936368 40.9721065,189.423581 39.9835184,189.778978 C39.551328,189.935099 39.2167289,190.235917 39,190.604007 C39.7427085,190.848977 40.2902342,191.533116 40.3079781,192.360683 C40.340931,193.788618 40.3548727,195.221629 40.3548727,196.657179 C40.3548727,196.72445 40.3523378,196.792991 40.3523378,196.858994 C41.2319277,199.755479 42.1672842,203.101287 43.1355935,206.567677 C44.5094775,211.487386 45.7730959,215.917156 46.9809478,219.798598 C47.3294884,219.534589 47.7629463,219.379738 48.22302,219.400046 C49.2724443,219.458433 50.0747215,220.357079 50.0164202,221.40677 C49.9112243,223.292912 49.6742166,225.09909 49.3421524,226.785956 C52.0202122,233.972591 54.6032155,238 57.7768367,238 C59.250847,238 60.1697269,237.381863 60.6804974,236.86273 C62.0379049,235.485566 62.0125565,233.450919 61.9960801,232.234954 L61.9935452,231.953175 C61.9935452,225.184132 60.4371527,216.575909 58.7020538,207.413014 C58.0556693,207.504402 57.3915409,207.576751 56.7552957,207.677023 C56.6551695,207.690985 56.5563107,207.698601 56.4574519,207.698601 C55.5373045,207.69987 54.7286901,207.029693 54.5816693,206.091699 C54.4194395,205.052163 55.1279276,204.07736 56.1646777,203.914893 C56.7629002,203.820966 57.3864712,203.753695 57.9922983,203.667384 C57.2280436,199.629821 56.4764632,195.53514 55.8503574,191.54454 C55.7489637,190.906094 55.641233,190.258764 55.5487113,189.626665 C55.4384457,188.881601 54.9099313,188.306619 54.2394657,188.093381" id="Fill-36" fill="#4C5D7F"></path>
                <path d="M39.595253,208.311094 C39.6814491,208.538712 39.715178,208.772383 39.7064335,209 C39.8513429,204.741859 39.9925047,200.368699 39.9975016,196.065762 C39.9975016,196.001593 40,195.936214 40,195.873256 C40,194.503919 39.9850094,193.137004 39.9537789,191.774931 C39.9350406,190.984324 39.3953779,190.33174 38.6633354,190.098069 C38.478451,190.038743 38.284822,190 38.0811993,190 C37.3741412,190.01574 36.803248,190.36443 36.4821986,190.875358 C36.3023111,191.161091 36.1986259,191.496463 36.2073704,191.857261 C36.2373517,193.192697 36.2523423,194.530555 36.2523423,195.873256 C36.2523423,199.780284 36.1299188,203.7648 36,207.679093 C36.3960025,207.528962 36.7820112,207.377621 37.1905059,207.231122 C38.1599001,206.886064 39.2392255,207.369145 39.595253,208.311094" id="Fill-38" fill="#4C5D7F"></path>
                <path d="M43.0711272,236 C46.103921,236 48.9520514,231.479005 50.2797411,225.200756 C50.6328931,223.52664 50.884952,221.734114 50.9968283,219.860969 C51.0588321,218.819212 50.2042582,217.927358 49.089538,217.869413 C48.6002473,217.850518 48.1392626,218.002939 47.7685878,218.264953 C47.3116469,218.587431 46.9935405,219.076187 46.9598428,219.651862 C46.4894228,227.577774 43.7828228,231.541989 42.8608535,232.205841 C40.9279529,231.928711 40.0437251,227.817113 40.0437251,223.987683 C40.0437251,219.26136 40.2162573,214.404031 40.3820501,209.707941 C40.3901375,209.4749 40.3968771,209.234301 40.4049645,209 C40.3591356,209.729355 39.8644533,210.398246 39.0840143,210.665298 C38.1054328,211.000373 37.176724,211.349305 36.2722775,211.704535 C36.132095,215.768265 36,219.906317 36,223.987683 C36,231.621349 38.5785487,236 43.0711272,236" id="Fill-40" fill="#4C5D7F"></path>
                <path d="M94.8119441,129.592113 C94.8119441,124.637092 96.6912325,118.8626 100.172808,117.924831 C100.426938,117.857055 101.021601,117.696858 101.29479,117.696858 C103.256671,117.696858 111.188056,119.746149 111.188056,129.217498 C111.188056,138.267406 104.426938,140.303142 102.05845,140.303142 C97.9237611,140.303142 94.8119441,133.805299 94.8119441,129.592113 M98.1359593,142.375847 C99.0775095,141.922366 100.221093,142.293284 100.691233,143.20764 C100.80432,143.426987 100.876747,143.664818 100.927573,143.912508 C101.297332,143.965496 101.672173,144 102.05845,144 C103.047014,144 104.151207,143.837338 105.284625,143.502157 C105.149936,143.118916 105.029225,142.724584 104.923761,142.321627 C104.668361,141.330869 105.289708,140.327788 106.311309,140.080099 C107.331639,139.829945 108.367217,140.434997 108.622618,141.425755 C108.662008,141.581023 108.717916,141.735059 108.76493,141.889094 C112.134689,139.699322 115,135.683303 115,129.217498 C115,117.831177 105.587039,114 101.29479,114 C100.561626,114 99.8055909,114.187307 99.1524778,114.363524 C92.7166455,116.096118 91,124.750462 91,129.592113 C91,134.066543 93.5044473,140.073937 97.678526,142.687616 C97.8106734,142.565619 97.9631512,142.459643 98.1359593,142.375847" id="Fill-42" fill="#4C5D7F"></path>
                <path d="M93.4343352,186.990784 C94.5445437,186.951091 95.503114,187.739987 95.5532088,188.76704 C95.5735175,189.170171 95.5924722,189.555936 95.6127809,189.950384 C96.2030869,189.966509 96.775792,190 97.3864067,190 C98.2556187,190 99.1410777,189.978913 100.042784,189.945422 C99.9222854,188.733549 99.8518819,187.481983 99.8180341,186.227937 C97.1765502,186.324688 94.7625237,186.275072 92.4554563,186.064204 C92.2510154,185.114055 92.0343894,184.17135 91.8177633,183.227403 C90.9147035,179.295328 90.0617384,175.581564 90.0617384,171.401408 C90.0617384,158.879547 100.459789,146.621891 100.565394,146.499092 C100.847008,146.171625 101,145.766014 101,145.349239 C101,145.13837 100.970214,144.937425 100.929597,144.741442 C100.87544,144.492121 100.796913,144.252723 100.677769,144.031931 C100.176821,143.111553 98.9582995,142.738192 97.9536962,143.19466 C97.770918,143.280248 97.6084484,143.386922 97.4676415,143.508482 C97.0587598,143.860756 96.8285946,144.353196 96.8272407,144.85928 C94.5337124,147.717167 86,159.169801 86,171.401408 C86,175.967329 86.9369077,180.048252 87.8440292,183.993972 C88.1554292,185.353453 88.468183,186.710453 88.7416734,188.086059 C88.8987273,188.879917 89.5973463,189.491435 90.4706201,189.59811 C90.8199296,189.641524 91.1814243,189.657649 91.5347956,189.693621 C91.5212564,189.435617 91.5077173,189.193739 91.4955321,188.930773 C91.4454373,187.904961 92.3132954,187.035439 93.4343352,186.990784" id="Fill-44" fill="#4C5D7F"></path>
                <path d="M106.900393,195.499318 C106.335701,196.04233 105.714144,196.294893 104.947115,196.297419 C104.927278,196.289842 102.967388,195.367985 102.967388,184.461029 C102.967388,181.175178 103.19353,177.81482 103.374707,175.114916 C103.501663,173.232055 103.602171,171.744456 103.602171,170.701369 C103.602171,169.336263 103.518855,167.949689 103.439508,166.608577 C103.361482,165.302824 103.280812,163.951609 103.280812,162.658484 C103.280812,159.676971 103.915594,156.814164 104.51467,156.00596 C105.322695,156.090569 106.141299,155.706673 106.527458,154.971713 C106.64119,154.751983 106.707313,154.52215 106.729795,154.292317 C107.323581,153.981664 107.97291,153.703844 108.475446,153.647017 C109.099649,154.653483 110.016115,158.86498 110.016115,174.91918 L110.02405,176.626509 C110.058434,182.139971 110.123235,192.405415 106.900393,195.499318 M110.264738,154.062484 C110.162909,154.076375 110.062402,154.083952 109.960572,154.083952 C108.999141,154.083952 108.154088,153.414659 108.003327,152.477648 C107.864468,151.621458 107.605266,150.805678 107.27994,150 C105.858292,150.324544 104.42871,151.132747 103.073186,151.996515 C102.774309,152.185937 102.546845,152.439764 102.398729,152.726423 C99.5673366,154.614336 99.3134237,160.592514 99.3134237,162.658484 C99.3134237,164.060211 99.3967388,165.465727 99.4787315,166.824519 C99.5580793,168.170682 99.6347822,169.443603 99.6347822,170.701369 C99.6347822,171.623226 99.5329525,173.128504 99.4152533,174.872455 C99.2301085,177.626661 99,181.053948 99,184.461029 C99,185.245239 99.0105797,186.042077 99.0304166,186.840178 C99.0634782,188.116886 99.1322463,189.391069 99.2512679,190.624842 C99.588496,194.12411 100.356847,197.235692 102.009925,198.867253 C102.271773,198.113351 103.007062,197.56655 103.883855,197.56655 C104.980177,197.56655 105.867549,198.415164 105.867549,199.460777 C105.867549,199.635046 105.86226,199.823206 105.860937,200 C107.320936,199.818154 108.620917,199.222104 109.714594,198.170177 C109.874612,198.017376 110.016115,197.839319 110.164231,197.668839 C110.139104,197.579179 110.108688,197.469314 110.084883,197.384705 C109.67492,195.913522 109.529449,195.391979 109.477873,195.125524 C109.275536,194.097591 109.985699,193.107542 111.062183,192.915593 C111.581911,192.822145 112.088415,192.935798 112.498378,193.188362 C114.054917,188.211598 114.021855,181.518664 113.991439,176.602516 L113.983504,174.91918 C113.983504,160.321008 113.335497,154.143305 111.853016,151.584836 C111.872853,151.693438 111.907237,151.791938 111.924429,151.901803 C112.09106,152.936051 111.347835,153.903369 110.264738,154.062484" id="Fill-46" fill="#4C5D7F"></path>
                <path d="M105.360529,140.055844 C104.397797,140.300902 103.813453,141.294543 104.054136,142.273553 C104.152325,142.672229 104.26608,143.06237 104.393008,143.441539 C104.774987,144.583921 105.265933,145.647056 105.744904,146.684588 C106.114909,147.488035 106.475335,148.267099 106.773494,149.057135 C107.068062,149.834979 107.303955,150.622577 107.428487,151.449188 C107.564994,152.353829 108.330151,153 109.201878,153 C109.292883,153 109.383887,152.992685 109.477287,152.979274 C110.456783,152.825656 111.129737,151.891755 110.978861,150.893237 C110.963295,150.787167 110.932161,150.692071 110.9142,150.58722 C110.553774,148.538978 109.769459,146.801631 108.995921,145.127681 C108.477434,144.004805 107.994871,142.935574 107.67396,141.845617 C107.628458,141.693218 107.576969,141.540819 107.538651,141.387201 C107.297968,140.406971 106.322064,139.808348 105.360529,140.055844" id="Fill-48" fill="#4C5D7F"></path>
                <path d="M96.422825,204.737447 C96.3190442,205.772534 95.417983,206.519957 94.4143619,206.420719 C93.9015629,206.366704 93.3899847,206.329018 92.8759647,206.281284 C94.6536682,232.941046 96.9563802,234 98.9099005,234 C98.9917042,234 99.0747288,233.998744 99.1577534,233.996231 C100.865863,233.95729 102.672869,232.91341 104.329698,220.890577 C104.582435,219.059077 104.804648,217.117033 105,215.136048 C104.317489,212.657619 103.749747,210.146529 103.192994,207.654281 C102.500715,207.387972 102.033091,206.71592 102.007451,205.959704 C101.586223,215.186295 100.331087,224.500819 99.1516486,228.569564 C98.2334941,225.071121 96.8159709,215.747805 95.7146739,190.997425 C95.6975806,190.599219 95.6792663,190.208549 95.6609521,189.799036 C95.6169979,188.760181 94.7513442,187.961255 93.751386,188.001453 C92.7404392,188.046675 91.9578102,188.927252 92.0017644,189.966107 C92.0139739,190.232416 92.0249624,190.476114 92.0371719,190.737398 C92.2276402,195.073707 92.4290969,198.966588 92.6366585,202.476335 C93.3533562,202.539144 94.070054,202.595672 94.7879727,202.671042 C95.7940356,202.776561 96.5253848,203.70236 96.422825,204.737447" id="Fill-50" fill="#4C5D7F"></path>
                <path d="M102,205 C102.002566,204.905138 102.005131,204.809012 102.023092,204.710356 C102.092367,204.338498 102.269403,204.013439 102.514432,203.75668 C102.398974,203.268458 102.286081,202.775178 102.166774,202.289486 C101.91533,201.272569 102.547787,200.245534 103.5805,199.997628 C104.615779,199.748458 105.654907,200.374545 105.90635,201.391462 C105.926876,201.473676 105.944836,201.555889 105.96408,201.636838 C105.98204,200.884269 105.99102,200.154466 105.993586,199.438577 C105.994869,199.260237 106,199.071779 106,198.897233 C106,197.84996 105.139192,197 104.07569,197 C103.225144,197 102.510584,197.547668 102.257858,198.302767 C102.193714,198.491225 102.151379,198.688538 102.151379,198.897233 C102.151379,200.886798 102.096216,202.94087 102,205" id="Fill-52" fill="#4C5D7F"></path>
                <path d="M110.526426,192.032615 C109.51861,192.22551 108.853749,193.220443 109.043179,194.253448 C109.091465,194.521217 109.227656,195.045334 109.611468,196.523774 C109.633754,196.607531 109.66223,196.719208 109.685754,196.80931 C111.154144,202.457841 115.285692,218.465607 115.285692,226.143345 C115.285692,226.587512 115.231216,226.968226 115.153215,227.285488 C110.074518,221.143298 108.263174,213.05185 106.511259,205.224365 C106.462973,205.009896 106.413449,204.797965 106.365163,204.582226 C106.410973,204.815731 106.415925,205.064465 106.370115,205.313198 C106.199257,206.224374 105.420491,206.858898 104.547628,206.858898 C104.432485,206.858898 104.314865,206.847476 104.196007,206.823365 L103.31943,206.65585 C103.208001,206.636815 103.102763,206.601281 103,206.561941 C103.564575,209.079731 104.140293,211.616557 104.832392,214.120388 C106.418401,219.866636 108.612319,225.432679 112.659677,230.149729 L112.818154,230.343893 C113.351776,231.003798 114.156543,232 115.39836,232 C117.317419,232 119,229.262664 119,226.143345 C119,222.011326 117.955041,215.918629 116.710748,210.089893 C115.722742,209.757403 114.714927,209.433795 113.673683,209.125417 C112.688153,208.833536 112.118626,207.778957 112.403389,206.768796 C112.686915,205.758634 113.717016,205.174872 114.702546,205.466753 C115.056643,205.572084 115.400836,205.682491 115.749981,205.79036 C114.770641,201.580929 113.798731,197.843584 113.200727,195.5428 C112.924631,194.478069 112.737677,193.77121 112.693105,193.551665 C112.595295,193.016127 112.28577,192.579574 111.871005,192.306729 C111.487193,192.052919 111.013,191.938705 110.526426,192.032615" id="Fill-54" fill="#4C5D7F"></path>
                <path d="M106.124365,201.495517 C105.851077,200.445216 104.721675,199.799378 103.59785,200.056408 C102.474025,200.313439 101.786623,201.371568 102.059911,202.421869 C102.189583,202.922883 102.312283,203.430419 102.437772,203.934042 C102.907659,203.466952 103.610399,203.221664 104.336841,203.344308 L105.361669,203.523055 C106.196869,203.673098 106.817344,204.27066 107,205 C106.733684,203.910557 106.465974,202.825028 106.187109,201.747328 C106.166194,201.665131 106.146674,201.579019 106.124365,201.495517" id="Fill-56" fill="#4C5D7F"></path>
                <path d="M54.0227073,205.263589 C54.1670504,206.27638 54.9609374,207.001369 55.8643261,206.999998 C55.9613844,206.999998 56.0584426,206.991775 56.1567453,206.975329 C56.7814025,206.867061 57.4334351,206.788943 58.0668026,206.690268 C64.6792095,205.65966 71.7196684,205.111465 79.0674785,205.111465 C81.480248,205.111465 83.9191486,205.170396 86.3144974,205.289629 C87.978176,205.370487 89.6754517,205.508907 91.3764604,205.674736 C91.8990819,205.726814 92.4204591,205.767929 92.9430807,205.82686 C93.9671701,205.935129 94.8842464,205.121059 94.9900151,203.990406 C95.0957837,202.861123 94.3491815,201.852444 93.3238478,201.737323 C92.593422,201.653723 91.8629961,201.592051 91.1325703,201.523527 C89.569683,201.379625 88.0105287,201.256281 86.4799942,201.180904 C84.0298946,201.061672 81.5362432,201 79.0674785,201 C71.482,201 64.2076058,201.570123 57.3712182,202.645957 C56.7764251,202.73915 56.1642113,202.811786 55.5768842,202.913202 C54.5590165,203.088624 53.8634321,204.14253 54.0227073,205.263589" id="Fill-58" fill="#4C5D7F"></path>
                <path d="M19.3752586,231.175523 C19.3006811,230.131664 20.0869043,229.22429 21.1309884,229.148465 C22.1915049,229.053684 23.0839061,229.861221 23.1572196,230.90508 C23.3202787,233.186153 23.7690074,235.267552 24.4503165,237.174554 C34.9101185,245.666967 56.4073815,251 76.272789,251 C91.2868709,251 106.729457,248.306945 118.642887,243.610842 C125.12354,241.055536 130.159413,238.05918 133.605144,234.77848 C134.73139,232.440539 135.540365,229.883969 135.943589,227.062011 C136.09148,226.025734 137.05593,225.307923 138.088638,225.454518 C138.367988,225.493695 138.622057,225.597322 138.844525,225.740126 C138.936799,225.146163 139,224.549672 139,223.946862 C139,218.412893 133.132399,212.885242 122.900121,208.780575 C120.77656,207.928806 118.460867,207.131379 116.020036,206.397139 C115.662317,206.28972 115.312183,206.179774 114.949408,206.074882 C113.943244,205.784219 112.89284,206.365545 112.602114,207.371492 C112.312653,208.377438 112.89284,209.427616 113.899003,209.718279 C114.963312,210.025371 115.992228,210.347628 116.999655,210.677467 C118.570838,211.193078 120.077555,211.7327 121.488206,212.298861 C131.604193,216.356768 135.207927,220.977045 135.207927,223.946862 C135.207927,236.120585 107.117512,247.208744 76.272789,247.208744 C48.7777302,247.208744 21.7920732,236.708229 21.7920732,226.008042 C21.7920732,221.128695 26.9429727,216.269569 36.0174038,212.469467 C36.8655642,212.113089 37.736477,211.764294 38.6528947,211.426872 C39.3847648,211.158956 39.8499258,210.487904 39.8916386,209.757455 C39.9017508,209.475639 39.8676222,209.232998 39.7804045,208.994149 C39.4201575,208.01095 38.3280404,207.506713 37.3471575,207.868146 C36.9338215,208.019797 36.543238,208.179029 36.1425423,208.334471 C24.4389403,212.876395 18,219.121857 18,226.008042 C18,227.86323 18.4879134,229.646383 19.3942189,231.347394 C19.3904268,231.287997 19.3790506,231.23492 19.3752586,231.175523" id="Fill-60" fill="#4C5D7F"></path>
                <path d="M104.604592,206.96554 C104.733668,206.98979 104.860055,207 104.986442,207 C105.934344,207 106.780061,206.361847 106.964264,205.446736 C107.015356,205.195304 107.009978,204.946425 106.958886,204.710308 C106.767961,203.936867 106.169639,203.352319 105.362914,203.205544 L104.37602,203.03069 C103.675514,202.910717 102.997864,203.150663 102.544754,203.60758 C102.287946,203.86667 102.102399,204.194681 102.029794,204.571191 C102.01097,204.669466 102.008281,204.766466 102.005592,204.863465 C102.004248,204.90303 101.998869,204.941319 102.000214,204.979609 C102.027105,205.749221 102.543409,206.432044 103.305764,206.702621 C103.417361,206.742186 103.531648,206.777923 103.652656,206.797067 L104.604592,206.96554 Z" id="Fill-62" fill="#4C5D7F"></path>
                <path d="M135.23774,226.599701 C134.835677,229.373944 134.029029,231.889656 132.906025,234.187853 C124.107265,252.210491 94.8007548,256.271178 70.2459018,256.271178 C57.8537801,256.271178 30.4630571,254.206654 24.0653344,236.545711 C23.385986,234.670114 22.9385487,232.622991 22.7759589,230.379483 C22.7028564,229.352814 21.8130235,228.558575 20.755559,228.651795 C19.7144797,228.726372 18.9305191,229.618803 19.004882,230.645472 C19.0099235,230.70389 19.0200066,230.756094 19.0237878,230.814512 C21.0819992,257.147451 55.5119817,260 70.2459018,260 C112.695725,260 135.821299,248.940315 138.981089,227.126707 C139.088221,226.382186 138.731532,225.68241 138.130328,225.299585 C137.908499,225.159132 137.655162,225.057211 137.376616,225.01868 C136.34688,224.874499 135.385205,225.580489 135.23774,226.599701" id="Fill-64" fill="#4C5D7F"></path>
                <g id="Group-68" transform="translate(0.000000, 67.000000)">
                    <mask id="mask-4" fill="white">
                        <use xlink:href="#path-3"></use>
                    </mask>
                    <g id="Clip-67"></g>
                    <path d="M1.87625,7.99817143 C2.87875,7.99817143 3.71125,7.27245714 3.74875,6.34902857 C3.8075,4.9216 3.97375,3.46788571 4.24125,2.02674286 C4.415,1.09417143 3.72875,0.2096 2.70875,0.0496 C1.69125,-0.105828571 0.71875,0.518171429 0.545,1.45074286 C0.24875,3.03931429 0.06625,4.64274286 0.00125,6.21988571 C-0.0375,7.16502857 0.77,7.9616 1.805,7.99702857 C1.82875,7.99817143 1.8525,7.99817143 1.87625,7.99817143" id="Fill-66" fill="#4C5D7F" mask="url(#mask-4)"></path>
                </g>
                <path d="M2.44954244,84.0768197 C1.37131671,84.3627566 0.761411249,85.3558237 1.08814632,86.2966865 C1.63270477,87.8604409 2.30795725,89.4277546 3.0962056,90.9511693 C3.43655463,91.6096546 4.17987692,92 4.9585955,92 C5.2390431,92 5.5235749,91.9489822 5.79585412,91.8422008 C6.82370819,91.4388044 7.28249869,90.3840414 6.81962401,89.4894505 C6.10352964,88.1048516 5.49090139,86.682286 4.99671459,85.2632798 C4.66861813,84.3236034 3.53049097,83.7920693 2.44954244,84.0768197" id="Fill-69" fill="#4C5D7F"></path>
                <path d="M5.02812684,59.8173839 C5.28208437,59.9420071 5.54934445,60 5.81297656,60 C6.48898734,60 7.13718373,59.6137917 7.4491887,58.9524254 C8.11915288,57.5297474 8.87860685,56.1539574 9.70457351,54.8620721 C10.2523962,54.0057507 10.0165785,52.8582308 9.17730929,52.3005114 C8.33683077,51.7427921 7.21458031,51.9834011 6.6655483,52.8397224 C5.7537198,54.266102 4.91807857,55.7813219 4.18039239,57.3471313 C3.74503661,58.2676151 4.12476359,59.3744166 5.02812684,59.8173839" id="Fill-71" fill="#4C5D7F"></path>
                <path d="M15.1604454,105 C15.6388104,105 16.1171753,104.82212 16.4777889,104.466359 C17.1867503,103.767795 17.1720314,102.64868 16.4446713,101.967786 C15.3174472,100.913462 14.2466457,99.7955242 13.2604779,98.6446023 C12.6128454,97.8906719 11.4549568,97.7822944 10.6711743,98.4031089 C9.88616511,99.0239235 9.77332004,100.137149 10.419726,100.891079 C11.4905276,102.139777 12.654549,103.355489 13.8762195,104.498165 C14.2343799,104.832722 14.6980259,105 15.1604454,105" id="Fill-73" fill="#4C5D7F"></path>
                <path d="M22.8015346,41.9726946 C22.3368254,41.1047043 21.208246,40.7516435 20.2800802,41.1856386 C18.7143485,41.9199114 17.1874469,42.8125337 15.743216,43.8388735 C14.9165096,44.4265263 14.7549261,45.5302814 15.3824714,46.3044349 C15.7532367,46.7607162 16.3131423,47 16.8805635,47 C17.2763805,47 17.6759552,46.883877 18.0154059,46.6410743 C19.2742542,45.747279 20.6019947,44.9707797 21.9610498,44.3338625 C22.8892156,43.8998674 23.2649912,42.8418577 22.8015346,41.9726946" id="Fill-75" fill="#4C5D7F"></path>
                <path d="M22.889849,111.403844 C24.3216465,112.265969 25.8246654,113.077955 27.3546994,113.816569 C27.6137983,113.940079 27.8876326,114 28.1565552,114 C28.840527,114 29.4974838,113.618464 29.8155246,112.964228 C30.258817,112.051966 29.8756945,110.955051 28.9608668,110.513594 C27.5315252,109.825118 26.1304266,109.06816 24.7956377,108.264734 C23.9237885,107.741345 22.7916125,108.017714 22.266047,108.88473 C21.7392536,109.751745 22.0192277,110.879233 22.889849,111.403844" id="Fill-77" fill="#4C5D7F"></path>
            </g>
        </g>
    </g>
</svg>