<?xml version="1.0" encoding="UTF-8"?>
<svg width="103px" height="105px" viewBox="0 0 103 105" version="1.1" xmlns="http://www.w3.org/2000/svg" xmlns:xlink="http://www.w3.org/1999/xlink">
    <!-- Generator: Sketch 49.1 (51147) - http://www.bohemiancoding.com/sketch -->
    <title>Group 6</title>
    <desc>Created with Sketch.</desc>
    <defs>
        <polygon id="path-1" points="0 0 85 0 85 81 0 81"></polygon>
        <polygon id="path-3" points="60 61 103 61 103 105 60 105"></polygon>
    </defs>
    <g id="1920" stroke="none" stroke-width="1" fill="none" fill-rule="evenodd">
        <g id="not-found" transform="translate(-910.000000, -340.000000)">
            <g id="Group-5" transform="translate(513.000000, 273.000000)">
                <g id="Group-6" transform="translate(397.000000, 67.000000)">
                    <path d="M79.2485214,77.3320234 C80.107961,76.7832378 80.778719,75.9301168 81,74.9562432 C80.1089489,74.5017035 79.3680527,73.7241754 79.0825607,72.7817171 C78.6172779,71.2502225 78.1934853,69.5184554 78.4127905,67.9054774 C78.0788933,67.5481286 77.724251,67.2104144 77.3439243,66.9080424 C74.5798876,64.7109366 70.7529119,66.804961 71.2221461,69.9455068 C70.6116477,69.9759404 69.995222,70.1938838 69.4588132,70.6749302 C67.733019,72.2231143 66.063533,73.2745443 65.1635911,75.5060105 C64.3960226,77.4085982 66.4853499,78.8860978 68.1903989,78.5444567 C68.1568116,78.6318304 68.1291515,78.7192042 68.0955642,78.8065779 C67.5413739,80.2379364 69.6050167,81.1695957 70.5474367,80.1917952 C71.3120415,80.8701688 72.3779442,81.1823581 73.4448347,80.8907851 C75.6645596,80.2840776 77.852673,79.1364383 79.2485214,77.3320234" id="Fill-1" fill="#FFCD7C"></path>
                    <path d="M90.5825287,90.7722332 C88.5030554,89.397189 86.5116284,87.9251864 84.5508691,86.3905038 C83.0451801,85.2123142 81.5483946,83.582632 79.6717244,83.0713976 C78.377742,82.7178428 76.9650456,83.7226829 77.0006598,85.0849952 C77.1114595,89.3501789 82.4318245,93.9463917 85.1948924,96.8149848 C88.6900299,100.441615 93.2822825,105.679319 98.7391686,104.927158 C100.893827,104.630407 102.610234,101.565939 101.792097,99.6052278 C100.009408,95.3361267 94.3230084,93.2471171 90.5825287,90.7722332" id="Fill-3" fill="#E1E0E7"></path>
                    <path d="M48.8602584,25.0166279 C51.9001537,23.8080778 51.7657881,18.9889591 48.0409313,19.000019 C41.2226348,19.0181171 32.2888379,20.9636616 26.9586658,25.4198131 C24.0440436,27.8580278 22.0396725,31.277561 21.3153106,34.9957127 C20.3747514,39.8329296 21.8952042,44.6721573 21.3122798,49.5455703 C21.2597459,49.9889735 21.9932002,50.1850361 22.1730278,49.7768237 C25.2028206,42.8935174 23.9642324,34.6176638 30.8259704,29.8256922 C36.2581796,26.0331372 42.9966649,27.3472595 48.8602584,25.0166279" id="Fill-5" fill="#E1E0E7"></path>
                    <path d="M59.3695258,39.2899902 C56.4700626,46.0826941 53.0591649,51.1010739 44.7561111,50.616092 C39.7558631,50.3243143 32.5937786,47.8412463 34.1761229,41.7346144 C34.4323406,40.7478931 33.2193101,40.0874503 32.47768,40.7607077 C24.9612945,47.5957982 36.3539731,55.8749913 42.67134,57.4147103 C53.9529241,60.1629411 67.5394665,53.0370586 65.858038,40.1544803 C65.3736265,36.4402286 60.8497833,35.8211867 59.3695258,39.2899902" id="Fill-7" fill="#E1E0E7"></path>
                    <mask id="mask-2" fill="white">
                        <use xlink:href="#path-1"></use>
                    </mask>
                    <g id="Clip-10"></g>
                    <path d="M2.98722045,39.1205736 C2.98722045,22.2997321 13.9696486,7.65850392 29.1004393,4.30747303 C33.053115,3.43164672 37.0397364,2.98577151 40.9494808,2.98577151 C66.6483626,2.98577151 82.0047923,20.8317278 82.0047923,38.0845108 C82.0047923,60.10159 64.6166134,78.0142285 43.2428115,78.0142285 C21.4227236,78.0142285 2.98722045,60.2031062 2.98722045,39.1205736 M62.2553914,73.9973706 C62.7775559,74.4571794 63.2717652,74.9448554 63.7559904,75.4414887 C68.2188498,72.8438675 72.1785144,69.4341164 75.4283147,65.3953628 C75.0349441,64.7872607 74.6605431,64.1901064 74.3111022,63.6108667 C73.8857827,62.9032389 74.1154153,61.9876023 74.8242812,61.5626275 C75.5321486,61.1366574 76.4506789,61.3655666 76.879992,62.0731944 C77.023762,62.3130514 77.1875,62.5658467 77.3402556,62.81068 C82.1565495,55.8150173 85,47.2876539 85,38.0845108 C85,19.3637235 68.5233626,0 40.9494808,0 C36.8220847,0 32.6168131,0.468766127 28.4514776,1.39236478 C12.8574281,4.84590716 1.31190096,19.2253827 0.102835463,36.1775981 C-3.96263578e-12,37.1155636 -0.097203266,37.3180855 -0.164039305,38.0845108 C-0.234445791,38.8918794 0.102835463,39.0767139 -3.20923843e-12,39.3992456 C0.161741214,61.9776497 19.8951677,81 43.2428115,81 C49.590655,81 55.6080272,79.5300052 60.999401,76.9154646 C60.7597843,76.6835697 60.5211661,76.45267 60.2725639,76.2337134 C59.6525559,75.6873172 59.5936502,74.7438134 60.1417732,74.126754 C60.6888978,73.5086993 61.634385,73.4499791 62.2553914,73.9973706 Z" id="Fill-9" fill="#4C5D7F" mask="url(#mask-2)"></path>
                    <path d="M70.0044014,28.5792431 C66.394301,21.4000342 59.8592069,15.7033349 51.5998109,12.5371609 C48.8292921,11.4730529 45.8852397,10.7056479 42.8509097,10.2570731 C30.7657503,8.4718257 18.5722577,16.1378289 13.8567585,28.4937524 C11.7873956,33.9209045 11.4553747,40.01589 12.8225786,45.8564148 C12.7523627,45.5164635 12.792486,45.1513678 12.9740443,44.82248 C13.3772842,44.0932944 14.2931001,43.8287761 15.0193332,44.2341027 C15.2239623,44.347755 15.4195638,44.4553728 15.6221868,44.5670136 C14.5488866,39.4959052 14.8829137,34.2518039 16.6684037,29.5709355 C20.4771148,19.5866251 29.6894408,13.0149032 39.3290808,13.0149032 C40.3522268,13.0149032 41.3833974,13.0903361 42.4115588,13.2422079 C45.2282195,13.6596038 47.9576118,14.3696796 50.5245045,15.3543316 C58.0817415,18.2529699 64.0460807,23.431696 67.3171386,29.9380427 C70.3645086,35.9968203 70.8309428,42.8330606 68.596071,48.6916894 C63.0720859,63.1738174 47.2153295,70.6004466 33.2423654,65.2406813 C26.1315009,62.515036 20.5172381,57.1723689 17.433757,50.1953203 C17.2100692,49.6904222 17.0074462,49.1784836 16.814854,48.6645335 C15.7545939,48.086214 14.6782845,47.4938135 13.5608486,46.8722457 C13.2167907,46.6821546 12.9800628,46.3733822 12.8657112,46.0273963 C13.3060652,47.8589092 13.9069127,49.6672894 14.6822968,51.4183405 C18.0927834,59.1336266 24.3018751,65.0435498 32.1660559,68.0598635 C35.5996134,69.3764206 39.1324763,70 42.6212034,70 C54.9089859,70 66.6420628,62.2595696 71.4067132,49.7698783 C73.9435134,43.119706 73.4329435,35.3943622 70.0044014,28.5792431" id="Fill-12" fill="#4C5D7F" mask="url(#mask-2)"></path>
                    <path d="M16.8273986,48.6014002 C21.0230847,50.8310966 25.0115712,53.0588526 29.0130587,54.8659268 C29.2122368,54.9562805 29.4273491,55 29.6394738,55 C29.928282,55 30.2141025,54.9183902 30.4630751,54.7600283 C32.8004298,53.2560763 35.1417681,51.6802299 37.4064228,50.1568469 C41.9865226,47.0741338 46.7120224,43.8952377 51.5420907,41.2273744 C52.174481,41.7626959 52.8008961,42.3087043 53.4273111,42.8527696 C56.3054343,45.3564418 59.2811547,47.9446383 62.8374792,49.6788466 C63.5774258,50.0383184 64.4737271,49.7468548 64.8422065,49.0269398 C65.210686,48.3070247 64.9119189,47.4306909 64.1739641,47.0712191 C60.9721766,45.5109175 58.2733137,43.1626926 55.4151083,40.6774798 C54.5138275,39.8924712 53.6105549,39.1074627 52.6893564,38.3457712 C52.2153125,37.9542384 51.5450783,37.8891449 51.003314,38.18158 C45.7280827,41.0165491 40.6350993,44.4422177 35.7104215,47.7571301 C33.6837846,49.1211796 31.5954025,50.5260341 29.5129957,51.8784251 C25.0474233,49.8313792 20.5852869,47.1938522 15.6466666,44.5327897 C15.4454967,44.4249482 15.2503022,44.3200213 15.0471406,44.2112083 C14.326116,43.8196755 13.416868,44.0742204 13.0165201,44.7795622 C12.836264,45.096286 12.7964283,45.4489569 12.8671366,45.7773392 C12.8780914,45.8336888 13.0569032,46.2930114 13.0758252,46.3464464 C13.1893567,46.6816295 13.4233909,46.9798939 13.7659772,47.1635159 C14.8744032,47.7629594 15.7757383,48.0427617 16.8273986,48.6014002 Z" id="Fill-14" fill="#4C5D7F" mask="url(#mask-2)"></path>
                    <mask id="mask-4" fill="white">
                        <use xlink:href="#path-3"></use>
                    </mask>
                    <g id="Clip-17"></g>
                    <path d="M77.6598363,62.4657768 C77.5073346,62.220364 77.3427933,61.9669703 77.1973147,61.7275433 C76.7658953,61.0172429 75.8428586,60.7877919 75.1315184,61.2147702 C74.4201781,61.6407509 74.1884156,62.5595524 74.6168251,63.2688552 C74.966977,63.8494659 75.3432148,64.447036 75.7385153,65.0575751 C77.5755591,67.897779 79.8620815,71.0272906 82.3532774,74.2016948 C82.7214887,73.889442 83.0866902,73.5712035 83.4569082,73.2629411 C84.0930009,72.7312134 85.0431267,72.8150129 85.5778861,73.4494947 C86.1106388,74.0829789 86.0273648,75.0267207 85.3892655,75.5574508 C84.9979782,75.8816749 84.6117074,76.2188681 84.2214234,76.5480804 C89.0874322,82.5527123 94.4751574,88.4984852 98.7732979,92.7403352 C99.5628956,93.5204685 100.006355,94.6018808 99.9892985,95.7052407 C99.971239,96.812591 99.4946712,97.8790392 98.6809942,98.6322369 C97.7449146,99.4971673 96.8168614,100.370079 95.9028544,101.251968 C94.8634348,102.253572 93.2380875,102.249581 92.2036844,101.239997 C91.4843177,100.538675 90.8291623,99.8573055 90.1238419,99.1270529 C87.4109166,96.3137846 84.0749415,92.862044 74.3569702,85.0607112 C73.899465,85.4537706 73.4479796,85.8538134 72.9894712,86.24388 C72.7055371,86.4833071 72.358395,86.6010255 72.0132595,86.6010255 C71.5868567,86.6010255 71.1644671,86.4234504 70.8664867,86.0752835 C70.3277142,85.4457897 70.4039651,84.5020479 71.0350413,83.9663298 C71.3490744,83.6999672 71.6570878,83.4256236 71.9691143,83.1582634 C71.6751472,82.9268172 71.4012461,82.7073423 71.0972459,82.4689129 C69.3966511,81.1291188 67.9769805,79.5199692 66.4750392,77.8160463 C65.6824316,76.9171971 64.8677514,76.0043813 64.0099292,75.126482 C63.522325,74.6286732 63.0256912,74.1398428 62.5019681,73.6789457 C61.8779151,73.1302586 60.9267859,73.1891178 60.3769771,73.8086354 C59.8271683,74.4271554 59.8853597,75.3728924 60.5084095,75.9205818 C60.7582314,76.1400567 60.9990236,76.3715029 61.2398158,76.6039467 C62.2571628,77.5816073 63.2143117,78.657034 64.2115927,79.788327 C65.7366099,81.5181878 67.3127954,83.3069077 69.2301032,84.8143008 C81.3640228,94.3674418 85.0170409,98.1543803 87.9516957,101.198097 C88.6780855,101.952293 89.3543102,102.653614 90.0957495,103.375886 C91.2054001,104.458296 92.6320938,105 94.0597908,105 C95.4754482,105 96.8911056,104.467275 97.9977464,103.400827 C98.8977072,102.532903 99.8097076,101.675954 100.731741,100.822995 C102.141379,99.5171196 102.968098,97.6695405 102.999201,95.7531261 C103.028297,93.8377094 102.261775,91.9661876 100.893272,90.6164173 C93.6022857,83.4206356 83.1488949,71.2727034 77.6598363,62.4657768" id="Fill-16" fill="#4C5D7F" mask="url(#mask-4)"></path>
                    <path d="M71.422213,83.4787645 C71.1177376,83.7522189 70.8191175,84.0328157 70.5136662,84.3052498 C69.8988601,84.8531789 69.8256689,85.8184321 70.3497179,86.4622744 C70.6395551,86.817357 71.0504017,87 71.4651518,87 C71.8008555,87 72.137535,86.8795984 72.4146857,86.6347139 C72.8606641,86.2357562 73.2998113,85.8265949 73.7448138,85.4245762 C75.0798213,84.2195402 76.412877,83.0104228 77.7410534,81.7921222 C79.5679057,80.1136428 81.4503834,78.3984307 83.3396923,76.7179106 C83.7193107,76.3811944 84.0950255,76.0363153 84.4756198,75.7047008 C85.0962811,75.1618735 85.1772794,74.1955999 84.6581098,73.5486966 C84.1389402,72.8997526 83.2147793,72.814043 82.5960697,73.3578907 C82.235969,73.6731796 81.8807477,73.9986719 81.5225988,74.3170218 C79.5883993,76.0332543 77.6698139,77.7831583 75.8088057,79.491228 C74.3508369,80.8289097 72.8899406,82.1584287 71.422213,83.4787645" id="Fill-19" fill="#4C5D7F" mask="url(#mask-4)"></path>
                </g>
            </g>
        </g>
    </g>
</svg>