<svg width="283" height="321" xmlns="http://www.w3.org/2000/svg" xmlns:xlink="http://www.w3.org/1999/xlink"><defs><path id="a" d="M.2.414h6.392V19H.201z"/><path id="c" d="M.191.116h170.348v83.092H.19z"/><path id="e" d="M0 .538h150.563V247H0z"/><path id="g" d="M.212.493h7.46v26.541H.212z"/></defs><g fill="none" fill-rule="evenodd"><path d="M184.597 68.432c.707-.012 1.351-.145 1.923-.263.455-.095.883-.184 1.23-.184.71 0 1.169.501 1.169 1.277 0 1.367-1 2.753-2.91 2.753-1.19 0-1.928-1.12-1.928-2.158 0-.607.32-1.253.516-1.425M186.009 74c2.845 0 4.991-2.037 4.991-4.738 0-1.86-1.397-3.262-3.25-3.262-.57 0-1.13.116-1.671.228-.521.108-1.06.22-1.583.22-1.607 0-2.496 2.015-2.496 3.409 0 2.284 1.799 4.143 4.01 4.143" fill="#4C5D7F"/><path d="M109.466 212.692c.016-.232.035-.463.048-.695.108.003.216-.003.324-.006-.125.233-.248.467-.372.7m-7.3 12.19l.094-.75c.09.167.19.326.3.473-.13.093-.263.185-.393.276m-5.263-39.546a5.08 5.08 0 0 0 .154-1.121l.116-.055c0 .34.014.68.019 1.02l-.289.156m22.38-18.599c-1.306-2.942-5.403-3.312-7.925-2.05-7.728 3.865-15.569 7.475-23.292 11.266-.998-.026-2.041.262-3.058.969-.935.652-1.87 1.309-2.802 1.968-10.213 5.227-20.105 10.98-29.116 18.321-1.587 1.293-2.036 2.99-1.744 4.614-.212.22-.349.53-.347.931.021 6.643 4.162 12.226 8.142 17.552.565 1.987 1.072 3.945 1.604 5.747.783 2.645 3.945 2.269 5.02.54.016-.01.035-.014.051-.023a28.67 28.67 0 0 0 3.794-2.695 15.981 15.981 0 0 0 3.556-1.23c5.908-2.839 10.922-7.736 15.658-12.134a8.95 8.95 0 0 0 .14-.133 62.573 62.573 0 0 0-.251 4.338c-.654-.6-1.958-.134-1.607.884.541 1.57.943 3.169 1.209 4.807.052.326.222.538.443.656.02.612.04 1.223.065 1.836-1.327 6.294-2.307 12.562-.891 18.928 1.202 5.406 8.162 5.211 10.938 1.41 3.566-4.883 9.332-8.146 14.141-11.697 5.892-4.351 11.516-9.133 14.433-15.98 3.384-7.946.526-15.977-1.775-23.795-2.454-8.335-2.817-17-6.385-25.03m64.419-1.182c-.123-.619-1.137-.772-1.412-.182-.087.188-.17.379-.256.568-1.748 1.18-3.471 2.372-5.255 3.51-1.025-.38-2.154-.425-3.274.037-5.394 2.225-10.842 6.81-16.914 6.623-6.065-.187-11.93-3.825-15.322-8.698-1.693-2.432-5.37-2.222-6.967-.352-.411-.44-1.392-.298-1.298.438.727 5.648 1.726 11.308 2.545 16.956.865 5.967 1.747 11.88 3.67 17.62.48 1.433 1.819 2.162 3.309 1.86 5.648-1.149 11.745-2.625 17.539-2.27 4.722.29 9.71 1.362 14.31-.248 1.58-.552 2.425-1.73 2.692-3.02 2.474-4.787 2.94-10.467 4.186-15.644 1.29-5.36 3.554-11.648 2.447-17.198m41.687 61.212c.723-.484.622-1.374-.041-1.783.591-1.478.74-3.156.602-4.917-.53-6.704-3.618-13.08-5.642-19.439-1.13-3.545-2.383-7.139-3.018-10.81-.476-2.749-.524-5.563-1.564-8.19-2.502-6.32-8.83-7.03-14.585-8.937-1.206-.4-2.408-.174-3.394.423l.034-.595c.041-.639-.88-.685-1.076-.143-2.342 6.435-4.294 12.986-6.503 19.464-1.426 4.182-3.543 9.472-1.055 13.648.153.257.328.505.494.758.894 5.456 7.044 7.825 10.457 11.725.064.071.13.123.195.186 3.437 3.964 6.545 8.204 10.188 12.007 1.604 2.138 4.053 3.453 6.883 2.548 3.146-1.005 5.363-4.159 8.025-5.945" fill="#FFCD7C"/><path d="M32.231 269.036c2.524-8.27 5.477-16.48 9.584-24.109 3.962-7.36 9.075-13.375 15.393-18.808 1.415-1.216.748-3.275-.54-4.197a9.566 9.566 0 0 1-.976-.825c-.955-1.678-2.219-3.343-3.008-4.81-.921-1.714-1.809-3.444-2.783-5.13-.515-.893-.974-2.326-1.65-3.052-.12-.13-.301-.127-.447-.058-2.032.948.059 7.283.485 8.615.703 2.195 1.317 5.005 2.323 7.344-13.427 9.257-21.037 26.657-25.836 41.515-2.729 8.449-4.848 17.075-6.896 25.71C15.706 300.4 11.827 310.4 12.006 320h8.584c.631-9.048 3.379-17.702 5.39-26.535 1.867-8.196 3.797-16.385 6.251-24.429m84.339-13.518c-.978 4.835-2.676 9.456-3.986 14.202-1.168 4.23-2.732 8.828-2.573 13.265.078 2.187 3.629 2.917 4.028.543.783-4.653 1.328-9.3 2.288-13.934.943-4.552 1.535-9.236 1.673-13.883.024-.803-1.265-1.005-1.43-.193" fill="#E1E0E7"/><g transform="translate(103 301)"><mask id="b" fill="#fff"><use xlink:href="#a"/></mask><path d="M5.398 10.473c.229-2.813.737-5.598 1.178-8.38.209-1.322-1.654-2.45-2.304-1C1.999 6.166-.378 12.667.327 18.344c.03.237.087.452.157.655h4.722c.05-.202.086-.418.098-.655.123-2.628-.119-5.24.094-7.872" fill="#E1E0E7" mask="url(#b)"/></g><g transform="translate(24 237)"><mask id="d" fill="#fff"><use xlink:href="#c"/></mask><path d="M21.527 27.734c.201-1.046.405-2.09.604-3.135.36-.778.727-1.546 1.119-2.286 1.598-3.019 3.46-5.884 5.785-8.381-2.028 4.766-5.362 9.19-7.508 13.802m122.09 43.728a28.657 28.657 0 0 0 3.46-1.387c3.77-1.825 5.947-4.41 8.573-7.505 1.599-1.883 3.429-3.612 5.278-5.292.95.868 2.451 1.133 3.378-.042 5.59-7.083 5.987-18.606 6.194-27.237.12-5.011.045-10.053-1.423-14.898-.88-2.9-2.497-5.317-4.122-7.729a3.04 3.04 0 0 0-1.069-1.603c-1.055-1.611-2.046-3.267-2.758-5.107-.295-.762-1.688-.758-1.568.211.188 1.52.53 3.005.931 4.475-4.366.35-8.732 1.15-13.086 1.588-5.276.532-10.485.425-15.774.192-4.593-.201-9.336-.66-13.921-.242-3.391.308-7.051.169-10.38.771-.427.078-.6.635-.397.978 1.552 2.62 5.666 2.955 8.385 3.221 5.001.49 10.026.84 15.034 1.26 10.674.895 21.414.591 31.912-1.724.17.622.334 1.245.477 1.873 1.146 5.048 1.41 10.109 1.447 15.265.032 4.404-.048 8.846-.557 13.225-.498 4.292-1.9 8.006-3.17 12.016-1.893.97-3.618 2.2-5.366 3.446-3.86-.148-7.786.183-11.651.193-2.224.005-4.491-.09-6.751-.117a65.533 65.533 0 0 1-.981-2.42c-1.877-4.95-4.358-9.557-6.45-14.408-2.194-5.092-3.403-10.424-5.396-15.547-.488-1.256-2.75-1.7-3.015 0-.3 1.902-.219 3.859.078 5.814-.916-.598-2.432.26-2.07 1.516.089.31.161.623.238.935-1.687.217-3.225 1.318-3.809 3.518-2.138 8.056-2.55 16.47-3.613 24.708a186.76 186.76 0 0 0-.321 2.688c-.208.808-.412 1.619-.607 2.43-.404-.817-1.357-1.363-2.366-.756-2.423 1.46-7.581-1.79-10.085-2.419-4.763-1.196-9.603-2.053-14.372-3.243-8.78-2.195-17.75-3.93-26.777-4.754-3.775-1.38-7.648-2.415-11.451-3.726-3.672-1.265-7.324-3.388-11.305-3.407-3.805-.017-7.47 1.28-10.921 3.058 1.411-6.637 2.736-13.334 4.786-19.796 2.24-7.055 5.649-13.355 6.827-20.753.304-1.91-1.042-3.251-2.95-2.95-2.201.348-4.299 1.08-6.45 1.58-1.226.163-2.443.395-3.672.57-1.537.22-1.972 1.867-1.546 3.154-1.982 3.66-3.922 7.421-5.252 11.355-2.53 7.487-4.366 15.122-6.536 22.705C5.363 58.722.005 70.926.196 83.208h15.57c.359-1.952.659-3.881 1.135-5.548a393.363 393.363 0 0 0 5.507-21.569 98.088 98.088 0 0 1 12.434-1.386c8.08-.384 15.533 2.558 23.419 3.7.398.059.73-.028.983-.198 8.47 3.627 17.956 5.028 26.91 6.699 3.096.578 6.203.84 9.258 1.401-.326.192-.476.63-.145.969.304.308.565.652.808 1.01-.194.782-.097 1.661.44 2.556.697 1.167 1.183 2.414 1.617 3.683.388 2.41.612 4.877 1.251 6.856.304.941.891 1.536 1.579 1.827h2.14a3.268 3.268 0 0 0 1.83-1.827c.067-.163.12-.33.182-.495.506-.397.93-.97 1.192-1.751 1.05-3.13 2.35-6.158 2.086-9.528-.005-.064-.022-.12-.029-.183a5.253 5.253 0 0 0 1.765-.665c.047-.029.083-.063.126-.094-.912 4.126-1.557 8.3-1.493 12.548.012.754.155 1.412.38 1.995h15.913a4.87 4.87 0 0 0 .12-.578c.13-.945.245-1.891.355-2.837a59.67 59.67 0 0 0 1.354 3.415h21.767a4.445 4.445 0 0 0-.487-.928c-1.18-3.713-2.801-7.287-4.546-10.818" fill="#E1E0E7" mask="url(#d)"/></g><path d="M233.002 313.661c.096-1.817-1.096-3.65-3.149-3.624-.44-1.068-1.492-1.919-2.665-2.012.075-1.365-.891-2.774-2.518-2.19-3.198 1.15-6.42 2.578-9.36 4.29-.956.417-.975 1.853-.24 2.416-.195.126-.392.25-.586.38-.11.074-.205.16-.3.245-.335-1.144-.67-2.288-.965-3.442-.985-3.833-1.84-7.715-2.416-11.634-1.11-7.553-.974-15.087-.095-22.651.57-4.912 1.27-9.838 1.612-14.718.373-.43.58-1.019.483-1.779a27.569 27.569 0 0 0-.302-1.81c.126-4.427-.15-8.804-1.186-13.086 2.65.85 5.763-3.1 3.125-5.2-5.13-4.078-8.229-10.056-12.753-14.715-.352-.363-.895.097-.677.524 1.754 3.432 2.908 7.183 4.404 10.739.322 2.979.378 5.983.264 8.997-2.54-2.506-5.181-5.172-4.527-8.421.143-.71-.827-1.203-1.211-.513-2.209 3.968-.147 7.912 2.295 11.244 1.08 1.474 2.133 2.87 2.928 4.468-.998 8.824-3.048 17.666-4.274 26.218-1.095 7.645-1.193 15.118-.182 22.78a126.679 126.679 0 0 0 2.127 11.78c.532 2.317 1.038 4.725 1.736 7.053h11.114c-.071-.361-.138-.723-.22-1.082a2.62 2.62 0 0 0 .857-.095c.02.41.105.809.245 1.177h7.012c.288-.154.577-.309.867-.461.04.158.092.312.152.461h9.34c.051-.048.103-.093.153-.143 1.72-1.73.8-4.382-1.088-5.196M189.935 179.45a79.458 79.458 0 0 0-1.109 3.81 57.394 57.394 0 0 1-.599 2.12c.476-2.016 1.021-4.002 1.708-5.93m-3.037 29.49c-2.516-4.457-.295-9.665 1.19-14.152 1.63-4.932 2.722-9.881 4.04-14.904 1-3.804 2.078-7.586 2.769-11.453.715-2.02 1.102-3.965.623-5.29a.536.536 0 0 0-.06-.162 2.313 2.313 0 0 0-.615-.85c-.2-.171-.557-.202-.69.094-2.15 4.8-4.948 9.258-7.047 14.09-3.583 8.243-3.72 17.694-6.037 26.334-.322 1.199.51 1.968 1.399 2.03-.157 2.431.178 4.832 1.288 7.216 1.914 4.111 5.58 7.868 9.445 9.903 1.75.922 3.84-1.49 2.206-3.032-3.119-2.941-6.344-5.984-8.51-9.823m-45.824-4.238c-2.732-.25-3.63-5.721-4.11-7.918-.71-3.234-1.302-6.509-1.968-9.753-1.062-5.174-1.685-10.492-2.927-15.619-.951-3.929-3.689-8.472-3-12.64.11-.66-.692-1.095-1.048-.472-2.21 3.865-.285 8.906.644 12.902 1.513 6.512 1.89 13.327 3.253 19.893 1.243 5.984 1.667 17.143 9.156 17.893 2.567.257 2.566-4.051 0-4.286m114.892 73.314c-1.214-6.847-3.385-13.728-5.433-20.367-2.006-6.501-4.556-12.622-8.296-18.33-.476-.726-1.537-.096-1.157.678 3.03 6.177 5.01 12.93 6.763 19.568 1.683 6.371 2.643 13.15 5.02 19.307.747 1.934 3.467 1.202 3.103-.856M233.22 243.44c-.263-.761-1.4-.462-1.196.338 2.952 11.593 6.324 23.866 12.059 34.394 1.023 1.878 3.574.229 2.759-1.65-4.762-10.977-9.716-21.723-13.623-33.081m-1.282 19.831c-2.09-6.515-5.57-12.397-7.81-18.853-.25-.722-1.305-.443-1.1.323 1.834 6.872 4.977 13.254 6.813 20.118 1.468 5.489 2.163 11.729 5.39 16.456 1.083 1.585 3.558.143 2.522-1.57-3.067-5.065-4.012-10.856-5.815-16.474" fill="#E1E0E7"/><path d="M226.363 270.406c-2.506-5.96-5.589-11.614-7.164-17.96-.167-.673-1.261-.559-1.196.169.587 6.546 3.437 12.316 5.613 18.395 2.142 5.982 3.427 12.25 6.066 18.04.981 2.154 4.178.262 3.098-1.886-2.687-5.349-4.097-11.242-6.417-16.758m-10.185-4.946c-.11-.711-1.236-.553-1.176.17.77 9.316 3.77 19.429 8.425 27.346 1.485 2.525 4.844-.119 3.067-2.55-5.113-7.001-8.959-16.183-10.316-24.967m59.784 20.545c-3.009-.133-6.2 3.009-8.77 4.378-2.842 1.514-5.843 2.949-8.993 3.694-.03-.093-.07-.178-.093-.275-.466-1.312-2.43-1.469-2.832 0-.74 2.71.025 5.334 2.222 7.15 1.549 1.28 4.706.845 5.08-1.312a36.428 36.428 0 0 0 4.352-1.464c-.985.939-1.886 1.958-2.602 3.163-.51.859.583 2.154 1.473 1.47 3.022-2.323 6.396-4.346 10.044-5.523 2.502-.808 2.336-3.083 1.192-4.448.939-.851 1.642-1.827 1.884-2.96.428-1.998-.886-3.781-2.957-3.873m-7.343-24.735c-.889.294-1.77.615-2.656.915-.887.3-1.736.571-2.643.721-1.215-.792-2.106-2.228-2.734-3.46-1.736-3.406-2.515-7.286-3.58-10.943-.19-.658-1.122-.382-.994.281.931 4.84 1.467 10.105 3.89 14.47.052.093.11.171.162.26.3 1.363 1.236 2.439 2.82 2.821 2.013 1.057 4.381.81 6.625-.418.974-.149 1.952-.252 2.943-.201 2.126.108 3.07-2.323 2.26-4.039-.25-.53-.494-.994-.78-1.438a1.762 1.762 0 0 0-.066-.802c-1.834-5.951-3.262-12.026-5.254-17.926-.298-.882-1.565-.533-1.367.386 1.204 5.599 1.924 11.285 2.92 16.923-.882.482-1.55 1.413-1.546 2.45m2.582 50.758c-.031-.247-.173-.49-.37-.68.092-.424.172-.858.228-1.312.219-1.787-2.554-2.71-3.765-1.459-6.364 6.577-15.335 7.862-24.037 10.34-.09.025-.173.055-.257.084h28.923c.011-.1.027-.196.036-.298.215-2.341-.473-4.394-.758-6.675M138.036 37.62c.183.232.369.461.56.686a12.4 12.4 0 0 0-.965.688c.139-.456.27-.914.405-1.375m-21.293 25.173c.142-.102.288-.197.43-.298.867-.567 1.736-.935 2.53-1.68l.076-.077a163.715 163.715 0 0 1 3.12-1.958c.137-.014.275-.03.418-.057 1.568-.301 2.716-1.318 3.74-2.47.797-.545 1.533-1.155 2.106-1.915.215-.287.292-.602.271-.912 1.319-1.584 2.59-3.211 3.624-4.99.82-1.41 1.528-2.85 2.082-4.324a.716.716 0 0 0 .298-.173c3.579-3.455 10.085-2.949 14.707-2.847 5.142.115 10.213.793 15.333 1.193 12.49.973 25.104-3.205 35.63-9.917a25.806 25.806 0 0 0-.534 4.266c-.045 1.129.817 1.715 1.723 1.773.12 3.075.563 6.152 1.096 8.873.584 2.987 5.033 1.684 4.556-1.246-.462-2.832-1.378-5.619-2.047-8.414-.483-2.017-.841-4.075-1.285-6.102a21.02 21.02 0 0 1 .413-1.84c.382-.279.768-.556 1.142-.844 2.144-1.641 1.022-4.7-1.173-4.788 4.669-3.274 8.842-7.293 12.298-12.186.293-.415.337-.857.223-1.258 1.8-2.32 3.506-4.699 5.384-6.986.296-.36-.156-.822-.517-.514-2.599 2.215-5.242 4.353-7.836 6.572-10.866 6.661-20.027 15.16-32.536 18.945-6.744 2.041-13.742 2.887-20.766 3.213-6.92.322-13.94.006-20.816.99-.616.088-.59 1.098 0 1.21 2.967.56 6.02 1.008 9.122 1.343-1.806.11-3.597.322-5.296.702a2.927 2.927 0 0 0-1.116-.798l.088.034c-.038-.018-.077-.03-.115-.046-.056-.022-.105-.052-.164-.072a2.698 2.698 0 0 0-.123-.042c-.738-.25-1.556-.271-2.256.04-.113.005-.235.019-.272.019-.375-.001-.75-.016-1.124-.05a9.282 9.282 0 0 1-.659-.088c-.348-.94-1.681-1.227-2.723-.919a9.47 9.47 0 0 1 .611-.88c1.73-2.179-2.19-3.534-2.502-1.446-.327 2.187-1.336 4.386-2.076 6.472-.116.329-.24.652-.36.977-1.373 2.364-3.23 4.468-5.072 6.482-2.154 2.357-6.766 5.557-7.255 8.821-.15 1.009.035 1.932.473 2.659a83.29 83.29 0 0 0-4.288 3.732c-.939.882.34 2.629 1.417 1.821m90.793 8.946c-.355-.669-1.127-.534-1.495-.062-.866-4.942-1.8-9.854-3.91-14.477-.19-.414-.91-.119-.747.313 2.228 5.951 1.392 12.122 1.83 18.316.427 6.047 1.465 11.94 1.354 18.024-.037 1.985-.075 3.996-.206 5.98a57.034 57.034 0 0 1-.613 1.843c-3.596 10.19-10.805 18.414-19.506 24.738-6.34 4.609-11.318 9.461-14.091 16.979-2.458 6.664-1.201 14.141 5.894 17.241 4.706 2.057 7.357-5.16 2.65-6.246-7.467-1.723-2.501-11.211.205-15.214 2.155-3.187 4.752-5.212 7.828-7.44 4.169-3.017 8.23-6.304 11.867-9.945-.004 1.06 1.14 2.202 2.3 1.454 2.317-1.49 4.047-3.476 5.06-5.857 4.207-5.273 4.75-13.622 4.347-20.197.003-.023.008-.047.01-.07 1.155-8.226 1.226-17.85-2.777-25.38m-33.117 21.034c-1.409 1.442-2.674 3.376-4.408 4.348-1.813 1.017-3.535.293-5.414.063-.361-.044-.697.464-.57.84 2.527 7.42 11.795 3.034 14.536-1.65 1.71-2.921-2.005-5.79-4.144-3.6m-25-15.206c1.63.882 3.91.283 5.422-.604 1.913-1.122 3.241-2.886 4.003-4.952 1.08-2.934-3.767-4.36-4.686-1.306-.364 1.209-.667 2.531-1.466 3.54-.897 1.132-2.047 1.269-3.273 1.829-.588.267-.529 1.208 0 1.493" fill="#E1E0E7"/><path d="M154.589 57.067c-4.63 1.174-12.517 3.98-11.5 10.158.2 1.21 2.132.918 2.095-.288-.141-4.579 7.25-5.264 10.435-6.073 2.42-.614 1.395-4.412-1.03-3.797m37.185 4.371c-4.016-.588-8.386-2.75-12.213-.284-1.156.745-.358 2.958.88 2.546 4.352-1.451 7.58 4.34 11.932 3.133 2.682-.743 1.74-5.053-.6-5.395M108.052 91c1.8 0 3.274-1.68 4.256-2.967 1.016-1.333 1.717-2.863 1.691-4.55-.011-.748-.401-1.446-.97-1.962.029-.031.065-.058.092-.09a1.78 1.78 0 0 0-.522-2.657c-2.102-1.18-4.94-1.165-6.21 1.13-.49.887.626 1.645 1.38 1.035.706-.571 1.383-.393 1.954.051a2.4 2.4 0 0 0-.327.247c-.86-.678-2.256.01-3.02.656-1.207 1.021-2.122 2.52-2.338 4.067-.319 2.277 1.418 5.04 4.014 5.04m5.272-17.966c2.224.993 5.121.508 7.652-.314-1.447 2.889-.863 6.474-.496 9.679.431 3.758 5.66 3.194 5.446-.091.12-1.715-.054-3.46.166-5.167.19-1.483.563-1.764 1.788-2.507 1.63-.989 4.422-1.906 5.24-3.84.644-.31 1.265-.61 1.846-.858.444-.19.627-.55.63-.932 1.54-.615 3.537-1.538 3.397-3.362-.061-.8-.626-1.49-1.474-1.487-1.645.004-3.301 2.014-4.69 2.833-.122.07-.247.145-.37.217a2.87 2.87 0 0 0-.308-.301c.868-.758 1.614-1.593 2.149-2.52 1.07-1.855-.689-3.662-2.552-3.348-3.298.555-6.21 3.714-8.845 5.584-3.091 2.193-5.924 3.82-9.423 5.207-.456.18-.73.951-.156 1.207M86.366 84.99c2.509.09 4.95-.495 7.373-1.149 2.669-.719 5.513-1.395 7.955-2.773 2.97-1.676.35-6.327-2.63-4.745-2.422 1.287-4.7 2.895-7.125 4.201-2.061 1.11-4.091 2.189-5.83 3.814-.246.23-.04.642.257.653" fill="#E1E0E7"/><path d="M109.385 82.375a5.04 5.04 0 0 0-1.9-.375c-2.77 0-4.485 2.225-4.485 4.287 0 1.13.606 2.683 3.496 3.661a.95.95 0 0 0 .309.052.996.996 0 0 0 .309-1.934c-.985-.334-2.16-.914-2.16-1.779 0-1.108.968-2.302 2.531-2.302.397 0 .793.08 1.175.234a.972.972 0 0 0 1.27-.554.998.998 0 0 0-.545-1.29m20.228-21.786c.109.35.235.688.373 1.02.89-.153 1.78-.295 2.671-.416a82.133 82.133 0 0 1-1.884 1.953c.189.304.388.6.604.88a.96.96 0 0 1-.162 1.336.927.927 0 0 1-1.317-.164c-.177-.23-.338-.471-.499-.712a61.426 61.426 0 0 1-4.832 4.164c.175.246.356.49.548.73a.96.96 0 0 1-.14 1.338.93.93 0 0 1-1.32-.142c-.21-.263-.408-.532-.6-.802a47.226 47.226 0 0 1-5.547 3.43.957.957 0 0 0-.403 1.281.932.932 0 0 0 1.265.408c.32-.168.638-.342.956-.518a43.172 43.172 0 0 1-.068-1.57.946.946 0 0 1 .915-.974c.534-.026.949.402.961.928.005.182.017.363.024.545 4.964-3.045 9.67-7.147 14.602-12.717a.96.96 0 0 0 .139-1.066.93.93 0 0 0-.93-.516c-2.058.205-4.164.52-6.29.922a.938.938 0 0 1 .934.662" fill="#4C5D7F"/><path d="M123.04 62.284c.038.239.09.478.15.716 2.136-.464 4.3-.877 6.475-1.226-.108-.235-.217-.468-.309-.711-.167-.443.122-.912.644-1.063-2.652.42-5.331.943-8 1.546.513-.008.97.301 1.04.738M105 70c4.48-2.174 9.49-4.245 14.73-5.883-.07-.369-.129-.739-.173-1.11-.05-.417.135-.808.443-1.007-5.056 1.555-10.051 3.537-14.627 5.675.008.492.022.986.026 1.478.004.352-.156.664-.399.847m-1.228-.457c-.54 0-.98-.418-.986-.94-.001-.201-.01-.402-.013-.603C90.855 73.02 82 78.717 82 81.283 82 83.555 83.165 86 85.724 86c1.447 0 3.047-.721 4.458-1.357.755-.34 1.47-.661 2.008-.803a.947.947 0 0 0 .692-1.166c-.144-.508-.689-.808-1.21-.668-.703.185-1.49.54-2.325.915-1.225.552-2.613 1.178-3.623 1.178-1.437 0-1.752-2.032-1.754-2.792.287-1.557 8.49-6.917 20.03-11.79-.07.015-.143.026-.228.026" fill="#4C5D7F"/><path d="M121.01 62.161c.053.378.125.755.21 1.131.508 2.23 1.576 4.428 3.134 6.457.224.293.456.584.7.869.216.252.533.382.852.382.242 0 .485-.074.687-.229a.99.99 0 0 0 .164-1.449c-.224-.26-.435-.525-.639-.791-1.4-1.828-2.347-3.797-2.78-5.78a11.901 11.901 0 0 1-.158-.862c-.074-.526-.562-.9-1.11-.889-.04 0-.08-.002-.12.003-.148.02-.284.065-.405.131-.371.204-.596.602-.535 1.027m-.097 9.84c-.517.014-.926.459-.913.995.013.537.036 1.071.068 1.602.226 3.787.936 7.4 2.115 10.763a.94.94 0 0 0 .88.639.903.903 0 0 0 .32-.059c.486-.183.737-.74.56-1.245-1.217-3.47-1.9-7.234-2.047-11.191-.007-.186-.019-.37-.023-.557-.013-.536-.427-.973-.96-.947m8.132-10.689c.089.288.194.564.298.843.361.962.816 1.864 1.364 2.698.168.257.338.514.525.758a.978.978 0 0 0 1.388.175 1.03 1.03 0 0 0 .17-1.422 10.997 10.997 0 0 1-.635-.937 11.543 11.543 0 0 1-.83-1.636 12.193 12.193 0 0 1-.393-1.085.986.986 0 0 0-.985-.705.954.954 0 0 0-.254.041c-.53.19-.808.746-.648 1.27" fill="#4C5D7F"/><path d="M102.964 67.418c.002.205.01.412.012.617a.981.981 0 0 0 1.216.937.97.97 0 0 0 .76-.956c-.005-.474-.02-.95-.03-1.424-.071-3.592-.263-7.2-.456-10.703-.241-4.376-.49-8.9-.49-13.366 0-23.63 15.76-37.737 42.16-37.737 6.681 0 12.806.73 19.29 1.504 6.88.821 13.995 1.67 22.211 1.67 13.267 0 24.643-1.742 34.69-5.319-10.64 26.179-43.405 33.244-61.481 33.244-7.425 0-20.365-1.447-25.884-4.664a.995.995 0 0 0-1.353.343.967.967 0 0 0 .347 1.334c.942.549 2.059 1.044 3.297 1.492.599.216 1.227.42 1.877.613 6.824 2.027 16.207 2.83 21.716 2.83 9.873 0 24.01-2.077 36.75-8.086a491.62 491.62 0 0 1-.23-1.186.975.975 0 0 1 .785-1.14.986.986 0 0 1 1.154.775l.127.652a63.267 63.267 0 0 0 6.964-4.102c.12-.775.254-1.554.426-2.342a.988.988 0 0 1 1.174-.746.974.974 0 0 1 .757 1.157c-.021.094-.035.187-.054.28 7.092-5.36 12.972-12.469 16.246-21.803a.964.964 0 0 0-.25-1.021.998.998 0 0 0-1.044-.203c-10.31 4-22.09 5.944-36.014 5.944-8.097 0-15.151-.842-21.973-1.656-6.546-.781-12.728-1.518-19.529-1.518-13.846 0-25.22 3.817-32.893 11.039C105.888 20.799 102 30.705 102 42.523c0 4.52.25 9.071.494 13.47.206 3.746.415 7.61.47 11.425" fill="#4C5D7F"/><path d="M208.189 21.023a1.03 1.03 0 0 0-1.222.79c-.18.833-.32 1.656-.443 2.475-.619 4.09-.617 8.022-.606 11.844.016 5.482.023 10.705-1.918 15.587.247 1.126.49 2.22.727 3.281 3.275-5.986 3.266-12.25 3.247-18.874-.012-4.384-.018-8.917.946-13.583.021-.099.035-.197.057-.296a1.03 1.03 0 0 0-.788-1.224" fill="#4C5D7F"/><path d="M199.102 29.456l-.127-.657a.989.989 0 0 0-1.158-.781.983.983 0 0 0-.787 1.149l.231 1.196c3.479 17.99 6.343 29.929 8.446 38.694 2.781 11.594 4.314 17.979 4.314 26.07 0 21.402-11.918 28.28-22.433 34.346-8.016 4.625-15.588 8.994-15.588 19.097 0 5.488 2.111 6.073 4.463 6.218.45.027.874.053 1.201.162a.989.989 0 0 0 1.251-.622.979.979 0 0 0-.625-1.241c-.573-.19-1.148-.226-1.704-.26-1.57-.097-2.607-.16-2.607-4.257 0-8.973 6.768-12.878 14.604-17.4C199.016 125.15 212 117.66 212 95.128c0-8.323-1.552-14.788-4.368-26.526a1025.84 1025.84 0 0 1-3.281-13.995 806.256 806.256 0 0 1-5.25-25.15m-45.975 45.487c-1.22 0-3.034-.747-3.034-2.806 0-1.187.6-2.307 1.53-2.856.259-.151.553-.226.899-.226.034 0 3.387.118 3.387 2.743 0 .374-.588 3.145-2.782 3.145M152.521 67a3.84 3.84 0 0 0-1.976.52c-1.546.912-2.545 2.725-2.545 4.618 0 3.159 2.641 4.862 5.126 4.862C156.8 77 158 73.132 158 71.8c0-3.919-4.058-4.8-5.48-4.8m3.48-9.055c-.023-.545-.475-.968-.98-.944-4.414.201-10.24 1.68-12.928 7.585-.224.492-.026 1.081.443 1.317a.89.89 0 0 0 .405.097.937.937 0 0 0 .848-.562c2.286-5.02 7.414-6.285 11.312-6.464.52-.023.922-.484.9-1.029" fill="#4C5D7F"/><path d="M183.263 59.637a4.61 4.61 0 0 1 1.804-.362c2.29 0 5.026 1.642 7.316 4.39a.873.873 0 0 0 .67.335.873.873 0 0 0 .67-.334c.37-.443.37-1.164 0-1.609-2.638-3.166-5.874-5.057-8.656-5.057a6.21 6.21 0 0 0-2.434.492c-.494.209-.753.86-.579 1.45.174.594.715.904 1.209.695m-30.515 9.37a4.052 4.052 0 0 1-.228.008c-.425 0-.793.235-.973.578a1.05 1.05 0 0 0-.49.881c0 .064-.01.137-.02.214a4.76 4.76 0 0 0-.037.518c0 .42.148 1.794 2.06 1.794 1.432 0 1.94-.943 1.94-1.75 0-.523-.064-1.278-.614-1.787-.54-.502-1.2-.473-1.638-.456m34.872 1.264c.507-.436.507-1.143-.002-1.58a1.435 1.435 0 0 0-1.02-.323c-.518-.517-1.61-.474-2.169.034a1.265 1.265 0 0 0-.429.945c0 .798.786 1.653 1.956 1.653.814 0 1.366-.474 1.663-.729m-18.589-5.554c0-1.49-.044-2.697-.139-3.804-.047-.552-.506-.958-1.03-.909-.52.05-.904.538-.857 1.09a42.09 42.09 0 0 1 .131 3.623c0 .735-.01 1.47-.02 2.205-.01.745-.02 1.49-.02 2.236 0 11.43 4.464 14.355 8.051 16.705 2.3 1.506 3.96 2.593 3.96 5.698 0 2.91-2.864 4.431-5.693 4.431-2.874 0-3.273-.633-3.625-1.192-.29-.461-.878-.587-1.313-.279-.436.308-.553.931-.263 1.392.831 1.321 1.949 2.087 5.201 2.087 3.678 0 7.587-2.257 7.587-6.44 0-4.223-2.47-5.84-4.857-7.405-3.354-2.196-7.154-4.686-7.154-14.997 0-.736.01-1.471.02-2.206.01-.745.02-1.49.02-2.235m9.298 46.187a.991.991 0 0 0 .626-1.244.967.967 0 0 0-1.222-.637c-5.5 1.805-12.037 1.148-19.39-1.947a.964.964 0 0 0-1.267.534.994.994 0 0 0 .526 1.29c4.884 2.058 9.475 3.1 13.647 3.1 2.482 0 4.864-.37 7.08-1.096m-3.431 6.316a.927.927 0 0 0-.439-1.265c-1.301-.625-2.829-.955-4.417-.955-2.568 0-5.017.86-6.722 2.362a.918.918 0 0 0-.06 1.333.999.999 0 0 0 .724.305c.237 0 .475-.082.663-.247 1.347-1.186 3.313-1.866 5.395-1.866 1.285 0 2.51.261 3.539.756.485.232 1.074.043 1.317-.422" fill="#4C5D7F"/><g transform="translate(0 73)"><mask id="f" fill="#fff"><use xlink:href="#e"/></mask><path d="M45.148 130.299c-.182-.267-.36-.538-.545-.802a.989.989 0 1 1 1.623-1.13c.192.275.377.556.566.833 4.049-2.707 8.59-5.773 13.856-9.623 7.977-5.832 14.069-10.565 18.965-14.368C94.619 93.55 99.123 90.053 116.1 87.411l-.174-.95a.988.988 0 1 1 1.946-.355l.185 1.011c3.106-.447 6.61-.88 10.635-1.33-.072-.273-.143-.555-.214-.823a.989.989 0 0 1 1.91-.51c.098.364.194.742.29 1.113 3.58-.392 7.548-.804 11.986-1.257-.076-.281-.16-.552-.228-.84a.988.988 0 0 1 1.924-.457c.09.376.195.731.296 1.093l1.94-.198 3.078-.314a.988.988 0 0 0 .888-1.004c-.37-17.553-9.524-21.24-16.207-23.932-1.875-.754-3.645-1.467-4.92-2.378-5.048-3.6-5.934-8.854-7.16-16.127-.89-5.267-1.896-11.235-4.662-18.34a.992.992 0 0 0-1.074-.619l-.437.069c-2.333.364-4.745.74-6.962.74-6.597 0-9.602-3.905-9.602-7.532 0-8.71 7.252-11.957 11.823-11.957 1.392 0 2.707.27 3.908.804a.988.988 0 1 0 .804-1.806c-1.456-.646-3.04-.974-4.712-.974-5.336 0-13.801 3.783-13.801 13.933 0 4.725 3.978 9.508 11.58 9.508 2.255 0 4.617-.351 6.913-.709 2.48 6.596 3.43 12.224 4.27 17.211 1.257 7.448 2.25 13.332 7.961 17.407 1.468 1.048 3.344 1.803 5.33 2.603 6.394 2.575 14.32 5.768 14.943 21.23l-2.161.221c-46.115 4.705-46.115 4.705-67.999 21.707-4.885 3.796-10.966 8.519-18.918 14.334-5.822 4.256-10.769 7.56-15.133 10.474C17.216 146.573 16.015 147.39 0 247h2.003c15.77-98.07 17.022-99.256 43.145-116.701" fill="#4C5D7F" mask="url(#f)"/></g><path d="M41.597 248.263A.995.995 0 0 1 40.38 247c-6.4 13.555-13.304 35.82-21.379 74h2.034c7.979-37.655 14.739-59.558 20.966-72.85l-.403.113m-1.021-4.674c.693-.184 1.4-.366 2.114-.546 5.67-10.501 10.93-14.59 16.309-17.423-.332-.539-.665-1.08-.994-1.62-5.942 3.128-11.736 7.697-18.006 20a.984.984 0 0 1 .577-.411m45.128-30.926c-.003.113-.002.225-.004.337 1.417-1.51 3.074-3.295 5.053-5.434a.902.902 0 0 0-.112-1.338 1.081 1.081 0 0 0-1.444.103 1000.012 1000.012 0 0 1-5.198 5.59c.184-.153.427-.244.707-.23.565.013 1.012.45.998.972" fill="#4C5D7F"/><path d="M61.767 228.53a.996.996 0 0 0 .626.443 1.034 1.034 0 0 0 .766-.12c6.931-4.177 10.457-5.715 12.791-6.733 3.537-1.543 4.583-2 9.857-7.71 0-.14-.003-.281-.003-.422 0-.727.009-1.455.028-2.183a.967.967 0 0 1 .168-.523c-.695.766-1.324 1.453-1.9 2.074.221.256.451.505.702.736.4.368.414.978.031 1.362a1.02 1.02 0 0 1-.723.297 1.02 1.02 0 0 1-.693-.267c-.24-.22-.46-.45-.673-.685-3.68 3.847-4.771 4.323-7.622 5.566-2.282.995-5.681 2.478-12.156 6.334-1.796-2.923-3.54-5.933-5.23-8.85-3.217-5.553-6.544-11.28-10.338-16.625-.192-.27-.38-.544-.574-.811a1.029 1.029 0 0 0-1.395-.24.94.94 0 0 0-.249 1.34c.187.259.367.523.552.783 3.748 5.277 7.055 10.97 10.254 16.49a700.227 700.227 0 0 0 2.929 5.022c.33.558.662 1.115.996 1.671.613 1.024 1.23 2.044 1.856 3.051" fill="#4C5D7F"/><path d="M79.823 209.295a1.115 1.115 0 0 0-1.51 0 .964.964 0 0 0 0 1.42c.876.827 1.542 1.784 2.246 2.799.582.838 1.183 1.696 1.918 2.493.226.244.462.484.717.714a1.1 1.1 0 0 0 .738.279c.28 0 .562-.104.771-.31a.964.964 0 0 0-.032-1.422 9.2 9.2 0 0 1-.749-.767c-.565-.642-1.062-1.349-1.576-2.088-.733-1.055-1.49-2.147-2.523-3.118" fill="#4C5D7F"/><path d="M86.187 213.356l.004-.349c.016-.541-.456-.992-1.053-1.005a1.08 1.08 0 0 0-.925.424.952.952 0 0 0-.183.534 81.93 81.93 0 0 0-.03 2.226c0 .143.004.287.004.43.04 7.927 1.197 16.47 3.624 26.72.754.213 1.543.433 2.372.664-2.615-10.78-3.838-19.635-3.838-27.814 0-.61.01-1.22.025-1.83m51.739 77.992c-.127.41-.483.67-.866.67a.858.858 0 0 1-.288-.05c-.26-.092-.528-.182-.794-.272-.691 3.17-1.386 6.377-2.086 9.63l.928.284c.484.15.763.692.623 1.211-.115.429-.48.707-.876.707a.86.86 0 0 1-.254-.038c-.27-.084-.552-.17-.83-.255-.814 3.796-1.633 7.648-2.46 11.571-.111.527.197 1.05.69 1.17a.828.828 0 0 0 .201.024c.417 0 .794-.308.89-.763A3281.7 3281.7 0 0 1 138 291.03l-.03-.03c.004.115-.008.232-.044.348m-41.748-43.879c-.06 0-.119-.008-.178-.018a868.46 868.46 0 0 0 12.242 3.446c.104-.33.207-.659.316-.992a1.01 1.01 0 0 1 1.267-.643c.527.17.817.735.645 1.26-.1.304-.192.604-.288.904 1.706.465 3.482.944 5.332 1.436.11-.335.215-.663.33-1.005a1.006 1.006 0 0 1 1.907.633c-.101.302-.195.593-.292.89a1554.526 1554.526 0 0 0 27.318 6.957 2602.444 2602.444 0 0 0-7.38 30.484l.564.179-.051-.046a.996.996 0 0 1-.085-1.41 1.009 1.009 0 0 1 1.418-.085c.156.136.302.269.447.4a2568.456 2568.456 0 0 1 7.28-30.013.993.993 0 0 0-.115-.757 1.006 1.006 0 0 0-.62-.454c-21.348-5.233-36.96-9.447-48.05-12.635-.443.4-.888.8-1.322 1.2a1.007 1.007 0 0 1-.685.269" fill="#4C5D7F"/><path d="M96.575 246.49c.14-.136.284-.271.425-.406a582.369 582.369 0 0 1-8.895-2.797c-8.544-2.774-11.999-4.182-12.073-4.214a.969.969 0 0 0-.366-.073c-.835 0-18.584 3.318-32.838 7.353-.71.2-1.414.403-2.104.607a.99.99 0 0 0-.575.459 1.056 1.056 0 0 0-.112.824c.15.553.7.874 1.228.717.134-.04.27-.078.403-.117 14.114-4.14 31.918-7.47 33.857-7.746.959.38 5.025 1.943 13.554 4.678l.092.03c2.247.72 4.8 1.52 7.688 2.4a.993.993 0 0 1-.334-.246 1.073 1.073 0 0 1 .05-1.469m5.654 35.445l.18-.92c-10.268-1.941-19.937-4.137-26.357-7.222-2.836-1.362-5.915-2.067-8.893-2.75l-.152-.034c-.025-.007-.05-.005-.075-.009l-.308 1.365c-.097.434-.507.73-.964.73-.067 0-.134-.005-.203-.018-.533-.104-.874-.592-.763-1.088l.125-.553c-2.466.619-4.654 1.191-6.777 1.746-7.341 1.922-13.141 3.439-24.224 5.221-.536.087-.896.562-.803 1.063.092.5.603.833 1.138.749 11.183-1.798 17.025-3.327 24.422-5.263 2.526-.66 5.136-1.344 8.206-2.102 2.964.68 5.766 1.328 8.368 2.578C81.985 278.713 92.23 280.987 103 283c-.524-.1-.868-.571-.771-1.065M138.003 293a1 1 0 0 0 .948-.71c.04-.123.053-.247.048-.37l-.132-.124c-.322-.31-.661-.635-1.03-.976l-.56-.187c-6.991-2.284-16.042-4.072-25.6-5.96l-1.068-.21c-.08.349-.16.711-.24 1.055a1.007 1.007 0 0 1-.971.796.93.93 0 0 1-.232-.028c-.537-.132-.869-.69-.742-1.247l.22-.966c-1.778-.353-3.555-.71-5.321-1.073-.06.334-.117.665-.177 1.005-.089.5-.509.85-.982.85a.953.953 0 0 1-.164-.017c3.082.64 6.202 1.26 9.303 1.871 9.568 1.89 18.62 3.679 25.517 5.95.29.096.585.19.868.288a.96.96 0 0 0 .315.053m-77.69-9.983c-6.847 1.342-13.734 2.977-20.394 4.557-3.326.79-6.766 1.605-10.143 2.372-.53.12-.867.672-.754 1.233.114.56.636.918 1.165.798 3.387-.768 6.83-1.586 10.16-2.376 6.576-1.56 13.374-3.173 20.117-4.5.071.017.143.037.214.056l.185-.975c.106-.556.612-.911 1.137-.815-.425-.112-.85-.228-1.275-.337a.938.938 0 0 0-.412-.013M135.021 304a.983.983 0 0 0 .94-.728 1.011 1.011 0 0 0-.668-1.248l-.995-.292c-14.151-4.13-38.939-9.877-43.523-10.705-6.736-1.215-13.14-3.004-19.333-4.733A442.679 442.679 0 0 0 63 284c.5.134.817.644.714 1.17l-.203 1.04c2.493.654 4.987 1.35 7.418 2.029 6.236 1.741 12.684 3.542 19.507 4.774 1.232.223 4.553.942 8.98 1.957l.185-.962a.984.984 0 0 1 1.148-.797c.53.108.878.637.774 1.183l-.195 1.017c1.433.332 2.955.689 4.541 1.065l.233-.99a.975.975 0 0 1 1.184-.739c.525.132.847.676.72 1.217-.078.324-.152.644-.229.968 8.616 2.062 18.655 4.594 26.081 6.767l.89.261c.092.027.183.04.273.04" fill="#4C5D7F"/><path d="M64.729 272.98a.9.9 0 0 0 .188.02c.425 0 .805-.313.896-.77l.287-1.44c2.398-12.032 4.026-19.261 4.837-21.469.184-.5-.05-1.06-.521-1.255-.474-.194-1.003.054-1.186.552-.866 2.357-2.58 9.977-5.094 22.632l-.116.583c-.104.523.213 1.037.709 1.147m.251 12.181c.107-.508-.223-1-.74-1.13-.019-.004-.036-.012-.054-.016-.563-.091-1.086.241-1.196.761l-.192.913A3117.918 3117.918 0 0 0 56 319h2.066c.95-4.799 3.723-18.67 6.703-32.836l.21-1.003m38.131-.979l.189-.968c.362-1.864.702-3.634 1.025-5.316 2.117-11.025 3.545-18.443 6.319-26.687.101-.3.2-.6.305-.904.181-.525-.125-1.088-.684-1.258-.558-.17-1.158.117-1.34.641-.116.333-.225.662-.336.991-2.797 8.334-4.233 15.793-6.358 26.863-.32 1.67-.658 3.428-1.018 5.277l-.194 1c-.105.536.267 1.048.832 1.157.1.017.158.022.215.022.504 0 .951-.336 1.046-.818" fill="#4C5D7F"/><g transform="translate(94 292)"><mask id="h" fill="#fff"><use xlink:href="#g"/></mask><path d="M7.653 1.67a.99.99 0 0 0-.79-1.16 1.003 1.003 0 0 0-1.173.782l-.188.943a901.255 901.255 0 0 1-5.29 24.8h2.05A906.862 906.862 0 0 0 7.454 2.669c.066-.333.134-.667.199-.999" fill="#4C5D7F" mask="url(#h)"/></g><path d="M108.262 283.867c-.077.305-.156.62-.233.919-.136.53.218 1.061.79 1.187.081.018.164.027.246.027.481 0 .917-.305 1.033-.758l.255-1.004c1.797-7.056 3.795-15.353 5.332-24.224.395-2.277 1.112-4.476 1.95-6.837.105-.293.202-.579.31-.878.186-.517-.115-1.075-.672-1.248-.558-.173-1.16.108-1.345.624-.121.337-.233.66-.35.992-.85 2.402-1.58 4.655-1.992 7.034-1.533 8.843-3.531 17.128-5.324 24.166m-1.056 11.162c-.562-.13-1.122.194-1.258.721l-.248.963c-1.66 6.428-3.266 12.743-4.678 19.104-.118.531.243 1.051.806 1.162.072.014.144.021.214.021.482 0 .915-.317 1.018-.78 1.407-6.34 3.01-12.644 4.668-19.063.081-.315.16-.627.242-.942.136-.527-.206-1.058-.764-1.186m24.19-51.081c-.547 0-.991-.43-.992-.96 0-.532.443-.964.992-.965l1.06-.001c.125-1.91.237-3.853.261-5.782 6.076-.015 12.224-.054 18.302-.098a104.6 104.6 0 0 1-.054-.919c-.029-.53.392-.983.939-1.011.534-.03 1.014.38 1.043.91.018.344.037.678.058 1.006l5.7-.044 2.097-.016-.082-.885c-.048-.53.355-.997.901-1.044a.98.98 0 0 1 1.076.874l.096 1.04c7.355-.057 14.854-.11 22.245-.126a50.123 50.123 0 0 1 1.744 4.93c.406-.023.821-.044 1.22-.067a.987.987 0 0 1 .998.662 51.04 51.04 0 0 0-2.38-6.857.992.992 0 0 0-.916-.595c-8.984.018-18.15.09-27.015.16-8.848.068-17.998.139-26.961.157a1.01 1.01 0 0 0-.703.284.951.951 0 0 0-.288.684v.18c0 2.642-.186 5.357-.367 7.983-.181 2.644-.37 5.38-.37 8.06 0 .52.007 1.038.022 1.557a.971.971 0 0 0 1.02.934.975.975 0 0 0 .964-.99c-.015-.499-.022-1-.022-1.502 0-2.493.17-5.062.34-7.56l-.928.001" fill="#4C5D7F"/><path d="M137.252 289.758a1.01 1.01 0 0 0 .084 1.42l.052.047a73.78 73.78 0 0 1 1.163 1.069l.034.03c3.583 3.322 5.815 4.676 20.188 4.676 16.727 0 23.271-.709 31.021-8.657.171-.176.273-.409.285-.654.485-9.74.92-19.27.92-28.782v-.59c.003-5.075.002-10.656-1.695-17.317.007.038.016.076.019.116a1.005 1.005 0 0 1-.94 1.065c-.272.016-.556.031-.832.048 1.445 6.026 1.45 11.12 1.448 16.088v.59c0 9.34-.423 18.718-.899 28.297-7.125 7.174-13.1 7.784-29.327 7.784-14.39 0-15.928-1.434-18.992-4.292-.215-.2-.44-.408-.672-.62-.145-.133-.29-.266-.445-.404a.997.997 0 0 0-1.412.086m23.763-47.836l-.087-.922c-2.493.044-5.072.083-7.744.116.04.253.084.502.128.747.086.477-.283.924-.825 1a1.108 1.108 0 0 1-.157.011c-.48 0-.902-.307-.979-.737a42.78 42.78 0 0 1-.166-.998c-5.934.065-12.305.103-19.133.112l-1.06.002c-.549 0-.993.392-.992.875 0 .482.445.872.993.872l.93-.002c11.224-.015 21.213-.104 30.077-.27-.512-.002-.945-.349-.985-.806m26.983-.972c-.002-.04-.011-.078-.018-.117a1.152 1.152 0 0 0-.031-.136c-.134-.426-.526-.724-.976-.695-.389.024-.794.046-1.19.07-6.572.39-14.173.687-22.934.89.026.317.053.635.077.952.041.556-.359 1.04-.892 1.084L162 243c9.331-.208 17.383-.518 24.283-.934l.806-.048c.534-.034.94-.512.91-1.068" fill="#4C5D7F"/><path d="M152.442 234.95c-.021-.552-.37-.979-.758-.949-.398.03-.704.501-.683 1.054.012.327.025.643.039.957.098 2.27.23 4.219.405 5.997.039.389.078.772.121 1.145.056.494.363.846.712.846a.557.557 0 0 0 .114-.012c.393-.087.661-.601.599-1.148a76.22 76.22 0 0 1-.093-.857c-.18-1.766-.314-3.708-.413-5.986-.015-.341-.03-.689-.043-1.046m10.556 7.96c-.019-.318-.04-.636-.058-.954-.1-1.663-.208-3.327-.318-4.99l-.064-.952-.071-1.093c-.037-.556-.396-.969-.808-.918-.41.05-.712.541-.676 1.098l.061.93.074 1.117c.108 1.617.213 3.233.31 4.85.022.356.045.712.065 1.067.03.53.356.932.74.934h.034c.008-.002.017-.002.026-.003.41-.042.717-.529.685-1.086m-47.24-84.895a.978.978 0 0 0-.803 1.135l.176.938c3.28 17.497 5.792 27.368 7.464 33.935 1.605 6.302 2.41 9.465 2.41 13.443 0 11.652-10.465 20.468-21.545 29.802-2.563 2.159-5.205 4.39-7.716 6.658-.14.127-.286.254-.426.381a.961.961 0 0 0-.05 1.38 1.004 1.004 0 0 0 .73.312c.243 0 .487-.087.679-.262.43-.392.871-.782 1.31-1.172 2.22-1.975 4.526-3.924 6.774-5.817C116.198 229.114 127 220.015 127 207.467c0-4.218-.877-7.663-2.47-13.915-1.663-6.535-4.163-16.354-7.426-33.752-.062-.333-.124-.661-.186-1a.996.996 0 0 0-1.16-.784m60.098 42.007a62.203 62.203 0 0 0-11.415-1.081c-9.284 0-18.654 2.995-21.623 4.034-1.89-1.274-4.902-15.267-7.113-25.536-1.436-6.672-2.92-13.548-4.484-19.593-.096-.37-.191-.749-.288-1.113a.982.982 0 1 0-1.9.51c.072.268.143.55.214.823 1.58 6.07 3.083 13.036 4.537 19.79 4.24 19.7 6.12 27.143 9.068 27.143.17 0 .278-.038.415-.087 1.88-.667 11.739-3.995 21.174-3.995 3.878 0 7.864.404 11.847 1.201a.983.983 0 0 0 1.108-.612c3.857-9.996 9-28.132 12.604-44.408a171.67 171.67 0 0 0-1.93-.38c-3.493 15.764-8.428 33.256-12.214 43.304" fill="#4C5D7F"/><path d="M142.75 153.661a.992.992 0 0 0-.724 1.194c.068.289.151.56.225.842 2.607 9.94 9.15 15.2 18.992 15.2 4.242 0 10.11-1.048 17.906-9.225 1.946-2.041 3.058-4.408 3.855-6.557 1.434.262 2.685.496 3.788.711.696.135 1.331.262 1.912.382 5.563 1.151 6.21 1.69 7.766 2.988.176.147.364.304.568.47.09-.23.18-.469.271-.697a.968.968 0 0 1 1.269-.545.995.995 0 0 1 .536 1.29c-.154.387-.306.787-.458 1.18.881.624 2.016 1.356 3.565 2.237 5.087 2.891 8.49 4.138 10.743 4.962 2.531.926 3.361 1.277 3.99 2.479.76 1.453 1.196 4.149 2.063 9.52 1.196 7.413 3.199 19.818 8.06 41.141a.978.978 0 0 0 1.168.741.991.991 0 0 0 .73-1.189c-4.847-21.26-6.843-33.625-8.036-41.013-1.793-11.114-1.863-11.547-7.315-13.544-2.192-.802-5.506-2.016-10.452-4.827-3.106-1.766-4.47-2.905-5.466-3.737-2.437-2.035-3.272-2.487-15.164-4.648a.968.968 0 0 0-1.09.645c-.748 2.144-1.774 4.609-3.701 6.631-7.245 7.6-12.41 8.624-16.508 8.624-8.881 0-14.6-4.524-17.03-13.424-.099-.362-.202-.718-.29-1.096a.973.973 0 0 0-1.174-.735m113.89 62.561c.261.845.52 1.693.777 2.54.831 2.73 1.692 5.555 2.68 8.315a.98.98 0 1 0 1.846-.667c-.973-2.715-1.826-5.517-2.65-8.225-.356-1.166-.71-2.332-1.076-3.496a.977.977 0 0 0-1.224-.644c-10.747 3.332-28.707 11.211-41.872 17.7L215 234c12.802-6.357 30.622-14.233 41.639-17.778" fill="#4C5D7F"/><path d="M199.847 159.072a.985.985 0 0 0-1.281.539c-.092.225-.182.46-.273.688-4.287 10.7-7.98 24.392-11.276 41.838a.97.97 0 0 0 .12.679c5.624 9.47 13.283 16.97 20.04 23.587 2.268 2.22 4.41 4.318 6.354 6.369.095.1.208.176.33.228l.139-2.568c-1.704-1.757-3.526-3.546-5.444-5.424-6.595-6.458-14.06-13.769-19.538-22.872 3.205-16.884 6.78-30.19 10.907-40.625.154-.388.307-.783.463-1.164a.976.976 0 0 0-.541-1.275" fill="#4C5D7F"/><path d="M211.379 264.998c-.77 10.911-1.379 19.53-1.379 25.04 0 10.924 1.464 20.19 4.476 28.329a.95.95 0 0 0 .886.633.907.907 0 0 0 .341-.067c.49-.196.733-.77.544-1.28-2.926-7.907-4.349-16.94-4.349-27.615 0-5.438.606-14.024 1.374-24.894.493-6.996 1.053-14.937 1.564-23.614l-.493.251a.91.91 0 0 1-.42.103.945.945 0 0 1-.851-.552c-.232-.49-.04-1.084.43-1.326a161.8 161.8 0 0 1 1.465-.74 1136.895 1136.895 0 0 0 .415-7.762c.202-4.077.388-8.282.544-12.603.063-1.726.309-3.502.547-5.219.21-1.509.426-3.068.525-4.625.035-.545-.36-1.017-.884-1.054-.514-.042-.976.376-1.01.922-.095 1.482-.306 3.003-.51 4.473-.245 1.769-.498 3.598-.565 5.428a927.473 927.473 0 0 1-.696 15.558c-.6 11.433-1.331 21.777-1.954 30.614" fill="#4C5D7F"/><path d="M213.103 240.448a.994.994 0 0 0 1.332.45l.517-.252c4.938-2.398 12.128-5.55 19.732-8.884 6.478-2.839 13.163-5.769 18.884-8.421.13.331.266.66.399.984.414 1.012.805 1.966 1.078 2.963a.998.998 0 0 0 1.222.695.99.99 0 0 0 .698-1.215c-.305-1.114-.738-2.168-1.157-3.19-.27-.657-.524-1.28-.747-1.914a.991.991 0 0 0-.553-.587 1.004 1.004 0 0 0-.81.017c-5.905 2.761-12.976 5.86-19.815 8.858-7.121 3.12-13.88 6.083-18.794 8.43-.531.253-1.048.503-1.534.74a.987.987 0 0 0-.452 1.326m60.802 25.181l-.622.184c-3.552 1.061-6.917 2.067-10.383 2.18-2.901-8.467-5.92-17.03-8.844-25.317l-1.911-5.42c3.485-3.969 8.074-6.55 12.753-7.183 4.613 9.973 8.404 21.054 11.88 34.73-.958.258-1.908.538-2.845.818a1.006 1.006 0 0 1 1.239.667l.295.964c.924-.27 1.853-.534 2.774-.766a.998.998 0 0 0 .73-1.209c-3.65-14.547-7.64-26.209-12.555-36.7a1 1 0 0 0-1.005-.573c-5.611.522-11.144 3.585-15.178 8.401a.996.996 0 0 0-.177.97l2.102 5.962c3.001 8.507 6.104 17.304 9.073 25.985.138.401.514.673.94.678h.091c3.875 0 7.636-1.09 11.278-2.178l-.292-.952a.997.997 0 0 1 .657-1.241" fill="#4C5D7F"/><path d="M276.372 292.313a.978.978 0 0 1 1.253.577c.102.277.196.557.292.836 1.566-.75 3.086-1.473 4.526-2.156a.97.97 0 0 0 .501-1.202c-2.737-7.697-5.16-15.638-7.503-23.318l-.128-.423-.287-.938a.975.975 0 0 0-1.203-.65c-.534.168-.82.706-.664 1.216l.283.926.132.435c2.266 7.426 4.605 15.096 7.238 22.574-4.915 2.33-10.613 5.068-16.282 7.973a.97.97 0 0 0 .447 1.837c.15 0 .302-.034.445-.108a497.548 497.548 0 0 1 10.726-5.317c-.115-.339-.23-.678-.355-1.014a.972.972 0 0 1 .58-1.248" fill="#4C5D7F"/><path d="M259.652 293.235c4.837-2.666 9.838-5.424 14.809-7.877a.984.984 0 0 0 .463-1.258c-.627-1.52-1.04-3.123-1.478-4.822-.583-2.266-1.187-4.609-2.35-6.772a.94.94 0 0 0-1.292-.385.987.987 0 0 0-.376 1.324c1.05 1.953 1.597 4.08 2.177 6.33.36 1.398.73 2.835 1.232 4.223-4.744 2.37-9.49 4.986-14.088 7.52L256 293.031c.124.702.276 1.35.443 1.969 1.072-.587 2.142-1.177 3.209-1.765m-24.925.275A.978.978 0 0 1 235 293c-3.927 3.365-6 6.86-6 10.171 0 2.776.753 5.708 1.482 8.544.402 1.567.783 3.047 1.028 4.455.086.486.525.83 1.024.83.057 0 .114-.005.172-.014.565-.09.948-.601.854-1.141-.259-1.484-.666-3.07-1.06-4.603-.7-2.72-1.422-5.535-1.422-8.071 0-2.244 1.297-4.595 3.393-6.832l-.001-.054c0-.954.084-1.861.257-2.776" fill="#4C5D7F"/><path d="M264.051 302.057c-4.387-.082-7.115-2.393-8.463-7.302a22.355 22.355 0 0 1-.45-1.964c-.263-1.461-.433-3.106-.515-4.942a4.055 4.055 0 0 0-1.73-3.138 4.007 4.007 0 0 0-3.534-.509c-4.782 1.588-9.624 4.217-13.285 7.213-.375.308-.73.616-1.074.926a.957.957 0 0 1 .833-.25.97.97 0 0 1 .778 1.129c-.021.118-.03.238-.048.356 1.868-1.641 4.104-3.17 6.492-4.487.09-.64.192-1.286.316-1.942a.966.966 0 1 1 1.9.362c-.031.162-.056.321-.084.482a40.716 40.716 0 0 1 4.778-1.945 2.079 2.079 0 0 1 2.727 1.889c.173 3.925.702 15.867 11.323 16.065.561-.008.975-.417.985-.954a.97.97 0 0 0-.949-.99" fill="#4C5D7F"/><path d="M235.401 292.015a1.029 1.029 0 0 0-.855.24l-.039.032a.914.914 0 0 0-.26.479 13.62 13.62 0 0 0-.247 2.608l.001.05c.008 2.674.606 5.26 1.187 7.763.321 1.384.624 2.692.836 4.019.074.463.498.794.982.794a.998.998 0 0 0 .148-.01c.542-.077.916-.552.835-1.06-.222-1.388-.546-2.787-.86-4.14-.562-2.422-1.143-4.925-1.143-7.416 0-.665.063-1.3.166-1.934.019-.113.027-.228.049-.342.098-.506-.26-.991-.8-1.083m9.393-5.998a.952.952 0 0 0-1.113.767 43.357 43.357 0 0 0-.311 1.927c-.846 6.008-.24 11.295 1.815 15.735a.953.953 0 0 0 1.266.463.969.969 0 0 0 .459-1.282c-2.047-4.42-2.528-9.804-1.44-16.005.027-.16.052-.318.082-.479a.962.962 0 0 0-.758-1.126m35.096 17.567c-.735-3.354-1.499-6.813-2.673-10.13-.098-.274-.193-.551-.297-.825a1 1 0 0 0-1.271-.57.953.953 0 0 0-.588 1.234c.126.332.243.667.36 1.003 1.094 3.144 1.825 6.465 2.532 9.688.826 3.775 1.681 7.678 3.13 11.394a.99.99 0 0 0 .927.622c.116 0 .234-.02.35-.062a.952.952 0 0 0 .575-1.239c-1.395-3.58-2.234-7.41-3.045-11.115" fill="#4C5D7F"/></g></svg>