<svg width="103" height="105" xmlns="http://www.w3.org/2000/svg" xmlns:xlink="http://www.w3.org/1999/xlink"><defs><path id="a" d="M0 0h85v81H0z"/><path id="c" d="M60 61h43v44H60z"/></defs><g fill="none" fill-rule="evenodd"><path d="M79.249 77.332c.859-.549 1.53-1.402 1.751-2.376-.891-.454-1.632-1.232-1.917-2.174-.466-1.532-.89-3.264-.67-4.877a9.926 9.926 0 0 0-1.07-.997c-2.763-2.197-6.59-.103-6.12 3.038a2.805 2.805 0 0 0-1.764.729c-1.726 1.548-3.395 2.6-4.295 4.831-.768 1.903 1.321 3.38 3.026 3.038-.033.088-.06.175-.094.263-.555 1.43 1.509 2.363 2.451 1.385.765.678 1.83.99 2.898.699 2.22-.607 4.408-1.755 5.804-3.559" fill="#FFCD7C"/><path d="M90.583 90.772c-2.08-1.375-4.071-2.847-6.032-4.381-1.506-1.179-3.003-2.808-4.88-3.32-1.293-.353-2.706.652-2.67 2.014.11 4.265 5.43 8.861 8.194 11.73 3.495 3.627 8.087 8.864 13.544 8.112 2.155-.297 3.871-3.361 3.053-5.322-1.783-4.269-7.469-6.358-11.21-8.833M48.86 25.017c3.04-1.209 2.906-6.028-.82-6.017-6.817.018-15.751 1.964-21.081 6.42a16.71 16.71 0 0 0-5.644 9.576c-.94 4.837.58 9.676-.003 14.55-.052.443.681.639.861.23 3.03-6.882 1.791-15.158 8.653-19.95 5.432-3.793 12.17-2.479 18.034-4.81M59.37 39.29c-2.9 6.793-6.31 11.811-14.614 11.326-5-.292-12.162-2.775-10.58-8.881.256-.987-.957-1.648-1.698-.974-7.517 6.835 3.876 15.114 10.193 16.654 11.282 2.748 24.868-4.378 23.187-17.26-.484-3.715-5.008-4.334-6.488-.865" fill="#E1E0E7"/><mask id="b" fill="#fff"><use xlink:href="#a"/></mask><path d="M2.987 39.12C2.987 22.3 13.97 7.66 29.1 4.308a54.893 54.893 0 0 1 11.85-1.321c25.698 0 41.055 17.846 41.055 35.099 0 22.017-17.388 39.93-38.762 39.93-21.82 0-40.256-17.812-40.256-38.894m59.268 34.876c.523.46 1.017.948 1.501 1.444a42.324 42.324 0 0 0 11.672-10.046 67.394 67.394 0 0 1-1.117-1.784 1.49 1.49 0 0 1 .513-2.048 1.5 1.5 0 0 1 2.056.51c.144.24.308.493.46.738C82.157 55.815 85 47.288 85 38.085 85 19.364 68.523 0 40.95 0c-4.128 0-8.333.469-12.499 1.392C12.857 4.846 1.311 19.225.103 36.178c-.103.938-.2 1.14-.267 1.907-.07.807.267.992.164 1.314C.162 61.978 19.895 81 43.243 81a40.57 40.57 0 0 0 17.756-4.085c-.24-.231-.478-.462-.726-.681a1.489 1.489 0 0 1-.131-2.107 1.499 1.499 0 0 1 2.113-.13z" fill="#4C5D7F" mask="url(#b)"/><path d="M70.004 28.58C66.394 21.4 59.86 15.702 51.6 12.536a41.27 41.27 0 0 0-8.75-2.28c-12.084-1.785-24.278 5.88-28.993 18.237-2.07 5.427-2.402 11.522-1.034 17.362a1.498 1.498 0 0 1 2.196-1.622l.603.333c-1.073-5.071-.74-10.315 1.046-14.996 3.81-9.984 13.021-16.556 22.661-16.556 1.023 0 2.054.075 3.083.227a38.398 38.398 0 0 1 8.113 2.112c7.557 2.899 13.521 8.078 16.792 14.584 3.048 6.059 3.514 12.895 1.28 18.754C63.071 63.174 47.214 70.6 33.241 65.24c-7.11-2.726-12.725-8.069-15.808-15.046a28.21 28.21 0 0 1-.62-1.53 453.288 453.288 0 0 1-3.253-1.793 1.495 1.495 0 0 1-.695-.845 31.497 31.497 0 0 0 1.816 5.391c3.41 7.716 9.62 13.626 17.484 16.642A29.133 29.133 0 0 0 42.621 70c12.288 0 24.021-7.74 28.786-20.23 2.537-6.65 2.026-14.376-1.403-21.19" fill="#4C5D7F" mask="url(#b)"/><path d="M16.827 48.601c4.196 2.23 8.185 4.458 12.186 6.265a1.534 1.534 0 0 0 1.45-.106c2.337-1.504 4.679-3.08 6.943-4.603 4.58-3.083 9.306-6.262 14.136-8.93.632.536 1.259 1.082 1.885 1.626 2.878 2.503 5.854 5.092 9.41 6.826.74.36 1.637.068 2.005-.652.369-.72.07-1.596-.668-1.956-3.202-1.56-5.9-3.908-8.759-6.394-.901-.785-1.804-1.57-2.726-2.331a1.52 1.52 0 0 0-1.686-.164c-5.275 2.835-10.368 6.26-15.293 9.575a454.901 454.901 0 0 1-6.197 4.121c-4.466-2.047-8.928-4.684-13.866-7.345l-.6-.322a1.511 1.511 0 0 0-2.03.569c-.18.316-.22.669-.15.997.011.057.19.516.209.57.113.335.347.633.69.817 1.108.599 2.01.879 3.061 1.437z" fill="#4C5D7F" mask="url(#b)"/><mask id="d" fill="#fff"><use xlink:href="#c"/></mask><path d="M77.66 62.466c-.153-.246-.317-.499-.463-.738a1.509 1.509 0 0 0-2.065-.513 1.493 1.493 0 0 0-.515 2.054c.35.58.726 1.178 1.122 1.789 1.837 2.84 4.123 5.97 6.614 9.144.368-.313.734-.63 1.104-.94a1.51 1.51 0 0 1 2.12.187 1.49 1.49 0 0 1-.188 2.108c-.391.325-.777.662-1.168.991 4.866 6.005 10.254 11.95 14.552 16.192a4.102 4.102 0 0 1 1.216 2.965 4.098 4.098 0 0 1-1.308 2.927c-.936.865-1.864 1.738-2.778 2.62a2.645 2.645 0 0 1-3.7-.012c-.719-.701-1.374-1.383-2.08-2.113-2.712-2.813-6.048-6.265-15.766-14.066-.458.393-.909.793-1.368 1.183a1.51 1.51 0 0 1-2.123-.169 1.491 1.491 0 0 1 .169-2.109c.314-.266.622-.54.934-.808-.294-.231-.568-.45-.872-.69-1.7-1.339-3.12-2.948-4.622-4.652a71.305 71.305 0 0 0-2.465-2.69 28.213 28.213 0 0 0-1.508-1.447 1.51 1.51 0 0 0-2.125.13 1.49 1.49 0 0 0 .131 2.112c.25.22.491.45.732.683 1.017.978 1.974 2.053 2.972 3.184 1.525 1.73 3.1 3.519 5.018 5.026 12.134 9.553 15.787 13.34 18.722 16.384a94.001 94.001 0 0 0 2.144 2.178A5.66 5.66 0 0 0 94.06 105a5.658 5.658 0 0 0 3.938-1.6c.9-.867 1.812-1.724 2.734-2.577a7.102 7.102 0 0 0 2.267-5.07 7.097 7.097 0 0 0-2.106-5.137c-7.29-7.195-17.744-19.343-23.233-28.15" fill="#4C5D7F" mask="url(#d)"/><path d="M71.422 83.479c-.304.273-.603.554-.908.826a1.58 1.58 0 0 0-.164 2.157c.29.355.7.538 1.115.538.336 0 .673-.12.95-.365.446-.4.885-.808 1.33-1.21a674.625 674.625 0 0 0 3.996-3.633 470.698 470.698 0 0 1 5.599-5.074c.38-.337.755-.682 1.136-1.013.62-.543.701-1.51.182-2.156a1.419 1.419 0 0 0-2.062-.191c-.36.315-.715.64-1.073.959a459.774 459.774 0 0 0-5.714 5.174 603.843 603.843 0 0 1-4.387 3.988" fill="#4C5D7F" mask="url(#d)"/></g></svg>