<?xml version="1.0" encoding="UTF-8"?>
<svg width="283px" height="321px" viewBox="0 0 283 321" version="1.1" xmlns="http://www.w3.org/2000/svg" xmlns:xlink="http://www.w3.org/1999/xlink">
    <!-- Generator: sketchtool 49.1 (51147) - http://www.bohemiancoding.com/sketch -->
    <title>7B29EDDD-926B-46C1-9F41-42A618EA8D62</title>
    <desc>Created with sketchtool.</desc>
    <defs>
        <polygon id="path-1" points="0.200732485 0.413717407 6.59198516 0.413717407 6.59198516 19 0.200732485 19"></polygon>
        <polygon id="path-3" points="0.191042065 0.116211072 170.538695 0.116211072 170.538695 83.2075472 0.191042065 83.2075472"></polygon>
        <polygon id="path-5" points="0 0.538328267 150.563063 0.538328267 150.563063 247 0 247"></polygon>
        <polygon id="path-7" points="0.2122 0.492572175 7.67162509 0.492572175 7.67162509 27.0344828 0.2122 27.0344828"></polygon>
    </defs>
    <g id="1920" stroke="none" stroke-width="1" fill="none" fill-rule="evenodd">
        <g id="Thank-you" transform="translate(-819.000000, -604.000000)">
            <g id="Group" transform="translate(819.000000, 604.000000)">
                <path d="M184.596901,68.4321641 C185.303885,68.4202515 185.948427,68.2865652 186.52012,68.1687624 C186.974561,68.0741231 187.40333,67.9854401 187.750231,67.9854401 C188.459991,67.9854401 188.918594,68.4864328 188.918594,69.2620781 C188.918594,70.6293845 187.919519,72.0145599 186.009482,72.0145599 C184.818918,72.0145599 184.081406,70.8947717 184.081406,69.8570483 C184.081406,69.2495036 184.401249,68.6042356 184.596901,68.4321641 M186.009482,74 C188.85407,74 191,71.9629385 191,69.2620781 C191,67.4017207 189.602683,66 187.750231,66 C187.18062,66 186.620722,66.1164792 186.078862,66.2283256 C185.557817,66.3362012 185.019426,66.4473858 184.4963,66.4473858 C182.889454,66.4473858 182,68.4632694 182,69.8570483 C182,72.1409662 183.799029,74 186.009482,74" id="Fill-1" fill="#4C5D7F"></path>
                <path d="M109.466456,212.691621 C109.481639,212.460415 109.500783,212.228558 109.513985,211.997353 C109.622248,211.999958 109.729851,211.994096 109.838113,211.991491 C109.713347,212.223999 109.589901,212.458461 109.466456,212.691621 M102.16665,224.880384 C102.197677,224.630943 102.228703,224.38085 102.25973,224.130757 C102.350169,224.298137 102.44919,224.45705 102.560093,224.60424 C102.429385,224.696722 102.297358,224.788553 102.16665,224.880384 M96.9040311,185.333822 C96.9964504,184.96259 97.0499216,184.588103 97.0578432,184.212964 C97.0967914,184.194728 97.1357395,184.176492 97.1740275,184.157605 C97.1733673,184.497574 97.1878904,184.838195 97.1925113,185.178816 C97.0961312,185.230268 97.0004112,185.283022 96.9040311,185.333822 M119.284687,166.73513 C117.977614,163.792633 113.881458,163.423355 111.359071,164.684891 C103.631497,168.549605 95.7903784,172.159667 88.067425,175.951437 C87.0692965,175.925386 86.0256185,176.212602 85.0090061,176.919895 C84.0735907,177.57183 83.1394955,178.228974 82.2067207,178.888073 C71.9943872,184.115271 62.1015605,189.868706 53.0913381,197.209318 C51.5037065,198.502115 51.0548127,200.198708 51.3472538,201.823008 C51.1346894,202.04249 50.9980408,202.353152 51.0000212,202.754343 C51.0211457,209.39743 55.1621908,214.979578 59.1421622,220.306423 C59.7065801,222.292836 60.213566,224.251245 60.7462973,226.052694 C61.5285608,228.698206 64.6912815,228.321764 65.7653259,226.593259 C65.7824895,226.583489 65.8009733,226.57893 65.8174768,226.569812 C67.1608574,225.781109 68.4164397,224.867358 69.6112893,223.874803 C70.8048187,223.617546 72.0036291,223.205935 73.1667921,222.645832 C79.0750264,219.806237 84.089434,214.908588 88.8246032,210.511125 C88.871473,210.46814 88.9196631,210.42255 88.9658727,210.378263 C88.8279039,211.820204 88.7513279,213.266704 88.7137,214.71646 C88.0595034,214.115325 86.7563911,214.582295 87.1069244,215.5996 C87.6482374,217.169843 88.0496013,218.768743 88.3156369,220.40672 C88.3684479,220.733013 88.5381033,220.945331 88.7585894,221.063214 C88.7783935,221.674769 88.799518,222.286323 88.8239431,222.89853 C87.4970659,229.19253 86.5167611,235.46113 87.9327569,241.827422 C89.134868,247.233072 96.094702,247.038338 98.8705819,243.23745 C102.436647,238.354129 108.202952,235.091201 113.012056,231.539754 C118.903787,227.188531 124.528162,222.407462 127.444651,215.55922 C130.828518,207.614217 127.971441,199.583245 125.669541,191.765243 C123.215808,183.430121 122.852732,174.765451 119.284687,166.73513" id="Fill-3" fill="#FFCD7C"></path>
                <path d="M183.704278,165.553358 C183.581011,164.934206 182.567186,164.780886 182.292306,165.370678 C182.204634,165.558577 182.121577,165.749738 182.035883,165.938941 C180.287727,167.119832 178.56462,168.311161 176.780867,169.449643 C175.756495,169.069279 174.626654,169.023609 173.507359,169.485527 C168.113255,171.71095 162.665098,176.29685 156.593353,176.108951 C150.5282,175.921705 144.66278,172.28378 141.271277,167.410813 C139.578492,164.978571 135.900245,165.188652 134.303701,167.058503 C133.893029,166.618116 132.911504,166.760997 133.006427,167.496933 C133.732848,173.144982 134.732171,178.805426 135.550877,184.453475 C136.415727,190.419907 137.297715,196.332187 139.221215,202.073533 C139.70176,203.506259 141.039904,204.235019 142.52966,203.932293 C148.178209,202.784024 154.275003,201.308237 160.068572,201.663809 C164.790967,201.953486 169.779673,203.024769 174.379459,201.415235 C175.958205,200.863283 176.803939,199.685655 177.070908,198.39581 C179.545486,193.607658 180.01021,187.927641 181.256728,182.751296 C182.54741,177.390968 184.811048,171.10289 183.704278,165.553358" id="Fill-5" fill="#FFCD7C"></path>
                <path d="M225.391077,226.764627 C226.114149,226.280521 226.012572,225.391027 225.349644,224.981702 C225.941066,223.504459 226.09076,221.82649 225.951759,220.065213 C225.421818,213.360551 222.333726,206.98453 220.309526,200.62622 C219.180812,197.081362 217.927131,193.487306 217.292271,189.816502 C216.81646,187.067335 216.767676,184.253227 215.727842,181.62607 C213.226495,175.306462 206.897276,174.595392 201.143442,172.689145 C199.937208,172.28966 198.734984,172.514657 197.74928,173.112245 C197.761309,172.914143 197.771333,172.715384 197.783362,172.516625 C197.824127,171.878367 196.903914,171.832449 196.706774,172.373624 C194.365143,178.809338 192.413117,185.359847 190.204473,191.837544 C188.777709,196.020004 186.661286,201.310396 189.149269,205.48564 C189.302303,205.74278 189.477391,205.991392 189.643123,206.24394 C190.536605,211.699637 196.686726,214.068998 200.100267,217.968735 C200.163753,218.040236 200.229912,218.092057 200.294734,218.15503 C203.732333,222.119052 206.840473,226.358582 210.482564,230.161891 C212.087088,232.300351 214.535643,233.614914 217.365781,232.710332 C220.512012,231.705387 222.729344,228.551487 225.391077,226.764627" id="Fill-7" fill="#FFCD7C"></path>
                <path d="M32.2314159,269.03627 C34.7553028,260.766687 37.7084221,252.555893 41.8151862,244.927055 C45.7766717,237.567726 50.8898208,231.551982 57.2081226,226.118855 C58.6226087,224.902759 57.9556475,222.844446 56.6672897,221.9223 C56.3371109,221.685819 56.0128753,221.400456 55.6919415,221.097257 C54.7370644,219.418768 53.4731399,217.75415 52.6840125,216.28704 C51.7628136,214.57288 50.8752929,212.842866 49.9012654,211.157771 C49.3855261,210.26403 48.9272379,208.83127 48.2503713,208.104651 C48.131507,207.975841 47.9499086,207.977823 47.8039696,208.046521 C45.7720492,208.995089 47.8627414,215.329885 48.2886721,216.661579 C48.991953,218.856629 49.6060856,221.666662 50.6124706,224.005715 C37.1847585,233.26284 29.5754575,250.663381 24.7759783,265.520756 C22.0473805,273.970013 19.9276325,282.596301 17.8798635,291.231836 C15.7059662,300.399125 11.8270255,310.399382 12.0059824,320 L20.5899713,320 C21.2212731,310.952273 23.9690213,302.298242 25.9804706,293.465198 C27.8466413,285.268937 29.7768666,277.079942 32.2314159,269.03627" id="Fill-9" fill="#E1E0E7"></path>
                <path d="M116.570668,255.518119 C115.592383,260.353369 113.894389,264.973675 112.583931,269.71996 C111.416112,273.950641 109.85229,278.54757 110.011213,282.984752 C110.089371,285.172498 113.639723,285.902396 114.038983,283.528279 C114.821871,278.874855 115.367026,274.228574 116.327074,269.593981 C117.269535,265.041859 117.861586,260.357915 117.999666,255.710984 C118.023765,254.907707 116.734801,254.7064 116.570668,255.518119" id="Fill-11" fill="#E1E0E7"></path>
                <g id="Group-15" transform="translate(103.000000, 301.000000)">
                    <mask id="mask-2" fill="white">
                        <use xlink:href="#path-1"></use>
                    </mask>
                    <g id="Clip-14"></g>
                    <path d="M5.3984,10.4725379 C5.62685455,7.65988276 6.13467273,4.8754 6.57567273,2.09222759 C6.78503636,0.7714 4.92176364,-0.357462069 4.27203636,1.09243448 C1.99894545,6.16674483 -0.377236364,12.6680207 0.326581818,18.3450897 C0.356490909,18.5816069 0.413763636,18.7965034 0.483763636,19.0002621 L5.20558182,19.0002621 C5.25585455,18.7978138 5.29212727,18.5822621 5.30358182,18.3450897 C5.42703636,15.7165379 5.18521818,13.1056759 5.3984,10.4725379" id="Fill-13" fill="#E1E0E7" mask="url(#mask-2)"></path>
                </g>
                <g id="Group-18" transform="translate(24.000000, 237.000000)">
                    <mask id="mask-4" fill="white">
                        <use xlink:href="#path-3"></use>
                    </mask>
                    <g id="Clip-17"></g>
                    <path d="M21.527131,27.7337306 C21.728269,26.6880673 21.9320276,25.6437143 22.1305448,24.5987061 C22.4915448,23.8210104 22.8577862,23.0531423 23.2495793,22.3127917 C24.8475448,19.2943888 26.7102,16.4292974 29.0347517,13.9317607 C27.0069931,18.6981772 23.6728207,23.1225911 21.527131,27.7337306 M143.616545,71.4615898 C144.827959,71.059966 145.994166,70.6000313 147.077821,70.0752341 C150.847028,68.2499095 153.024166,65.664579 155.650097,62.5701755 C157.248717,60.6871952 159.078614,58.9575265 160.92751,57.2776513 C161.878821,58.1464167 163.379166,58.4111085 164.306234,57.23572 C169.896166,50.1525956 170.2932,38.6299883 170.499579,29.9993346 C170.619476,24.9878816 170.545441,19.9462904 169.076545,15.1012526 C168.196648,12.2001264 166.580338,9.78448685 164.954855,7.37212316 C164.772717,6.73332506 164.407131,6.16266543 163.886269,5.76890373 C162.830786,4.15782217 161.840166,2.50218853 161.127993,0.66179483 C160.833166,-0.0995214678 159.440269,-0.0955904026 159.55951,0.873417174 C159.747545,2.39342906 160.089545,3.87806136 160.491166,5.34827975 C156.125097,5.69879973 151.759028,6.49811633 147.405407,6.9364301 C142.128648,7.46777908 136.920028,7.36098514 131.631476,7.12839712 C127.038062,6.92660244 122.295269,6.46863334 117.709717,6.88598143 C114.318545,7.19391487 110.658752,7.05501723 107.330476,7.65712539 C106.902648,7.73509152 106.729683,8.29199242 106.932786,8.63530545 C108.48489,11.2553604 112.599372,11.589501 115.318338,11.8561582 C120.319269,12.3455758 125.343786,12.696751 130.351924,13.1160646 C141.025993,14.0110371 151.766234,13.7070348 162.264062,11.3922925 C162.434407,12.014056 162.5982,12.6371298 162.741028,13.2654451 C163.886924,18.3129328 164.151614,23.3735241 164.188303,28.5297714 C164.219752,32.9338748 164.139821,37.3759785 163.631407,41.7545299 C163.132821,46.046598 161.731407,49.7614546 160.461683,53.7711411 C158.568234,54.7408039 156.843166,55.9718825 155.095166,57.2167198 C151.234234,57.0693049 147.309097,57.4001695 143.443579,57.4099972 C141.219924,57.4152386 138.953028,57.320893 136.692683,57.2927204 C136.351338,56.4907831 136.019821,55.6855699 135.71189,54.8738049 C133.834821,49.9239386 131.353683,45.316075 129.262372,40.4651405 C127.0682,35.3731007 125.858752,30.0412659 123.865717,24.9177776 C123.377614,23.6624574 121.116614,23.2189022 120.850614,24.9177776 C120.551855,26.819758 120.632441,28.7767733 120.928579,30.7318231 C120.012648,30.133646 118.496579,30.9925837 118.85889,32.2479039 C118.947993,32.5578029 119.020062,32.8709777 119.097372,33.1828422 C117.409648,33.399706 115.871959,34.5010594 115.2882,36.7011456 C113.150372,44.7572086 112.737614,53.1709985 111.674924,61.4085457 C111.559614,62.3041734 111.456097,63.2011114 111.35389,64.0973943 C111.1462,64.9052282 110.942441,65.7156828 110.746545,66.5267926 C110.342959,65.7097862 109.389683,65.1640233 108.381372,65.7713729 C105.95789,67.2304533 100.799717,63.9807727 98.2963034,63.3524574 C93.5332,62.1561033 88.6927862,61.299131 83.9244414,60.1086735 C75.1438207,57.9144839 66.1745103,56.1789186 57.1468897,55.3553604 C53.3717862,53.9749014 49.4990621,52.9397208 45.6957862,51.6287106 C42.0242,50.3635628 38.372269,48.2414427 34.3907862,48.2224426 C30.5855448,48.2047528 26.9218207,49.5020043 23.4697172,51.279501 C24.8809586,44.6432077 26.2057172,37.9459829 28.2564069,31.4839669 C30.4957862,24.4290152 33.9046483,18.1294831 35.0826483,10.7312184 C35.3873034,8.8207207 34.0409241,7.47957228 32.1330621,7.78095394 C29.9316828,8.12885322 27.8344759,8.86068653 25.6828897,9.36124216 C24.4570621,9.52438137 23.2397517,9.75565904 22.0113034,9.93059144 C20.474269,10.1500759 20.0385793,11.7978474 20.4650966,13.0846161 C18.4832,16.745093 16.5432345,20.5064672 15.2132345,24.4401532 C12.6829586,31.9268669 10.8471655,39.5616507 8.67657931,47.1446755 C5.36337241,58.7216626 0.00471724138,70.9263098 0.196027586,83.2076127 L15.7655448,83.2076127 C16.1245793,81.2558388 16.4246483,79.3269961 16.9009586,77.6595693 C18.9392,70.5253411 20.7763034,63.3295262 22.4076828,56.0911248 C26.5129931,55.3651881 30.6556483,54.9045983 34.8415448,54.7054243 C42.9224414,54.3214903 50.3750276,57.2632374 58.2606828,58.405867 C58.6590276,58.4635227 58.9918552,58.3770392 59.2440966,58.2066931 C67.7135103,61.8344111 77.2004069,63.2351807 86.1546483,64.9058834 C89.2496828,65.48375 92.3565103,65.745821 95.4115793,66.3073081 C95.0859586,66.4992751 94.9359241,66.9375889 95.2674414,67.2756605 C95.5707862,67.5842491 95.8315448,67.9282174 96.0746138,68.2865995 C95.8806828,69.0682263 95.9783034,69.9474745 96.5142345,70.842447 C97.2119931,72.0093182 97.698131,73.2561211 98.1318552,74.5252 C98.5197172,76.9355981 98.7444414,79.4023416 99.3832345,81.3809777 C99.6872345,82.3224678 100.274269,82.9167139 100.961545,83.2076127 L103.101338,83.2076127 C103.874441,82.9042655 104.562372,82.2857779 104.932545,81.3809777 C104.999372,81.2178385 105.052441,81.0507682 105.114028,80.8863187 C105.620476,80.4892811 106.044372,79.9160007 106.306441,79.1350291 C107.356028,76.0059012 108.656545,72.9770155 108.391855,69.6074374 C108.386614,69.5425748 108.370234,69.4868847 108.363028,69.4239877 C108.967752,69.3112971 109.560028,69.1009851 110.128062,68.7589825 C110.175234,68.7301547 110.210614,68.6960854 110.253855,68.6652921 C109.341855,72.790945 108.69651,76.9650811 108.761372,81.2132523 C108.773166,81.9673616 108.915993,82.6245047 109.141372,83.2076127 L125.053545,83.2076127 C125.102683,83.0221974 125.145269,82.8315408 125.173441,82.6297461 C125.303821,81.6849801 125.419131,80.7389037 125.5292,79.7928274 C125.944579,80.9433191 126.395338,82.0813625 126.883441,83.2076127 L148.650234,83.2076127 C148.521821,82.8741273 148.359338,82.5642283 148.163441,82.2798813 C146.982821,78.5669902 145.361924,74.9929967 143.616545,71.4615898" id="Fill-16" fill="#E1E0E7" mask="url(#mask-4)"></path>
                </g>
                <path d="M233.002427,313.660986 C233.097718,311.843533 231.905931,310.011011 229.853265,310.037218 C229.412056,308.968628 228.361247,308.118212 227.187736,308.025178 C227.263446,306.66045 226.296833,305.25117 224.669712,305.835586 C221.471599,306.985416 218.250642,308.413041 215.310337,310.125666 C214.353514,310.541702 214.335239,311.977843 215.070805,312.541293 C214.875002,312.667087 214.677894,312.790259 214.484049,312.920639 C214.373747,312.994674 214.279109,313.080501 214.183818,313.166329 C213.848995,312.022395 213.514172,310.877806 213.21851,309.724044 C212.234274,305.89062 211.378616,302.008713 210.802956,298.090117 C209.692754,290.536614 209.829163,283.002766 210.708318,275.438781 C211.278757,270.52694 211.97712,265.601341 212.319775,260.720948 C212.693106,260.291809 212.900004,259.702153 212.802755,258.942151 C212.726392,258.344632 212.620006,257.739251 212.500566,257.131249 C212.626533,252.704893 212.351103,248.328329 211.314654,244.046111 C213.965171,244.895872 217.078436,240.945172 214.44032,238.846649 C209.310938,234.767535 206.21138,228.790381 201.687029,224.131437 C201.335237,223.768471 200.791558,224.227748 201.010204,224.654921 C202.763945,228.086724 203.917876,231.837596 205.41381,235.393881 C205.736231,238.372958 205.792362,241.376931 205.678143,244.390733 C203.137928,241.884691 200.496548,239.219443 201.151182,235.969779 C201.294118,235.260881 200.324242,234.766879 199.939815,235.457433 C197.73116,239.424512 199.792963,243.368661 202.234624,246.700877 C203.314803,248.175018 204.368222,249.570539 205.162529,251.169164 C204.16524,259.99305 202.115185,268.834625 200.888806,277.387269 C199.793616,285.031841 199.696367,292.504757 200.707362,300.166364 C201.230156,304.128202 201.939615,308.052695 202.833781,311.947705 C203.366365,314.264401 203.872189,316.672166 204.569899,319 L215.683667,319 C215.612526,318.638999 215.545953,318.276688 215.464368,317.917652 C215.729355,317.938618 216.01849,317.901928 216.320679,317.823307 C216.340912,318.232791 216.426413,318.631792 216.566086,319 L223.578437,319 C223.866267,318.846034 224.15475,318.691413 224.444538,318.538757 C224.485004,318.69731 224.537218,318.85062 224.596612,319 L233.937712,319 C233.987968,318.951517 234.040182,318.906965 234.090438,318.856517 C235.810892,317.126202 234.889313,314.475367 233.002427,313.660986" id="Fill-19" fill="#E1E0E7"></path>
                <path d="M189.934978,179.450492 C189.537527,180.711391 189.160474,181.978844 188.826071,183.259404 C188.640017,183.972428 188.439128,184.678243 188.227113,185.379471 C188.703065,183.36426 189.248247,181.377885 189.934978,179.450492 M186.898155,208.940721 C184.382407,204.48301 186.602694,199.27492 188.087418,194.787718 C189.718636,189.855532 190.809617,184.906961 192.128685,179.884336 C193.127567,176.080012 194.205568,172.29797 194.896626,168.430732 C195.612409,166.41159 195.999352,164.465847 195.520309,163.140723 C195.507328,163.079775 195.48693,163.026036 195.459115,162.978851 C195.316329,162.649208 195.116058,162.362164 194.844704,162.128858 C194.645051,161.957811 194.287778,161.927009 194.154882,162.223229 C192.004443,167.023034 189.207451,171.4814 187.107698,176.313318 C183.525075,184.555692 183.387852,194.007193 181.070521,202.647366 C180.749099,203.846007 181.58047,204.615391 182.469944,204.676994 C182.312942,207.108354 182.647963,209.508912 183.758106,211.893086 C185.672423,216.004115 189.337256,219.761254 193.202977,221.796125 C194.952257,222.717551 197.043356,220.305197 195.409047,218.764462 C192.290014,215.822582 189.065283,212.779779 186.898155,208.940721" id="Fill-21" fill="#E1E0E7"></path>
                <path d="M141.075112,204.702647 C138.342517,204.453429 137.445884,198.982025 136.964289,196.78462 C136.255397,193.550817 135.662665,190.276147 134.997097,187.031625 C133.935328,181.857674 133.311829,176.539686 132.069854,171.413301 C131.118595,167.4841 128.380976,162.941233 129.070404,158.772863 C129.179658,158.113641 128.378465,157.67818 128.021821,158.301225 C125.811634,162.166112 127.737385,167.207414 128.66604,171.20294 C130.179265,177.715432 130.555374,184.530067 131.91916,191.096155 C133.16239,197.080064 133.586219,208.239264 141.075112,208.988927 C143.641943,209.246184 143.641315,204.937797 141.075112,204.702647" id="Fill-23" fill="#E1E0E7"></path>
                <path d="M255.966506,278.016691 C254.75312,271.170163 252.581692,264.289258 250.533649,257.64966 C248.527833,251.148897 245.978336,245.028276 242.237885,239.320853 C241.762164,238.594286 240.700533,239.223669 241.080583,239.998498 C244.11042,246.174653 246.090503,252.927302 247.843612,259.566238 C249.526782,265.937423 250.487462,272.715855 252.86475,278.873498 C253.610992,280.806604 256.33138,280.075409 255.966506,278.016691" id="Fill-25" fill="#E1E0E7"></path>
                <path d="M233.219086,243.440741 C232.957136,242.679027 231.820735,242.978061 232.02426,243.777893 C234.975692,255.371189 238.347656,267.644047 244.082949,278.171996 C245.106352,280.05032 247.657154,278.400707 246.841771,276.521068 C242.079802,265.544898 237.125865,254.798754 233.219086,243.440741" id="Fill-27" fill="#E1E0E7"></path>
                <path d="M231.937008,263.272362 C229.846128,256.757289 226.366745,250.874682 224.127766,244.41886 C223.877186,243.696516 222.821748,243.976133 223.026087,244.742417 C224.860762,251.613669 228.003955,257.995592 229.839879,264.860187 C231.307744,270.348667 232.003246,276.588785 235.230799,281.316307 C236.313107,282.901469 238.788293,281.458779 237.751602,279.746458 C234.685271,274.680732 233.739813,268.889999 231.937008,263.272362" id="Fill-29" fill="#E1E0E7"></path>
                <path d="M226.363175,270.405806 C223.85695,264.446377 220.774015,258.791919 219.199106,252.446676 C219.031898,251.772978 217.937791,251.887343 218.002781,252.614936 C218.590217,259.160646 221.439692,264.930782 223.615918,271.009833 C225.758072,276.992266 227.043364,283.259952 229.682094,289.050464 C230.663257,291.204324 233.859767,289.312056 232.780172,287.164111 C230.092858,281.815282 228.682633,275.92158 226.363175,270.405806" id="Fill-31" fill="#E1E0E7"></path>
                <path d="M216.177959,265.459162 C216.06815,264.748857 214.94215,264.906554 215.002327,265.630891 C215.772847,274.945708 218.771173,285.059033 223.42717,292.975959 C224.912374,295.501116 228.270524,292.857018 226.494359,290.426078 C221.380516,283.424596 217.535363,274.243421 216.177959,265.459162" id="Fill-33" fill="#E1E0E7"></path>
                <path d="M275.962455,286.004074 C272.953418,285.871418 269.761936,289.012856 267.192948,290.381707 C264.349651,291.896031 261.348965,293.33089 258.198597,294.076197 C258.168404,293.983274 258.128575,293.898041 258.106091,293.800632 C257.640345,292.488816 255.675862,292.332449 255.274358,293.800632 C254.533661,296.511419 255.298769,299.135052 257.496446,300.951215 C259.044648,302.230989 262.202082,301.796494 262.575964,299.639399 C264.057356,299.251045 265.500203,298.749261 266.928276,298.175061 C265.942822,299.113904 265.041524,300.133493 264.325882,301.338287 C263.816453,302.197024 264.908546,303.491537 265.798923,302.807752 C268.821451,300.485318 272.194734,298.462161 275.842968,297.284923 C278.344503,296.476814 278.179405,294.201803 277.035276,292.836796 C277.973834,291.98575 278.676628,291.010379 278.919458,289.876078 C279.346659,287.879196 278.032936,286.095715 275.962455,286.004074" id="Fill-35" fill="#E1E0E7"></path>
                <path d="M268.618636,261.268767 C267.730484,261.562826 266.84931,261.884209 265.963061,262.184124 C265.075543,262.484689 264.226724,262.755327 263.320174,262.904959 C262.104675,262.113211 261.213985,260.676745 260.585935,259.444558 C258.850232,256.039456 258.070561,252.158785 257.006047,248.501911 C256.815095,247.84353 255.884438,248.120024 256.011951,248.782959 C256.943242,253.623226 257.479305,258.888318 259.902692,263.253666 C259.954078,263.346048 260.011808,263.424117 260.064462,263.513245 C260.363262,264.875546 261.299628,265.951595 262.883076,266.334132 C264.896644,267.390664 267.265473,267.144747 269.509325,265.915814 C270.483121,265.767483 271.460722,265.664042 272.452281,265.714786 C274.577502,265.823432 275.522115,263.391588 274.711994,261.676026 C274.461408,261.145808 274.218435,260.681949 273.931054,260.238258 C273.970387,259.994293 273.955795,259.726257 273.865711,259.436101 C272.031677,253.484654 270.60429,247.410248 268.611657,241.509546 C268.314127,240.628019 267.046607,240.976726 267.244538,241.895987 C268.448618,247.494823 269.16929,253.180836 270.164655,258.818706 C269.282847,259.300781 268.615464,260.231752 268.618636,261.268767" id="Fill-37" fill="#E1E0E7"></path>
                <path d="M271.201195,312.027156 C271.169904,311.779727 271.028139,311.536481 270.830816,311.347024 C270.922772,310.922689 271.003234,310.488791 271.058791,310.035171 C271.277825,308.248182 268.505089,307.324804 267.294331,308.576295 C260.929554,315.153491 251.959349,316.43845 243.256711,318.915133 C243.167309,318.940832 243.084293,318.970715 243,319 L271.923435,319 C271.934291,318.900192 271.949617,318.803969 271.959196,318.702368 C272.17376,316.360754 271.486004,314.308406 271.201195,312.027156" id="Fill-39" fill="#E1E0E7"></path>
                <path d="M138.036438,37.6192296 C138.218601,37.851923 138.404695,38.0813664 138.596031,38.30626 C138.261848,38.5194539 137.942081,38.7514973 137.630832,38.9939404 C137.769747,38.5376534 137.900144,38.0800665 138.036438,37.6192296 M116.743101,62.7923616 C116.885292,62.6896646 117.03076,62.5947673 117.172951,62.4940201 C118.039861,61.9272363 118.908736,61.5593468 119.702911,60.8138181 C119.729122,60.7891188 119.752711,60.7618196 119.778922,60.7371203 C120.810301,60.0715392 121.852165,59.4222078 122.899271,58.7793761 C123.03622,58.7650765 123.17448,58.7494769 123.316672,58.7221777 C124.885365,58.4205863 126.032725,57.4040153 127.056897,56.2522482 C127.853694,55.7069137 128.590206,55.0972311 129.162904,54.3374028 C129.378484,54.050111 129.45515,53.73487 129.434182,53.4248288 C130.752565,51.841474 132.02377,50.2139204 133.057771,48.4349211 C133.877501,47.0251113 134.586493,45.5847524 135.139533,44.1105945 C135.241098,44.0793954 135.342008,44.0306467 135.437676,43.9383494 C139.016708,40.4830479 145.523442,40.9893835 150.144993,41.0914306 C155.287475,41.2058273 160.357879,41.884408 165.478083,42.2841466 C177.967999,43.2565188 190.581759,39.079088 201.107204,32.3673794 C200.812993,33.7648395 200.632796,35.1895989 200.573823,36.6325577 C200.52861,37.7615755 201.390932,38.3478588 202.297157,38.4063572 C202.417725,41.4807695 202.860026,44.5577817 203.392752,47.2786041 C203.977244,50.2659189 208.426462,48.9633561 207.948777,46.0325896 C207.487474,43.2006204 206.57142,40.4141499 205.902399,37.6192296 C205.419472,35.6016871 205.061045,33.5444958 204.617434,31.5165537 C204.728828,30.8997213 204.862501,30.2854888 205.029592,29.6777561 C205.412264,29.3982641 205.797557,29.120722 206.172366,28.8334302 C208.316378,27.191577 207.193917,24.1321143 204.99945,24.0450168 C209.667525,20.7710601 213.840877,16.7515748 217.297375,11.8585143 C217.590276,11.4438262 217.633524,11.0024887 217.520164,10.6014502 C219.320164,8.28036638 221.026461,5.90208421 222.904437,3.61479945 C223.19996,3.25470972 222.748485,2.7925729 222.386782,3.10131409 C219.788019,5.31645092 217.144699,7.45358996 214.550524,9.67327665 C203.684998,16.3342867 194.523805,24.8321443 182.014886,28.6182863 C175.270948,30.6592281 168.272768,31.504854 161.249033,31.8311447 C154.328174,32.1528855 147.309026,31.8369945 140.43338,32.8210665 C139.81678,32.908814 139.842991,33.9188851 140.43338,34.030682 C143.399744,34.591616 146.453256,35.0394532 149.555258,35.3735437 C147.749361,35.4833905 145.95788,35.6959345 144.25879,36.0761736 C143.980304,35.7524828 143.615324,35.4736408 143.142881,35.2779964 C143.174334,35.290346 143.193992,35.2974958 143.230686,35.3117954 C143.193337,35.2942459 143.154021,35.2825462 143.116016,35.2662967 C143.060319,35.2435474 143.011174,35.2142982 142.952201,35.1941488 C142.887985,35.1707494 142.848014,35.1577498 142.829012,35.1519 C142.090534,34.9016571 141.273424,34.8808577 140.572951,35.1915488 C140.460246,35.1973987 140.337712,35.2110483 140.301018,35.2110483 C139.926209,35.2097483 139.550089,35.1947988 139.176591,35.1603497 C138.958389,35.1402003 138.738222,35.1096512 138.518055,35.0732522 C138.170111,34.1320791 136.836657,33.8460872 135.795448,34.1541784 C135.987439,33.8467372 136.187294,33.5490457 136.406151,33.2734536 C138.136693,31.0953657 134.215616,29.7401543 133.903712,31.8278948 C133.576737,34.0150824 132.568291,36.2139697 131.827847,38.3004102 C131.711866,38.6286508 131.588022,38.9523416 131.468109,39.2773323 C130.094684,41.6413149 128.237676,43.7446549 126.39574,45.7589475 C124.241899,48.1157802 119.629522,51.315639 119.141353,54.5804959 C118.991299,55.5886171 119.176082,56.5115908 119.613796,57.23892 C118.146668,58.4394358 116.707061,59.6744006 115.326428,60.9711136 C114.38744,61.8531384 115.665853,63.5996386 116.743101,62.7923616" id="Fill-41" fill="#E1E0E7"></path>
                <path d="M207.536357,71.7380555 C207.180858,71.0690731 206.409493,71.2036692 206.04125,71.676088 C205.174638,66.7340138 204.241622,61.8219239 202.130764,57.1990156 C201.941612,56.7845663 201.221895,57.0804111 201.383546,57.5115183 C203.611785,63.463063 202.776028,69.633826 203.214029,75.8279101 C203.641298,81.8747381 204.678952,87.7683132 204.567607,93.8517887 C204.531387,95.8374137 204.493154,97.8476925 204.362357,99.831985 C204.16851,100.448995 203.964601,101.063339 203.749289,101.675018 C200.153387,111.865672 192.944142,120.089359 184.243143,126.413375 C177.902522,131.021624 172.92487,135.874412 170.15198,143.391802 C167.694344,150.055639 168.950663,157.53305 176.04588,160.633424 C180.751878,162.689678 183.403362,155.473464 178.696693,154.386701 C171.229208,152.663604 176.194787,143.175915 178.901272,139.172681 C181.056399,135.986353 183.652881,133.960749 186.728951,131.733917 C190.897676,128.716167 194.959081,125.428558 198.5959,121.788467 C198.591875,122.847912 199.735508,123.989979 200.89658,123.242371 C203.212688,121.752486 204.943228,119.765528 205.956064,117.385444 C210.163022,112.111543 210.705661,103.763256 210.30321,97.1880386 C210.305893,97.1647175 210.310588,97.1413964 210.313942,97.1180753 C211.468306,88.8917239 211.539406,79.2674392 207.536357,71.7380555" id="Fill-43" fill="#E1E0E7"></path>
                <path d="M174.41885,92.7721688 C173.010487,94.2135461 171.745161,96.148008 170.010991,97.120404 C168.197968,98.1368746 166.476024,97.4130869 164.596984,97.1830726 C164.235724,97.138998 163.899526,97.6465446 164.027892,98.0239334 C166.553655,105.44224 175.821712,101.056817 178.562641,96.3738904 C180.273583,93.4518819 176.558291,90.5822119 174.41885,92.7721688" id="Fill-45" fill="#E1E0E7"></path>
                <path d="M149.419013,77.5670656 C151.049774,78.4486499 153.328121,77.8504806 154.840955,76.9627647 C156.754067,75.8413677 158.082261,74.0768365 158.843731,72.0111768 C159.924616,69.0768772 155.076809,67.6516265 154.158327,70.7051512 C153.794438,71.9137529 153.490524,73.2361293 152.69199,74.2444329 C151.795072,75.3767305 150.644779,75.513669 149.419013,76.0736863 C148.8314,76.3414317 148.890027,77.2816067 149.419013,77.5670656" id="Fill-47" fill="#E1E0E7"></path>
                <path d="M154.588865,57.0671481 C149.9595,58.2413272 142.072339,61.046562 143.089566,67.2250577 C143.288685,68.435425 145.220715,68.142688 145.183817,66.9368442 C145.042589,62.3583857 152.434814,61.6727478 155.619451,60.8643284 C158.038146,60.2504207 157.013922,56.451948 154.588865,57.0671481" id="Fill-49" fill="#E1E0E7"></path>
                <path d="M191.77354,61.4379936 C187.758385,60.8503579 183.38845,58.6887773 179.560726,61.1541796 C178.405106,61.8989134 179.202904,64.111625 180.441894,63.699613 C184.792963,62.2486789 188.020666,68.0398179 192.372953,66.8334232 C195.055402,66.0901715 194.113381,61.7803488 191.77354,61.4379936" id="Fill-51" fill="#E1E0E7"></path>
                <path d="M108.051579,91 C109.851672,91 111.325806,89.3201527 112.307675,88.0330895 C113.324136,86.7000828 114.024616,85.1703605 113.999337,83.4833953 C113.988029,82.7347114 113.597543,82.0365006 113.028777,81.5207694 C113.058047,81.489709 113.093969,81.4631783 113.120578,81.4301767 C113.788462,80.5876647 113.568938,79.31872 112.599043,78.7738697 C110.496938,77.5942235 107.659762,77.6091065 106.389186,79.904337 C105.898917,80.7908512 107.015161,81.5492414 107.768859,80.9390349 C108.475326,80.3676539 109.151857,80.5456038 109.723284,80.9901551 C109.610196,81.061335 109.5011,81.1428685 109.395994,81.2373437 C108.535196,80.5585456 107.139558,81.24705 106.376547,81.8928465 C105.169167,82.9139555 104.254486,84.4139116 104.037623,85.9598111 C103.718981,88.236923 105.455878,91 108.051579,91" id="Fill-53" fill="#E1E0E7"></path>
                <path d="M113.323539,73.0341252 C115.547734,74.0269913 118.445185,73.541619 120.975699,72.7198695 C119.528586,75.6086802 120.112848,79.1936684 120.48043,82.3986868 C120.911211,86.1567433 126.139263,85.5926444 125.925807,82.3075981 C126.0464,80.59318 125.871637,78.8481822 126.091541,77.1409211 C126.282426,75.6581283 126.655167,75.3770549 127.880442,74.6340319 C129.510056,73.6450697 132.301747,72.7276771 133.119456,70.7946463 C133.763692,70.4842943 134.384713,70.1837018 134.965751,69.9358106 C135.410074,69.7458258 135.592575,69.3860257 135.5958,69.0041041 C137.135776,68.3892559 139.132973,67.4660076 138.993034,65.6416325 C138.93177,64.8413538 138.367499,64.1523334 137.51948,64.154936 C135.873744,64.1588398 134.217689,66.1686453 132.828615,66.9877923 C132.707377,67.0587113 132.58227,67.1328834 132.459098,67.2051037 C132.363655,67.0957974 132.260474,66.9962505 132.15149,66.9038606 C133.0195,66.1458731 133.764982,65.3111109 134.299589,64.3839588 C135.370091,62.529004 133.6115,60.7215453 131.747794,61.0358011 C128.449872,61.5907911 125.538878,64.7496146 122.903249,66.619534 C119.811689,68.812818 116.978726,70.4394006 113.480245,71.8265503 C113.024314,72.0074263 112.750885,72.7784265 113.323539,73.0341252" id="Fill-55" fill="#E1E0E7"></path>
                <path d="M86.3657126,84.9908752 C88.8746475,85.0805784 91.3160717,84.4951109 93.7393198,83.8411677 C96.4079438,83.1221726 99.2518361,82.4456324 101.693909,81.0679007 C104.663086,79.3916149 102.044446,74.7414282 99.0648831,76.3232176 C96.6422841,77.6098765 94.3631456,79.2176866 91.9385991,80.5242035 C89.8775724,81.6335103 87.8477044,82.7126877 86.1093014,84.3376167 C85.8632765,84.56838 86.0690546,84.9799191 86.3657126,84.9908752" id="Fill-57" fill="#E1E0E7"></path>
                <path d="M109.385225,82.3752482 C108.770935,82.1264064 108.131892,82 107.485031,82 C104.71519,82 103,84.2250165 103,86.287227 C103,87.4176042 103.606473,88.9702184 106.496174,89.9483786 C106.598448,89.9834547 106.702675,90 106.804948,90 C107.21404,90 107.595121,89.7372601 107.731919,89.3209795 C107.902592,88.8007942 107.625738,88.2382528 107.113721,88.0655195 C106.128773,87.7319656 104.954262,87.1522171 104.954262,86.287227 C104.954262,85.1793514 105.922273,83.9854401 107.485031,83.9854401 C107.882398,83.9854401 108.27781,84.0641959 108.660194,84.2190602 C109.162439,84.4215751 109.729826,84.1740569 109.929813,83.6651224 C110.13045,83.156188 109.886167,82.5790867 109.385225,82.3752482" id="Fill-59" fill="#4C5D7F"></path>
                <path d="M129.613465,60.5887726 C129.721699,60.9389095 129.848076,61.2769946 129.985715,61.6081023 C130.875985,61.4558689 131.766256,61.3137843 132.657153,61.1932662 C132.026518,61.8681677 131.399012,62.5189656 130.773382,63.1456599 C130.961697,63.4501268 131.160647,63.7457134 131.377115,64.0267109 C131.696186,64.4402784 131.623613,65.0390632 131.215077,65.361925 C131.043654,65.4976665 130.839699,65.5636343 130.638246,65.5636343 C130.359215,65.5636343 130.082687,65.438676 129.898127,65.198274 C129.721073,64.9686553 129.559661,64.7269847 129.3995,64.4859484 C127.786627,66.0209689 126.181887,67.4043902 124.567137,68.6495328 C124.742314,68.8956435 124.923121,69.139217 125.114563,69.379619 C125.440516,69.7887463 125.377953,70.3868968 124.974422,70.7180045 C124.801123,70.8600891 124.592788,70.9292284 124.385705,70.9292284 C124.111679,70.9292284 123.840156,70.8087103 123.65497,70.57592 C123.445384,70.312683 123.247059,70.0443716 123.054991,69.773523 C121.23566,71.0751188 119.395684,72.2124294 117.507534,73.2032153 C117.047071,73.4448859 116.866889,74.0182985 117.105254,74.4851477 C117.343619,74.9519968 117.909814,75.1353113 118.370277,74.8930064 C118.690599,74.7249153 119.008419,74.5511155 119.325613,74.3747784 C119.293706,73.8552818 119.271184,73.3319794 119.258045,72.8055055 C119.245533,72.2803001 119.65532,71.8432633 120.173341,71.8305772 C120.707003,71.805205 121.121796,72.2327272 121.134308,72.7585668 C121.139313,72.9412469 121.1512,73.1220241 121.158082,73.3040699 C126.122452,70.2594013 130.827812,66.1573447 135.759649,60.5868697 C136.01866,60.2950889 136.073715,59.8720069 135.898539,59.5212357 C135.723989,59.1717331 135.358621,58.9649493 134.969479,59.0049106 C132.911158,59.2104257 130.805289,59.5244072 128.678775,59.9265572 C129.092316,59.9094309 129.483334,60.1688621 129.613465,60.5887726" id="Fill-61" fill="#4C5D7F"></path>
                <path d="M123.040116,62.2836502 C123.078436,62.5226236 123.130442,62.761597 123.189291,63 C125.325635,62.5357414 127.489351,62.1228137 129.665384,61.7743346 C129.556582,61.5393536 129.44778,61.3055133 129.356086,61.0625475 C129.18912,60.619962 129.477889,60.1511407 130,60 C127.348388,60.4192015 124.66872,60.943346 122,61.5461977 C122.513215,61.5376426 122.970319,61.8473384 123.040116,62.2836502" id="Fill-63" fill="#4C5D7F"></path>
                <path d="M105,70 C109.479578,67.8264532 114.490856,65.7546757 119.730524,64.1169334 C119.659832,63.748273 119.601225,63.3782645 119.556513,63.0075821 C119.506364,62.590396 119.69246,62.1994945 120,62 C114.94401,63.5548441 109.949045,65.536984 105.372795,67.6748104 C105.381254,68.167481 105.39515,68.6614996 105.39938,69.1528222 C105.403005,69.5053075 105.243495,69.8166807 105,70" id="Fill-65" fill="#4C5D7F"></path>
                <path d="M103.771902,69.5434545 C103.232222,69.5434545 102.791801,69.1246436 102.785885,68.6025555 C102.78457,68.4017037 102.776682,68.2008518 102.773395,68 C90.8550855,73.0206625 82,78.7173783 82,81.2828329 C82,83.5549298 83.1654715,86 85.7238556,86 C87.1713278,86 88.7706466,85.2789609 90.1819649,84.6434581 C90.9372535,84.3032138 91.6511294,83.9819775 92.1901518,83.8400507 C92.7153699,83.702559 93.0249791,83.1792038 92.8823354,82.6735894 C92.738377,82.1660741 92.1934385,81.8663804 91.6715071,82.0057728 C90.968806,82.1907846 90.1813075,82.5456017 89.3471376,82.9213277 C88.1218477,83.4731951 86.7335365,84.0991939 85.7238556,84.0991939 C84.2869009,84.0991939 83.972033,82.0665986 83.970061,81.3069098 C84.2566631,79.7501496 92.459663,74.3898764 104,69.5162097 C103.929664,69.5320497 103.857356,69.5428209 103.771902,69.5434545" id="Fill-67" fill="#4C5D7F"></path>
                <path d="M121.009816,62.1612972 C121.063087,62.5391663 121.134602,62.9163484 121.219981,63.2921565 C121.72788,65.5222715 122.796218,67.7200958 124.354211,69.7489096 C124.57824,70.0422735 124.809568,70.3328892 125.05403,70.6180086 C125.270033,70.8701504 125.58674,71 125.905636,71 C126.147909,71 126.390912,70.9258002 126.59305,70.7712174 C127.063732,70.4132723 127.136706,69.7647114 126.756512,69.322261 C126.533211,69.0618748 126.322317,68.7973664 126.11799,68.5307969 C124.717621,66.7032843 123.771149,64.7342425 123.338414,62.750773 C123.275656,62.4635925 123.220926,62.1757249 123.18006,61.8885443 C123.105627,61.3629627 122.618161,60.9899028 122.070857,61.0002083 C122.030721,61.0008954 121.990586,60.9981472 121.94972,61.0029565 C121.802313,61.0221935 121.665852,61.0675377 121.544715,61.1341801 C121.174008,61.3375424 120.949248,61.7360226 121.009816,62.1612972" id="Fill-69" fill="#4C5D7F"></path>
                <path d="M120.913185,72.0010944 C120.396179,72.0146862 119.987194,72.4599794 120.000307,72.9958846 C120.012795,73.5330843 120.035898,74.0670478 120.067742,74.5977752 C120.294401,78.3853565 121.003723,81.9988333 122.182597,85.3605382 C122.321215,85.7547004 122.680247,86 123.063006,86 C123.169155,86 123.277176,85.9812304 123.383325,85.9411022 C123.869111,85.7579365 124.120121,85.20132 123.943415,84.6964818 C122.725828,81.2260424 122.042106,77.4617614 121.895996,73.5046062 C121.889127,73.3188516 121.877264,73.1343915 121.872893,72.9479897 C121.85978,72.4120845 121.446425,71.9752052 120.913185,72.0010944" id="Fill-71" fill="#4C5D7F"></path>
                <path d="M129.045421,61.3119892 C129.133756,61.599589 129.238571,61.8763868 129.343387,62.154535 C129.703978,63.1165763 130.158837,64.0192074 130.706645,64.8529766 C130.875404,65.1101961 131.045482,65.3674156 131.23204,65.6111327 C131.427168,65.867002 131.717882,66 132.011892,66 C132.224819,66 132.439064,65.930463 132.619689,65.785988 C133.050157,65.4416784 133.126626,64.8050433 132.790426,64.3641921 C132.562337,64.0651154 132.352706,63.750511 132.154942,63.42713 C131.838518,62.9099906 131.560988,62.3644963 131.324989,61.790647 C131.179302,61.4382361 131.046141,61.0777237 130.932097,60.7057344 C130.795639,60.258132 130.383629,59.9820092 129.947228,60.0009125 C129.862849,60.0042881 129.777151,60.01509 129.692771,60.0420946 C129.162762,60.2324775 128.884573,60.7880986 129.045421,61.3119892" id="Fill-73" fill="#4C5D7F"></path>
                <path d="M102.963844,67.4180479 C102.966478,67.6232601 102.974378,67.829771 102.976353,68.0349832 C102.98162,68.5700935 103.422724,69 103.963899,69 C104.048828,68.9993506 104.121906,68.9883107 104.192351,68.9720756 C104.30954,68.9448005 104.418828,68.8967445 104.516266,68.8324533 C104.781586,68.6551656 104.954736,68.3551402 104.951444,68.0161505 C104.946836,67.5420843 104.931693,67.0667194 104.922476,66.5920039 C104.850715,63.0001413 104.659131,59.392693 104.465572,55.8885002 C104.224611,51.5134544 103.975091,46.9896948 103.975091,42.5230828 C103.975091,18.89316 119.736316,4.78612133 146.135381,4.78612133 C152.817114,4.78612133 158.941871,5.51670267 165.426753,6.29014479 C172.306653,7.11099351 179.42093,7.95976667 187.637308,7.95976667 C200.903994,7.95976667 212.279859,6.21806076 222.327805,2.64113452 C211.687332,28.8199745 178.921891,35.8848584 160.845859,35.8848584 C153.420833,35.8848584 140.480696,34.4379827 134.961634,31.2208271 C134.491562,30.946778 133.885868,31.1006871 133.608697,31.5637133 C133.330867,32.0267395 133.486899,32.6241927 133.956313,32.8982419 C134.897773,33.4469897 136.015016,33.9424862 137.253398,34.3899266 C137.85185,34.6055293 138.479929,34.8100921 139.130392,35.0029656 C145.953673,37.03041 155.336672,37.8330753 160.845859,37.8330753 C170.71868,37.8330753 184.855064,35.7556267 197.595717,29.7473258 C197.518688,29.3531365 197.442318,28.9602461 197.365289,28.5608617 C197.263243,28.0322455 197.614809,27.5218126 198.150717,27.4211548 C198.687942,27.3198475 199.203441,27.6679289 199.305487,28.1958957 C199.347622,28.4153948 199.389758,28.6296987 199.431893,28.8478989 C201.828337,27.6315622 204.160261,26.2678104 206.396063,24.746253 C206.515227,23.9708626 206.649533,23.1915759 206.822025,22.4044962 C206.937238,21.8784777 207.465246,21.5433844 207.995887,21.6576797 C208.529162,21.7706763 208.867561,22.2895514 208.753005,22.8149206 C208.731938,22.9090844 208.718112,23.0019494 208.699019,23.0954638 C215.790913,17.7346203 221.671417,10.6262262 224.945459,1.29231901 C225.071865,0.933197696 224.974427,0.53381323 224.695939,0.270803948 C224.41811,0.00779466542 224.009266,-0.0714328221 223.651116,0.0675399839 C213.340483,4.06722929 201.560383,6.01154977 187.637308,6.01154977 C179.540094,6.01154977 172.485728,5.16992006 165.663764,4.3562148 C159.118312,3.57497982 152.936278,2.83790443 146.135381,2.83790443 C132.288677,2.83790443 120.914787,6.65511075 113.242217,13.8765014 C105.887637,20.7991655 102,30.7051991 102,42.5230828 C102,47.0429461 102.250837,51.5939807 102.493773,55.9937039 C102.699841,59.7388262 102.908542,63.6021404 102.963844,67.4180479" id="Fill-75" fill="#4C5D7F"></path>
                <path d="M208.188516,21.0234375 C207.636169,20.9033013 207.087248,21.2568448 206.966637,21.8129036 C206.787775,22.6456187 206.64729,23.4694095 206.523937,24.2883948 C205.905117,28.3778293 205.907173,32.3100571 205.918137,36.1317596 C205.933899,41.614087 205.940752,46.8369203 204,51.7185669 C204.247391,52.8451007 204.489985,53.9393694 204.727097,55 C208.002116,49.0144738 207.993207,42.7509182 207.974019,36.1262677 C207.961683,31.7416415 207.955516,27.2094194 208.920409,22.5433314 C208.940968,22.4444765 208.955359,22.3463081 208.976603,22.2474532 C209.09653,21.6913945 208.743604,21.1435736 208.188516,21.0234375" id="Fill-77" fill="#4C5D7F"></path>
                <path d="M199.101839,29.4558965 C199.059619,29.2365958 199.017399,29.0199136 198.975179,28.798649 C198.872268,28.2664356 198.356395,27.9155544 197.817432,28.0176765 C197.280449,28.119144 196.928836,28.6336825 197.030428,29.1665505 C197.108271,29.5691474 197.184794,29.9651979 197.261318,30.3625578 C200.739837,48.3537278 203.604189,60.291543 205.707265,69.0570259 C208.488497,80.6505063 210.020945,87.035758 210.020945,95.1276276 C210.020945,116.529415 198.103076,123.406293 187.588357,129.473395 C179.571864,134.098349 172,138.466689 172,148.570234 C172,154.057989 174.110992,154.642573 176.463429,154.7879 C176.912674,154.815395 177.336852,154.840925 177.664055,154.949594 C177.768286,154.983634 177.873176,155 177.977406,155 C178.391688,155 178.777604,154.739458 178.915478,154.327696 C179.088975,153.813812 178.808609,153.258032 178.290096,153.086519 C177.71683,152.896677 177.141585,152.860672 176.58613,152.826632 C175.01608,152.730401 173.979055,152.666247 173.979055,148.570234 C173.979055,139.597233 180.746763,135.692371 188.583162,131.170194 C199.01608,125.150879 212,117.659959 212,95.1276276 C212,86.8053286 210.448421,80.3402121 207.632226,68.6020588 C206.687557,64.6657743 205.589181,60.0872988 204.350952,54.6067444 C204.122042,53.5953426 203.888513,52.5525185 203.651027,51.4782722 C202.284159,45.3097027 200.762266,38.072124 199.101839,29.4558965" id="Fill-79" fill="#4C5D7F"></path>
                <path d="M153.126238,74.9437971 C151.906403,74.9437971 150.092342,74.1967101 150.092342,72.1377656 C150.092342,70.9513365 150.692844,69.830706 151.621844,69.2823852 C151.880597,69.1309116 152.17492,69.0562029 152.520854,69.0562029 C152.555029,69.0562029 155.907658,69.1740918 155.907658,71.7991775 C155.907658,72.172721 155.320407,74.9437971 153.126238,74.9437971 M152.520854,67 C151.795508,67 151.130144,67.1747772 150.544985,67.5202193 C148.999442,68.4318026 148,70.2446881 148,72.1377656 C148,75.2967786 150.641233,77 153.126238,77 C156.800391,77 158,73.131597 158,71.7991775 C158,67.8814256 153.942251,67 152.520854,67" id="Fill-81" fill="#4C5D7F"></path>
                <path d="M155.999095,57.945238 C155.976528,57.4000007 155.525185,56.9772442 155.019305,57.0009502 C150.605546,57.2024509 144.780087,58.6814401 142.092089,64.5855438 C141.868298,65.0781011 142.066387,65.6674579 142.534656,65.9025421 C142.665671,65.9690505 142.803581,66 142.939611,66 C143.290655,66 143.627282,65.7925728 143.788386,65.4383002 C146.073937,60.4185609 151.201695,59.1529255 155.100171,58.9744722 C155.619215,58.9507663 156.021663,58.4904753 155.999095,57.945238" id="Fill-83" fill="#4C5D7F"></path>
                <path d="M183.262845,59.6374174 C183.829994,59.3977901 184.436932,59.2749431 185.066607,59.2749431 C187.357941,59.2749431 190.092637,60.9166937 192.382708,63.6655834 C192.567758,63.8877695 192.810281,64 193.052804,64 C193.295326,64 193.537849,63.8877695 193.722899,63.6655834 C194.092367,63.2227278 194.092367,62.5015708 193.722899,62.0571986 C191.085465,58.8912361 187.849302,57 185.066607,57 C184.222199,57 183.403053,57.1660708 182.632538,57.492146 C182.139283,57.7006825 181.880339,58.3513162 182.054021,58.9428014 C182.228334,59.5358033 182.768957,59.8459539 183.262845,59.6374174" id="Fill-85" fill="#4C5D7F"></path>
                <path d="M152.748364,69.0072365 C152.673455,69.0114602 152.597091,69.0149799 152.52,69.0149799 C152.095273,69.0149799 151.726545,69.2500968 151.546909,69.5929169 C151.251636,69.7829815 151.057455,70.1067952 151.057455,70.4742533 C151.057455,70.5376081 151.046545,70.6108182 151.037091,70.687548 C151.018182,70.8571982 151,71.0352957 151,71.2056498 C151,71.6266076 151.148364,73 153.059636,73 C154.491636,73 155,72.0574206 155,71.2507022 C155,70.7269688 154.936,69.9716381 154.386182,69.4626875 C153.845818,68.9614803 153.185455,68.9903419 152.748364,69.0072365" id="Fill-87" fill="#4C5D7F"></path>
                <path d="M187.619347,70.2711429 C188.127463,69.8348709 188.126594,69.1276041 187.618479,68.6913321 C187.338798,68.4523503 186.959231,68.3436546 186.598773,68.3682228 C186.080234,67.8508013 184.987568,67.8939818 184.429075,68.4017249 C184.152,68.653363 184,68.9883842 184,69.347229 C184,70.1453238 184.786059,71 185.956028,71 C186.769882,71 187.322295,70.525759 187.619347,70.2711429" id="Fill-89" fill="#4C5D7F"></path>
                <path d="M169.029906,64.7166858 C169.029906,63.2276866 168.985699,62.0197569 168.890969,60.9128784 C168.843604,60.3607776 168.38511,59.9545653 167.861568,60.004087 C167.341185,60.054278 166.95658,60.5421344 167.003945,61.0942352 C167.093623,62.1388769 167.135304,63.2899234 167.135304,64.7166858 C167.135304,65.452151 167.1252,66.1862778 167.114464,66.921743 C167.104359,67.6672464 167.094255,68.4127498 167.094255,69.1582532 C167.094255,80.5884132 171.558568,83.5128745 175.146312,85.863151 C177.445096,87.3688805 179.105398,88.4563518 179.105398,91.5608314 C179.105398,94.47057 176.242023,95.9923607 173.413383,95.9923607 C170.538641,95.9923607 170.140143,95.3586158 169.788378,94.7998229 C169.497873,94.3387351 168.909915,94.212923 168.474788,94.5214302 C168.039029,94.8285991 167.921564,95.4523057 168.21207,95.9127243 C169.043168,97.2344202 170.160983,98 173.413383,98 C177.091437,98 181,95.7427442 181,91.5608314 C181,87.3367582 178.530702,85.7192701 176.142873,84.1546499 C172.789428,81.9589617 168.988856,79.4694889 168.988856,69.1582532 C168.988856,68.4221188 168.998961,67.6866536 169.009066,66.9518576 C169.01917,66.2070234 169.029906,65.46152 169.029906,64.7166858" id="Fill-91" fill="#4C5D7F"></path>
                <path d="M178.32698,110.90356 C178.837494,110.735637 179.117662,110.178527 178.952667,109.660269 C178.787672,109.140695 178.23963,108.855555 177.731058,109.023478 C172.23123,110.828488 165.693553,110.171283 158.341901,107.075568 C157.845623,106.866817 157.278817,107.105202 157.073706,107.610289 C156.869241,108.114717 157.104763,108.692241 157.599748,108.900334 C162.483595,110.957559 167.07498,112 171.247085,112 C173.729125,112 176.110873,111.630569 178.32698,110.90356" id="Fill-93" fill="#4C5D7F"></path>
                <path d="M174.896294,117.220755 C175.138468,116.755346 174.942111,116.18805 174.45711,115.954717 C173.15592,115.330189 171.628265,115 170.040394,115 C167.472049,115 165.022827,115.860377 163.318452,117.361635 C162.918538,117.713208 162.891703,118.310063 163.258235,118.694969 C163.451974,118.897484 163.716401,119 163.982137,119 C164.219074,119 164.456666,118.918239 164.645168,118.75283 C165.99152,117.566667 167.957705,116.886792 170.040394,116.886792 C171.325221,116.886792 172.549178,117.148428 173.578741,117.642767 C174.063742,117.874843 174.653467,117.686164 174.896294,117.220755" id="Fill-95" fill="#4C5D7F"></path>
                <g id="Group-99" transform="translate(0.000000, 73.000000)">
                    <mask id="mask-6" fill="white">
                        <use xlink:href="#path-5"></use>
                    </mask>
                    <g id="Clip-98"></g>
                    <path d="M45.1476812,130.298955 C44.96569,130.032195 44.787655,129.761483 44.6030262,129.496699 C44.2911354,129.049464 44.4012533,128.432952 44.8489782,128.120744 C45.2973624,127.810512 45.9138908,127.92051 46.226441,128.367086 C46.4176638,128.64175 46.602952,128.923 46.7921965,129.200299 C50.8408428,126.493179 55.3827118,123.427086 60.6479301,119.577179 C68.6245546,113.744686 74.7166463,109.012166 79.612607,105.209024 C94.6189738,93.5499656 99.1225983,90.0531043 116.101197,87.4105336 C116.04317,87.0943736 115.985803,86.7821656 115.927118,86.4613949 C115.828869,85.9245816 116.184939,85.4101629 116.722341,85.3120216 C117.261721,85.2158563 117.775384,85.5702189 117.872974,86.1063736 C117.935616,86.4488803 117.996279,86.7815069 118.058262,87.1174269 C121.163983,86.6695336 124.668633,86.2374483 128.692882,85.7869203 C128.621009,85.5135736 128.550454,85.2323229 128.478581,84.9635869 C128.337472,84.4366536 128.651341,83.8945709 129.178852,83.7542749 C129.705703,83.6133203 130.249699,83.9268456 130.389489,84.4537789 C130.487079,84.8180216 130.58269,85.1960963 130.678961,85.5669256 C134.259441,85.1750189 138.226983,84.7633523 142.664668,84.3101896 C142.589498,84.0289389 142.505096,83.7582269 142.43652,83.4697309 C142.310576,82.9388456 142.638952,82.4059843 143.170419,82.2801789 C143.704524,82.1537149 144.235332,82.4823896 144.361275,83.0126163 C144.450952,83.3887149 144.555795,83.7443949 144.656681,84.1060029 C145.294969,84.0414536 145.940511,83.9749283 146.597921,83.9077443 L149.674629,83.5942189 C150.187633,83.5415256 150.574035,83.1048296 150.562825,82.5897523 C150.192908,65.0369443 141.039275,61.3503869 134.355712,58.6584163 C132.48107,57.9035843 130.710611,57.1909069 129.435354,56.2799709 C124.388393,52.6796989 123.502175,47.4255149 122.275052,40.1525176 C121.386856,34.8864776 120.379969,28.9182989 117.614493,21.8132616 C117.446349,21.3805176 116.994668,21.1223203 116.540349,21.1941149 L116.103175,21.2626163 C113.770258,21.6268589 111.358214,22.0029576 109.141349,22.0029576 C102.543507,22.0029576 99.5386725,18.0983816 99.5386725,14.4711043 C99.5386725,5.7602376 106.790629,2.51432827 111.361511,2.51432827 C112.75414,2.51432827 114.068961,2.7843816 115.270367,3.3179016 C115.770843,3.53987227 116.354402,3.3159256 116.575956,2.81665627 C116.79817,2.31738693 116.573319,1.73380827 116.074162,1.51249627 C114.618231,0.8656856 113.033061,0.538328267 111.361511,0.538328267 C106.025738,0.538328267 97.5605066,4.32105093 97.5605066,14.4711043 C97.5605066,19.1957203 101.538598,23.9789576 109.141349,23.9789576 C111.395799,23.9789576 113.757729,23.6278883 116.05438,23.2702323 C118.533681,29.8661203 119.483201,35.4944269 120.324581,40.4811923 C121.581376,47.9293949 122.573755,53.8132643 128.28538,57.8877763 C129.753179,58.9357149 131.62914,59.6912056 133.615878,60.4914856 C140.008651,63.0662136 147.935162,66.2594296 148.557624,81.7216296 L146.396808,81.9422829 C100.281803,86.6471389 100.281803,86.6471389 78.3980131,103.648643 C73.5126026,107.444539 67.4323799,112.167838 59.4801528,117.982547 C53.6584105,122.238851 48.7110175,125.542723 44.346524,128.457323 C17.2159782,146.573291 16.0145721,147.390038 0,247.000198 L2.00322271,247.000198 C17.7731616,148.929342 19.0253406,147.743742 45.1476812,130.298955" id="Fill-97" fill="#4C5D7F" mask="url(#mask-6)"></path>
                </g>
                <path d="M41.5972827,248.263416 C41.0691724,248.413775 40.5185046,248.105739 40.3685638,247.574824 C40.3128335,247.378559 40.3214584,247.180298 40.3785156,247 C33.9781637,260.554946 27.0749127,282.819414 19,321 L21.0341535,321 C29.0128653,283.345006 35.7728099,261.441799 42,248.150314 C41.8666455,248.188237 41.7306372,248.224829 41.5972827,248.263416" id="Fill-100" fill="#4C5D7F"></path>
                <path d="M40.5767263,243.588585 C41.2699965,243.404973 41.977918,243.223228 42.6905012,243.042729 C48.3618647,232.541997 53.6216614,228.452121 59,225.620141 C58.6676831,225.081132 58.3353663,224.540877 58.0063792,224 C52.0639678,227.127626 46.2700666,231.697383 40,244 C40.1265335,243.807052 40.3256572,243.654561 40.5767263,243.588585" id="Fill-102" fill="#4C5D7F"></path>
                <path d="M85.7049417,212.66344 C85.7022105,212.776048 85.7028933,212.888024 85.700845,213 C87.1176468,211.490541 88.7754756,209.704621 90.7535357,207.566326 C91.1215628,207.1684 91.0717187,206.569931 90.6422399,206.22831 C90.213444,205.887954 89.5661534,205.932871 89.1981263,206.331429 C87.140179,208.556395 85.4393341,210.388496 84,211.920098 C84.1836721,211.768266 84.4274303,211.677167 84.7066939,211.691718 C85.272049,211.70437 85.7192804,212.140253 85.7049417,212.66344" id="Fill-104" fill="#4C5D7F"></path>
                <path d="M61.7674018,228.530469 C61.9056677,228.753351 62.1307672,228.912645 62.393272,228.973023 C62.4707543,228.991008 62.5489046,229 62.6277228,229 C62.8140812,229 62.9984357,228.949257 63.1594119,228.85291 C70.0900726,224.675943 73.6161865,223.137601 75.9500077,222.120175 C79.4874767,220.576695 80.5334881,220.12001 85.8069621,214.410481 C85.8062942,214.270457 85.8036224,214.128506 85.8036224,213.988481 C85.8036224,213.261382 85.8129737,212.532998 85.8316763,211.804614 C85.836352,211.611277 85.8978035,211.431429 86,211.28177 C85.3053308,212.048051 84.6761209,212.735327 84.1003471,213.355802 C84.3214389,213.612085 84.5512141,213.860661 84.8023637,214.091894 C85.2017984,214.45994 85.2158254,215.070138 84.8330894,215.454241 C84.6367118,215.651432 84.3728711,215.750991 84.1096984,215.750991 C83.8605526,215.750991 83.6107389,215.662351 83.4170331,215.483788 C83.1772386,215.263474 82.9561468,215.033526 82.7437384,214.799081 C79.0633278,218.645899 77.9725636,219.121854 75.1224162,220.364731 C72.8400273,221.360318 69.4408241,222.843421 62.9657061,226.698589 C61.1702535,223.776061 59.4269011,220.766178 57.7356489,217.848146 C54.5187964,212.295984 51.191732,206.569113 47.3977697,201.224419 C47.2060677,200.954004 47.0183734,200.680379 46.8239997,200.412534 C46.5080588,199.976403 45.8835245,199.869136 45.4293178,200.172308 C44.975111,200.476123 44.8635632,201.077329 45.180172,201.51346 C45.3665304,201.77167 45.5468772,202.035661 45.7318996,202.295798 C49.4797733,207.57305 52.7874671,213.26652 55.985617,218.785924 C56.9441269,220.441167 57.9213393,222.124672 58.9145826,223.807534 C59.2445505,224.366347 59.5771901,224.923233 59.9111657,225.479477 C60.5236769,226.503326 61.1408637,227.52332 61.7674018,228.530469" id="Fill-106" fill="#4C5D7F"></path>
                <path d="M79.8225407,209.294534 C79.4054312,208.901822 78.7299416,208.901822 78.3128321,209.294534 C77.8957226,209.687246 77.8957226,210.323895 78.3128321,210.715937 C79.1890467,211.541571 79.8545713,212.499225 80.5592443,213.513843 C81.1414893,214.351539 81.7422408,215.21001 82.4768091,216.006827 C82.7031586,216.251435 82.9387614,216.490681 83.1942943,216.720545 C83.4007137,216.906848 83.6669235,217 83.9324215,217 C84.2128671,217 84.4940246,216.896126 84.7032911,216.689717 C85.1111473,216.289634 85.0969115,215.652314 84.6705487,215.268314 C84.4029153,215.027728 84.1580592,214.768377 83.9224564,214.500984 C83.3565826,213.858974 82.8597526,213.151958 82.3458395,212.412775 C81.6134067,211.357948 80.8553493,210.266262 79.8225407,209.294534" id="Fill-108" fill="#4C5D7F"></path>
                <path d="M86.1871247,213.355878 C86.1892866,213.239963 86.1885659,213.124048 86.1914485,213.007478 C86.2065818,212.465886 85.7345664,212.014669 85.1378813,212.001571 C84.843142,211.986509 84.5858756,212.080813 84.3927456,212.237986 C84.3242854,212.293651 84.2630315,212.355865 84.2125871,212.425938 C84.1016094,212.578527 84.0360317,212.76255 84.0302666,212.959671 C84.0100889,213.701658 84,214.4443 84,215.186288 C84,215.329053 84.0036032,215.473128 84.0043238,215.615894 C84.0446793,223.542648 85.2012971,232.085651 87.6276724,242.335944 C88.3821763,242.548783 89.1705501,242.76948 90,243 C87.3848186,232.219903 86.1619025,223.364518 86.1619025,215.186288 C86.1619025,214.575933 86.172712,213.966233 86.1871247,213.355878" id="Fill-110" fill="#4C5D7F"></path>
                <path d="M137.926342,291.348164 C137.799114,291.758919 137.442998,292.01776 137.060097,292.01776 C136.964523,292.01776 136.867733,292.002112 136.77216,291.968209 C136.512834,291.876278 136.244377,291.786303 135.978355,291.695676 C135.28682,294.865663 134.591632,298.073467 133.892184,301.326909 C134.205079,301.421448 134.518583,301.517291 134.819912,301.609874 C135.304474,301.760484 135.583279,302.30229 135.443268,302.821276 C135.328215,303.249635 134.962967,303.528036 134.566674,303.528036 C134.482667,303.528036 134.397443,303.515648 134.312827,303.489568 C134.042544,303.406113 133.760695,303.320702 133.482498,303.235291 C132.669213,307.030539 131.849842,310.882511 131.022556,314.806202 C130.911764,315.333012 131.21979,315.856562 131.712265,315.975224 C131.779836,315.992176 131.847407,316 131.914369,316 C132.331359,316 132.708173,315.691608 132.803746,315.237169 C134.566065,306.879929 136.291859,298.838254 138,291.029992 C137.989651,291.01956 137.979303,291.009128 137.969563,291 C137.974433,291.115403 137.962258,291.232109 137.926342,291.348164" id="Fill-112" fill="#4C5D7F"></path>
                <path d="M96.1782792,247.468855 C96.1186294,247.468855 96.0589796,247.460857 96,247.45086 C99.5675937,248.48519 103.633833,249.634149 108.241612,250.897071 C108.346166,250.566512 108.44871,250.237952 108.557957,249.904727 C108.729534,249.379565 109.297212,249.093658 109.824677,249.26227 C110.352142,249.432881 110.641678,249.996697 110.470101,250.52186 C110.370908,250.82576 110.277747,251.125663 110.181905,251.426231 C111.887621,251.890747 113.664381,252.369924 115.513524,252.86243 C115.624111,252.527206 115.729336,252.199313 115.843944,251.856758 C116.019542,251.333595 116.587891,251.049021 117.116026,251.224964 C117.642821,251.399573 117.926995,251.966056 117.751397,252.489885 C117.649523,252.792453 117.556362,253.083025 117.45851,253.379595 C125.277324,255.452253 134.332028,257.77083 144.776774,260.337327 C142.32443,270.200113 139.878788,280.303486 137.397625,290.820725 C137.587968,290.880706 137.77496,290.940686 137.961282,291 C137.943856,290.984672 137.927771,290.969343 137.909675,290.954015 C137.494807,290.588134 137.455935,289.95634 137.824557,289.543141 C138.193179,289.130609 138.82855,289.091289 139.243418,289.458502 C139.398909,289.595125 139.545018,289.727748 139.690456,289.859039 C142.136097,279.515077 144.548898,269.565653 146.970411,259.846154 C147.034753,259.588904 146.993199,259.31566 146.855133,259.089067 C146.717738,258.862474 146.494553,258.699194 146.235177,258.635215 C124.887254,253.402254 109.275095,249.188294 98.1842547,246 C97.7419079,246.39987 97.2968803,246.799073 96.8625762,247.200942 C96.6688819,247.37955 96.4235805,247.468855 96.1782792,247.468855" id="Fill-114" fill="#4C5D7F"></path>
                <path d="M96.5749944,246.489987 C96.7148948,246.35417 96.8594365,246.219047 97,246.083924 C94.5142808,245.323769 92.2831671,244.625978 90.287431,243.989167 C89.5249404,243.745252 88.7989168,243.511731 88.1053819,243.286526 C79.5608465,240.513381 76.1064327,239.104634 76.0321728,239.073452 C75.9154786,239.025639 75.790828,239 75.6655143,239 C74.8314159,239 57.0819619,242.318489 42.8280298,246.352784 C42.117919,246.553737 41.4137756,246.756075 40.7235558,246.960493 C40.4729285,247.033944 40.274681,247.203022 40.1487043,247.418526 C40.106933,247.489206 40.0717922,247.564736 40.0472599,247.644424 C39.9902388,247.832211 39.9822824,248.038707 40.0373143,248.243124 C40.1871603,248.79609 40.7374796,249.116921 41.2652557,248.960317 C41.3985257,248.920819 41.534448,248.882015 41.6677181,248.84321 C55.7817497,244.703588 73.5855727,241.373319 75.5249508,241.096836 C76.4836998,241.476567 80.5500951,243.039839 89.0787177,245.774873 C89.1092173,245.783881 89.14038,245.794275 89.1708796,245.804669 C91.4179061,246.524634 93.9712549,247.324286 96.8594365,248.205706 C96.736112,248.15027 96.6214069,248.067811 96.5246037,247.959019 C96.1499888,247.539097 96.173195,246.880805 96.5749944,246.489987" id="Fill-116" fill="#4C5D7F"></path>
                <path d="M102.228604,281.935499 C102.289711,281.623564 102.348847,281.320821 102.40864,281.015015 C92.1406616,279.073541 82.4719278,276.877739 76.0517308,273.79332 C73.2158317,272.430979 70.136818,271.725601 67.1589926,271.042899 L67.0072102,271.00858 C66.9822417,271.002451 66.9572731,271.003677 66.9323046,271 C66.8298022,271.452888 66.729271,271.898422 66.6241404,272.365405 C66.5268946,272.798682 66.116885,273.095909 65.6602238,273.095909 C65.593203,273.095909 65.5255252,273.089781 65.4571903,273.076911 C64.9243093,272.972729 64.5832918,272.484909 64.694336,271.988509 C64.7370454,271.799142 64.7771264,271.622032 64.8191787,271.435729 C62.352551,272.054696 60.1651765,272.627087 58.0421946,273.18232 C50.7007904,275.10357 44.9008642,276.620959 33.8181232,278.403095 C33.2819569,278.489505 32.9218845,278.965068 33.0145309,279.465758 C33.1071772,279.965221 33.618375,280.298606 34.1532271,280.214647 C45.3358422,278.416577 51.1784777,276.888157 58.5750755,274.952199 C61.1008392,274.291558 63.7107075,273.608243 66.7811793,272.849548 C69.7452064,273.529186 72.546938,274.17757 75.1489214,275.427762 C81.9850415,278.712579 92.2300227,280.986824 103,283 C102.476318,282.899494 102.132015,282.428834 102.228604,281.935499" id="Fill-118" fill="#4C5D7F"></path>
                <path d="M138.003024,293 C138.422113,293 138.811886,292.725715 138.951138,292.290452 C138.990448,292.167473 139.003774,292.043112 138.99911,291.920824 C138.955135,291.87937 138.911827,291.837916 138.867187,291.795772 C138.545374,291.486942 138.205572,291.16084 137.836454,290.819538 C137.651228,290.757358 137.464671,290.695178 137.276114,290.632997 C130.28552,288.348901 121.235459,286.560868 111.676362,284.673345 C111.321236,284.603565 110.964777,284.532403 110.608984,284.462623 C110.529697,284.811524 110.448411,285.174243 110.369124,285.517618 C110.26052,285.993644 109.850093,286.314219 109.39769,286.314219 C109.321734,286.314219 109.24378,286.305928 109.165825,286.285892 C108.629471,286.153931 108.296998,285.595689 108.424257,285.038828 C108.496215,284.723781 108.570838,284.392842 108.644129,284.072958 C106.865832,283.719912 105.088867,283.36341 103.322563,283 C103.26393,283.334393 103.205964,283.66464 103.145999,284.00456 C103.057384,284.504767 102.636962,284.85436 102.163905,284.85436 C102.109936,284.85436 102.055301,284.848141 102,284.838469 C105.081538,285.478928 108.202386,286.097278 111.30258,286.70941 C120.871005,288.598314 129.923064,290.38773 136.819713,292.658698 C137.110877,292.754733 137.404705,292.849385 137.687874,292.947492 C137.79248,292.983419 137.898418,293 138.003024,293" id="Fill-120" fill="#4C5D7F"></path>
                <path d="M60.313411,283.017045 C53.4663044,284.359113 46.578636,285.994109 39.9186375,287.574397 C36.5925635,288.363849 33.1533089,289.178923 29.7755513,289.945522 C29.24563,290.066017 28.9087047,290.617941 29.0218854,291.178867 C29.1357204,291.739793 29.657791,292.097124 30.1870581,291.976629 C33.5739748,291.208645 37.017809,290.391493 40.3478083,289.601349 C46.923412,288.041143 53.7207975,286.428307 60.4638825,285.100089 C60.5351929,285.118094 60.6065033,285.138177 60.6778136,285.156874 C60.7393107,284.831399 60.801462,284.506616 60.862959,284.181832 C60.9689433,283.626446 61.4753125,283.270501 62,283.366758 C61.5747545,283.254573 61.149509,283.138925 60.7249178,283.02951 C60.5901477,282.994885 60.4501438,282.99073 60.313411,283.017045" id="Fill-122" fill="#4C5D7F"></path>
                <path d="M135.021071,304 C135.446092,304 135.837816,303.713153 135.961209,303.271799 C136.11137,302.737068 135.812354,302.178826 135.292667,302.024318 C134.969494,301.928255 134.633265,301.830176 134.297688,301.732097 C120.146658,297.60137 95.359015,291.855032 90.7745383,291.027408 C84.0394968,289.812173 77.635462,288.023243 71.4423054,286.294102 C68.6806511,285.522907 65.8380405,284.732232 63,284 C63.4994481,284.133683 63.8173974,284.644229 63.7135906,285.170899 C63.6456917,285.516861 63.5784458,285.862824 63.510547,286.209459 C66.0038703,286.864436 68.4978465,287.559721 70.9291469,288.238882 C77.1647403,289.980116 83.6131705,291.781137 90.435697,293.013167 C91.6676691,293.235523 94.9894887,293.954991 99.41597,294.970039 C99.4773401,294.649604 99.540016,294.328497 99.6007332,294.008061 C99.7038872,293.461911 100.218351,293.10923 100.749137,293.21134 C101.279923,293.318823 101.626599,293.847508 101.522792,294.393658 C101.458811,294.73156 101.392218,295.072148 101.328236,295.410721 C102.761293,295.743249 104.283141,296.09996 105.86897,296.476152 C105.947315,296.14564 106.023701,295.817815 106.102046,295.486632 C106.230009,294.945855 106.757531,294.611984 107.285705,294.747011 C107.811269,294.878678 108.133135,295.423485 108.005172,295.964262 C107.928133,296.288056 107.853705,296.607819 107.777319,296.931614 C116.393289,298.993954 126.43187,301.525863 133.858304,303.699046 C134.156667,303.787048 134.458947,303.874379 134.748823,303.960365 C134.839573,303.987236 134.930975,304 135.021071,304" id="Fill-124" fill="#4C5D7F"></path>
                <path d="M64.7286453,272.979972 C64.7921543,272.993539 64.8550527,273 64.9173404,273 C65.3417518,273 65.7221953,272.686657 65.8131842,272.229887 C65.9108905,271.737583 66.004322,271.267891 66.0995856,270.790447 C68.4976625,258.758074 70.126303,251.528572 70.9372646,249.320957 C71.1210744,248.821546 70.8871901,248.260113 70.4157576,248.066293 C69.9424932,247.871826 69.4130476,248.119916 69.2304591,248.618035 C68.3639271,250.974892 66.649183,258.595265 64.1356907,271.249801 C64.0966082,271.446206 64.0593577,271.63292 64.0196645,271.832555 C63.9158517,272.35587 64.2333969,272.87014 64.7286453,272.979972" id="Fill-126" fill="#4C5D7F"></path>
                <path d="M64.9796739,285.161287 C65.0872838,284.65302 64.7570093,284.160311 64.2399404,284.031299 C64.2209902,284.026761 64.2040704,284.018981 64.1857971,284.015091 C63.6227063,283.923681 63.0995462,284.256259 62.9899059,284.776197 C62.9256107,285.080898 62.8613155,285.384951 62.797697,285.689004 C59.7318301,300.265401 56.8852437,314.523482 56,319 L58.0662454,319 C59.0164611,314.201277 61.7892772,300.33088 64.7685148,286.163561 C64.8389012,285.829037 64.9092875,285.495811 64.9796739,285.161287" id="Fill-128" fill="#4C5D7F"></path>
                <path d="M103.110811,284.181667 C103.174652,283.854067 103.236366,283.535123 103.298788,283.213516 C103.660556,281.349793 104.001043,279.579956 104.323797,277.898011 C106.441202,266.872815 107.869121,259.454546 110.642674,251.210619 C110.744111,250.910319 110.84271,250.610685 110.947694,250.307056 C111.129287,249.782364 110.822849,249.219052 110.263882,249.048594 C109.705625,248.879467 109.105516,249.165784 108.923213,249.690476 C108.808299,250.023403 108.699059,250.351669 108.588401,250.681266 C105.79073,259.015083 104.355008,266.473969 102.2298,277.543777 C101.909175,279.213737 101.571525,280.972255 101.211885,282.821329 C101.147334,283.153589 101.083493,283.482521 101.017523,283.82144 C100.913249,284.357452 101.284948,284.868827 101.850299,284.978027 C101.949607,284.994673 102.007774,285 102.065231,285 C102.568869,285 103.016468,284.663744 103.110811,284.181667" id="Fill-130" fill="#4C5D7F"></path>
                <g id="Group-134" transform="translate(94.000000, 292.000000)">
                    <mask id="mask-8" fill="white">
                        <use xlink:href="#path-7"></use>
                    </mask>
                    <g id="Clip-133"></g>
                    <path d="M7.65286667,1.67033541 C7.75886667,1.1342614 7.40486667,0.614671825 6.86286667,0.509830782 C6.32086667,0.409605383 5.79553333,0.755778638 5.6902,1.29185265 C5.6282,1.6057164 5.5642,1.92155828 5.50153333,2.23542204 C3.91086667,10.2613665 2.17153333,18.4198459 0.2122,27.0346146 L2.26153333,27.0346146 C4.1802,18.5807341 5.88886667,10.5587458 7.4542,2.66863314 C7.51953333,2.33630681 7.58753333,2.00200235 7.65286667,1.67033541" id="Fill-132" fill="#4C5D7F" mask="url(#mask-8)"></path>
                </g>
                <path d="M108.262345,283.867399 C108.185082,284.171774 108.105692,284.486668 108.029138,284.785785 C107.89304,285.316305 108.246751,285.847484 108.818075,285.973047 C108.9003,285.991454 108.983235,286 109.064751,286 C109.546053,286 109.981989,285.694967 110.098238,285.242019 C110.181881,284.915292 110.26836,284.570158 110.35342,284.237514 C112.149618,277.182312 114.147835,268.884626 115.685306,260.013688 C116.080129,257.737117 116.797474,255.538118 117.635322,253.176742 C117.739521,252.8842 117.837341,252.598231 117.945085,252.299115 C118.1308,251.7824 117.830253,251.224268 117.273105,251.051372 C116.71454,250.877819 116.113445,251.158528 115.927729,251.674586 C115.806518,252.012489 115.69523,252.335929 115.578272,252.666601 C114.727665,255.069393 113.997561,257.321641 113.585725,259.700767 C112.053216,268.544093 110.054999,276.829289 108.262345,283.867399" id="Fill-135" fill="#4C5D7F"></path>
                <path d="M107.205526,295.028962 C106.644175,294.898105 106.083519,295.223286 105.947518,295.749989 C105.864252,296.072554 105.783068,296.391193 105.699802,296.713103 C104.039343,303.141497 102.434394,309.456043 101.022344,315.817045 C100.904384,316.348328 101.265203,316.868488 101.827941,316.979063 C101.900105,316.993457 101.971575,317 102.042351,317 C102.523905,317 102.956887,316.68267 103.059581,316.220087 C104.466774,309.879369 106.069641,303.575945 107.728019,297.156712 C107.809203,296.841998 107.888305,296.529902 107.970183,296.214535 C108.106184,295.688486 107.7641,295.157203 107.205526,295.028962" id="Fill-137" fill="#4C5D7F"></path>
                <path d="M131.396227,243.948491 C130.848583,243.948491 130.40478,243.51857 130.404119,242.987265 C130.403457,242.45596 130.84726,242.024115 131.395565,242.023473 C131.754047,242.023473 132.098639,242.02219 132.455137,242.021548 C132.581465,240.111289 132.692581,238.168946 132.717053,236.240079 C138.793384,236.22532 144.941146,236.186178 151.0188,236.141903 C151.00028,235.840317 150.981761,235.537447 150.964564,235.223028 C150.936124,234.692365 151.356778,234.239986 151.90376,234.211752 C152.438175,234.182877 152.917694,234.592264 152.946796,235.122927 C152.964654,235.466222 152.984496,235.799891 153.005,236.127786 C154.914477,236.113028 156.818663,236.098911 158.704991,236.084152 C159.398805,236.078377 160.105186,236.073244 160.802307,236.068111 L160.720293,235.183244 C160.67201,234.653864 161.075467,234.186085 161.621127,234.139243 C162.170755,234.090476 162.648289,234.483179 162.697233,235.012559 L162.793137,236.052069 C170.147964,235.995602 177.646978,235.943626 185.037521,235.926943 C185.747209,237.64855 186.318663,239.286098 186.782308,240.857554 C187.188411,240.834454 187.603112,240.813279 188.001278,240.790179 C188.462277,240.762587 188.863089,241.046848 189,241.452385 C188.422593,239.292515 187.652056,237.013936 186.620925,234.595472 C186.467479,234.234852 186.10569,234 185.704217,234 C176.719687,234.017967 167.553271,234.089834 158.689117,234.159135 C149.840837,234.227794 140.690956,234.299019 131.727591,234.316986 C131.46369,234.317628 131.211033,234.419654 131.025178,234.601247 C130.839985,234.78284 130.736144,235.029243 130.737467,235.284628 L130.737467,235.46558 C130.737467,238.106704 130.550951,240.822262 130.370387,243.447986 C130.188501,246.092319 130,248.827127 130,251.507393 C130,252.027789 130.007275,252.546261 130.022488,253.064732 C130.0377,253.595395 130.491424,254.023391 131.042375,253.999007 C131.590018,253.984891 132.021255,253.540853 132.006042,253.009548 C131.991491,252.510327 131.984216,252.009181 131.984216,251.507393 C131.984216,249.014495 132.153536,246.445238 132.32484,243.946566 C132.013318,243.947207 131.711056,243.948491 131.396227,243.948491" id="Fill-139" fill="#4C5D7F"></path>
                <path d="M137.251575,289.757597 C136.885432,290.17348 136.923447,290.809379 137.336274,291.177637 C137.354281,291.193735 137.370288,291.208493 137.388295,291.224591 C137.757105,291.555956 138.097905,291.871893 138.42003,292.172402 C138.464048,292.21332 138.507398,292.253567 138.551415,292.293813 C138.562086,292.303875 138.573424,292.314607 138.584761,292.324669 C142.168159,295.646368 144.400363,297 158.773302,297 C175.499826,297 182.044379,296.290986 189.794068,288.342924 C189.965468,288.16718 190.066841,287.934419 190.078846,287.688914 C190.564368,277.9492 190.999205,268.41877 190.999205,258.907121 L190.999872,258.317506 C191.001872,253.24172 191.001205,247.660837 189.303877,241 C189.310546,241.038234 189.319883,241.076469 189.322551,241.116045 C189.35523,241.670779 188.935066,242.147032 188.382851,242.180571 C188.111412,242.197341 187.826634,242.212098 187.551193,242.228867 C188.996423,248.255148 189.001092,253.348374 188.999091,258.316835 L188.998424,258.907121 C188.998424,268.247721 188.57626,277.624543 188.100074,287.203941 C180.975295,294.377924 175.000298,294.987662 158.773302,294.987662 C144.383023,294.987662 142.84509,293.553537 139.780561,290.696017 C139.565811,290.496796 139.341056,290.288184 139.108966,290.076217 C138.963576,289.943403 138.818853,289.809918 138.664126,289.672408 C138.251298,289.302809 137.619051,289.342385 137.251575,289.757597" id="Fill-141" fill="#4C5D7F"></path>
                <path d="M161.01458,241.921957 C160.987447,241.615026 160.956342,241.306931 160.927885,241 C158.434885,241.044263 155.855852,241.083285 153.184167,241.1159 C153.224536,241.369249 153.267553,241.617938 153.311894,241.863133 C153.397928,242.340128 153.028644,242.78742 152.487292,242.863133 C152.434348,242.870705 152.382065,242.874199 152.329783,242.874199 C151.85064,242.874199 151.428412,242.567268 151.350982,242.137449 C151.292081,241.811881 151.237814,241.477577 151.18487,241.139196 C145.250512,241.204426 138.880029,241.241701 132.052242,241.251019 C131.696193,241.251602 131.350734,241.252766 130.992038,241.252766 C130.443407,241.253349 129.999339,241.644729 130.000001,242.127548 C130.000663,242.609785 130.445392,243 130.9927,243 C131.307717,243 131.610159,242.998835 131.922529,242.998253 C143.147313,242.98311 153.135855,242.894001 162,242.728014 C161.488429,242.726267 161.05495,242.37915 161.01458,241.921957" id="Fill-143" fill="#4C5D7F"></path>
                <path d="M187.998272,240.949689 C187.996334,240.909302 187.986645,240.871608 187.980185,240.832567 C187.971788,240.786122 187.962099,240.74035 187.948534,240.696598 C187.814822,240.270515 187.422729,239.972998 186.973146,240.001942 C186.584283,240.026174 186.178625,240.048387 185.782657,240.071946 C179.210742,240.462353 171.609826,240.759197 162.849427,240.961805 C162.874619,241.278843 162.901749,241.596554 162.925649,241.914264 C162.96699,242.470258 162.567146,242.954901 162.034235,242.997981 C162.022608,242.999327 162.011627,242.999327 162,243 C171.331421,242.792007 179.383212,242.481701 186.28327,242.065715 C186.549402,242.04956 186.825869,242.034079 187.088772,242.017924 C187.622974,241.984268 188.029924,241.505683 187.998272,240.949689" id="Fill-145" fill="#4C5D7F"></path>
                <path d="M152.44177,234.950681 C152.42061,234.397882 152.072438,233.971419 151.68387,234.001498 C151.285684,234.03091 150.980312,234.502159 151.000991,235.054957 C151.013014,235.382492 151.026479,235.697995 151.039944,236.012161 C151.138048,238.281509 151.269815,240.230676 151.445344,242.00939 C151.483816,242.397753 151.523249,242.780768 151.56605,243.154425 C151.622315,243.648401 151.92913,244 152.277783,244 C152.315293,244 152.353284,243.995989 152.391756,243.987968 C152.785133,243.901071 153.053476,243.387042 152.990959,242.840259 C152.958738,242.558178 152.927961,242.272755 152.898145,241.982653 C152.718288,240.217307 152.584117,238.274825 152.48457,235.996787 C152.469662,235.655883 152.455235,235.308295 152.44177,234.950681" id="Fill-147" fill="#4C5D7F"></path>
                <path d="M162.997739,242.911231 C162.979375,242.592886 162.958528,242.275215 162.939667,241.956869 C162.840399,240.293649 162.732196,238.630429 162.621512,236.967209 L162.558477,236.01487 L162.486507,234.922243 C162.449778,234.365813 162.091419,233.953043 161.678959,234.004302 C161.269477,234.053538 160.966708,234.54522 161.002941,235.10165 L161.064487,236.031731 L161.138442,237.149313 C161.246149,238.765995 161.350877,240.382004 161.44816,241.998686 C161.469502,242.354801 161.49283,242.710917 161.51318,243.066357 C161.543457,243.596484 161.868561,243.997788 162.252234,243.999811 C162.265139,244.000486 162.276058,243.999137 162.286978,243.999137 C162.295415,243.998462 162.30435,243.998462 162.312787,243.997113 C162.722766,243.954622 163.029505,243.468336 162.997739,242.911231" id="Fill-149" fill="#4C5D7F"></path>
                <path d="M115.757531,158.015552 C115.215749,158.111878 114.856777,158.620846 114.955162,159.151292 C115.014326,159.467608 115.072825,159.776764 115.131324,160.089174 C118.410599,177.586092 120.923403,187.45695 122.595281,194.02407 C124.200019,200.326293 125.005711,203.488795 125.005711,207.467468 C125.005711,219.119063 114.539685,227.934886 103.460083,237.268788 C100.896757,239.427672 98.2549897,241.65815 95.7441804,243.927029 C95.6032507,244.053945 95.4583324,244.180862 95.3180675,244.308429 C94.9145564,244.675511 94.8919545,245.293823 95.2675455,245.688241 C95.3646009,245.790425 95.4796048,245.867226 95.6032507,245.919945 C95.6730508,245.949233 95.7461747,245.96941 95.8206282,245.981776 C95.8791273,245.99219 95.9382912,246 95.9974551,246 C96.2407583,246 96.4847263,245.912786 96.6768427,245.737706 C97.1069443,245.345891 97.5483468,244.95603 97.9870903,244.565517 C100.206069,242.591476 102.512796,240.642167 104.761024,238.748831 C116.197604,229.114234 127,220.01529 127,207.467468 C127,203.249281 126.122513,199.804308 124.530406,193.552201 C122.866505,187.016972 120.366996,177.198183 117.10434,159.799543 C117.041853,159.466957 116.98003,159.138926 116.917542,158.800482 C116.819157,158.270686 116.301307,157.920527 115.757531,158.015552" id="Fill-151" fill="#4C5D7F"></path>
                <path d="M175.856361,200.022984 C172.018843,199.304734 168.182635,198.941655 164.440793,198.941655 C155.156961,198.941655 145.786628,201.936562 142.818056,202.976378 C140.927476,201.701978 137.915653,187.708611 135.70528,177.440262 C134.269487,170.76778 132.785856,163.891684 131.220967,157.847176 C131.124636,157.476849 131.029615,157.097955 130.933284,156.734217 C130.793702,156.206402 130.253723,155.892744 129.730128,156.033758 C129.205877,156.174114 128.893292,156.716426 129.033529,157.243582 C129.104958,157.512432 129.175732,157.793802 129.246506,158.067264 C130.827778,164.13747 132.330413,171.102524 133.783899,177.857375 C138.02378,197.556551 139.903876,205 142.852133,205 C143.021859,205 143.129986,204.961781 143.266946,204.913019 C145.147042,204.246166 155.005584,200.918491 164.440793,200.918491 C168.31894,200.918491 172.305215,201.322425 176.287557,202.11909 C176.754141,202.212001 177.22269,201.955013 177.395693,201.50693 C181.25287,191.510726 186.395118,173.375228 190,157.099273 C189.412839,156.980004 188.771942,156.852828 188.070756,156.718403 C184.576622,172.483015 179.642109,189.975383 175.856361,200.022984" id="Fill-153" fill="#4C5D7F"></path>
                <path d="M142.74941,153.661053 C142.225896,153.787239 141.902435,154.321715 142.026493,154.85487 C142.094043,155.14358 142.177182,155.415112 142.250578,155.697215 C144.858404,165.637546 151.401029,170.897742 161.24322,170.897742 C165.484592,170.897742 171.353663,169.84927 179.149214,161.671588 C181.095179,159.6308 182.206509,157.263646 183.004121,155.11451 C184.437614,155.376794 185.68924,155.611329 186.792127,155.826044 C187.487764,155.960819 188.122996,156.088327 188.704317,156.207907 C194.267464,157.359442 194.914387,157.897222 196.469989,159.196084 C196.64601,159.342752 196.833721,159.499989 197.03832,159.666476 C197.128604,159.435244 197.217588,159.197406 197.30917,158.969477 C197.511171,158.462088 198.080152,158.217643 198.577685,158.42377 C199.076517,158.629897 199.31684,159.207976 199.114189,159.714705 C198.960253,160.101192 198.808265,160.500893 198.655627,160.894648 C199.537027,161.517653 200.67239,162.250328 202.221497,163.130991 C207.307896,166.022051 210.711386,167.268722 212.963925,168.093229 C215.495108,169.019478 216.325196,169.37029 216.954581,170.572035 C217.714521,172.024832 218.1497,174.720997 219.01681,180.092845 C220.213228,187.50548 222.215701,199.910083 227.076066,221.232971 C227.180639,221.69081 227.581394,222 228.024367,222 C228.097113,222 228.171159,221.992072 228.245204,221.974234 C228.770017,221.85069 229.096077,221.318196 228.974616,220.785041 C224.127891,199.525577 222.131913,187.159954 220.939392,179.771763 C219.146065,168.658095 219.075917,168.224701 213.623838,166.228178 C211.431705,165.426134 208.118498,164.212496 203.172396,161.400716 C200.065737,159.634764 198.702393,158.495782 197.706028,157.664008 C195.269025,155.629167 194.434391,155.177273 182.541662,153.016246 C182.06946,152.928378 181.611548,153.204535 181.452415,153.661053 C180.703518,155.804903 179.677924,158.269835 177.750795,160.292124 C170.506039,167.891066 165.340398,168.915754 161.24322,168.915754 C152.361671,168.915754 146.643288,164.392196 144.212781,155.492409 C144.114053,155.130366 144.01078,154.773608 143.922445,154.395709 C143.798386,153.864537 143.275522,153.534866 142.74941,153.661053" id="Fill-155" fill="#4C5D7F"></path>
                <path d="M256.638552,216.221935 C256.900047,217.067415 257.158274,217.914865 257.415847,218.761659 C258.247402,221.492551 259.107721,224.317386 260.096827,227.077184 C260.279874,227.589596 260.843396,227.854999 261.351351,227.671056 C261.860613,227.486457 262.125377,226.92149 261.941677,226.409735 C260.968914,223.694609 260.115786,220.893424 259.291422,218.184867 C258.936442,217.019458 258.581462,215.852736 258.216022,214.689298 C258.053895,214.172288 257.50737,213.883235 256.991571,214.044842 C246.245421,217.37749 228.285269,225.256151 215.119634,231.744731 C215.08041,232.502181 215.040532,233.251747 215,234 C227.801503,227.642808 245.622408,219.767431 256.638552,216.221935" id="Fill-157" fill="#4C5D7F"></path>
                <path d="M199.846665,159.072208 C199.344629,158.868728 198.769845,159.110034 198.566016,159.610908 C198.47426,159.83591 198.38447,160.070694 198.292714,160.298957 C194.005751,170.998612 190.31389,184.691118 187.017235,202.136916 C186.972668,202.371048 187.015269,202.612355 187.136517,202.815834 C192.761149,212.286783 200.420139,219.786194 207.177299,226.402554 C209.444979,228.623876 211.586822,230.720633 213.530735,232.771737 C213.625767,232.872173 213.739151,232.948478 213.861055,233 C213.908244,232.149558 213.954122,231.294551 214,230.431718 C212.295963,228.674746 210.473955,226.885818 208.556258,225.008194 C201.960981,218.550314 194.495334,211.239383 189.018167,202.136264 C192.223067,185.251992 195.797611,171.946881 199.925313,161.511359 C200.078676,161.12266 200.232039,160.728091 200.388024,160.346566 C200.592508,159.846345 200.350011,159.275688 199.846665,159.072208" id="Fill-159" fill="#4C5D7F"></path>
                <path d="M211.378694,264.998267 C210.608675,275.909335 210,284.527468 210,290.038428 C210,300.962032 211.464111,310.228125 214.476485,318.366556 C214.621377,318.759819 214.980761,319 215.361658,319 C215.475547,319 215.590702,318.978885 215.703326,318.933356 C216.192418,318.736725 216.436014,318.163326 216.246831,317.653932 C213.320508,309.746444 211.898156,300.713933 211.898156,290.038428 C211.898156,284.60005 212.504301,276.014249 213.271788,265.144091 C213.765309,258.147838 214.325265,250.206698 214.835869,241.530499 C214.671362,241.614298 214.502426,241.699417 214.342981,241.781237 C214.207579,241.85118 214.064585,241.884172 213.923489,241.884172 C213.573595,241.884172 213.236989,241.681602 213.071849,241.331888 C212.839641,240.842289 213.032621,240.248435 213.502731,240.006275 C213.967146,239.768074 214.460034,239.518656 214.966842,239.265278 C215.069342,237.463263 215.169312,235.630895 215.266118,233.770154 C215.305346,233.01794 215.343942,232.265726 215.381905,231.504273 C215.584375,227.42714 215.769762,223.221998 215.926043,218.901384 C215.988682,217.17459 216.23481,215.398968 216.472712,213.682072 C216.682142,212.173024 216.898532,210.613829 216.997869,209.056613 C217.032668,208.511588 216.637219,208.039804 216.113961,208.002854 C215.59956,207.961284 215.138308,208.378961 215.104142,208.925306 C215.009234,210.40664 214.797906,211.927565 214.59417,213.398342 C214.348675,215.166706 214.095588,216.995774 214.029153,218.826162 C213.868442,223.271485 213.677361,227.596718 213.467298,231.784704 C213.423641,232.657669 213.378718,233.522715 213.333162,234.383803 C212.732079,245.816801 212.001922,256.161068 211.378694,264.998267" id="Fill-161" fill="#4C5D7F"></path>
                <path d="M213.103057,240.44794 C213.276101,240.797512 213.628819,241 213.99546,241 C214.14331,241 214.293149,240.967022 214.435032,240.897767 C214.602109,240.81598 214.779131,240.730236 214.951512,240.646471 C219.889564,238.247617 227.079841,235.095535 234.684495,231.762071 C241.162042,228.923285 247.84711,225.993478 253.567507,223.34069 C253.698781,223.672453 253.834034,224.001578 253.966635,224.325427 C254.381012,225.336547 254.772185,226.290943 255.045342,227.287553 C255.189877,227.815208 255.736855,228.123887 256.266595,227.982739 C256.796335,227.838293 257.109273,227.294808 256.964738,226.767812 C256.659756,225.654459 256.226815,224.599808 255.80846,223.578135 C255.538617,222.920544 255.284023,222.297251 255.061254,221.664064 C254.968434,221.398917 254.767544,221.185877 254.507646,221.077048 C254.247749,220.968878 253.954038,220.974814 253.698781,221.093537 C247.793406,223.855154 240.721807,226.95447 233.882923,229.951553 C226.761599,233.072636 220.003601,236.035421 215.088753,238.382169 C214.557687,238.635444 214.041207,238.884761 213.555226,239.122866 C213.061951,239.364928 212.859735,239.95854 213.103057,240.44794" id="Fill-163" fill="#4C5D7F"></path>
                <path d="M273.905077,265.628603 C273.697971,265.690518 273.488184,265.752434 273.283089,265.813019 C269.731452,266.874244 266.366144,267.880212 262.9003,267.992726 C259.998802,259.526222 256.979342,250.963849 254.055726,242.676436 L252.144854,237.255796 C255.630136,233.287185 260.218643,230.705358 264.897634,230.072883 C269.510941,240.046008 273.301855,251.126961 276.777084,264.803723 C275.819972,265.061373 274.870232,265.340993 273.932557,265.620613 C274.458701,265.470151 275.011654,265.76575 275.171843,266.288373 L275.467422,267.252398 C276.391022,266.982098 277.319983,266.718456 278.240902,266.486105 C278.77777,266.351621 279.103509,265.810356 278.97013,265.27708 C275.320638,250.730166 271.331331,239.068002 266.416413,228.57758 C266.237457,228.194101 265.840671,227.965079 265.411043,228.004359 C259.799739,228.526317 254.266854,231.589491 250.23264,236.404952 C250.006767,236.675917 249.939742,237.042752 250.056365,237.374302 L252.158258,243.336872 C255.158952,251.843987 258.262194,260.641375 261.231386,269.322254 C261.368786,269.723043 261.744795,269.994674 262.171071,270 L262.262225,270 C266.13692,270 269.897673,268.909481 273.539793,267.821625 L273.248236,266.869584 C273.088047,266.346295 273.382285,265.794377 273.905077,265.628603" id="Fill-165" fill="#4C5D7F"></path>
                <path d="M276.372256,292.312814 C276.877724,292.129338 277.439139,292.385427 277.625194,292.890472 C277.727328,293.166658 277.821006,293.446734 277.917285,293.725514 C279.483133,292.975402 281.002792,292.25252 282.443085,291.570482 C282.894559,291.357184 283.110538,290.837876 282.944,290.36784 C280.207182,282.67093 277.784576,274.729601 275.441334,267.049546 L275.312528,266.627487 L275.026291,265.688713 C274.870161,265.17913 274.334117,264.891273 273.822794,265.038443 C273.288701,265.207008 273.003115,265.745117 273.159244,266.2547 L273.441578,267.181156 L273.574288,267.615534 C275.840115,275.042093 278.179453,282.711774 280.811533,290.190199 C275.896712,292.520278 270.199292,295.257505 264.529845,298.162648 C264.050398,298.408363 263.861742,298.995097 264.108296,299.472264 C264.281339,299.808096 264.622872,300 264.976765,300 C265.12704,300 265.279266,299.966287 265.422385,299.892378 C269.056295,298.029741 272.701915,296.237772 276.14782,294.575467 C276.032674,294.236394 275.917529,293.896671 275.793276,293.561488 C275.607222,293.057091 275.866787,292.498235 276.372256,292.312814" id="Fill-167" fill="#4C5D7F"></path>
                <path d="M259.651834,293.235038 C264.488784,290.568749 269.490139,287.811483 274.461026,285.358342 C274.918695,285.132198 275.122456,284.579185 274.924408,284.100254 C274.29662,282.580281 273.883385,280.977128 273.446028,279.2778 C272.862674,277.011812 272.259007,274.669143 271.096743,272.50583 C270.842835,272.033397 270.263924,271.86119 269.803716,272.121125 C269.342873,272.380411 269.174658,272.973064 269.427932,273.444847 C270.477207,275.397613 271.025014,277.524535 271.605194,279.775577 C271.964474,281.17273 272.334545,282.610173 272.837283,283.997579 C268.09301,286.367541 263.346832,288.984442 258.74919,291.518164 C257.835121,292.022439 256.917243,292.526714 256,293.030988 C256.12378,293.733464 256.276125,294.380704 256.44307,295 C257.514562,294.412546 258.584785,293.823142 259.651834,293.235038" id="Fill-169" fill="#4C5D7F"></path>
                <path d="M234.727147,293.509343 C234.765235,293.310236 234.863573,293.136266 235,293 C231.072715,296.364974 229,299.860923 229,303.170994 C229,305.947247 229.753463,308.878948 230.481994,311.714735 C230.884349,313.281793 231.264543,314.761535 231.510388,316.170498 C231.595568,316.656028 232.035319,317 232.533934,317 C232.59072,317 232.648199,316.99537 232.706371,316.986109 C233.271468,316.896147 233.654432,316.384819 233.559557,315.845047 C233.301247,314.360675 232.894044,312.775757 232.5,311.242434 C231.800554,308.521085 231.077562,305.707128 231.077562,303.170994 C231.077562,300.926575 232.374654,298.576319 234.470914,296.339176 C234.470914,296.321316 234.469529,296.303456 234.469529,296.284935 C234.469529,295.331073 234.554017,294.423516 234.727147,293.509343" id="Fill-171" fill="#4C5D7F"></path>
                <path d="M264.051186,302.056886 C259.663669,301.975275 256.93565,299.663617 255.588074,294.754663 C255.418579,294.136753 255.263908,293.491639 255.137593,292.79147 C254.874651,291.3296 254.704512,289.685078 254.62331,287.848835 C254.567886,286.596822 253.920843,285.423181 252.892922,284.711354 C251.865,283.998231 250.544492,283.807158 249.358677,284.202258 C244.576747,285.789782 239.734883,288.418815 236.074323,291.415097 C235.699244,291.722757 235.344789,292.031065 235,292.341315 C235.215896,292.137288 235.520083,292.033008 235.832649,292.090653 C236.357887,292.186514 236.706543,292.691723 236.611162,293.219603 C236.589895,293.338133 236.581517,293.457958 236.563472,293.57584 C238.431131,291.934557 240.667424,290.405326 243.054522,289.08919 C243.145391,288.449258 243.247217,287.803496 243.370954,287.146723 C243.470201,286.620139 243.974817,286.27297 244.500701,286.373364 C245.025295,286.473111 245.370084,286.981559 245.270192,287.50879 C245.239902,287.670717 245.214768,287.830052 245.187056,287.99133 C246.763417,287.232868 248.375223,286.5748 249.965118,286.046273 C250.578004,285.843542 251.262426,285.940697 251.794754,286.310537 C252.327726,286.679728 252.662848,287.286628 252.691849,287.93498 C252.86521,291.860071 253.393671,303.801802 264.015096,304 C264.576425,303.992228 264.990171,303.582878 264.999838,303.045931 C265.009505,302.509631 264.584803,302.067249 264.051186,302.056886" id="Fill-173" fill="#4C5D7F"></path>
                <path d="M235.401135,292.015175 C235.080649,291.959863 234.767446,292.059302 234.545622,292.255694 C234.533041,292.266259 234.519135,292.276203 234.507216,292.28739 C234.37677,292.415418 234.282743,292.578871 234.246324,292.76594 C234.080784,293.624845 234,294.477535 234,295.373729 C234,295.391131 234.001324,295.407911 234.001324,295.424691 C234.00927,298.098358 234.607203,300.684395 235.187919,303.186529 C235.509068,304.570596 235.812338,305.878841 236.02423,307.205731 C236.098392,307.668744 236.522176,308 237.005554,308 C237.054554,308 237.104216,307.996893 237.153878,307.989435 C237.696189,307.912991 238.070311,307.438169 237.988865,306.929166 C237.767041,305.541991 237.442581,304.143009 237.128716,302.789395 C236.567203,300.368054 235.986487,297.865298 235.986487,295.373729 C235.986487,294.709352 236.04873,294.074185 236.152027,293.440261 C236.170568,293.326528 236.179176,293.212173 236.201027,293.098439 C236.299027,292.591922 235.940797,292.106535 235.401135,292.015175" id="Fill-175" fill="#4C5D7F"></path>
                <path d="M244.794048,286.017149 C244.276081,285.917567 243.779061,286.261927 243.681307,286.784249 C243.559433,287.435707 243.45914,288.076242 243.369638,288.710996 C242.524133,294.719309 243.129063,300.006136 245.185063,304.445555 C245.347562,304.795054 245.690335,305 246.048341,305 C246.183546,305 246.320655,304.971089 246.451416,304.90877 C246.927489,304.683266 247.133153,304.108904 246.909716,303.627057 C244.862603,299.206912 244.382087,293.823073 245.469437,287.622021 C245.497367,287.462048 245.522122,287.304002 245.551956,287.143386 C245.650345,286.619779 245.310746,286.116088 244.794048,286.017149" id="Fill-177" fill="#4C5D7F"></path>
                <path d="M279.889896,303.584023 C279.155093,300.2296 278.39124,296.770713 277.216743,293.454744 C277.119033,293.179802 277.023965,292.902937 276.919653,292.629276 C276.730835,292.130663 276.161742,291.876871 275.648766,292.058884 C275.13513,292.242178 274.87237,292.794626 275.061188,293.292598 C275.186626,293.62458 275.304141,293.959766 275.420997,294.295593 C276.51495,297.440444 277.246452,300.760899 277.952867,303.983939 C278.779438,307.758785 279.634398,311.66181 281.083539,315.378336 C281.233405,315.763511 281.609719,316 282.009801,316 C282.125996,316 282.244172,315.980132 282.359707,315.937834 C282.871363,315.749412 283.129501,315.195041 282.935402,314.698992 C281.540398,311.118335 280.701283,307.288371 279.889896,303.584023" id="Fill-179" fill="#4C5D7F"></path>
            </g>
        </g>
    </g>
</svg>