<?xml version="1.0" encoding="UTF-8"?>
<svg width="62px" height="51px" viewBox="0 0 62 51" version="1.1" xmlns="http://www.w3.org/2000/svg" xmlns:xlink="http://www.w3.org/1999/xlink">
    <!-- Generator: Sketch 49.1 (51147) - http://www.bohemiancoding.com/sketch -->
    <title>Card Lock</title>
    <desc>Created with Sketch.</desc>
    <defs></defs>
    <g id="Symbols" stroke="none" stroke-width="1" fill="none" fill-rule="evenodd">
        <g id="Card-Lock" fill="#4B6584">
            <path d="M0.632653061,10.7037037 L0.632653061,3.13555556 C0.632653061,1.70692593 1.63983673,0.62962963 2.97536735,0.62962963 L58.9898367,0.62962963 C60.3456122,0.62962963 61.3673469,1.70692593 61.3673469,3.13555556 L61.3673469,10.7037037 L0.632653061,10.7037037 Z M61.3673469,18.2592593 L0.632653061,18.2592593 L0.632653061,11.3333333 L61.3673469,11.3333333 L61.3673469,18.2592593 Z M61.3673469,39.2001111 C61.3673469,40.947963 60.7346939,41.4063333 60.1020408,41.5196667 L60.1020408,32.1898148 C60.1020408,30.5011481 58.4501837,28.962963 56.6357347,28.962963 L54.4081633,28.962963 L54.4081633,28.8225556 C54.4081633,23.8251852 50.2560612,19.7596667 45.2346939,19.7596667 C40.2133265,19.7596667 36.0612245,23.8251852 36.0612245,28.8225556 L36.0612245,28.962963 L33.5818571,28.962963 C31.8395306,28.962963 30.3673469,30.4407037 30.3673469,32.1898148 L30.3673469,41.5555556 L2.97536735,41.5555556 C1.59555102,41.5555556 0.632653061,40.5871852 0.632653061,39.2001111 L0.632653061,18.8888889 L61.3673469,18.8888889 L61.3673469,39.2001111 Z M53.7755102,28.962963 L36.6938776,28.962963 L36.6938776,28.8225556 C36.6938776,24.1727407 40.562551,20.3892963 45.2346939,20.3892963 C49.9068367,20.3892963 53.7755102,24.1727407 53.7755102,28.8225556 L53.7755102,28.962963 Z M59.4693878,47.6352593 C59.4693878,48.9902222 58.0395918,50.3703704 56.6357347,50.3703704 L33.5818571,50.3703704 C32.2305102,50.3703704 31,49.067037 31,47.6352593 L31,42.1851852 L31,41.5555556 L31,32.1898148 C31,30.8065185 32.2064694,29.5925926 33.5818571,29.5925926 L56.6357347,29.5925926 C58.092102,29.5925926 59.4693878,30.855 59.4693878,32.1898148 L59.4693878,41.5555556 L59.4693878,42.1851852 L59.4693878,47.6352593 Z M58.9898367,0 L2.97536735,0 C1.27859184,0 0,1.34803704 0,3.13555556 L0,10.7037037 L0,11.3333333 L0,18.2592593 L0,18.8888889 L0,39.2001111 C0,40.9297037 1.25138776,42.1851852 2.97536735,42.1851852 L30.3673469,42.1851852 L30.3673469,47.6352593 C30.3673469,49.4278148 31.8692653,51 33.5818571,51 L56.6357347,51 C58.3850204,51 60.1020408,49.3333704 60.1020408,47.6352593 L60.1020408,42.1474074 C61.3584898,41.9685926 62,41.0197407 62,39.2001111 L62,18.8888889 L62,18.2592593 L62,11.3333333 L62,10.7037037 L62,3.13555556 C62,1.377 60.6777551,0 58.9898367,0 L58.9898367,0 Z M46.9324816,39.2003 L46.8160735,39.2947444 L46.8160735,42.4901148 C46.8160735,42.6720778 46.3763796,42.8150037 45.8152163,42.8150037 L44.8738286,42.8150037 C44.3955429,42.8150037 44.2854612,42.7211889 44.2854612,42.3144481 L44.2854612,39.2519296 L44.1013592,39.1675593 C43.5148898,38.8980778 42.6658694,37.9794481 42.6658694,37.0230407 C42.6658694,35.6025963 43.8388082,34.4478556 45.2818898,34.4478556 C46.7350939,34.4478556 47.9624408,35.6271519 47.9624408,37.0230407 C47.9624408,38.0109296 47.4303796,38.7954481 46.9324816,39.2003 M45.2818898,33.8182259 C43.490849,33.8182259 42.0332163,35.2556704 42.0332163,37.0230407 C42.0332163,38.2061148 42.9410735,39.2261148 43.6528082,39.6429296 L43.6528082,42.3144481 C43.6528082,43.4446333 44.5720531,43.4446333 44.8738286,43.4446333 L45.8152163,43.4446333 C46.838849,43.4446333 47.4487265,43.0876333 47.4487265,42.4901148 L47.4487265,39.5887815 C48.1591959,38.9509667 48.5950939,37.9825963 48.5950939,37.0230407 C48.5950939,35.2858926 47.0773592,33.8182259 45.2818898,33.8182259 M28.4693878,35.2592593 L18.3469388,35.2592593 L18.3469388,35.8888889 L28.4693878,35.8888889 L28.4693878,35.2592593 Z M13.9183673,35.2592593 L4.42857143,35.2592593 L4.42857143,35.8888889 L13.9183673,35.8888889 L13.9183673,35.2592593 Z"></path>
        </g>
    </g>
</svg>