<?xml version="1.0" encoding="UTF-8"?>
<svg width="20px" height="24px" viewBox="0 0 20 24" version="1.1" xmlns="http://www.w3.org/2000/svg" xmlns:xlink="http://www.w3.org/1999/xlink">
    <!-- Generator: Sketch 49.1 (51147) - http://www.bohemiancoding.com/sketch -->
    <title>shop</title>
    <desc>Created with Sketch.</desc>
    <defs></defs>
    <g id="shop" stroke="none" stroke-width="1" fill="none" fill-rule="evenodd">
        <g id="Group" transform="translate(0.400000, 0.000000)" stroke="#4B6584" stroke-width="0.6">
            <path d="M2.01384151,5.1 C1.90929649,5.1 1.82239017,5.1805176 1.81442311,5.2847586 L0.629045221,20.7942412 C0.623812761,20.8627027 0.621193675,20.9313388 0.621193675,21 C0.621193675,22.4911688 1.83002485,23.7 3.32119367,23.7 L15.8788063,23.7 C15.9474675,23.7 16.0161037,23.6973809 16.0845652,23.6921485 C17.5713977,23.578511 18.6845923,22.2810737 18.5709548,20.7942412 L17.3855769,5.2847586 C17.3776098,5.1805176 17.2907035,5.1 17.1861585,5.1 L2.01384151,5.1 Z" id="Rectangle"></path>
            <path d="M5.41994578,7.23133696 L5.41994578,4.69352456 C5.41994578,2.38151276 7.29420166,0.507256889 9.60621345,0.507256889 L9.60621345,0.507256889 C11.9182252,0.507256889 13.7924811,2.38151276 13.7924811,4.69352456 L13.7924811,7.23133696" id="Path-2" stroke-linecap="round"></path>
        </g>
    </g>
</svg>