<?xml version="1.0" encoding="UTF-8"?>
<svg width="24px" height="24px" viewBox="0 0 24 24" version="1.1" xmlns="http://www.w3.org/2000/svg" xmlns:xlink="http://www.w3.org/1999/xlink">
    <!-- Generator: Sketch 49.1 (51147) - http://www.bohemiancoding.com/sketch -->
    <title>Combined Shape</title>
    <desc>Created with Sketch.</desc>
    <defs></defs>
    <g id="Combined-Shape" stroke="none" stroke-width="1" fill="none" fill-rule="evenodd">
        <path d="M24.06,2.5 C24.3032,2.5 24.5,2.71280691 24.5,2.97514398 C24.5,3.23748105 24.3032,3.45 24.06,3.45 L0.94,3.45 C0.6968,3.45 0.5,3.23776902 0.5,2.97514398 C0.5,2.71251895 0.6968,2.5 0.94,2.5 L24.06,2.5 Z M24.0776,8.51666667 C24.311072,8.51666667 24.5,8.72947358 24.5,8.99181065 C24.5,9.25414772 24.311072,9.46666667 24.0776,9.46666667 L7.6424,9.46666667 C7.408928,9.46666667 7.22,9.25414772 7.22,8.99181065 C7.22,8.72947358 7.408928,8.51666667 7.6424,8.51666667 L24.0776,8.51666667 Z M24.06,14.5333333 C24.3032,14.5333333 24.5,14.7457879 24.5,15.0083333 C24.5,15.2705909 24.3032,15.4833333 24.06,15.4833333 L0.94,15.4833333 C0.6968,15.4833333 0.5,15.2705909 0.5,15.0083333 C0.5,14.7457879 0.6968,14.5333333 0.94,14.5333333 L24.06,14.5333333 Z M24.0776,20.55 C24.311072,20.55 24.5,20.7623902 24.5,21.0248561 C24.5,21.287322 24.311072,21.5 24.0776,21.5 L7.6424,21.5 C7.408928,21.5 7.22,21.287322 7.22,21.0248561 C7.22,20.7623902 7.408928,20.55 7.6424,20.55 L24.0776,20.55 Z" fill="#fa8231" fill-rule="nonzero" transform="translate(12.500000, 12.000000) rotate(-270.000000) translate(-12.500000, -12.000000) "></path>
    </g>
</svg>
