<?xml version="1.0" encoding="UTF-8"?>
<svg width="21px" height="26px" viewBox="0 0 21 26" version="1.1" xmlns="http://www.w3.org/2000/svg" xmlns:xlink="http://www.w3.org/1999/xlink">
    <!-- Generator: Sketch 49.1 (51147) - http://www.bohemiancoding.com/sketch -->
    <title>Combined Shape Copy 2</title>
    <desc>Created with Sketch.</desc>
    <defs></defs>
    <g id="Style-guide" stroke="none" stroke-width="1" fill="none" fill-rule="evenodd">
        <g transform="translate(-1381.000000, -1841.000000)" fill="#4B6584" fill-rule="nonzero" id="Combined-Shape-Copy-2" stroke="#4B6584" stroke-width="2">
            <path d="M1403.06,1844.5 C1403.3032,1844.5 1403.5,1844.71281 1403.5,1844.97514 C1403.5,1845.23748 1403.3032,1845.45 1403.06,1845.45 L1379.94,1845.45 C1379.6968,1845.45 1379.5,1845.23777 1379.5,1844.97514 C1379.5,1844.71252 1379.6968,1844.5 1379.94,1844.5 L1403.06,1844.5 Z M1403.0776,1850.51667 C1403.31107,1850.51667 1403.5,1850.72947 1403.5,1850.99181 C1403.5,1851.25415 1403.31107,1851.46667 1403.0776,1851.46667 L1386.6424,1851.46667 C1386.40893,1851.46667 1386.22,1851.25415 1386.22,1850.99181 C1386.22,1850.72947 1386.40893,1850.51667 1386.6424,1850.51667 L1403.0776,1850.51667 Z M1403.06,1856.53333 C1403.3032,1856.53333 1403.5,1856.74579 1403.5,1857.00833 C1403.5,1857.27059 1403.3032,1857.48333 1403.06,1857.48333 L1379.94,1857.48333 C1379.6968,1857.48333 1379.5,1857.27059 1379.5,1857.00833 C1379.5,1856.74579 1379.6968,1856.53333 1379.94,1856.53333 L1403.06,1856.53333 Z M1403.0776,1862.55 C1403.31107,1862.55 1403.5,1862.76239 1403.5,1863.02486 C1403.5,1863.28732 1403.31107,1863.5 1403.0776,1863.5 L1386.6424,1863.5 C1386.40893,1863.5 1386.22,1863.28732 1386.22,1863.02486 C1386.22,1862.76239 1386.40893,1862.55 1386.6424,1862.55 L1403.0776,1862.55 Z" transform="translate(1391.500000, 1854.000000) rotate(-270.000000) translate(-1391.500000, -1854.000000) "></path>
        </g>
    </g>
</svg>