<?xml version="1.0" encoding="UTF-8"?>
<svg width="175px" height="240px" viewBox="0 0 175 240" version="1.1" xmlns="http://www.w3.org/2000/svg" xmlns:xlink="http://www.w3.org/1999/xlink">
    <!-- Generator: Sketch 49.1 (51147) - http://www.bohemiancoding.com/sketch -->
    <title>Group</title>
    <desc>Created with Sketch.</desc>
    <defs>
        <polygon id="path-1" points="0.000185473284 0.994 81.0969982 0.994 81.0969982 43.5726496 0.000185473284 43.5726496"></polygon>
        <polygon id="path-3" points="0.554828172 0.0687771077 162.379 0.0687771077 162.379 145.755645 0.554828172 145.755645"></polygon>
    </defs>
    <g id="1920" stroke="none" stroke-width="1" fill="none" fill-rule="evenodd">
        <g id="delivery-information" transform="translate(-1169.000000, -253.000000)">
            <g id="Group" transform="translate(1169.000000, 252.000000)">
                <g id="Group-3" transform="translate(0.000000, 0.006000)">
                    <mask id="mask-2" fill="white">
                        <use xlink:href="#path-1"></use>
                    </mask>
                    <g id="Clip-2"></g>
                    <path d="M1.4525,33.3356 C6.4225,34.5296 11.9305,34.5266 17.0155,34.6176 C17.7165,34.6296 18.4755,34.6516 19.2645,34.6706 C17.1295,37.3036 15.3415,40.2786 15.8265,42.9396 C15.8935,43.3086 16.3045,43.5716 16.6595,43.5726 C21.0385,43.5926 25.5715,37.5616 28.6135,34.8096 C29.1485,34.3246 29.6865,33.8536 30.2225,33.3736 C30.7905,33.1256 31.3255,32.8346 31.8125,32.4896 C32.3675,32.0966 32.7715,31.5286 33.0375,30.8936 C36.3365,28.0326 39.7025,25.2826 43.3105,22.7446 C53.8405,15.3376 65.5445,10.1766 78.3385,8.3826 C83.1725,7.7046 81.1155,0.3636 76.3135,1.0376 C62.7165,2.9436 49.9215,8.6386 38.8105,16.6286 C34.7675,19.5356 30.7965,22.7516 27.1625,26.2396 C23.3265,26.9866 19.5785,28.1086 15.5805,28.4446 C10.9055,28.8366 6.0635,28.5496 1.4525,29.4176 C-0.5405,29.7936 -0.4265,32.8836 1.4525,33.3356" id="Fill-1" fill="#E1E0E7" mask="url(#mask-2)"></path>
                </g>
                <path d="M76.8837,171.2811 C80.6177,170.6181 79.6277,165.0761 76.3697,164.7181 C76.7177,164.8421 76.4937,165.1181 76.2917,164.7141 C75.9207,164.6821 75.5277,164.7001 75.1017,164.8171 C75.6967,164.6531 76.0637,164.6461 76.2817,164.6921 C76.0297,164.0901 74.8687,163.3331 74.4507,162.9021 C72.7797,161.1791 71.2477,159.3191 69.7317,157.4621 C65.3127,152.0501 61.4287,146.2711 57.4597,140.5271 C53.7757,135.1951 50.0187,129.9331 45.9877,124.8571 C43.6127,121.8691 41.0427,118.1001 37.6587,116.1461 C36.9117,115.7141 36.3077,116.8031 36.9927,117.2861 C41.0227,120.1231 43.7577,125.6921 46.3247,129.7551 C50.3117,136.0631 54.2647,142.3921 58.2637,148.6931 C61.7167,154.1341 64.8677,159.8011 68.5177,165.1121 C70.4557,167.9311 72.9077,171.9871 76.8837,171.2811" id="Fill-4" fill="#E1E0E7"></path>
                <path d="M61.433,211.4813 C66.097,212.3123 71.019,211.5793 75.73,211.3633 C80.122,211.1623 85.163,211.2343 89.043,208.9873 C92.061,207.2393 90.616,202.7993 87.326,202.6473 C82.709,202.4333 77.735,203.8073 73.12,204.3133 C68.918,204.7723 64.527,204.9463 60.884,207.2833 C60.91,207.3023 60.934,207.3223 60.96,207.3403 C59.429,208.3483 59.187,211.0813 61.433,211.4813" id="Fill-6" fill="#E1E0E7"></path>
                <path d="M101.0101,208.6561 C108.7971,207.2621 116.1731,208.1671 123.9921,208.3281 C127.7811,208.4061 127.7911,202.4061 123.9921,202.4371 C116.0591,202.5021 107.1061,202.2691 99.9931,206.2431 C98.6141,207.0121 99.6021,208.9081 101.0101,208.6561" id="Fill-8" fill="#E1E0E7"></path>
                <path d="M136.139,213.7723 C134.414,205.2893 130.294,197.0863 132.06,188.2513 C132.218,187.4633 131.045,186.8283 130.668,187.6653 C126.67,196.5393 129.582,204.7723 130.427,213.9673 C130.635,216.2303 130.623,218.7973 130.688,221.4113 C129.811,220.5133 128.502,219.9893 126.953,220.2793 C116.269,222.2763 105.539,222.8673 94.641,223.2813 C84.288,223.6753 71.43,224.1873 62.454,229.8913 C60.886,230.8883 61.87,233.7673 63.785,233.0473 C75.107,228.7913 87.033,230.5853 98.817,230.6423 C104.09,230.6683 109.388,230.5883 114.654,230.3343 C119.481,230.0993 125.769,230.1303 129.966,227.4253 C130.39,227.1523 130.725,226.8363 131,226.5013 C131.114,227.5093 131.271,228.4983 131.486,229.4543 C130.75,229.1543 129.878,229.0983 128.899,229.4163 C117.427,233.1393 105.484,234.1243 93.484,234.2933 C87.814,234.3723 82.148,234.2623 76.478,234.3843 C71.148,234.5013 64.794,233.8923 59.777,235.9323 C59.006,236.2463 59.014,237.1833 59.777,237.5003 C64.767,239.5703 71.159,239.3493 76.478,239.8563 C82.735,240.4523 88.996,240.8003 95.28,240.9473 C107.321,241.2283 119.431,240.5743 131.086,237.3483 C132.579,236.9353 133.439,235.9463 133.788,234.7933 C136.677,238.0013 142.034,234.3213 140.079,230.0503 C137.722,224.8983 137.262,219.2923 136.139,213.7723" id="Fill-10" fill="#E1E0E7"></path>
                <g id="Group-14" transform="translate(12.000000, 25.006000)">
                    <mask id="mask-4" fill="white">
                        <use xlink:href="#path-3"></use>
                    </mask>
                    <g id="Clip-13"></g>
                    <path d="M119.9012,100.2008 C113.7802,107.0768 107.4572,113.7688 101.0892,120.4168 C96.4222,125.2908 91.4072,130.0378 86.8312,135.0888 C88.6702,130.5738 90.5172,126.0708 92.6872,121.6678 C96.0532,114.8388 99.6202,108.1138 102.9322,101.2568 C105.9562,94.9988 108.6672,88.6608 111.1532,82.1718 C113.1722,76.9058 115.5422,71.6228 117.4752,66.2558 C124.2712,60.8838 134.7892,58.3528 143.6732,58.0008 C145.7372,59.1328 147.9542,60.1628 150.1902,60.8608 C141.4392,74.9318 130.9112,87.8318 119.9012,100.2008 M80.5992,133.4718 C80.5672,133.4008 80.5332,133.3308 80.5022,133.2598 C79.6102,112.2138 75.1332,89.2268 82.7272,69.2458 C82.8202,68.9998 82.7532,68.7838 82.6172,68.6158 C91.1072,62.9998 100.7272,61.5468 109.9912,68.0368 C110.5752,68.4458 111.2322,68.6498 111.9062,68.7218 C110.2822,71.9788 108.8612,75.3528 107.3862,78.5858 C104.2312,85.5028 100.9952,92.3758 97.4642,99.1108 C91.7012,110.1008 84.7312,121.5078 80.5992,133.4718 M74.5192,62.7358 C73.3682,61.9358 72.1822,61.2428 70.9602,60.6618 C73.0452,61.3718 75.1672,61.5528 77.3252,60.4638 C78.5052,59.8668 79.1042,58.8098 79.2252,57.6798 C84.6702,52.3798 93.5952,49.8048 100.8502,51.3858 C104.8802,52.2628 111.2772,54.9528 116.3482,54.5548 C114.9172,55.3318 113.5332,56.2028 112.2012,57.1728 C99.3262,50.2748 85.5932,53.8438 74.5192,62.7358 M58.3642,58.9708 C55.1282,59.5378 52.0622,60.7108 49.0782,62.1138 C49.6202,61.4978 49.9682,60.7538 49.9982,59.9378 C52.4742,59.3738 54.8772,58.3938 57.4422,57.8838 C58.7192,57.6298 59.3452,56.7278 59.4882,55.7088 C60.3952,55.8628 61.2482,56.0628 61.9822,56.3318 C64.2102,57.1498 66.5002,58.6518 68.8412,59.7818 C65.6182,58.6478 62.1432,58.3068 58.3642,58.9708 M121.9692,51.7858 C122.8062,51.5598 123.6422,51.3708 124.4782,51.2038 C123.5282,51.4828 122.5932,51.8018 121.6672,52.1428 C121.7682,52.0238 121.8812,51.9078 121.9692,51.7858 M152.2752,61.4098 C153.1412,64.8098 158.5612,66.3908 160.5182,62.6328 C163.4222,57.0528 162.2952,49.7678 161.3482,43.8228 C160.4292,38.0538 158.9782,32.3458 157.1282,26.8048 C154.0672,17.6378 149.4672,4.1868 138.8352,1.7398 C138.1372,1.5798 137.6292,2.5968 138.3262,2.9468 C142.7862,5.1858 145.1112,11.2998 146.8142,15.6828 C147.3852,17.1548 147.9082,18.6398 148.4092,20.1328 C144.6272,11.0368 138.5552,3.3408 128.9162,0.1128 C128.0272,-0.1852 127.2382,1.1048 127.9772,1.7248 C134.9292,7.5688 138.1832,17.2158 140.4992,25.7388 C141.6232,29.8768 142.4262,34.1098 142.9942,38.3608 C142.5232,38.3278 142.0502,38.2958 141.5802,38.2638 C138.0682,38.0318 134.2622,37.4938 130.7742,38.2438 C127.3432,38.9808 124.1972,40.9008 121.2612,42.7378 C120.6722,43.1068 120.1102,43.5078 119.5452,43.9038 C120.2752,37.4148 117.7302,29.7728 115.1982,24.7448 C111.4792,17.3548 105.8682,10.4098 99.0952,5.6318 C98.2602,5.0428 97.4212,6.2928 98.0482,6.9868 C103.1232,12.6028 105.9472,19.9238 107.4912,27.2408 C108.2592,30.8848 108.7772,34.4588 108.7132,38.1888 C108.6862,39.6918 108.4562,41.1208 108.1872,42.5378 C108.1322,42.5248 108.0772,42.5128 108.0222,42.4998 C104.3562,41.6668 100.4502,40.5358 96.6592,40.5998 C89.0142,40.7278 80.4922,44.6008 75.4282,50.7288 C74.4822,47.7588 72.8562,45.2718 72.3432,42.0188 C71.7122,38.0168 71.8052,33.7388 72.0252,29.7068 C72.4502,21.8828 73.4492,13.3448 75.9622,5.8858 C76.2052,5.1668 75.1282,4.7408 74.7552,5.3768 C69.8402,13.7598 65.4792,22.1968 62.9212,31.6378 C61.7202,36.0688 60.6812,42.5338 61.6512,48.0468 C60.2422,47.8638 58.7762,47.8568 57.2152,48.1148 C53.3962,48.7438 49.0802,50.3808 45.9222,53.0758 C45.2852,36.7288 48.8332,21.1638 57.9842,7.4278 C58.4562,6.7188 57.3342,5.8268 56.7872,6.5048 C47.6152,17.8728 40.1092,30.0038 36.8822,43.9588 C34.1522,42.0918 31.0132,40.7788 27.1902,40.3378 C16.3392,39.0868 6.7832,43.8898 1.0022,53.0178 C-0.7368,55.7638 3.0022,58.1148 5.2292,56.2798 C11.3522,51.2328 18.5292,47.3118 26.7282,48.9528 C30.2882,49.6648 33.0162,51.6568 35.3672,54.1358 C35.3592,56.6128 37.0262,58.1158 39.0452,58.6188 C39.8772,59.7358 40.6902,60.8588 41.5112,61.9398 C42.6422,63.4288 44.2482,63.9238 45.7602,63.7668 C44.5052,64.4208 43.2592,65.0908 42.0162,65.7488 C38.1982,58.0338 31.0772,51.3418 21.9922,52.4908 C21.4342,52.5618 21.0752,52.8918 20.9162,53.2868 C14.3222,52.7958 8.4332,56.0088 5.5102,62.0948 C5.1952,62.7498 6.0522,63.2368 6.4752,62.6588 C10.1962,57.5708 16.2512,55.8468 22.2342,57.6968 C28.0442,59.4938 30.2832,63.4448 32.9582,68.4278 C33.6822,69.7768 34.9242,70.0328 35.9972,69.6388 C36.1772,70.4278 36.3322,71.2168 36.4402,71.9958 C36.7032,73.8958 39.3752,75.3088 41.1032,74.6428 C51.1652,70.7648 61.9752,62.9618 71.3122,72.1838 C73.2082,74.0568 76.0502,73.8758 77.9752,72.1838 C78.8692,71.3978 79.7812,70.6558 80.7082,69.9618 C73.5792,85.0228 74.0032,102.0408 74.7552,118.7128 C73.6002,115.7428 72.3972,112.7958 71.0332,109.9278 C65.7252,98.7638 59.8922,87.8448 54.6942,76.6338 C54.3032,75.7898 52.9552,76.3888 53.2092,77.2598 C56.7802,89.5198 62.1552,100.8698 66.9652,112.6618 C70.1592,120.4948 72.4162,128.6368 75.3502,136.5468 C75.3512,136.9338 75.3542,137.3238 75.3522,137.7098 C75.3462,138.8108 75.9072,139.5498 76.6622,139.9378 C77.2212,141.3248 77.8052,142.7038 78.4322,144.0678 C79.5652,146.5378 82.4972,146.0108 83.8932,144.3178 C84.1832,144.2268 84.4772,144.0698 84.7622,143.8128 C91.6692,137.5848 97.7632,130.2338 104.0932,123.4208 C110.7552,116.2498 117.3662,109.0288 123.7342,101.5958 C134.4622,89.0708 144.2522,75.8118 152.2752,61.4098" id="Fill-12" fill="#E1E0E7" mask="url(#mask-4)"></path>
                </g>
                <path d="M38.5834,24.6053 C48.3754,17.5973 60.8884,12.1093 75.8464,6.7513 C76.8254,6.4003 77.8124,6.0493 78.8114,5.7003 C79.8304,5.3433 80.8464,4.9873 81.8874,4.6303 C86.8194,2.9393 91.9794,2.1513 98.1254,2.1513 C151.1064,2.1513 164.0684,40.6483 169.7604,78.3063 C169.8474,78.8803 169.5954,79.4523 169.1144,79.7763 C168.6334,80.0983 168.0084,80.1163 167.5114,79.8213 C167.0544,79.5483 166.5344,79.2703 165.9854,78.9923 C166.2174,78.5773 166.4534,78.1683 166.6834,77.7513 C167.0814,77.0263 166.8174,76.1153 166.0934,75.7153 C166.1734,75.7513 166.2554,75.7823 166.3344,75.8183 C160.5944,40.3853 147.4674,5.1513 98.1254,5.1513 C92.3204,5.1513 87.4704,5.8873 82.8594,7.4673 C35.5464,23.6903 17.6184,37.5293 14.8754,80.9343 C14.4974,80.8343 14.0824,80.8793 13.7204,81.0963 C13.0104,81.5223 12.7804,82.4443 13.2064,83.1553 C13.5044,83.6513 13.9774,84.3613 14.5884,85.2393 C14.4304,85.3613 14.2704,85.4773 14.1134,85.6013 C13.6524,85.9653 13.0214,86.0263 12.5004,85.7593 C11.9794,85.4933 11.6604,84.9463 11.6854,84.3603 C12.3364,69.2343 14.5984,57.5563 18.8974,48.0413 C19.3584,47.0223 19.8434,46.0283 20.3514,45.0573 C22.7084,40.5523 25.5764,36.5453 29.0154,32.8833 C30.7474,31.0403 32.6354,29.3063 34.6414,27.6483 L38.5834,24.6053 Z" id="Fill-15" fill="#4C5D7F"></path>
                <path d="M53.7079,90.4041 C53.9089,90.8001 54.2739,91.0861 54.7059,91.1851 C54.8179,91.2131 54.9319,91.2251 55.0449,91.2251 C55.3679,91.2251 55.6849,91.1211 55.9469,90.9241 C56.1139,90.7991 56.2809,90.6921 56.4479,90.5701 C56.2039,89.9771 55.9619,89.3911 55.7279,88.8271 C55.4679,88.2031 55.6679,87.5081 56.1649,87.0981 C55.9629,87.2361 55.7619,87.3561 55.5599,87.4981 C52.2839,81.6281 46.5059,74.7591 34.3529,74.7591 C28.0689,74.7591 21.3949,76.9971 15.2429,81.0911 C15.4559,81.2151 15.6439,81.3851 15.7789,81.6101 C16.0469,82.0581 16.4749,82.7001 17.0289,83.4991 C22.6539,79.7821 28.6989,77.7591 34.3529,77.7591 C45.8149,77.7591 50.7179,84.5171 53.7079,90.4041" id="Fill-17" fill="#4C5D7F"></path>
                <path d="M130.5702,80.3182 C126.6502,76.4912 121.1392,74.5522 114.1652,74.5522 C104.8352,74.5522 95.3412,79.2452 88.4562,87.1842 C84.3902,83.0892 79.3532,81.0152 73.4612,81.0152 C67.9842,81.0152 62.2612,83.0182 56.4232,86.9282 C56.4622,86.9082 56.4972,86.8832 56.5382,86.8672 C57.3012,86.5482 58.1802,86.9102 58.4982,87.6762 C58.6562,88.0552 58.8202,88.4562 58.9822,88.8472 C63.9792,85.6912 68.9312,84.0152 73.4612,84.0152 C79.0092,84.0152 83.4952,86.0542 87.1732,90.2182 C87.1652,89.9222 87.1572,89.6202 87.1502,89.3312 C87.1282,88.5032 87.7822,87.8142 88.6102,87.7932 C89.4082,87.7552 90.1272,88.4242 90.1492,89.2532 C90.1532,89.4392 90.1592,89.6372 90.1642,89.8262 C96.5262,82.1332 105.4422,77.5522 114.1652,77.5522 C120.3832,77.5522 125.0482,79.1692 128.4142,82.4412 C128.5462,82.1292 128.6792,81.8092 128.8102,81.5002 C129.1332,80.7352 130.0142,80.3792 130.7762,80.7012 C131.5392,81.0232 131.8962,81.9032 131.5742,82.6672 C131.4482,82.9632 131.3212,83.2682 131.1952,83.5672 C131.2372,83.5412 131.2852,83.5322 131.3252,83.5012 C137.4682,78.7102 145.3752,75.9632 153.0202,75.9632 C157.0842,75.9632 160.5032,76.7572 163.2262,77.7782 C163.5022,77.2872 163.7812,76.8012 164.0542,76.3052 C164.4022,75.6722 165.1422,75.3872 165.8092,75.5932 C161.8732,73.8712 157.5192,72.9632 153.0202,72.9632 C145.1652,72.9632 137.0612,75.6302 130.5702,80.3182" id="Fill-19" fill="#4C5D7F"></path>
                <path d="M90.1488,89.2527 C90.1268,88.4247 89.4088,87.7547 88.6098,87.7927 C87.7818,87.8147 87.1278,88.5027 87.1498,89.3307 C87.1578,89.6197 87.1658,89.9227 87.1728,90.2187 C87.6468,108.0897 88.6178,138.8357 90.1908,162.7337 C75.1178,128.5547 67.4678,109.7077 62.2838,96.9377 C61.0568,93.9137 59.9808,91.2677 58.9818,88.8477 C58.8208,88.4557 58.6558,88.0557 58.4988,87.6767 C58.1808,86.9097 57.3018,86.5487 56.5378,86.8667 C56.4968,86.8837 56.4618,86.9077 56.4228,86.9287 C56.3298,86.9777 56.2438,87.0337 56.1648,87.0987 C55.6678,87.5077 55.4678,88.2027 55.7278,88.8267 C55.9618,89.3917 56.2038,89.9777 56.4478,90.5697 C57.3768,92.8277 58.3768,95.2887 59.5038,98.0657 C64.9958,111.5957 73.2608,131.9517 90.1588,170.0797 C91.3318,170.0387 92.5188,170.0007 93.7128,169.9647 C91.8198,145.3157 90.6838,109.5307 90.1638,89.8257 C90.1588,89.6377 90.1538,89.4397 90.1488,89.2527" id="Fill-21" fill="#4C5D7F"></path>
                <path d="M131.5741,82.6668 C131.8961,81.9028 131.5391,81.0228 130.7761,80.7008 C130.0141,80.3788 129.1331,80.7348 128.8101,81.4998 C128.6791,81.8098 128.5461,82.1288 128.4141,82.4408 C116.5761,110.5758 102.4621,148.8518 94.8301,169.9298 C94.9401,169.9268 95.0471,169.9228 95.1571,169.9198 C96.1381,169.8908 97.0961,169.8648 98.0531,169.8398 C105.7651,148.5638 119.5871,111.1508 131.1961,83.5668 C131.3221,83.2688 131.4491,82.9628 131.5741,82.6668" id="Fill-23" fill="#4C5D7F"></path>
                <path d="M166.0931,75.7156 C165.9991,75.6626 165.9051,75.6236 165.8091,75.5936 C165.1421,75.3876 164.4021,75.6716 164.0541,76.3056 C163.7811,76.8016 163.5021,77.2866 163.2261,77.7786 C154.6631,93.0096 144.6051,105.6116 133.9701,118.9176 C121.8831,134.0456 109.3921,149.6906 98.9801,169.8156 C100.1131,169.7856 101.2591,169.7596 102.4121,169.7336 C112.5351,150.5676 124.6141,135.4336 136.3141,120.7906 C147.0871,107.3106 157.2731,94.5496 165.9851,78.9916 C166.2181,78.5766 166.4531,78.1686 166.6831,77.7506 C167.0811,77.0266 166.8171,76.1146 166.0931,75.7156" id="Fill-25" fill="#4C5D7F"></path>
                <path d="M52.328,129.8426 C37.353,110.4856 21.927,90.5446 17.029,83.4986 C16.474,82.6996 16.047,82.0586 15.779,81.6106 C15.643,81.3856 15.455,81.2146 15.243,81.0916 C15.126,81.0246 15.005,80.9676 14.875,80.9346 C14.497,80.8346 14.082,80.8796 13.721,81.0966 C13.011,81.5226 12.78,82.4446 13.206,83.1546 C13.505,83.6516 13.977,84.3616 14.588,85.2386 C19.569,92.3986 34.372,111.5346 49.955,131.6796 C61.212,146.2306 72.81,161.2246 79.744,170.4986 C80.942,170.4436 82.147,170.3896 83.365,170.3386 C76.614,161.2386 64.28,145.2936 52.328,129.8426" id="Fill-27" fill="#4C5D7F"></path>
                <path d="M58.6473,195.5057 C59.1553,195.5007 59.6393,195.4927 60.1283,195.4847 C59.9853,189.4927 59.8933,183.5067 59.8933,177.5687 C59.8933,176.6057 59.8963,175.6417 59.9003,174.6787 C70.5323,173.9017 81.5653,173.3407 93.6883,172.9667 C93.6853,172.9407 93.6823,172.9057 93.6803,172.8817 C93.6633,172.7067 93.6613,172.6157 93.6613,172.6137 C93.6613,172.2097 93.6643,171.8057 93.6683,171.4017 C93.6783,170.5807 94.3133,169.9187 95.1563,169.919699 C95.0473,169.9227 94.9393,169.9267 94.8303,169.9297 C94.4553,169.9417 94.0853,169.9527 93.7123,169.9647 C92.5193,170.0007 91.3323,170.0387 90.1593,170.0797 C87.8583,170.1587 85.5933,170.2447 83.3643,170.3387 C82.1473,170.3897 80.9423,170.4437 79.7443,170.4987 C72.3143,170.8427 65.2263,171.2697 58.2963,171.7887 C57.5183,171.8477 56.9143,172.4927 56.9083,173.2747 C56.8983,174.7047 56.8933,176.1367 56.8933,177.5687 C56.8933,184.0117 56.9963,190.5057 57.1613,197.0017 C57.1633,196.1817 57.8243,195.5127 58.6473,195.5057" id="Fill-29" fill="#4C5D7F"></path>
                <path d="M98.0536,169.8396 C97.0966,169.8646 96.1386,169.8906 95.1956,169.9186 C96.0186,169.9336 96.6776,170.6086 96.6686,171.4346 C96.6646,171.8046 96.6616,172.1736 96.6616,172.5436 L96.6666,172.5946 C96.6746,172.6786 96.6846,172.7826 96.6936,172.8766 C106.5666,172.6016 117.1786,172.4446 128.9096,172.3986 C128.7836,177.2166 128.5316,182.0936 128.2856,186.8256 C128.2256,187.9956 128.1656,189.1816 128.1066,190.3636 C128.5796,190.3616 129.0496,190.3606 129.5306,190.3606 C130.3596,190.3606 131.0316,191.0296 131.0326,191.8586 C131.0326,192.6866 130.3626,193.3596 129.5336,193.3606 C129.0036,193.3606 128.4846,193.3626 127.9636,193.3646 C127.8666,195.4576 127.7846,197.5596 127.7186,199.6676 C128.1946,199.6596 128.6706,199.6476 129.1476,199.6426 C129.9856,199.6426 130.6556,200.3016 130.6646,201.1246 C130.6746,201.9526 130.0106,202.6316 129.1826,202.6426 C128.6656,202.6486 128.1486,202.6606 127.6326,202.6696 C127.5986,204.2576 127.5746,205.8456 127.5746,207.4276 C127.5746,215.7596 128.0966,222.8016 129.2096,229.4176 C119.7686,229.6156 110.4086,229.9456 100.9406,230.3606 C100.9646,230.8566 100.9896,231.3546 101.0116,231.8496 C101.0506,232.6766 100.4106,233.3786 99.5826,233.4176 C99.5596,233.4176 99.5356,233.4186 99.5126,233.4186 C98.7156,233.4186 98.0526,232.7926 98.0146,231.9876 C97.9916,231.4906 97.9676,230.9906 97.9436,230.4916 C96.7346,230.5466 95.5216,230.6026 94.3066,230.6596 C94.3386,231.1556 94.3826,231.6526 94.4076,232.1476 C94.4516,232.9736 93.8156,233.6806 92.9886,233.7236 C92.9616,233.7256 92.9356,233.7256 92.9086,233.7256 C92.1166,233.7256 91.4536,233.1046 91.4116,232.3046 C91.3856,231.8066 91.3416,231.3056 91.3106,230.8066 C81.6176,231.2806 71.7476,231.8296 61.4666,232.4206 L61.3676,230.0656 C61.0446,222.3666 60.7196,214.5496 60.4546,206.7046 C59.9516,206.7216 59.4486,206.7416 58.9446,206.7566 C58.1046,206.7566 57.4496,206.1326 57.4066,205.3376 C57.6786,213.6856 58.0266,222.0056 58.3706,230.1926 L58.5336,234.0686 C58.5506,234.4696 58.7276,234.8476 59.0256,235.1166 C59.3026,235.3676 59.6606,235.5056 60.0326,235.5056 C60.0606,235.5056 60.0896,235.5046 60.1186,235.5026 C85.1726,234.0596 107.8006,232.8286 131.0216,232.3816 C131.4626,232.3736 131.8766,232.1726 132.1556,231.8306 C132.4336,231.4886 132.5476,231.0416 132.4676,230.6086 C131.1766,223.6696 130.5746,216.3046 130.5746,207.4276 C130.5746,200.6256 130.9346,193.6896 131.2826,186.9806 C131.5546,181.7226 131.8366,176.2836 131.9446,170.9236 C131.9526,170.5196 131.7986,170.1296 131.5146,169.8416 C131.2326,169.5556 130.8476,169.3936 130.4456,169.3936 C120.3506,169.4256 111.0926,169.5366 102.4116,169.7336 C101.2586,169.7596 100.1136,169.7856 98.9796,169.8156 C98.6696,169.8226 98.3626,169.8316 98.0536,169.8396" id="Fill-31" fill="#4C5D7F"></path>
                <path d="M58.8578,203.7576 C59.3568,203.7426 59.8558,203.7226 60.3538,203.7056 C60.2988,201.9666 60.2508,200.2256 60.2038,198.4846 C59.6978,198.4916 59.1968,198.5006 58.6728,198.5056 C57.8448,198.5056 57.1818,197.8536 57.1628,197.0396 C57.2328,199.7826 57.3148,202.5266 57.4038,205.2676 C57.3988,204.4546 58.0418,203.7806 58.8578,203.7576" id="Fill-33" fill="#4C5D7F"></path>
                <path d="M90.4496,186.6922 C90.4496,183.1002 90.6246,179.7822 90.9836,176.5472 C91.0746,175.7252 90.4816,174.9832 89.6576,174.8922 C88.8416,174.8012 88.0936,175.3932 88.0016,176.2172 C87.6306,179.5622 87.4496,182.9892 87.4496,186.6922 C87.4496,188.7762 87.5126,190.8632 87.6166,192.9482 C88.0666,192.8832 88.5136,192.8182 88.9746,192.7532 C89.7936,192.6352 90.5536,193.2092 90.6696,194.0292 C90.7846,194.8492 90.2136,195.6082 89.3936,195.7232 C88.8526,195.8002 88.3246,195.8772 87.7976,195.9532 C87.9366,197.9702 88.1116,199.9832 88.3086,201.9892 C88.8176,201.9502 89.3186,201.9122 89.8326,201.8722 C90.6656,201.8152 91.3806,202.4242 91.4446,203.2512 C91.5096,204.0762 90.8916,204.7972 90.0656,204.8632 C89.5766,204.9012 89.1006,204.9372 88.6166,204.9742 C88.9036,207.6372 89.2166,210.2852 89.5286,212.9022 C90.2296,218.7712 90.9366,224.8202 91.3106,230.8062 C91.3416,231.3052 91.3856,231.8062 91.4116,232.3042 C91.4536,233.1042 92.1166,233.7252 92.9086,233.7252 C92.9356,233.7252 92.9616,233.7252 92.9886,233.7232 C93.8156,233.6802 94.4516,232.9732 94.4076,232.1472 C94.3826,231.6522 94.3386,231.1562 94.3066,230.6602 C93.9286,224.5792 93.2146,218.4702 92.5076,212.5472 C91.4956,204.0752 90.4496,195.3132 90.4496,186.6922" id="Fill-35" fill="#4C5D7F"></path>
                <path d="M97.8241,204.2605 C97.7851,204.2635 97.7461,204.2655 97.7081,204.2655 C96.9341,204.2655 96.2811,203.6705 96.2171,202.8885 C96.8591,211.5395 97.4911,221.1375 97.9431,230.4915 C97.9671,230.9905 97.9921,231.4905 98.0151,231.9885 C98.0531,232.7925 98.7161,233.4185 99.5121,233.4185 C99.5361,233.4185 99.5591,233.4175 99.5831,233.4175 C100.4101,233.3785 101.0501,232.6765 101.0121,231.8495 C100.9891,231.3545 100.9651,230.8565 100.9411,230.3605 C100.5121,221.5045 99.9251,212.4355 99.3181,204.1495 C98.8171,204.1875 98.3311,204.2225 97.8241,204.2605" id="Fill-37" fill="#4C5D7F"></path>
                <path d="M95.1566,169.9197 C94.3136,169.9187 93.6776,170.5807 93.6686,171.4007 C93.6646,171.8057 93.6616,172.2097 93.6616,172.6137 C93.6616,172.6157 93.6636,172.7067 93.6796,172.8817 C93.6826,172.9057 93.6856,172.9407 93.6886,172.9667 C93.9416,175.6057 94.6636,183.3057 95.4806,193.4077 C95.4056,192.5927 95.9976,191.8647 96.8156,191.7787 C97.3206,191.7257 97.8316,191.6747 98.3456,191.6237 C97.5976,182.4867 96.9476,175.5387 96.6936,172.8767 C96.6846,172.7827 96.6746,172.6787 96.6666,172.5947 L96.6616,172.5437 C96.6616,172.1737 96.6646,171.8047 96.6686,171.4347 C96.6776,170.6077 96.0186,169.9337 95.1566,169.9197" id="Fill-39" fill="#4C5D7F"></path>
                <path d="M58.6595,198.5057 C59.1975,198.5007 59.6985,198.4917 60.2035,198.4847 C71.7915,198.3097 78.4515,197.3297 85.4705,196.2937 C86.2355,196.1817 87.0125,196.0677 87.7975,195.9527 C88.3245,195.8767 88.8525,195.8007 89.3935,195.7237 C90.2135,195.6087 90.7845,194.8497 90.6695,194.0287 C90.5545,193.2087 89.7935,192.6357 88.9745,192.7527 C88.5135,192.8187 88.0665,192.8837 87.6165,192.9477 C86.7425,193.0747 85.8795,193.2007 85.0325,193.3257 C78.1095,194.3487 71.5405,195.3137 60.1285,195.4847 C59.6385,195.4927 59.1555,195.5007 58.6475,195.5057 C57.8245,195.5127 57.1635,196.1817 57.1615,197.0017 C57.1815,197.8537 57.8445,198.5057 58.6595,198.5057" id="Fill-41" fill="#4C5D7F"></path>
                <path d="M96.8153,191.7791 C95.9983,191.8651 95.4053,192.5921 95.4813,193.4081 C95.5673,194.2011 96.2153,194.7701 96.9703,194.7701 C97.0233,194.7701 97.0763,194.7681 97.1293,194.7621 C97.6113,194.7121 98.0983,194.6631 98.5873,194.6151 C106.8243,193.8091 116.2453,193.4091 127.9633,193.3651 C128.4843,193.3631 129.0033,193.3601 129.5333,193.3601 C130.3623,193.3591 131.0333,192.6861 131.0323,191.8581 C131.0313,191.0301 130.3593,190.3601 129.5323,190.3601 C129.0493,190.3601 128.5803,190.3621 128.1063,190.3641 C116.2443,190.4061 106.7013,190.8081 98.3453,191.6241 C97.8313,191.6751 97.3203,191.7251 96.8153,191.7791" id="Fill-43" fill="#4C5D7F"></path>
                <path d="M58.9003,206.7566 C59.4483,206.7416 59.9513,206.7216 60.4553,206.7046 C69.5373,206.4026 78.6523,205.7476 88.6163,204.9746 C89.1013,204.9376 89.5763,204.9016 90.0663,204.8626 C90.8913,204.7976 91.5093,204.0756 91.4443,203.2506 C91.3803,202.4246 90.6663,201.8156 89.8323,201.8716 C89.3183,201.9116 88.8173,201.9496 88.3083,201.9886 C78.4113,202.7566 69.3543,203.4066 60.3543,203.7056 C59.8553,203.7226 59.3563,203.7426 58.8583,203.7576 C58.0413,203.7806 57.3983,204.4546 57.4043,205.2676 C57.4493,206.1326 58.1053,206.7566 58.9003,206.7566" id="Fill-45" fill="#4C5D7F"></path>
                <path d="M97.5956,201.2693 C96.7756,201.3323 96.1616,202.0433 96.2146,202.8633 C96.2806,203.6703 96.9346,204.2653 97.7086,204.2653 C97.7466,204.2653 97.7846,204.2633 97.8246,204.2603 C98.3316,204.2223 98.8176,204.1873 99.3176,204.1493 C109.7136,203.3683 118.6766,202.8203 127.6326,202.6693 C128.1486,202.6613 128.6656,202.6483 129.1826,202.6423 C130.0106,202.6313 130.6746,201.9533 130.6646,201.1243 C130.6556,200.3013 129.9856,199.6423 129.1656,199.6423 C128.6706,199.6473 128.1946,199.6603 127.7186,199.6673 C118.6476,199.8163 109.5956,200.3683 99.0956,201.1583 C98.5926,201.1963 98.1056,201.2313 97.5956,201.2693" id="Fill-47" fill="#4C5D7F"></path>
            </g>
        </g>
    </g>
</svg>