<?xml version="1.0" encoding="utf-8"?>
<!-- Generator: Adobe Illustrator 22.1.0, SVG Export Plug-In . SVG Version: 6.00 Build 0)  -->
<svg version="1.1" id="Слой_1" xmlns="http://www.w3.org/2000/svg" xmlns:xlink="http://www.w3.org/1999/xlink" x="0px" y="0px"
	 viewBox="0 0 33.2 28.5" style="enable-background:new 0 0 33.2 28.5;" xml:space="preserve">
<style type="text/css">
	.st0{fill:#fa8231;}
</style>
<title>favorite</title>
<desc>Created with Sketch.</desc>
<g id="Combined-Shape">
	<path class="st0" d="M23,3.3c3.5,0,6.3,2.8,6.3,6.3c0,1.1-0.3,2.2-0.9,3.2c-1.5,2.8-5.5,6.8-11.9,12.1c-9.5-8-12-11.7-12.4-13.4
		l0,0l0,0C4,10.8,3.9,10.2,3.9,9.6c0-3.5,2.8-6.3,6.3-6.3c2.3,0,4.3,1.2,5.5,3.2L16,7L16.6,8L17.2,7l0.3-0.5
		C18.7,4.5,20.8,3.3,23,3.3 M23,2.6c-2.5,0-4.8,1.4-6.1,3.5l-0.3,0.5l-0.3-0.5c-1.2-2.2-3.5-3.5-6.1-3.5c-3.9,0-7,3.1-7,7
		c0,0.7,0.1,1.4,0.3,2l0,0c0.6,2.6,5,7.4,13.1,14.2c6.7-5.5,10.9-9.7,12.5-12.6c0.6-1.1,1-2.3,1-3.5C30,5.7,26.9,2.6,23,2.6L23,2.6z
		"/>
</g>
</svg>
