<?xml version="1.0" encoding="UTF-8"?>
<svg width="28px" height="24px" viewBox="0 0 28 24" version="1.1" xmlns="http://www.w3.org/2000/svg" xmlns:xlink="http://www.w3.org/1999/xlink">
    <!-- Generator: Sketch 49.1 (51147) - http://www.bohemiancoding.com/sketch -->
    <title>Combined Shape</title>
    <desc>Created with Sketch.</desc>
    <defs>
        <path d="M1374.30259,1799.46138 C1374.1057,1798.797 1374,1798.09342 1374,1797.36516 C1374,1793.29749 1377.29749,1790 1381.36516,1790 C1384.09367,1790 1386.47564,1791.48369 1387.7483,1793.6883 C1389.02095,1791.48369 1391.40293,1790 1394.13144,1790 C1398.1991,1790 1401.4966,1793.29749 1401.4966,1797.36516 C1401.4966,1798.72328 1401.129,1799.99554 1400.48788,1801.08788 C1398.8163,1804.07534 1394.55275,1808.37938 1387.69724,1814 C1379.41282,1807.08073 1374.94794,1802.23452 1374.30259,1799.46138 Z" id="path-1"></path>
    </defs>
    <g id="Style-guide" stroke="none" stroke-width="1" fill="none" fill-rule="evenodd">
        <g transform="translate(-1374.000000, -1790.000000)" id="Combined-Shape">
            <g>
                <use fill="#4B6584" fill-rule="evenodd" xlink:href="#path-1"></use>
                <path stroke="#4B6584" stroke-width="0.7" d="M1387.69929,1813.54543 C1394.39146,1808.04125 1398.55667,1803.82257 1400.18603,1800.91071 C1400.81189,1799.84438 1401.1466,1798.62965 1401.1466,1797.36516 C1401.1466,1793.49079 1398.0058,1790.35 1394.13144,1790.35 C1391.5955,1790.35 1389.29639,1791.70663 1388.05142,1793.86328 L1387.7483,1794.38837 L1387.44518,1793.86328 C1386.2002,1791.70663 1383.9011,1790.35 1381.36516,1790.35 C1377.49079,1790.35 1374.35,1793.49079 1374.35,1797.36516 C1374.35,1798.04904 1374.44777,1798.71946 1374.63817,1799.36193 L1374.64348,1799.38205 C1375.25857,1802.02515 1379.62238,1806.77954 1387.69929,1813.54543 Z"></path>
            </g>
        </g>
    </g>
</svg>