<?xml version="1.0" encoding="UTF-8"?>
<svg width="52px" height="50px" viewBox="0 0 52 50" version="1.1" xmlns="http://www.w3.org/2000/svg" xmlns:xlink="http://www.w3.org/1999/xlink">
    <!-- Generator: Sketch 49.1 (51147) - http://www.bohemiancoding.com/sketch -->
    <title>Order</title>
    <desc>Created with Sketch.</desc>
    <defs></defs>
    <g id="Symbols" stroke="none" stroke-width="1" fill="none" fill-rule="evenodd">
        <g id="Order" fill="#4B6584">
            <path d="M8.04259796,3.94876499 L0,3.94876499 L0,4.51635277 L8.04374699,4.51635277 L18.5050418,39.8850181 L19.0565736,39.7272287 L8.56827673,3.79892181 L8.04259796,3.94876499 Z M25.0509777,39.0240442 L25.1923078,39.5740367 L48.8599173,33.650123 L48.7185873,33.1001304 L25.0509777,39.0240442 Z M21.951771,49.4324122 C19.6893415,49.4324122 17.8480295,47.6138609 17.8480295,45.3787002 C17.8480295,43.1441071 19.6893415,41.3255559 21.951771,41.3255559 C24.2142005,41.3255559 26.0543635,43.1441071 26.0543635,45.3787002 C26.0543635,47.6138609 24.2142005,49.4324122 21.951771,49.4324122 M21.951771,40.7579681 C19.3722107,40.7579681 17.2735172,42.8307987 17.2735172,45.3787002 C17.2735172,47.9271694 19.3722107,50 21.951771,50 C24.5301823,50 26.6288758,47.9271694 26.6288758,45.3787002 C26.6288758,42.8307987 24.5301823,40.7579681 21.951771,40.7579681 M49.8369329,27.5359538 L25.3575375,34.1001066 C25.1713955,34.1500543 24.9812319,34.1750282 24.7910684,34.1750282 C23.8235896,34.1750282 22.9704388,33.5302485 22.7170789,32.6062155 L16.4554691,9.81586317 C16.3049469,9.26757337 16.3796335,8.69430971 16.6651661,8.20221109 C16.9506987,7.70897731 17.4131812,7.35593771 17.9681601,7.20722971 L42.44813,0.642509374 C42.6336975,0.593129236 42.823861,0.567587786 43.0134501,0.567587786 C43.9815034,0.567587786 44.8346542,1.21350269 45.0880141,2.13696801 L51.3501984,24.9267528 C51.6610095,26.0579553 50.981936,27.2288889 49.8369329,27.5359538 M51.9046028,24.7786124 L45.6424185,1.9888276 C45.3218406,0.817894 44.2406084,0 43.0134501,0 C42.7727295,0 42.5320088,0.031784916 42.2976078,0.0947871603 L17.8182123,6.65950749 C17.1150093,6.84794664 16.5284322,7.29520581 16.1670639,7.91955238 C15.8045467,8.54389894 15.7103266,9.26984372 15.9010647,9.96457117 L22.1626745,32.754356 C22.4838269,33.9252896 23.5650591,34.742616 24.7910684,34.742616 C25.0323635,34.742616 25.2730842,34.7113986 25.5074852,34.6478288 L49.9874552,28.0836761 C51.4380988,27.6943108 52.2981437,26.2117715 51.9046028,24.7786124 M25.2877343,18.17155 L25.7823894,18.4598846 L31.150058,9.47326718 L35.4508572,26.4237088 L36.0087087,26.285785 L31.733188,9.43467121 L40.079703,14.5333123 L40.3813219,14.0508627 L31.126503,8.39655315 L25.2877343,18.17155 Z"></path>
        </g>
    </g>
</svg>