<?xml version="1.0" encoding="UTF-8"?>
<svg width="96px" height="22px" viewBox="0 0 96 22" version="1.1" xmlns="http://www.w3.org/2000/svg" xmlns:xlink="http://www.w3.org/1999/xlink">
    <!-- Generator: Sketch 49.1 (51147) - http://www.bohemiancoding.com/sketch -->
    <title>PayPal</title>
    <desc>Created with Sketch.</desc>
    <defs></defs>
    <g id="Symbols" stroke="none" stroke-width="1" fill="none" fill-rule="evenodd">
        <g id="Footer" transform="translate(-1280.000000, -375.000000)" fill-rule="nonzero">
            <g id="Group" transform="translate(1279.000000, 315.000000)">
                <g id="PayPal" transform="translate(1.000000, 60.000000)">
                    <path d="M36.3002044,5 L30.920228,5 C30.5520705,5 30.2389793,5.26846344 30.181553,5.63325788 L28.0056479,19.4804443 C27.9623816,19.7536453 28.1732068,20 28.4493249,20 L31.017774,20 C31.3859314,20 31.6990226,19.7315366 31.7564489,19.3659525 L32.3432982,15.6311523 C32.3999378,15.2655682 32.7138157,14.9971048 33.0811865,14.9971048 L34.7843082,14.9971048 C38.3282172,14.9971048 40.3735365,13.2757804 40.9076795,9.86471548 C41.1483979,8.37237459 40.9179061,7.19982102 40.2217109,6.37863873 C39.4570761,5.47691741 38.1008721,5 36.3002044,5 Z M36.9208802,10.0573775 C36.6266689,11.9950519 35.151679,11.9950519 33.7254621,11.9950519 L32.9136276,11.9950519 L33.4831704,8.37632258 C33.5169968,8.15760383 33.7057955,7.99652577 33.9260607,7.99652577 L34.2981515,7.99652577 C35.2696782,7.99652577 36.1861386,7.99652577 36.6597086,8.55240301 C36.94212,8.88403432 37.0286528,9.3767437 36.9208802,10.0573775 Z" id="Shape" fill="#253B80"></path>
                    <path d="M51.5398177,9.25506286 L48.8885602,9.25506286 C48.6626974,9.25506286 48.4675972,9.4240006 48.4327868,9.65339155 L48.3154029,10.4119551 L48.1300173,10.1370172 C47.5560504,9.2848754 46.2761609,9 44.9987001,9 C42.0689594,9 39.5666581,11.2698938 39.0793124,14.454039 C38.8259251,16.042385 39.1861723,17.5611684 40.0669564,18.6203418 C40.8748816,19.5942182 42.0309108,20 43.4063265,20 C45.7669576,20 47.0759906,18.4472634 47.0759906,18.4472634 L46.9577972,19.2008582 C46.9132722,19.4890461 47.1302301,19.7474215 47.412761,19.7474215 L49.8009166,19.7474215 C50.1805929,19.7474215 50.5011724,19.4658586 50.5610787,19.0824362 L51.993972,9.79996989 C52.0393065,9.51426636 51.8231582,9.25506286 51.5398177,9.25506286 Z M47.8442481,14.5335391 C47.5884321,16.0829632 46.3862589,17.1230897 44.8529821,17.1230897 C44.0831055,17.1230897 43.4678519,16.8705112 43.0727943,16.3918542 C42.6809748,15.9165098 42.5320187,15.2399307 42.6566885,14.4863359 C42.8955041,12.9501619 44.1179159,11.8760822 45.6277159,11.8760822 C46.3805921,11.8760822 46.9926076,12.1319732 47.3957606,12.6147708 C47.7997232,13.1025371 47.960013,13.7832568 47.8442481,14.5335391 Z" id="Shape" fill="#253B80"></path>
                    <path d="M65.5312567,9 L62.8284982,9 C62.5706234,9 62.3283524,9.11857569 62.1821686,9.31696194 L58.4544807,14.3989943 L56.8743812,9.51534818 C56.7750091,9.20978776 56.4703225,9 56.1253944,9 L53.4694475,9 C53.1466933,9 52.92249,9.29187862 53.0251472,9.57311583 L56.0022057,17.6590657 L53.2033601,21.3159095 C52.9832631,21.6039876 53.2050026,22 53.5852448,22 L56.2847183,22 C56.5409507,22 56.7807579,21.8844647 56.9261204,21.689879 L65.9156052,9.68029001 C66.1307747,9.39297199 65.9098564,9 65.5312567,9 Z" id="Shape" fill="#253B80"></path>
                    <path d="M72.3005754,5 L66.9195725,5 C66.5521853,5 66.2390801,5.26846344 66.1816513,5.63325788 L64.0056493,19.4804443 C63.962381,19.7536453 64.1732156,20 64.4477726,20 L67.2090767,20 C67.4655397,20 67.685028,19.8120756 67.7251495,19.5562457 L68.3427061,15.6311523 C68.3993483,15.2655682 68.7132401,14.9971048 69.0806273,14.9971048 L70.7830382,14.9971048 C74.3278919,14.9971048 76.3725156,13.2757804 76.9074691,9.86471548 C77.1489849,8.37237459 76.9169095,7.19982102 76.2206832,6.37863873 C75.4568011,5.47691741 74.1013233,5 72.3005754,5 Z M72.9212788,10.0573775 C72.6278411,11.9950519 71.1527854,11.9950519 69.7257183,11.9950519 L68.9146344,11.9950519 L69.4849892,8.37632258 C69.5188172,8.15760383 69.7060509,7.99652577 69.9271126,7.99652577 L70.2992199,7.99652577 C71.2700032,7.99652577 72.1872911,7.99652577 72.6608823,8.55240301 C72.9433063,8.88403432 73.0290562,9.3767437 72.9212788,10.0573775 Z" id="Shape" fill="#179BD7"></path>
                    <path d="M89.5369667,9.25506286 L86.8871987,9.25506286 C86.6597056,9.25506286 86.4662151,9.4240006 86.4322126,9.65339155 L86.3148229,10.4119551 L86.1286186,10.1370172 C85.5546237,9.2848754 84.2754811,9 82.9979578,9 C80.0680737,9 77.5664596,11.2698938 77.0790901,14.454039 C76.8264999,16.042385 77.1851456,17.5611684 78.0659728,18.6203418 C78.8755567,19.5942182 80.0300233,20 81.4055063,20 C83.7662529,20 85.07535,18.4472634 85.07535,18.4472634 L84.9571508,19.2008582 C84.9126236,19.4890461 85.1295921,19.7474215 85.4137561,19.7474215 L87.8012189,19.7474215 C88.1792946,19.7474215 88.5015089,19.4658586 88.5606086,19.0824362 L89.9943816,9.79996989 C90.0380991,9.51426636 89.8211307,9.25506286 89.5369667,9.25506286 Z M85.8412163,14.5335391 C85.587007,16.0829632 84.3831558,17.1230897 82.8498039,17.1230897 C82.0815088,17.1230897 81.4646059,16.8705112 81.069529,16.3918542 C80.6776904,15.9165098 80.5303461,15.2399307 80.6534029,14.4863359 C80.8938493,12.9501619 82.1147018,11.8760822 83.6245757,11.8760822 C84.3774887,11.8760822 84.9895341,12.1319732 85.3927069,12.6147708 C85.7983084,13.1025371 85.958606,13.7832568 85.8412163,14.5335391 Z" id="Shape" fill="#179BD7"></path>
                    <path d="M92.3763864,5.38056638 L90.0060639,19.4804716 C89.9596201,19.7536583 90.185928,20 90.480635,20 L92.8636241,20 C93.2596631,20 93.5957473,19.7315507 93.6565464,19.3659859 L95.9939361,5.52031793 C96.0403799,5.24713128 95.814072,5 95.519365,5 L92.8509576,5 C92.6153609,5.00078956 92.4126971,5.16185914 92.3763864,5.38056638 Z" id="Shape" fill="#179BD7"></path>
                    <path d="M4.75484224,22 L5.15561298,19.4019197 L4.26288273,19.3808034 L0,19.3808034 L2.96248511,0.209598294 C2.97168061,0.151724138 3.001566,0.0977603982 3.04524465,0.0594383221 C3.0889233,0.021116246 3.14486262,0 3.20310081,0 L10.3909203,0 C12.7771538,0 14.4239155,0.506789904 15.2836951,1.5070743 C15.6867648,1.97632421 15.9434726,2.46669037 16.0676119,3.00632776 C16.1978816,3.57255599 16.2001805,4.24905795 16.072976,5.07415571 L16.0637805,5.13437611 L16.0637805,5.66306434 L16.4668501,5.89612513 C16.8063175,6.07991468 17.0760523,6.29029506 17.2829511,6.53117668 C17.6277826,6.93238535 17.8507736,7.44230359 17.9450275,8.04685389 C18.0423466,8.66861002 18.0101623,9.40846072 17.8507736,10.2460718 C17.6668635,11.2095983 17.3695421,12.0487736 16.9680051,12.7354426 C16.5986523,13.3681479 16.128149,13.8929257 15.5695221,14.299609 C15.0361828,14.6859581 14.4024593,14.9792392 13.6859762,15.1669392 C12.9917156,15.3515108 12.2001359,15.4445787 11.331927,15.4445787 L10.7725338,15.4445787 C10.3725293,15.4445787 9.98401926,15.5916104 9.67903502,15.8551724 C9.37328449,16.124209 9.17098338,16.4917881 9.10891372,16.8937789 L9.06676766,17.1276218 L8.3587138,21.7067188 L8.32652953,21.8748667 C8.31810032,21.9280483 8.30354077,21.9546392 8.28208459,21.9726271 C8.26292729,21.9890508 8.23534078,22 8.20852055,22 L4.75484224,22 Z" id="Shape" fill="#253B80"></path>
                    <path d="M19.0438726,5 C19.0222097,5.12723234 18.9974522,5.25730786 18.9695999,5.39093736 C18.0125662,9.90519769 14.7383811,11.4646824 10.5566773,11.4646824 L8.42752864,11.4646824 C7.91613064,11.4646824 7.48519466,11.8058641 7.40550632,12.2693025 L6.31540075,18.6209685 L6.00670514,20.4214127 C5.95486903,20.7256331 6.21018119,21 6.54440803,21 L10.320707,21 C10.7678901,21 11.1477637,20.701466 11.2181679,20.2963127 L11.2553043,20.1200355 L11.9663099,15.9746779 L12.0119567,15.7472235 C12.0815873,15.3406486 12.4622345,15.0421146 12.9094176,15.0421146 L13.4741991,15.0421146 C17.1328997,15.0421146 19.997038,13.6773878 20.8341524,9.72820968 C21.1838527,8.07845402 21.0028131,6.70093292 20.0775,5.73211906 C19.7974303,5.43998223 19.450051,5.19760107 19.0438726,5 Z" id="Shape" fill="#179BD7"></path>
                    <path d="M16.0537792,5.35720032 C15.9155754,5.31295253 15.7729841,5.27272727 15.6267367,5.23652454 C15.479758,5.20112631 15.3291232,5.1697506 15.1741009,5.14239743 C14.631523,5.0458568 14.0370272,5 13.4001197,5 L8.02406435,5 C7.89171043,5 7.76593765,5.03298471 7.65332713,5.0925181 C7.40543775,5.22365245 7.22116599,5.48189863 7.17656053,5.79806919 L6.03290567,13.767498 L6,14 C6.07531742,13.4754626 6.4826165,13.0893001 6.96596424,13.0893001 L8.97832879,13.0893001 C12.9306654,13.0893001 16.0252609,11.3234111 16.9298012,6.2148029 C16.956857,6.06355591 16.9795254,5.91633146 17,5.77232502 C16.7711228,5.63877715 16.5232334,5.52453741 16.2563318,5.42719228 C16.1905205,5.40305712 16.1225155,5.37972647 16.0537792,5.35720032 Z" id="Shape" fill="#222D65"></path>
                    <path d="M7.46425514,5.73909802 C7.51161525,5.44614238 7.70726685,5.20685799 7.97046484,5.08609765 C8.0908061,5.03093552 8.22356969,5.00037272 8.36409723,5.00037272 L14.072155,5.00037272 C14.7483953,5.00037272 15.3796046,5.04286247 15.9556899,5.13231457 C16.1202857,5.15765934 16.2802231,5.18673127 16.4362785,5.21953038 C16.5915576,5.25307492 16.7429546,5.29034663 16.8896933,5.33134551 C16.9626745,5.35221767 17.0348792,5.37383526 17.1055312,5.39545285 C17.3889155,5.48565039 17.6521135,5.59224748 17.8951252,5.71524413 C18.1808386,3.96571003 17.892796,2.77450615 16.9075504,1.69586284 C15.8213735,0.508386135 13.8609755,0 11.3524425,0 L4.06985516,0 C3.55743431,0 3.12032379,0.357808423 3.04113147,0.844576966 L0.00775527524,19.3052553 C-0.0520271581,19.6705181 0.241450242,20 0.62498949,20 L5.12109432,20 L6.24997299,13.1233694 L7.46425514,5.73909802 Z" id="Shape" fill="#253B80"></path>
                </g>
            </g>
        </g>
    </g>
</svg>