<?xml version="1.0" encoding="UTF-8"?>
<svg width="51px" height="40px" viewBox="0 0 51 40" version="1.1" xmlns="http://www.w3.org/2000/svg" xmlns:xlink="http://www.w3.org/1999/xlink">
    <!-- Generator: Sketch 49.1 (51147) - http://www.bohemiancoding.com/sketch -->
    <title>Mastercard</title>
    <desc>Created with Sketch.</desc>
    <defs></defs>
    <g id="Symbols" stroke="none" stroke-width="1" fill="none" fill-rule="evenodd">
        <g id="Footer" transform="translate(-1571.000000, -322.000000)">
            <g id="Group" transform="translate(1279.000000, 315.000000)">
                <g id="Mastercard" transform="translate(285.000000, 0.000000)">
                    <rect id="Rectangle-path" x="0" y="0" width="64" height="53"></rect>
                    <path d="M15.6602737,46.7841726 L15.6602737,44.1942446 C15.6913521,43.7536094 15.5279521,43.3211407 15.2117601,43.0071692 C14.8955682,42.6931977 14.4571613,42.5280859 14.0083853,42.5539568 C13.4169715,42.5158624 12.8513294,42.7970491 12.5322296,43.2877698 C12.2413021,42.8116803 11.7086043,42.5301103 11.1439404,42.5539568 C10.6522915,42.5295368 10.1842466,42.7627545 9.91381064,43.1669065 L9.91381064,42.6575539 L9,42.6575539 L9,46.7841726 L9.92259728,46.7841726 L9.92259728,44.513669 C9.88286338,44.2279526 9.97499978,43.9397225 10.1738632,43.7276343 C10.3727267,43.5155462 10.6575599,43.4017376 10.9506343,43.4172662 C11.5569125,43.4172662 11.8644449,43.8057554 11.8644449,44.5050359 L11.8644449,46.8014388 L12.7870422,46.8014388 L12.7870422,44.513669 C12.7489387,44.2282775 12.8416385,43.9409813 13.0401333,43.7292864 C13.238628,43.5175914 13.5224678,43.4033076 13.8150792,43.4172662 C14.4389307,43.4172662 14.7376764,43.8057554 14.7376764,44.5050359 L14.7376764,46.8014388 L15.6602737,46.7841726 Z M29.3103202,42.6575539 L27.8078046,42.6575539 L27.8078046,41.4057554 L26.8852073,41.4057554 L26.8852073,42.6575539 L26.0504765,42.6575539 L26.0504765,43.4776978 L26.9027806,43.4776978 L26.9027806,45.3769784 C26.9027806,46.3352517 27.2806062,46.9050359 28.361363,46.9050359 C28.7651349,46.9063685 29.1610825,46.7956451 29.5036263,46.5856115 L29.2400271,45.8172661 C28.9949691,45.9608818 28.7168401,46.0410802 28.4316561,46.0503597 C27.9923241,46.0503597 27.8253779,45.7741007 27.8253779,45.3597122 L27.8253779,43.4776978 L29.3191068,43.4776978 L29.3103202,42.6575539 Z M37.1040706,42.5539568 C36.6502043,42.540842 36.225399,42.7727208 35.9969538,43.1582734 L35.9969538,42.6575539 L35.0919298,42.6575539 L35.0919298,46.7841726 L36.0057405,46.7841726 L36.0057405,44.4705036 C36.0057405,43.7884892 36.3044863,43.4086331 36.8844046,43.4086331 C37.0798564,43.4060063 37.2739229,43.4412078 37.4555362,43.5122302 L37.7367087,42.6489208 C37.5280137,42.5755672 37.3081425,42.5376161 37.0864973,42.5366906 L37.1040706,42.5539568 Z M25.3211853,42.9856115 C24.8039267,42.6834433 24.2092139,42.5336176 23.6077903,42.5539568 C22.5446068,42.5539568 21.8504622,43.0546762 21.8504622,43.8748201 C21.8504622,44.5482014 22.3600873,44.9625899 23.3002579,45.0920863 L23.7395899,45.1525179 C24.2404285,45.2215827 24.4776678,45.3510791 24.4776678,45.5841726 C24.4776678,45.9035971 24.1437754,46.084892 23.5199239,46.084892 C23.0181199,46.0991635 22.5260245,45.9471207 22.122848,45.6532374 L21.683516,46.3525179 C22.2158168,46.7176937 22.8533789,46.9053173 23.5023506,46.8877697 C24.7149071,46.8877697 25.4178383,46.3266186 25.4178383,45.5410071 C25.4178383,44.7553956 24.86428,44.4359712 23.9504693,44.3064748 L23.5111373,44.2460431 C23.1157384,44.1942446 22.7994194,44.1165467 22.7994194,43.8402877 C22.7994194,43.5640287 23.0981652,43.3568345 23.5990037,43.3568345 C24.0619171,43.362118 24.5157121,43.4839877 24.9169998,43.7107913 L25.3211853,42.9856115 Z M49.7963732,42.5539568 C49.3425069,42.540842 48.9177017,42.7727208 48.6892565,43.1582734 L48.6892565,42.6575539 L47.7842325,42.6575539 L47.7842325,46.7841726 L48.6980431,46.7841726 L48.6980431,44.4705036 C48.6980431,43.7884892 48.9967889,43.4086331 49.5767072,43.4086331 C49.7721591,43.4060063 49.9662256,43.4412078 50.1478389,43.5122302 L50.4290114,42.6489208 C50.2203163,42.5755672 50.0004451,42.5376161 49.7787999,42.5366906 L49.7963732,42.5539568 Z M38.0222746,44.7122302 C38.0002982,45.2986049 38.2308276,45.8669334 38.6572779,46.2777159 C39.0837283,46.6884983 39.6666161,46.9037019 40.262868,46.8705035 C40.8115403,46.8979308 41.3507569,46.7223596 41.7741702,46.3784172 L41.3348381,45.6532374 C41.0189456,45.8899184 40.6337445,46.020112 40.236508,46.0244604 C39.5360813,45.9687783 38.9965322,45.3940328 38.9965322,44.7035971 C38.9965322,44.0131614 39.5360813,43.4384158 40.236508,43.3827338 C40.6337445,43.3870822 41.0189456,43.5172758 41.3348381,43.7539568 L41.7741702,43.028777 C41.3507569,42.6848345 40.8115403,42.5092634 40.262868,42.5366906 C39.6666161,42.5034923 39.0837283,42.7186959 38.6572779,43.1294783 C38.2308276,43.5402607 38.0002982,44.1085892 38.0222746,44.694964 L38.0222746,44.7122302 Z M46.5804627,44.7122302 L46.5804627,42.6575539 L45.666652,42.6575539 L45.666652,43.1582734 C45.3518282,42.7602662 44.861346,42.5353744 44.3486559,42.5539568 C43.135474,42.5539568 42.1519957,43.5202487 42.1519957,44.7122302 C42.1519957,45.9042116 43.135474,46.8705035 44.3486559,46.8705035 C44.861346,46.8890859 45.3518282,46.6641942 45.666652,46.266187 L45.666652,46.7669064 L46.5804627,46.7669064 L46.5804627,44.7122302 Z M43.1800327,44.7122302 C43.2206687,44.034821 43.804957,43.513572 44.4951251,43.5390241 C45.1852931,43.5644762 45.7281683,44.1272929 45.7170065,44.8057891 C45.7058447,45.4842853 45.1447404,46.0295698 44.4540956,46.0330935 C44.1024275,46.0374654 43.7648822,45.8973285 43.5229587,45.6465184 C43.2810352,45.3957083 43.1567215,45.0570206 43.1800327,44.7122302 Z M32.1527985,42.5539568 C30.9396166,42.5706446 29.969907,43.5504645 29.9868915,44.742446 C30.0038761,45.9344275 31.0011231,46.8871913 32.214305,46.8705035 C32.8463893,46.9023808 33.4679853,46.7023924 33.9584532,46.3093525 L33.5191211,45.6446043 C33.1722079,45.917962 32.7424268,46.0698578 32.2977781,46.0762589 C31.6696942,46.1293309 31.1127152,45.6815844 31.0412884,45.066187 L34.1605459,45.066187 C34.1605459,44.9539568 34.1605459,44.8417266 34.1605459,44.7208633 C34.1605459,43.4258993 33.3433883,42.5625899 32.1659785,42.5625899 L32.1527985,42.5539568 Z M32.1527985,43.3568345 C32.4289639,43.3510496 32.6961512,43.4533222 32.8955504,43.6411412 C33.0949496,43.8289602 33.2102172,44.0869314 33.215982,44.3582733 L31.0193218,44.3582733 C31.052416,43.7819381 31.5480484,43.3371456 32.1352252,43.3568345 L32.1527985,43.3568345 Z M55.0463911,44.7208633 L55.0463911,41 L54.167727,41 L54.167727,43.1582734 C53.8529031,42.7602662 53.362421,42.5353744 52.8497309,42.5539568 C51.636549,42.5539568 50.6530707,43.5202487 50.6530707,44.7122302 C50.6530707,45.9042116 51.636549,46.8705035 52.8497309,46.8705035 C53.362421,46.8890859 53.8529031,46.6641942 54.167727,46.266187 L54.167727,46.7669064 L55.0463911,46.7669064 L55.0463911,44.7208633 Z M56.5708733,46.1841726 C56.6279921,46.183485 56.6846992,46.1937485 56.7378194,46.2143884 C56.7882735,46.2346175 56.8344569,46.2638926 56.8740124,46.3007194 C56.9126161,46.3379372 56.9438937,46.3818386 56.9662721,46.4302158 C57.0112426,46.5321067 57.0112426,46.6477493 56.9662721,46.7496402 C56.9438937,46.7980173 56.9126161,46.8419188 56.8740124,46.8791366 C56.8344569,46.9159634 56.7882735,46.9452385 56.7378194,46.9654676 C56.6852236,46.9882698 56.6283617,47.0000316 56.5708733,46.9999999 C56.4008736,46.998741 56.2468715,46.9012295 56.1754744,46.7496402 C56.1310246,46.6476438 56.1310246,46.5322122 56.1754744,46.4302158 C56.1978528,46.3818386 56.2291304,46.3379372 56.2677342,46.3007194 C56.3072896,46.2638926 56.353473,46.2346175 56.4039271,46.2143884 C56.4611501,46.1920237 56.5225194,46.1817291 56.5840532,46.1841726 L56.5708733,46.1841726 Z M56.5708733,46.913669 C56.6147228,46.9139307 56.6581357,46.9051057 56.6982796,46.8877697 C56.7360781,46.8711888 56.7703583,46.8477584 56.7993259,46.818705 C56.9132434,46.6965868 56.9132434,46.5091685 56.7993259,46.3870503 C56.7704273,46.3579167 56.7361306,46.334475 56.6982796,46.3179856 C56.6580961,46.3007718 56.6147098,46.2919522 56.5708733,46.2920863 C56.5270746,46.2923137 56.4837617,46.3011184 56.443467,46.3179856 C56.403995,46.3338877 56.3681488,46.3573676 56.3380273,46.3870503 C56.2241098,46.5091685 56.2241098,46.6965868 56.3380273,46.818705 C56.3682228,46.848299 56.4040499,46.8717663 56.443467,46.8877697 C56.4877911,46.9065501 56.5358154,46.9153973 56.5840532,46.913669 L56.5708733,46.913669 Z M56.5972332,46.3999999 C56.6382454,46.3980458 56.6786594,46.4102636 56.7114595,46.4345323 C56.7387431,46.4567176 56.7534647,46.4904678 56.7509994,46.5251798 C56.7522748,46.5541677 56.7411191,46.5823525 56.7202462,46.6028776 C56.6947817,46.6256025 56.6622968,46.6392813 56.6279864,46.6417266 L56.7553927,46.7841726 L56.6543464,46.7841726 L56.5357267,46.6417266 L56.4961868,46.6417266 L56.4961868,46.7841726 L56.4127137,46.7841726 L56.4127137,46.4043165 L56.5972332,46.3999999 Z M56.5005801,46.4733812 L56.5005801,46.5769784 L56.5972332,46.5769784 C56.6144324,46.5820166 56.6327538,46.5820166 56.649953,46.5769784 C56.6562192,46.5647605 56.6562192,46.5503473 56.649953,46.5381294 C56.6562192,46.5259116 56.6562192,46.5114984 56.649953,46.4992805 C56.6327538,46.4942423 56.6144324,46.4942423 56.5972332,46.4992805 L56.5005801,46.4733812 Z M51.6679277,44.7208633 C51.7085637,44.043454 52.292852,43.5222051 52.9830201,43.5476572 C53.6731881,43.5731093 54.2160633,44.135926 54.2049015,44.8144222 C54.1937397,45.4929184 53.6326354,46.0382029 52.9419906,46.0417266 C52.5903225,46.0460985 52.2527772,45.9059616 52.0108537,45.6551515 C51.7689302,45.4043414 51.6446165,45.0656537 51.6679277,44.7208633 Z M20.8136386,44.7208633 L20.8136386,42.6575539 L19.8998279,42.6575539 L19.8998279,43.1582734 C19.585004,42.7602662 19.0945219,42.5353744 18.5818318,42.5539568 C17.3686499,42.5539568 16.3851716,43.5202487 16.3851716,44.7122302 C16.3851716,45.9042116 17.3686499,46.8705035 18.5818318,46.8705035 C19.0945219,46.8890859 19.585004,46.6641942 19.8998279,46.266187 L19.8998279,46.7669064 L20.8136386,46.7669064 L20.8136386,44.7208633 Z M17.4132086,44.7208633 C17.4538446,44.043454 18.0381329,43.5222051 18.7283009,43.5476572 C19.418469,43.5731093 19.9613442,44.135926 19.9501824,44.8144222 C19.9390206,45.4929184 19.3779162,46.0382029 18.6872715,46.0417266 C18.3340878,46.0485391 17.9941926,45.9094706 17.7503206,45.6583721 C17.5064486,45.4072736 17.3809679,45.067176 17.4044219,44.7208633 L17.4132086,44.7208633 Z" id="Shape" fill="#231F20" fill-rule="nonzero"></path>
                    <g id="_Group_" transform="translate(7.000000, 7.000000)" fill-rule="nonzero">
                        <rect id="Rectangle-path" fill="#FF5F00" x="18.5910256" y="3.44109589" width="13.7307692" height="24.8153425"></rect>
                        <path d="M19.4628205,15.8509589 C19.4576868,11.0077774 21.6679576,6.43136186 25.4564103,3.44109589 C19.0224727,-1.64381292 9.78308037,-0.903151977 4.23142985,5.14256211 C-1.32022067,11.1882762 -1.32022067,20.5092581 4.23142985,26.5549721 C9.78308037,32.6006862 19.0224727,33.3413472 25.4564103,28.2564384 C21.6691628,25.2671217 19.459027,20.6926021 19.4628205,15.8509589 Z" id="_Path_" fill="#EB001B"></path>
                        <path d="M50.8474359,15.8509589 C50.8472958,21.8929887 47.4166706,27.4045591 42.01256,30.044885 C36.6084494,32.6852109 30.1796161,31.9907484 25.4564103,28.2564384 C29.2420052,25.2645838 31.4523073,20.6906724 31.4523073,15.8487671 C31.4523073,11.0068618 29.2420052,6.43295043 25.4564103,3.44109589 C30.1796161,-0.29321417 36.6084494,-0.987676679 42.01256,1.65264926 C47.4166706,4.29297519 50.8472958,9.80454559 50.8474359,15.8465753 L50.8474359,15.8509589 Z" id="Shape" fill="#F79E1B"></path>
                        <path d="M49.3479487,25.6263014 L49.3479487,25.1178082 L49.5528205,25.1178082 L49.5528205,25.0126027 L49.0341026,25.0126027 L49.0341026,25.1178082 L49.2564103,25.1178082 L49.2564103,25.6263014 L49.3479487,25.6263014 Z M50.3548718,25.6263014 L50.3548718,25.0126027 L50.1979487,25.0126027 L50.0148718,25.4509589 L49.8317949,25.0126027 L49.6923077,25.0126027 L49.6923077,25.6263014 L49.805641,25.6263014 L49.805641,25.1660274 L49.975641,25.5649315 L50.0933333,25.5649315 L50.2633333,25.1660274 L50.2633333,25.6306849 L50.3548718,25.6263014 Z" id="Shape" fill="#F79E1B"></path>
                    </g>
                </g>
            </g>
        </g>
    </g>
</svg>