<?xml version="1.0" encoding="UTF-8"?>
<svg width="24px" height="24px" viewBox="0 0 24 24" version="1.1" xmlns="http://www.w3.org/2000/svg" xmlns:xlink="http://www.w3.org/1999/xlink">
    <!-- Generator: Sketch 49.1 (51147) - http://www.bohemiancoding.com/sketch -->
    <title>Fill Form</title>
    <desc>Created with Sketch.</desc>
    <defs></defs>
    <g id="Fill-Form" stroke="none" stroke-width="1" fill="none" fill-rule="evenodd">
        <path d="M16.9411765,5.36470588 L12.4235294,5.36470588 L12.4235294,0.311152941 L16.9411765,5.34127059 L16.9411765,5.36470588 Z M16.9411765,21.6609882 C16.9411765,22.4416941 16.2175059,23.1529412 15.4232471,23.1529412 L1.70061176,23.1529412 C0.932047059,23.1529412 0.282352941,22.4696471 0.282352941,21.6609882 L0.282352941,1.70061176 C0.282352941,0.918494118 0.918776471,0.282352941 1.70061176,0.282352941 L12.1411765,0.282352941 L12.1411765,5.64705882 L12.4235294,5.64705882 L16.9411765,5.64705882 L16.9411765,21.6609882 Z M1.70061176,0 C0.762917647,0 0,0.762917647 0,1.70061176 L0,21.6609882 C0,22.6226824 0.779011765,23.4352941 1.70061176,23.4352941 L15.4232471,23.4352941 C16.3654588,23.4352941 17.2235294,22.5896471 17.2235294,21.6609882 L17.2235294,5.23312941 L12.5234824,0 L1.70061176,0 Z M22.5882353,17.9183718 C22.5882353,18.7818071 21.7603765,20.8940894 21.0372706,20.8940894 L20.4135529,20.8940894 C19.7000471,20.8940894 18.9176471,18.8052424 18.9176471,17.9183718 L18.9176471,7.05879529 L22.5882353,7.05879529 L22.5882353,17.9183718 Z M18.9176471,6.06688941 C18.9176471,5.27065412 19.6444235,4.51761882 20.4135529,4.51761882 L21.0372706,4.51761882 C21.8199529,4.51761882 22.5882353,5.28505412 22.5882353,6.06688941 L22.5882353,6.77644235 L18.9176471,6.77644235 L18.9176471,6.06688941 Z M22.8705882,6.77644235 L22.8705882,6.06688941 C22.8705882,5.12524235 21.9797647,4.23526588 21.0372706,4.23526588 L20.4135529,4.23526588 C19.4829176,4.23526588 18.6352941,5.10830118 18.6352941,6.06688941 L18.6352941,6.77644235 L18.6352941,7.05879529 L18.6352941,17.9183718 C18.6352941,18.8365835 19.4239059,21.1764424 20.4135529,21.1764424 L20.6117647,21.1764424 L20.6117647,22.3058541 L20.8941176,22.3058541 L20.8941176,21.1764424 L21.0372706,21.1764424 C22.0379294,21.1764424 22.8705882,18.8108894 22.8705882,17.9183718 L22.8705882,7.05879529 L23.7176471,7.05879529 L23.7176471,12.1411482 L24,12.1411482 L24,7.05879529 L24,6.77644235 L22.8705882,6.77644235 Z M2.82352941,14.4 L13.8352941,14.4 L13.8352941,14.1176471 L2.82352941,14.1176471 L2.82352941,14.4 Z M2.82352941,11.5764706 L13.8352941,11.5764706 L13.8352941,11.2941176 L2.82352941,11.2941176 L2.82352941,11.5764706 Z M2.82352941,9.31764706 L13.8352941,9.31764706 L13.8352941,9.03529412 L2.82352941,9.03529412 L2.82352941,9.31764706 Z M2.82352941,16.9411765 L9.03529412,16.9411765 L9.03529412,16.6588235 L2.82352941,16.6588235 L2.82352941,16.9411765 Z M9.03529412,4.8 L2.82352941,4.8 L2.82352941,5.08235294 L9.03529412,5.08235294 L9.03529412,4.8 Z" stroke="#fa8231" stroke-width="0.2" fill="#fa8231"></path>
    </g>
</svg>
